<?xml version="1.0" encoding="UTF-8"?>
<svg id="Layer_1" data-name="Layer 1" xmlns="http://www.w3.org/2000/svg" viewBox="0 0 539.84 690.39">
  <defs>
    <style>
      .cls-1 {
        fill: #030302;
      }

      .cls-2 {
        fill: #3aaef1;
      }

      .cls-3 {
        fill: #553c36;
      }

      .cls-4 {
        fill: #f1c9a7;
      }

      .cls-5 {
        fill: #7a574e;
      }

      .cls-6 {
        fill: #050404;
      }

      .cls-7 {
        fill: #db9064;
      }

      .cls-8 {
        fill: #402d2a;
      }

      .cls-9 {
        fill: #9e6446;
      }

      .cls-10 {
        fill: #c57b52;
      }

      .cls-11 {
        fill: #35a9eb;
      }

      .cls-12 {
        fill: #4e4e53;
      }

      .cls-13 {
        fill: #f75f2b;
      }

      .cls-14 {
        fill: #fefefe;
      }
    </style>
  </defs>
  <path class="cls-1" d="m96,592.11c.27-1.9.54-3.8.81-5.7.09-1.63.19-3.26.28-4.89,1.04-.2,1.9-.46.69-1.62.04-.82.08-1.63.12-2.45.98-.18,1.89-.4.77-1.6.2-1.91.4-3.82.6-5.74.63-1.63,1.25-3.26,1.88-4.89,1.03-.19,1.92-.44.72-1.62.88-2.95,1.32-6.14,2.76-8.78,1.92-3.52.73-5.24-2.41-6.58-3.11-2.52-6.21-5.04-9.32-7.56-1.34-1.34-2.68-2.68-4.02-4.02-.91-1.01-1.01-2.6-2.38-3.28-1.64-2.44-3.28-4.88-4.91-7.32-1.71-3.51-3.41-7.03-5.12-10.54-.96-.89-.24-2.5-1.41-3.3-.89-3.79-1.77-7.58-2.66-11.37-1.31-3.95-.03-8.34-2.2-12.37-9.06,6.06-12.98,14.86-13.03,25.23-.03,5.97,2.67,11.5,5.83,16.62.66,1.82,1.23,3.68,2.91,4.9.78,2.52,2.5,4.41,4.15,6.36,1.94,2.86,3.7,5.87,6.3,8.23.03,1.24.89,1.92,1.76,2.59,1.79,4.94.84,6.84-4.2,7.9-2.83.59-1.43,2.64-1.14,3.75,1.71,6.57,3.2,13.13,3.02,20-.15,5.63-2.14,7.25-7.35,5.52-1.55-1.31-1.91-4.57-3.92-4.26-1.57.24-1.59,3.22-1.92,5.12-4.66,11.32-12.13,20.03-24.11,23.61-12.76,3.81-24.94,1.81-36.11-5.63-2.38-2.37-3.22-5.01-1.47-8.12,7.45-8.13,12.98-17.18,13.64-28.55.03-.27.06-.54.09-.81.48-.31.91-.86.29-1.17-.88-.44-.97.45-1.12,1.06-.2.22-.41.43-.61.65-6.36,2.32-7.49,1.39-7.58-6.24.27-1.09.54-2.17.81-3.26l6.77-15.5c.22-.26.43-.51.65-.77.51-1.64,1.02-3.28,1.53-4.93.36-.54.72-1.09,1.08-1.63.2-.29.41-.58.61-.87-.18-1.2.29-2.18,1.03-3.07,1.82-.59,1.34-2.13,1.42-3.44-.04-.53-.07-1.07-.11-1.6,1.65-3.34,2.72-6.88,3.52-10.51.74-1.29,1.54-2.57,1.37-4.17l.27.09c1.66-.38,1.84-1.26.85-2.53l-.28.08c.63-2.18,1.25-4.37,1.88-6.55,1.85-.47,1.62-1.64.99-2.95.49-2.38,1.09-4.71,2.3-6.84.2-.29.41-.59.61-.88,4.2-11.57,10.97-21.23,21.07-28.42.31-.21.62-.42.93-.63.5-.33,1-.67,1.51-1,.31-.21.62-.41.94-.62,5.03-3.1,10.48-5.04,16.31-5.91,1.29,1.24,1.47.23,1.63-.8-.09-2.86,1.1-5.45,1.76-8.16,1.05-.2,1.91-.48.68-1.63-.4-1.52.9-2.65.95-4.07,1.43-.33,1.61-1.15.9-2.31-.13-1.89.82-3.44,1.61-5.04.2-.29.39-.58.59-.86-.19-1.24.31-2.25,1.02-3.21.21-.26.43-.53.64-.79,3.26-9.67,8.69-18.2,13.94-26.85,9.84-16.23,21.59-30.9,34.94-44.36,6.67-6.72,13.35-13.42,20.76-19.32,3.3-2.63,5.37-5.53,4.52-9.95-.14-.74.2-1.57.32-2.36,1.07-6.9,4.34-12.91,7.86-18.85-7.34-1.61-8.92-5-5.5-11.62,1.27-2.46,2.63-4.85,4.41-7.02,3.34-4.08,6.52-8.3,10.14-12.95h-8.33c-.31-.21-.63-.42-.94-.63-2.95.17-5.32-.99-6.77-3.52-1.45-2.54-.08-4.55,1.6-6.49,3.41-3.95,6.66-8.04,10.09-11.97,9.48-10.86,16.29-23.84,26.85-33.82.93-.88.96-1.85,1.08-2.9,2.16-.74,1.82-1.93.6-3.29-.3-6.41,2.02-12.44,2.67-18.72.22-.28.44-.57.66-.85,4.36-19.73,15.3-35.42,29.94-48.83,1.84-1.68,4.58-2.76,5.66-4.79,1.33-2.49-1.41-4.81-2.11-7.29-4.65-16.49-8.33-33.12-7.92-50.42.2-8.4-.71-16.88.67-25.19,1.87-11.22,4.19-22.37,8.9-32.86,3.99-8.9,8.82-17.21,15.65-24.31,5.22-5.43,13.1-3.98,15.19,3.39.64,2.27,1.73,4.36,3.08,6.31,2.65,7.66,6.71,14.64,10.42,21.79,4.72,8.48,9.5,16.93,14.16,25.45,8.8,16.09,15.62,32.98,19.52,50.94.58,2.67,1.11,2.5,3,1.16,2.19-1.56,4.5-3.22,7.02-4.02,6.53-2.07,11.42-1.75,10.46,6.24-.07.59-.24,1.36.59,1.79,3.09-1.24,6.19-2.56,9.34-3.73,8.7-3.24,17.58-4.84,26.85-2.76,2.54.57,4.66,1.86,5.23,4.35.54,2.34-1.51,3.76-3.17,5.04-2.84,2.19-5.8,4.23-8.61,6.46-.73.58-2.21,1.12-1.53,2.46.5.97,1.72.39,2.6.42,7.09.3,14.27-.82,21.24,1.59,2,.69,3.87-.14,5.3-1.95,6.93-8.76,15.51-15.74,24.34-22.45.29-.19.57-.37.86-.56.5-.34,1.01-.69,1.51-1.03.31-.21.63-.42.94-.62.5-.34,1.01-.67,1.51-1.01.31-.21.62-.41.93-.62.5-.34,1.01-.68,1.51-1.01.31-.2.62-.41.93-.61.53-.35,1.06-.7,1.59-1.05.28-.17.57-.34.85-.52l4.83-2.75c.29-.18.58-.36.87-.54.28-.08.56-.16.83-.25.27-.2.53-.4.8-.6,7.57-3.87,15.13-7.74,22.7-11.61.31-.19.61-.38.92-.57.28-.08.56-.17.84-.25.26-.2.53-.41.79-.61,12.09-6.89,23.97-14.11,33.91-24,3.56-3.54,7.19-6.37,12.54-5.71.53.36,1.06.72,1.6,1.08.54.56,1.07,1.12,1.61,1.67,0,3.93.52,7.94-.11,11.77-2.08,12.72-5.36,25.17-10.58,36.98-7.83,17.74-18,34.09-31.32,48.23-12.5,13.28-26.31,25.06-42.69,33.47-.62-.29-.75.18-.92.59-2.39.84-3.42,2.32-3.2,5.05.31,4,.13,8.05.15,12.08-1.5,4.01-1.94,8.36-3.99,12.19-2.34,2.31.06,4.16.73,6.05,3.38,9.43,4.59,19.26,5.57,29.14.12,1.26-.05,2.16,1.81,2.34,6.33.63,12.64,1.53,18.95,2.38,9.67,1.31,16.11,7.29,18.41,16.8,1.48,6.14,1.62,12.18.97,18.53-1.14,11.2-4.68,21.46-10.34,30.95-3.97,6.66-8.7,12.91-16.82,15.21-.94.27-1.74.9-1.45,2.06,1.04,4.19,2.14,8.37,3.21,12.55-1.2,1.11-1.2,2.21.04,3.3.19,10.38-1.81,20.38-5.21,30.14-.19.26-.38.53-.57.79-.08.27-.15.54-.23.81-1.47.15-1.41,1.23-1.4,2.29-3.66,5.82-7.93,11.06-13.89,14.71-.76.42-1.96-.36-2.42.89-3.11.94-6.06,2.51-9.42,2.53-1.28,0-1.89,1.11-2.52,1.85-11.73,14.04-26.95,20.5-45,20.89-3.27.07-6.55,0-9.82,0,1.2,1.35,2.51,1.95,3.69,2.75,8.56,5.73,18.34,8.12,28.26,9.33,8.37,1.02,16.82-.55,25.17-1.8,3.78-.57,7.96-1.89,11.2.83,2.43,2.04,4.56,2.04,7.34,1.62,5.43-.81,10.92-1.01,16.35.19,1.09,0,2.17,0,3.26,0,.96.76,1.99,1.26,3.26.81,2.62,1.39,5.14,3.03,7.87,4.12,13.66,5.46,21.16,16.12,25.65,29.55.54,1.61.56,3.1.72,4.67-.01.52-.02,1.04-.03,1.56-.51-.07-1.02-.14-1.54-.21-1.73-1.31-4.14-1.31-5.68-2.97-2-6.38-4.92-12.27-9.61-17.11-9.78-10.1-21.6-14.92-35.79-13.86-6.53.49-12.83,1.15-17.36,6.65-1.34-.66-1.99-1.81-2.7-3.1-.86-1.54-1.25-.33-1.45.62-2.08-.3-4.25,2.09-6.16.14-1.71-1.76.91-3.06,1.05-4.67-.72-.67-1.57-.43-2.32-.33-8.14,1.04-16.26,1.11-24.4-.1-14.33-2.13-26.99-7.89-37.74-17.53-6.85-6.14-13.32-12.72-19.96-19.1-3.6-5.68-7.21-11.36-10.81-17.04,1.36,10.17,1.67,20.13,1.96,30.08-1.38,8.1-1.65,16.42-4.68,24.17-1.28,3.27.16,4.17,3.01,4.19,6.21.04,12.42.04,18.62.06,3.09.25,4.67,2.4,5.99,4.82.51.93.71,1.7,2.16,1.88,4.62.56,9.21,1.24,13.78,2.29,14.77,3.42,27.3,9.94,34.96,23.73,1.13,2.85,2.25,5.71,3.38,8.56-.17,2.11.56,3.76,2.74,4.22,1.94.42,4.44,1.01,5.77-.31,1.3-1.29-.87-3.07-1.2-4.73-.1-.52-.26-1.04-.39-1.55,1.15-.43,2.3-.85,3.45-1.28,3.86,4.43,7.63,8.96,11.61,13.28,6.42,6.97,13.98,12.09,23.54,13.72.58.27,1.15.54,1.73.81.52.73,1.05.74,1.59.01.27-.07.55-.14.82-.21,4.71.04,9.4.36,14.09-.73,6.77-1.57,12.73-4.9,17.5-9.61,4.37-4.32,5.96-10.51,7.5-16.44.51.07,1.02.14,1.54.2,1.69,1.04,3.37,2.08,5.06,3.11-.03.24-.08.48-.13.71-.63.19-.59.73-.74,1.24-4.55,15.26-14.34,25.14-30.13,28.18-14.29,2.75-27.72.4-39.71-8.33-1.42-1.09-2.83-2.19-4.25-3.28-4.89-6.03-11.96-6.19-18.79-7.02-.51-.11-.77.02-.55.59-.94,6.85-3.17,13.3-6.02,19.56-2.42,2.99-4.84,5.99-7.26,8.98-11.27,9.62-24.61,10.81-38.62,9.78-6.61-.49-12.66-3.22-19.14-4.1-.53-1.05-1.04-1.21-1.53.03-2.75,6.51-5.41,13.07-9.2,19.07-.68,1.07-1.21,2.02.13,2.62,2.51,1.13,4.21,3.62,7.07,4.11,2.54,1.26,1.02,4.5,3.19,6.16,7.89,6.06,13.46,14.04,17.11,23.15,2.76,6.87,4.8,14.14.2,21.27-7.49,4.42-16.01,4.68-24.27,5.86-4.6.66-9.3.63-13.95.92-2.99,0-5.97-.02-8.96-.03-4.86-.82-9.83.68-14.66-.7-.81,0-1.63-.01-2.44-.02-7.83-.41-15.54-1.72-23.19-3.38-4.49-.98-7.91-3.37-10.21-7.35-.24-1.25-.62-2.42-1.61-3.3-.87-2.7-1.74-5.4-2.61-8.11-.32-5.45-4.38-9.19-6.35-13.89.11-3.19.36-6.37.62-9.55.64-7.96-.83-12.22-10.65-13.2-1.82-.18-3.64-.45-5.46-.68-3.6-.06-6.92-1.99-10.59-1.59-3.48-.66-6.31-.47-7.65,3.75-.75,2.37-2.52,4.43-3.83,6.62-1.52,2.16.32,2.24,1.64,2.64,4.85,3.87,6.81,9.85,10.57,14.53,1.44,1.8,2.88,3.6,4.32,5.4,2.37,4.75,4.75,9.49,7.12,14.24.41,1.64.87,3.26,1.22,4.91,1.37,6.48,2.78,12.98-2.23,18.71-2.78,1.5-5.51,3.04-8.55,4.03-13.73,4.46-27.91,4.65-42.13,4.73-7.24.04-14.36-1.16-21.55-1.61-3.1-1.47-6.58-1.28-9.8-2.24-.81-.32-1.62-.63-2.44-.95-.06-.48-.24-.81-.81-.66-1.62-.35-3.25-.7-4.87-1.04-1.64-.73-3.28-1.47-4.91-2.2-7.08-1.63-11.5-6.63-12.17-13.13-.1-1.02-.55-1.73-1-2.52-.42-2.44-.42-4.89,0-7.33.97-2.98,2.28-5.62-1.36-8.29-2.17-1.59-2.17-5.17-2.71-8,0-.54,0-1.09,0-1.63Zm100.65-358.5c.29-.47.2-.55-.27-.26-.32.34-.65.67-.97,1.01-10.31,11.1-17.91,24.35-28.19,35.49-1.89,2.05.83.91,1.44,1.22,2.83,1.42,5.99,1.12,8.99,1.67,4.48.83,6.1,4.34,3.58,8.07-1.13,1.67-2.5,3.19-3.74,4.79-3.72,4.81-7.66,9.46-10.45,14.92-.33.65-1.1,1.46-.12,2.1.59.39,1.28-.02,1.86-.44,1.53-1.1,3.03-2.28,4.65-3.24,1.66-.99,3.64-1.84,5.21-.15,1.51,1.62.25,3.34-.72,4.79-2.4,3.6-5,7.07-7.33,10.71-2.63,4.11-4.87,8.42-6.14,13.18-.19.72-1.03,1.51-.02,2.11.79.47,1.57.03,2.16-.61.46-.49.87-1.03,1.3-1.55,11.16-8.97,19.82-20.03,27.09-32.28,3.07-5.19,3.01-6.25-.92-11.01-.91-2.97-2-5.9-2.68-8.92-1.26-5.62-3.16-11.21-1.6-17.11,1.85.1,2.5,1.21,2.51,2.92,0,1.16-.26,2.52,1.48,2.78.79,5.22,2.35,10.18,5.14,14.68,5.49,8.88,14.59,12.01,24.43,8.48,9.73-3.26,14.7-10.67,17.47-20l.32-.84.21-8.87c.09-.07.26-.17.25-.22-.04-.19-.15-.37-.23-.55-1.41-5.15-2.49-10.47-5.65-14.9-8.16-11.45-8.34-24.43-6.5-37.38,1.8-12.7,7.03-24.34,15.21-34.33,2.73-3.33,2.54-5.82.08-8.77-.1-.39-.14-.81-.3-1.17-4.54-10.38-4.59-10.42-12.81-2.32-19.31,19.05-26.97,42.8-27.68,69.29-.07,2.59-.44,5.01-1.15,7.54-1.68,6.04-5.26,11.22-7.14,17.13-1.92.47-2.96-1.61-4.71-1.63-.09-.3-.19-.59-.28-.89,1.27-4.96,4.66-9.12,5.43-14.27.27-.39.54-.78.81-1.18Zm-28.01,339.76c-.26-.11-.52-.14-.8-.09-1.38-.49-2.73-1.16-4.15-1.45-7.94-1.59-15.96-2.02-24.04-1.78-1.33.04-2.9.6-4.21-.87.54-.44.89-.92,1.35-1.06,8.65-2.59,17.43-3.55,26.39-1.93,3.15.57,6.32,1.06,9.48,1.59,3.75,3.38,5.21,3.28,7.74-.79,1.98-3.19,3.69-6.54,5.66-9.72,9.64-15.59,16.69-31.86,13.66-50.85-2.44-15.29-10-27-23.85-34.36-7.83-5.07-16.7-6.56-25.73-6.97-15.8-.72-30.3,3.62-43.72,11.92-1.26.78-2.64,2.65-4.59,1.06-.18-2.69,1.99-3.82,3.63-5.14,7.38-5.95,15.88-9.63,25.02-11.93,1.19-.2,2.81.49,3.13-1.52.8.18,1.59.35,2.38.53.94,1.3,1.41.78,1.69-.44,5.25-.76,10.48-1.16,15.8-.47,5.45.71,10.8,1.85,16.09,3.3,3.46,1.69,7.02,3.19,10.35,5.11,16.88,9.69,25.45,24.58,26.99,43.75.87,10.81-1.68,21.08-5.13,31.19-2.01,3.98-4.01,7.95-6.3,12.48,25.7-5.42,48-15.47,65.41-35.56-2.55-.89-4.38-2.29-6.74-2.38-3.84-1.86-7.67-3.72-11.51-5.57-19.16-9.21-36.07-21.37-50.3-37.31-6.79-7.61-12.73-15.81-18.72-24.01.01-1.32-.9-2.23-1.47-3.28-5.32-9.71-10.83-19.33-13.43-30.23-.85-3.57-1.51-7.18-2.26-10.77.37-.07.74-.15,1.11-.22,3.14,6.24,6.28,12.47,9.42,18.71.19.64.3,1.32.58,1.91,17.46,37.29,44.91,64.42,82.61,81.06,2.97,1.31,5.93,2.83,10.03,3.37-2.83-2.95-5.1-5.33-7.37-7.7,10.82,3.91,20.81,9.07,29.84,17.24-.1-1.43-.07-1.96-.18-2.46-.96-4.28-.24-5.2,4.02-4.69,2.4.29,4.77.89,7.47,1.4v-9.51c1.3-9.45,5.46-17.76,11.32-26.23-2.46.58-3.92.79-5.29,1.28-.92.34-1.89.92-2.54,0-.72-1.03-.17-2.19.77-2.83,2.33-1.59,4.76-3.04,7.15-4.55.84-.17,1.69-.34,2.53-.51.26.02.53.04.79.06,3.41-.56,4.21-3.92,6.84-5.79-2.46-1.3-5.35.81-6.68-1.42-1.24-2.09,1.75-2.91,2.45-4.7-15.79.35-30.7-3.8-45.7-7.37-8.45-2.01-16.86-4.17-25.29-6.26-1.25-.84-3.23.25-4.22-1.7,1.43-.7,2.82-1.37,4.2-2.04.81.04,1.62.11,2.43.1,1.31-.03,3.13.76,3.79-.38.95-1.65-1.05-2.53-1.99-3.54-14.37-15.43-25.41-32.97-33.26-52.52-.59-1.47-1.55-2.89-1.19-4.63,2.01.11,2.26,2.01,3.04,3.22,6,9.34,11.51,19,18.29,27.82,7.17,10.5,15.88,19.67,24.93,28.53,1.67,1.64,3.56,3.43,5.99,3.98,8.68,1.97,17.38,3.92,26.1,5.69,4.86.99,6.5-.11,8.01-4.92.99-3.15,1.78-6.36,2.65-9.55.23-.62.53-1.22.67-1.86,3.2-13.71,3.47-27.53,1.44-41.43.37-4.08-1.69-6.77-5.5-7.29-38.56-5.25-62.05-29.82-69.53-64.64-1.09-5.06-2.01-10.16-3.01-15.24.18-1.77,1.41-1.91,2.65-1.45,1.62.6,3.14,1.48,4.71,2.24.12,7.76,2.2,15.07,4.77,22.34,5.8,16.41,15.94,29.29,30.57,38.72,7.15,4.61,15.13,7.18,23.18,9.54.52.15,5.26,2.94,3.36-2.21,5.78,1.78,9.13,6.81,13.7,10.25,1.11-3.42-2.11-6.18-1.43-9.52.45.24,1,.39,1.32.75,4.73,5.17,6.97,11.74,9.45,18.03,9,22.85,34.18,31.47,55.83,24.48,7.25-2.34,14.13-5.35,19.79-10.99-2.69-1.06-4.43.61-6.28,1.46-6.99,3.19-14.36,5.07-21.87,3.6-13.4-2.63-23.12-10.86-30.41-22.13-5.82-9-8.7-19.38-13.41-28.9-.39-7.87-.9-8.44-7.19-7.95-.77-.52-2.55.21-2.25-1.59.23-1.38,1.23-2.27,2.59-2.75,4.23-1.5,8.59-.6,12.89-.71,2.08-.06,5.24.29,5.21,2.4-.04,2.82-3.26,1.06-5.01,1.63-.13.04-.26.06-.4.09-2.64-.42-2.64,1.19-2.14,2.96.36,1.28,1.01,2.48,1.5,3.73,10.17,26.05,33.99,38.17,55.57,40.32,8.94.89,18.03.47,26.86-2.21,3.37-1.02,6.17-2.65,8.71-4.94l.02-.02c.28-.25.57-.49.85-.74,1.89-.08,2.83-1.54,3.77-2.8,7.95-10.66,10.58-22.97,9.77-35.86-.59-9.34-6.54-11.91-14.79-7.37-.61.34-1.25.41-1.88,0,3.29-6.02,6.3-7.31,13.74-5.74-.28-3.78-2.14-5.33-5.9-5.43-12.75-.37-22.46-5.4-27.66-17.85-3.82-9.15-9.33-9.94-16.31-2.9-3.9,3.93-7.75,7.95-12.52,10.84-6.67,4.05-13.78,3.77-21.29,2.71-10.93-1.55-21.91-2.73-32.69-5.23-4.12-1.25-7.67-3.52-10.3-6.84-2.39-3.02-5.41-4.69-8.91-5.9-4.64-1.6-8.53-4.13-10.16-9.11-.43-1.3-1.53-1.82-2.52-2.5-4.35-2.97-8.81-5.8-13.02-8.96-2.1-1.58-3.07-1.48-4.74.69-4.56,5.95-9.81,11.18-17.32,13.38-1.41-.73-2.47-1.72-2.57-3.43,12.51-5.75,20.44-15.47,23.14-28.81,2.86-14.15,2.22-28.19-5.95-40.79-5.1-7.87-12.69-12.36-21.92-13.95-1.09-.19-3.13-1.19-3.24.97-.13,2.4-.2,5.05,2.95,6.23,5.08,1.9,9.16,5.28,12.31,9.64,7.97,11,9.08,23.43,6.34,36.19-2.15,10.01-7.53,18.17-17.07,22.89-4.85,2.39-10.08,4.09-15.46,3.49-5.56-.63-10.99-2.32-16.08-4.82-.18-.3-.36-.6-.54-.9-.08.38-.16.75-.24,1.13,3.36,3.91,7.74,6.39,12.26,8.65-.3,1.44-.6,2.88-.9,4.33-3.8-.54-6.54-3.21-9.8-4.85-.48-.47-.93-.98-1.45-1.4-3.97-3.21-3.92-3.18-6.7,1.23-8.35,13.26-18.33,25.21-29.66,36.01-13.21,12.6-27.83,23.71-39.62,37.81-9.3,11.12-18.58,22.24-26.26,34.59-.21.17-.48.3-.61.51-15.65,25.11-25.84,51.78-23.66,82.07,1.1,15.35,5.99,29.16,16.02,40.93,3.06,3.59,6.57,6.81,10.11,9.93,1.21,1.06,3.47,2.62,4.45-.48,1.8-5.67,3.69-11.32,4.6-17.26.87-5.67,2.07-11.29,3.21-17.34,2.94,2.56,3.09,5.57,3.31,8.5.61,8.08-1,15.96-3.08,23.63-4.03,14.88-8.67,29.59-13.03,44.38-.41,1.39-.45,2.81.14,4.19,2.03-.3,1.92-2.56,3.44-2.94,1.19-.3,2.6-.5,3.48.4,1.59,1.61.78,3.47.08,5.26-.37.94-1.54,1.98-.44,2.91,1.01.84,1.99-.25,2.9-.77,4.36-2.5,9.08-4.09,13.81-5.69,1.76-.51,3.51-1.09,5.3-1.5,11.92-2.74,24.05-3.05,36.2-3.18,4.99.25,9.87,1.75,15.76,1.57-5.13-4.35-9.58-8.11-15.79-8.82,0,0,.05-.26.05-.26-.28-.21-.56-.42-.84-.63Zm140.89-431.75c1.01-1.79,1.95-3.57-.62-4.9-.33-5.23-.27-10.51-1.06-15.67-2.36-15.56-7.34-30.35-14.01-44.57-10.52-22.43-24.73-42.95-34.08-65.98-.51-2.47-1.61-3.05-3.38-.97-1.67,1.96-3.4,3.89-4.85,6-8.4,12.17-13.26,25.71-15.93,40.2-2.96,16.1-2.79,32.29-.74,48.33,1.89,14.8,6.05,29.18,11.92,43.04,6.4,15.12,13.13,30.03,22.49,43.59,2.16,3.12,4.53,6.09,6.77,9.15.91,1.25,1.77,2.82.43,4.01-1.12.99-2.83.8-4.14-.16-.98-.72-1.91-1.53-2.73-2.43-1.98-2.17-3.88-4.4-5.94-6.75-4.86,6.62-8.16,13.71-10.87,21.11-.55,1.5-.23,2.5,1.14,3.43,6.08,4.11,9.74,10.1,12.45,16.71.85,2.07,1.98,3.21,4.2,3.87,5.45,1.62,10.88,3.39,16.14,5.52,2.44.99,3.92.79,5.62-1.14,2.92-3.34,6.67-5.1,11.19-4.7,12.06,1.06,24.16,1.28,36.18,3.18,10.55,1.66,21.29,2.14,31.9,3.49,13.23,1.69,26.41,3.78,39.62,5.56,1.13.15,3.62,1.1,3.31-1.45-.28-2.26,1.95-5.13-1.76-6.87-2.88-1.36-5.24.42-7.87.3-3.1-.13-4.42-1.91-4.82-4.45-.4-2.55,1.39-4.02,3.64-4.54,1.92-.44,3.84-1.22,5.91-.85,2.7.48,3.03-1.31,2.59-3.15-2.67-11.18-6.32-21.93-14.59-30.44-.27-.61-.67-1.14-1.38-1.05-.13.02-.15.84-.23,1.29,1.12,9.35-.24,18.27-4.84,26.57-1.58,2.86-3.68,4.81-7.16,2.52-1.73-8.54-4.35-16.72-8.77-24.2-.46.08-.92.15-1.39.23v8.66c-.64,1.75-1.18,3.55-1.94,5.25-.69,1.52-1.73,2.88-3.63,2.8-1.65-.07-2.14-1.45-2.61-2.75-.74-2.04-1.44-4.09-2.16-6.13-5.08-14.41-14.21-25.48-27.48-33.02-6.27-3.56-13.14-5.46-20.19-7.12-4.33-1.02-5.33.45-6.45,3.8-.87,2.62-1.87,5.32-4.02,7.36,2.07-12.58,4.24-25.07,4.09-37.81.02-1.62.05-3.24.07-4.85Zm74.81,38.25c1.19-.03,1.98.72,2.83,1.4,8.34,6.74,15.56,14.58,22.56,22.66.45.51.61,1.77,1.63,1.39,1.09-.4.8-1.58.88-2.49.23-.33.46-.66.7-.98.05-2.02.08-4.05.15-6.07.54-15.7-6.68-27.55-18.45-37.11-5.11-4.15-11.45-5.75-17.42-8.11.14-2.38,2.31-1.97,3.62-2.35,4.44-1.29,8.96-2.28,13.45-3.38h6.88c.33-1.5-.35-1.84-.89-2.15-10.95-6.1-22.73-8.12-35.15-7.2-7.57.56-14.75,3.21-22.29,3.85,1.38-4.84,5.17-8.02,8.14-11.77,3.25-4.1,7.94-6.64,11.4-10.52-1.59-1.19-3.39-.8-5.05-.44-10,2.19-19.39,5.83-27.88,11.67-1.47,1.01-3.03,2.96-5.01,1.53-1.94-1.4-1.06-3.75-.78-5.67.38-2.54,2.01-4.83,1.89-8.35-4.64,4.17-11.88,5.34-10.07,13.51-.32,5.91,1.19,11.79-.08,17.75-.87,4.08-1.13,8.29-1.67,12.45.14.52.54,1.14.39,1.55-1.83,4.84.33,5.84,4.91,6.93,16.2,3.89,30.23,11.62,40.39,25.41,3.28,4.46,6.02,9.2,8.64,14.11-.27-6.06-1-11.91-4.25-17.15-.81-1.29-2.3-2.92-.65-4.33,1.42-1.22,3.03-.19,4.41.82,5.6,4.11,9.1,9.89,12.78,15.59,2.77,4.28,3.61,9.54,7.04,13.46.11.52.04,1.27.36,1.53,1.02.81.91-.42,1.11-.83.28-.59.39-1.28.52-1.93,2.37-12.17.77-23.77-5.04-34.76ZM16.3,557.9c-1.18,1.24-2,2.64-1.73,4.55.72-1.56,2.73-2.27,2.55-4.37,2.29-2.37,4.18-1.93,4.74,1.21.86,4.78,1.02,9.61.05,14.46-1.37,6.93-3.33,13.64-6.47,19.99-2.62,1.79-3.36,4.97-5.34,7.28-.94,1.1-.82,3.13,1.25,3.91,4.63,2,9.5,3.39,14.5,3.38,14.42-.04,24.54-7.14,29.97-21.08,1.62-4.16,2.57-8.5,3.07-12.97.13-1.16.16-2.88,1.9-3.25,1.39-.29,2.19.76,3.12,1.55,1.23,1.04,2.56,1.97,3.73,2.86-1.01-6.51-3.12-12.89-5.77-19.09-.82-1.92-3.38-3.67-2.01-5.77,1.45-2.2,3.94-.2,5.98-.13.2,0,.41-.27.99-.68-1.09-1.48-2.15-2.99-3.28-4.44-5.97-7.65-10.71-16.01-12.74-25.53-.91-4.29-3.23-6.6-6.87-8.2-10.68-.35-10.48,1.09-12.39,8.35-.48,1.81-.9,3.64-1.34,5.46-4.15,11.05-8.29,22.11-13.93,32.52Zm19.1-51.5c3.86-2.06,7.83-1.8,11.86-.62,1.77,1.74,2.8,2.28,3.44-1.03,1.63-8.43,5.95-15.35,12.79-20.62,2.61-2.01,7.3-8.72,8.05-11.81.06-.25,0-.54-.02-.81.42-4.61.22-4.76-4-3.28-8.24,2.89-14.95,7.89-20.33,14.73-5.47,6.96-8.91,14.95-11.95,23.15l.16.29Zm193.52-216.52c-.73.93-2.28-.38-2.98,1q2.36.52,3.8-.86c9.53-1.2,15.08-7.35,18.62-15.57,3.12-7.23,3.91-14.76,2.71-22.71-1.31-8.65-4.7-15.72-11.96-20.74-1.24-.86-2.47-2.09-4.41-.95,5.96,9.88,12.06,19.55,11.13,31.8-.94,12.27-6.12,21.79-16.9,28.03Zm61.44-31.79c-1.07.12-1.02,1.07-1.31,1.77-2.85,6.68-4.13,13.71-4.71,20.9-2.08,5.7-.47,11.24.67,16.82.68,3.32,2.35,5.72,5.53,6.89,1.54.57,3.17,2.62,4.66,1.23,1.15-1.07-.3-2.95-.75-4.44-.64-6.33-.48-12.62.14-18.97.81-8.16,3.08-15.94,5.23-23.77,2.32-4.87,4.28-9.98,10.35-13.13-12.73-.77-17.89,2.8-19.81,12.7Zm-20.14-8.86c.7,11.16.16,22.15-4.35,32.61-.41.95-.59,1.88.32,2.57,4.21,3.19,8.25,6.66,13.32,9.46-.14-7.55-.44-14.45.78-21.28,1.07-6,3.56-11.59,5.08-17.46,2.24-2.15,3.46-3.82-1.04-4.78-2.85-.61-5.44-2.3-8.25-3.21-2.3-.75-4.4-2.63-7.75-1.63,1.48,1.1,1.07,2.61,1.89,3.71Zm29.57,325.52c-1.23-.84-2.63-.48-3.96-.5-10.89-.13-21.55,1.28-31.88,4.85-7.16,2.03-14.03,4.77-19.7,9.69-8.3,7.2-8.11,7.28-4.37,18.24.76,2.22,1.65,3.61,3.87,4.58,6.69,2.9,13.98,2.77,20.94,3.84,6.66,1.02,13.67.33,20.51.83,7.14-.26,14.29-.7,21.43-.71,5.55-.01,10.83-.99,15.96-2.97,4.24-1.14,5.04-2.5,3.73-7.57-1.91-7.43-5.05-14.35-10.06-20.2-4.35-5.08-8.41-10.95-16.49-10.07Zm-43.13.78c2.41-.77,4.8-1.63,7.24-2.28,11.39-3.02,22.93-5,34.78-4.71.31-.63,0-.82-.58-.81-7.64-1.52-15.24-3.3-23.14-2.53-1.15.11-2.91.47-3.21-.9-.38-1.72,1.67-1.72,2.74-2.27,4.93-2.55,10.24-2.19,15.54-1.83,1.48.25,3.27.57,4.19-.64,4.69-6.15,8.96-12.56,10.4-20.38.09-.22.12-.44.09-.67,1.1-.87,1.77-1.74-.04-2.58-2.14-1.16-4.27-2.32-6.41-3.47-.82-.44-1.64-1.08-2.6-.28-2.97,2.47-5.86,1.12-8.7-.25-4.55-2.2-8.47-5.3-12.14-8.74-2.63-2.47-7.74-2.74-9.91.02-3.45,4.4-7.76,7.89-11.61,11.85-11.69,9.42-24.31,17.17-39.29,22.04,15.68,1.33,18.51,11.5,17.35,24.35,2.08-.23,2.79-2.01,4.24-2.67,1.14-.52,2.39-1.06,3.43-.22,1.23.99.41,2.2-.14,3.29-.87,1.73-1.81,3.45-1.56,6.3,5.51-6.48,12.97-8.65,19.31-12.63Zm199.39-297.93c-2.29-11.87-6.07-15.48-17.8-17-19.12-2.48-38.26-4.8-57.34-7.51-7.34-1.04-14.75-1.46-22.03-2.68-8.9-1.48-17.85-2.46-26.78-3.66-5.11-.69-10.35-2.01-15.61.07-11.49,4.53-12.93,15.02-15.2,25.06-2.96,11.86-3.79,23.74,0,35.58,2.22,6.93,7.33,10.56,14.26,11.64,9.07,1.42,18.17,2.67,27.28,3.8,9.63,1.19,19.02,1.35,26.18-7.03,2.01-2.35,4.47-4.34,6.83-6.37,2.46-2.11,4.95-4.06,8.51-4.31,6.98-.49,10.87,3.94,12.95,9.24,3.92,9.97,10.82,14.77,21.24,15.16.81.03,1.64.08,2.42.28,7.84,1.96,14.76-.48,20.08-5.84,12.72-12.82,15.84-29.07,15.01-46.44Zm-257.21,351.85c4.96-1.58,6.39-4.01,5.42-9.51-1.78-10.06-6.33-18.8-12.85-26.59-2.13-2.54-4.67-4.01-8.08-3.63-12.88-3.04-25.89-2.68-38.89-1.25-4.48.49-9.03,1.08-13.28,2.84-2.76.07-5.16,1.26-7.53,2.47-8.81,4.47-16.26,9.81-15.44,22.18.33,4.96,2.01,8.48,6.47,10.22,5.71,2.23,11.36,4.64,17.66,5.17,5.62.47,11.11,2.17,16.82,2.17,9.71,1.01,19.44,1.35,29.14.11,6.94-.89,13.95-1.58,20.56-4.17Zm210.88-468.02c5.97-2.64,11.51-6.05,16.85-9.76,20.63-14.35,38.2-31.87,53.64-51.63.91-1.16,1.37-3.12,3.54-2.72-.02,2.04-1.27,3.54-2.27,5.13-15.98,25.19-36.69,45.53-62.42,60.69q-7.88,4.64-2.88,12.45c.06.1.23.14.35.2.34,1.29.68,2.58,1.06,4.02.71-.29,1.34-.49,1.92-.79,24.47-12.78,43.62-31.37,58.88-54.15,8.32-12.42,14.63-25.84,18.8-40.19,1.94-6.7,4.49-13.31,4.53-20.46.04-1.03.41-2.1-.28-3.05-1.02-.12-1.48.66-2.04,1.19-13.94,12.84-29.68,22.96-46.64,31.32-13.48,6.64-26.7,13.73-38.27,23.49-1.86,1.57-4.72,2.03-5.42,4.89-3.15,3.1-6.31,6.18-9.45,9.29-1.33,1.32-2.13,2.46.47,3.44,3.18,1.19,5.48,3.78,8.18,5.73,1.61,1.16,3.43,2.78,2.81,4.88-.68,2.29-2.35,3.93-5.07,4.64-3.38.88-7.05.05-10.18,1.9,3.62,2.36,7.11,4.92,9.68,8.47.93,1.28,1.9,1.82,3.38,1.58l.84-.55Zm-90.42,309.29c-7.95,7.93-14.27,16.97-17.67,27.73-1.57,4.96-2.93,10.18-1.07,15.5.01.81-.19,1.7.08,2.42,1.54,4.16-1.03,4.07-3.92,4.14-1.8.04-3.46-1.46-5.39-.53.51,1.69,1.92,2.07,3.07,2.66,4.34,2.22,8.62,4.57,13.08,6.5,12.48,5.4,25.28,9.57,39.18,8.43,8.77-.72,16.56-3.58,22.37-10.59,3.51-3.46,6.04-7.49,7.21-12.32.09-.67.09-1.36.28-2,4.01-13.44-.19-26.83-11.31-34.98-10.36-7.59-22.45-10.27-34.91-11.85-4.8-.61-8.42.83-11.01,4.9Zm-69.58-298.48c-.4.19-.71.25-.86.43-8.97,10.55-12.93,23.17-15,36.55-.25,1.65.49,2.35,2.23,2.57,2.8.36,5.65.81,8.29,1.75,2.28.81,3.06.12,3.8-1.9,2.55-7.01,6.18-13.51,10.09-19.84,1.01-1.64.9-2.98.02-4.51-2.87-5.01-5.72-10.03-8.57-15.04Zm123.26,235.3c-12.15-5.16-24.1-9.24-34.44-16.71,7.73,12.61,24.05,21.2,34.44,16.71Z"/>
  <path class="cls-2" d="m479.88,494.46c-1.69-1.04-3.37-2.08-5.06-3.11,1.64-2.73,3.21-5.49,3.47-8.76.51.07,1.02.14,1.54.21,0,0,.35.12.35.12h.37c6.63,3.83,13.93,6.09,20.95,9.02,10.59,4.41,21.24,8.66,31.86,13.02,2.1.86,4.19,1.79,5.83,3.46.15.52.29,1.03.44,1.55.07,1.22.21,2.43.21,3.65,0,41.33-.01,82.65.02,123.98,0,2.1-.43,4.01-1.42,5.83-7.76,4.85-16.5,7.74-24.39,12.32-2.3.79-4.57,1.65-6.56,3.1-1.83.33-3.4,1.25-4.96,2.2-2.56.87-5.04,1.91-7.27,3.47-3.12,1.08-6.13,2.39-8.91,4.19-15.07,6.96-30.17,13.85-45.16,20.98-1.98.94-3.61.96-5.22.1-5.54-2.95-11.04-5.94-16.9-8.26-4.79-1.9-9.02-5.11-14.07-6.51-4.12-2-8.22-4.06-12.37-6-16.77-7.83-33.56-15.63-50.35-23.44-.9-.7-1.8-1.41-2.71-2.11-.33-.61-.67-1.22-1-1.83-.16-1.02-.32-2.04-.49-3.06.07-1.89.21-3.78.21-5.67,0-23.14-.04-46.29-.07-69.43,0-7.59.41-8.01,8.01-8.01,1.42,1.45,1.82,3.19,1.78,5.19-.09,4.87-.06,9.75-.04,14.62.08,18.68.18,37.36.28,56.04-.19.41-.05.58.39.53,1.33.34,2.33-.54,3.42-.99,22.62-9.31,45.22-18.67,67.86-27.96,6.67-2.74,9.77-.14,8.43,6.3-3.06,2.33-6.69,3.48-10.17,4.93-16.93,7.08-33.89,14.1-50.84,21.15-1.49.19-2.8.82-4.01,1.67-2.76.86-5.46,1.84-8.15,3.7,3.2,1.38,6.05,2.6,8.89,3.82.55.24,1.1.49,1.65.73,1.48,1.13,3.11,1.93,4.94,2.29.11.18.27.24.47.19,2.01.99,4.03,1.97,6.04,2.96,8.73,4.62,17.69,8.74,26.82,12.49.84.43,1.67.86,2.51,1.29,3.08,1.74,6.27,3.26,9.65,4.34.96.89,2.09,1.39,3.38,1.58,1.66,1.35,3.62,2.03,5.65,2.55.55.25,1.11.51,1.66.76,1.69,1.3,3.67,1.96,5.66,2.6,2.81,1.32,1.36-.96,1.56-1.84,0-11.68,0-23.36-.01-35.03.07-6.92.06-13.84.22-20.75.1-4.48,3.66-6.47,7.55-4.32,2.29,1.27,2.24,3.49,2.24,5.7,0,17.5.02,35.01.05,52.51q0,4.99,4.72,2.77c15.1-7.07,30.22-14.11,45.31-21.2,9.35-4.4,18.66-8.88,28.58-13.61-2.26-1.08-3.8-1.9-5.41-2.57-20.54-8.49-41.08-16.96-61.65-25.4-2.54-1.04-4.97-2.16-6.69-4.4.04-5.81,2.56-7.56,7.93-5.5,5.89,2.26,11.78,4.52,17.67,6.78,11.82,5.46,23.98,10.09,36.09,14.86,4.09,2.59,9.07,3.13,13.19,5.73,1.51.95,3.37.74,5.05-.04.22.51-.05,1.67.63,1.44.88-.3.33-1.19-.11-1.78,1.13-4.05.74-8.14.32-12.24.53-13.03.54-26.07-.12-39.1,0-18.46,0-36.93,0-55.39.05-4.19-.06-4.22-5.13-1.7-.26-.04-.49.03-.69.2-5.2,2.31-10.4,4.63-15.6,6.94-1.71.33-3.31.96-4.77,1.92-1.28.09-2.37.61-3.34,1.43-7.35,3.18-14.7,6.35-22.04,9.53-6.59,2.58-13.15,5.24-19.46,8.46-3.3.24-6.02,3.77-9.73,1.72-.81-.83-1.61-1.67-2.42-2.5-.72-3.32,1.01-5.19,3.79-6.47,1.55-.71,3.06-1.52,4.58-2.28,3.94-1.29,7.77-2.85,11.38-4.92,14.76-5.91,29.3-12.32,43.76-18.92,3.9-1.64,7.8-3.29,12.44-5.24-2.78-1.11-4.76-1.89-6.74-2.68-1.51-.92-3.11-1.59-4.86-1.87-1.75-1.16-3.69-1.81-5.72-2.25-.25-.08-.51-.17-.76-.25-3.1-1.74-6.38-3.05-9.8-4.03-3.77-2.1-7.79-3.6-11.89-4.9-.75-.94-1.78-.64-2.75-.6Z"/>
  <path class="cls-6" d="m101.08,563.75c.26-.08.52-.12.79-.13,1.2,1.18.31,1.43-.72,1.62-.02-.49-.05-.99-.07-1.48Z"/>
  <path class="cls-6" d="m480.55,482.9h-.37s-.35-.11-.35-.11c.01-.52.02-1.04.03-1.56.91.28.91.93.7,1.67Z"/>
  <path class="cls-10" d="m305.42,472.6c-2.39,1.51-4.82,2.96-7.15,4.55-.95.64-1.49,1.8-.77,2.83.65.93,1.62.34,2.54,0,1.36-.49,2.82-.71,5.29-1.28-5.86,8.46-10.02,16.77-11.32,26.23-3.52-.69-4.56-4.78-7.86-5.94-.6,2.74.02,5.24.61,7.89-1.37-.16-2.07-.91-2.5-1.67-2.34-4.13-5.49-5.62-10.51-6.41-12.13-1.9-23.81-6.03-35.11-11-29.57-13-51.7-34.44-69.2-61.12-.64-.98-.86-2.38-2.44-2.39-3.14-6.24-6.28-12.47-9.42-18.71-.37.07-.74.15-1.11.22.75,3.59,1.41,7.2,2.26,10.77,2.59,10.91,8.11,20.53,13.43,30.23.58,1.05,1.49,1.97,1.47,3.28-.62,4.34-2.97,8.12-4.06,12.31-5.29-1.45-10.64-2.59-16.09-3.3-5.31-.69-10.55-.29-15.8.47-.64-.14-1.24-.16-1.69.44-.8-.18-1.59-.35-2.38-.53-1.43-.29-2.48.2-3.13,1.52-9.14,2.3-17.64,5.99-25.02,11.93-1.64,1.32-3.81,2.45-3.63,5.14,0,0,.02-.01.02-.01-.31-.41-.65-.43-1-.05-1.25-.13-1.27-1.05-1.48-2.03-2.39-11.24-1.64-22.44.4-33.62,3.04-16.69,10.64-31.6,18.33-46.47.98-1.89,2.72-3.43,2.47-5.83l-.02.03c.28-.29.56-.58.84-.87,2.52-4.65,6.04-8.69,9.73-12.2,10.45-9.95,22.6-17.9,33.76-27.04,8.88-7.27,17.2-15.1,24.54-24,6.75-8.17,12.44-16.97,17.47-26.25,3.25,1.64,6,4.31,9.8,4.85,1.02.69,1.88,1.67,3.25,1.68.54,3.18,1.08,6.36,1.62,9.55,3.79,22.6,12.31,42.64,30.36,57.84,14.33,12.07,30.48,19.19,49.35,19.73,2.04,13.9,1.76,27.71-1.44,41.43-.15.64-.45,1.24-.67,1.86-.06-3.79.1-7.6-.22-11.37-.75-8.81-3.25-16.79-9.92-23.27-9.8-9.5-32.15-9.13-42.36-1.13-5.09,3.98-10.39,7.69-15.2,12.04-6.78-8.82-12.29-18.49-18.29-27.82-.78-1.21-1.03-3.1-3.04-3.22,0,0,.03.07.03.07.61-.4.31-.83-.05-1.12-.13-.1-.55.17-.84.28-2.61,1.08-1.51,3.13-1.09,4.8,3.51,14.1,10.64,26.44,18.68,38.38,4.28,6.36,9.75,11.84,13.5,18.57-1.38.67-2.77,1.34-4.2,2.04.99,1.95,2.98.86,4.22,1.7.57,1.87,2.36,2.19,3.79,2.7,17.75,6.37,35.94,11.14,54.43,14.81,4.82.96,6.92,3.42,6.84,8.47Z"/>
  <path class="cls-10" d="m397.62,200.07c8.27,8.51,11.92,19.26,14.59,30.44.44,1.84.11,3.63-2.59,3.15-2.06-.37-3.98.41-5.91.85-2.25.52-4.04,1.99-3.64,4.54.4,2.54,1.72,4.32,4.82,4.45,2.63.11,4.99-1.66,7.87-.3,3.71,1.75,1.49,4.61,1.76,6.87.31,2.54-2.18,1.6-3.31,1.45-13.22-1.78-26.4-3.87-39.62-5.56-10.61-1.35-21.34-1.82-31.9-3.49-12.01-1.9-24.12-2.12-36.18-3.18-4.53-.4-8.27,1.36-11.19,4.7-1.7,1.94-3.18,2.13-5.62,1.14-5.26-2.13-10.69-3.9-16.14-5.52-2.21-.66-3.35-1.8-4.2-3.87-2.71-6.61-6.37-12.6-12.45-16.71-1.37-.93-1.69-1.93-1.14-3.43,2.71-7.4,6.01-14.5,10.87-21.11,2.06,2.35,3.96,4.58,5.94,6.75.82.89,1.75,1.71,2.73,2.43,1.31.96,3.03,1.16,4.14.16,1.34-1.19.48-2.76-.43-4.01-2.24-3.06-4.62-6.03-6.77-9.15-9.37-13.56-16.09-28.47-22.49-43.59-5.87-13.87-10.03-28.24-11.92-43.04-2.05-16.03-2.22-32.23.74-48.33,2.67-14.5,7.53-28.04,15.93-40.2,1.46-2.11,3.19-4.04,4.85-6,1.77-2.09,2.87-1.5,3.38.97-.94.78-.5,1.64-.25,2.58,3.91,14.69,11.12,27.92,18.62,40.93,12.18,21.12,21.76,43.2,27.52,66.94,1.46,6.03,1.07,12.3,3.02,18.21.06.79.13,1.59.19,2.38-1.09,1.8-2.06,3.59.59,4.94.14,12.74-2.02,25.23-4.09,37.81,2.15-2.04,3.14-4.74,4.02-7.36,1.12-3.35,2.12-4.82,6.45-3.8,7.05,1.66,13.92,3.55,20.19,7.12,13.27,7.54,22.41,18.61,27.48,33.02.72,2.04,1.43,4.09,2.16,6.13.47,1.29.96,2.68,2.61,2.75,1.91.08,2.95-1.28,3.63-2.8.77-1.7,1.31-3.5,1.94-5.25,2.08.03,2.58,1.7,3.17,3.18,1.25,3.11,2.38,6.27,3.63,9.38.6,1.49,1.16,3.15,3.35,2.76,3.49,2.29,5.58.34,7.16-2.52,4.59-8.3,5.96-17.21,4.84-26.57.53-.08,1.07-.16,1.6-.24Zm-124.83-113.06c1.84,4.42,3.06,9.05,4.54,13.59,5.47,16.75,7.84,34.01,8.68,51.48.69,14.3-1.5,28.38-4.92,42.26-.21.84-1.83,1.93-.02,2.65,1.22.49,1.96-.67,2.59-1.52,2.69-3.66,4.32-7.85,5.4-12.19,2.57-10.32,3.02-20.81,2.66-31.43-.38-10.81-.71-21.59-2.99-32.21-3.26-15.2-7.73-30.03-13.57-44.45-4.03-9.95-8.63-19.6-14.54-28.57-.83-1.26-1.44-4.01-4.08-1.99-2.76.49-3.35,3.03-4.33,4.95-9.41,18.56-11.31,38.36-8.32,58.56,2.63,17.75,8.58,34.59,17.23,50.36,2.19,3.99,3.93,8.42,7.94,11.69,1.67-6.45,2.77-12.51,3.06-18.74.95-20.72-1.92-41.02-6.47-61.16,1.63,0,3.26.07,4.09-1.82.57-1.3,1.77-1.52,3.05-1.47Zm57.64,135.99c-6.45.27-12.59,1.61-18.02,5.36-1.43.99-2.37,2.26-1.94,4.12.44,1.91,2.01,2.49,3.65,2.7,1.33.17,2.76.26,4.04-.06,9.39-2.35,18.66-2.61,27.74,1.26,2.34,1,4.5.22,5.66-1.36,1.48-2.02-.28-3.8-1.95-5.09-5.63-4.36-12.03-6.64-19.18-6.93Z"/>
  <path class="cls-4" d="m325.01,353.53c.13-.03.27-.05.4-.09,1.74-.57,4.96,1.19,5.01-1.63.03-2.1-3.13-2.45-5.21-2.4-4.3.12-8.66-.78-12.89.71-1.36.48-2.36,1.37-2.59,2.75-.3,1.8,1.47,1.07,2.25,1.59.35,4.5,3.99,6.03,7.19,7.95,4.71,9.52,7.59,19.9,13.41,28.9,7.29,11.27,17.01,19.5,30.41,22.13,7.51,1.47,14.88-.41,21.87-3.6,1.85-.84,3.6-2.52,6.28-1.46-5.67,5.64-12.55,8.65-19.79,10.99-21.66,6.99-46.83-1.63-55.83-24.48-2.48-6.3-4.72-12.86-9.45-18.03-.33-.36-.88-.5-1.32-.75,0,0,.02.08.02.08.03-.63-.31-.82-.88-.76-1.79-.16-3.24-1.15-4.71-2.03-3.08-1.86-6.24-3.48-9.92-3.71-.54-.54-1.08-1.09-1.62-1.63-.7-2.74-1.66-5.45-2.05-8.23-1.73-12.26,2.11-22.39,11.69-30.43,3.97-3.33,8.66-4.79,13.36-6.41,10.78,2.51,21.76,3.68,32.69,5.23,7.51,1.06,14.62,1.34,21.29-2.71,4.77-2.89,8.62-6.91,12.52-10.84,6.97-7.04,12.49-6.25,16.31,2.9,5.2,12.45,14.9,17.48,27.66,17.85,3.76.11,5.62,1.66,5.9,5.43-7.43-1.57-10.44-.28-13.74,5.74.63.41,1.27.34,1.88,0,8.24-4.53,14.19-1.96,14.79,7.37.82,12.89-1.82,25.2-9.77,35.86-.94,1.26-1.88,2.72-3.77,2.8-.28.25-.57.49-.85.74,0,0-.02.02-.02.02-1.23-.1-2.38.17-3.58.49-17.48,4.67-34.54,2.96-50.95-4.21-16.63-7.27-28.84-19.25-35.96-36.14Zm61.28,12.21c-.53-5.59-1.64-10.98-6.4-14.87-2.46-2.01-5.46-2.16-7.99-1.08-1.96.84-1.98,3.6-2.12,5.77-.38,5.8,1.65,10.76,5.57,14.88,2.08,2.19,4.32,5.49,7.75,3.98,3.36-1.48,2.56-5.48,3.19-8.68Zm26.78,4.21c.2,1.38-.93,4.14,1.79,5.27,1.51.63,3.45.59,4.87-.93,4.41-4.71,5.63-10.43,5.03-16.6-.15-1.52-.36-3.54-2.98-3.5-2.26.03-4.44.07-5.44,2.43-1.71,4.01-3.61,8.01-3.27,13.33Zm-22.14-22.68c-2.27-6.52-6.92-10.48-13.3-11.6-5.52-.97-11.07-.55-14.81,5.02-3.44,5.12-3.77,15.14-.49,18.71.04-7.74.73-15.26,8.81-18.27,7.81-2.91,14.07,1.03,19.78,6.15Z"/>
  <path class="cls-10" d="m172.65,567.78c-3.16-.53-6.33-1.02-9.48-1.59-8.97-1.62-17.74-.66-26.39,1.93-.46.14-.81.62-1.35,1.06,1.31,1.47,2.88.91,4.21.87,8.08-.24,16.11.2,24.04,1.78,1.42.28,2.77.95,4.15,1.45.32.29.65.57.97.86.23-.01.45-.06.67-.14,0,0-.05.26-.05.26,0,2.42.02,4.83.03,7.25-12.15.13-24.28.43-36.2,3.18-1.79.41-3.53,1-5.3,1.5-1.17-2.97-4.09-3.7-6.52-5.01-1.56-.84-2.95-1.72-2.32-3.69.91-2.84.69-5.84,1.66-8.71,5.27-15.53,8.9-31.28,8.07-47.95-.66-13.22-5.42-23.32-17.3-29.89-4.62-2.56-9.5-5.41-10.45-11.54.44-.34,1.48-.35.74-1.34h-.02c1.96,1.6,3.33-.27,4.59-1.05,13.41-8.3,27.92-12.64,43.72-11.92,9.03.41,17.9,1.9,25.73,6.97.16,2.49,2.26,3.61,3.74,5.09,8.06,8.03,11.74,18.1,12.56,29.07,1.73,23.04-6.62,43.07-19.52,61.57Z"/>
  <path class="cls-9" d="m101.1,479.4c.95,6.12,5.83,8.98,10.45,11.54,11.89,6.57,16.64,16.67,17.3,29.89.83,16.67-2.8,32.42-8.07,47.95-.98,2.87-.75,5.87-1.66,8.71-.63,1.97.76,2.85,2.32,3.69,2.43,1.31,5.35,2.04,6.52,5.01-4.73,1.59-9.45,3.19-13.81,5.69-.9.52-1.89,1.61-2.9.77-1.11-.92.07-1.97.44-2.91.7-1.79,1.5-3.65-.08-5.26-.88-.9-2.29-.7-3.48-.4-1.53.38-1.41,2.64-3.44,2.94-.58-1.38-.55-2.8-.14-4.19,4.36-14.79,9-29.5,13.03-44.38,2.07-7.66,3.69-15.55,3.08-23.63-.22-2.93-.37-5.94-3.31-8.5-1.13,6.05-2.34,11.67-3.21,17.34-.91,5.93-2.8,11.58-4.6,17.26-.98,3.1-3.25,1.54-4.45.48-3.55-3.12-7.06-6.35-10.11-9.93-10.03-11.76-14.92-25.58-16.02-40.93-2.17-30.28,8.01-56.95,23.66-82.07.13-.21.4-.34.61-.51,2.14.16,3.09-1.49,4.05-2.87,3.85-5.54,8.91-9.99,13.3-15.03.24,2.4-1.5,3.95-2.47,5.83-7.69,14.87-15.29,29.78-18.33,46.47-2.04,11.18-2.79,22.38-.4,33.62.21.98.23,1.9,1.48,2.03.09.46.17.93.26,1.39Z"/>
  <path class="cls-3" d="m376.26,514.63c-1.17,4.83-3.7,8.86-7.21,12.32-2.03-.28-3.54,1.15-5.35,1.65-21.78,5.96-41.5,1.86-59.22-12.05-1.24-.97-2-2.64-3.9-2.62-1.87-5.31-.5-10.53,1.07-15.5,3.4-10.76,9.72-19.79,17.67-27.73,1.32,1.47,3.06.81,4.6.82,12.11.02,23.68,2.33,34.23,8.46,9.45,5.49,15.58,13.32,17.7,24.45.67,3.54-1.39,6.92.42,10.21Z"/>
  <path class="cls-10" d="m501.71,64.2c-.04,7.14-2.59,13.76-4.53,20.46-4.16,14.35-10.47,27.77-18.8,40.19-15.26,22.78-34.41,41.37-58.88,54.15-.58.3-1.21.5-1.92.79-.38-1.44-.72-2.73-1.06-4.02,10.71-5.07,20.17-11.86,29.12-19.66,10.31-8.98,18.74-19.39,26.3-30.63,6.73-10.01,11.79-20.94,17.37-31.58.39-.73,1.43-1.63.34-2.48-.82-.64-1.79-.18-2.69.19-1.61.67-2.06,2.03-2.27,3.56-.93.42-2.02.77-.86,2.06l-.09.07c-2.17-.4-2.64,1.56-3.54,2.72-15.43,19.75-33.01,37.28-53.64,51.63-5.34,3.72-10.87,7.13-16.85,9.76-.57-.26-.69.17-.84.55-1.49.24-2.46-.3-3.38-1.58-2.57-3.55-6.05-6.11-9.68-8.47,3.13-1.85,6.8-1.02,10.18-1.9,2.72-.71,4.39-2.35,5.07-4.64.62-2.1-1.2-3.72-2.81-4.88-2.7-1.95-5-4.54-8.18-5.73-2.6-.97-1.8-2.12-.47-3.44,3.14-3.11,6.3-6.2,9.45-9.29,3.38.11,5.15-2.71,7.57-4.27,14.24-9.15,29.38-16.61,44.42-24.28,11.18-5.7,21.76-12.34,31.27-20.73,3.18-2.8,5.57-6.5,9.4-8.56Z"/>
  <path class="cls-11" d="m223.31,286.97c-9.83,3.53-18.94.4-24.43-8.48-2.78-4.5-4.35-9.47-5.14-14.68-.33-4.19,1.07-8.15,1.65-12.22,1.88-5.91,5.47-11.09,7.14-17.13.7-2.53,1.08-4.95,1.15-7.54.71-26.49,8.36-50.24,27.68-69.29,8.22-8.11,8.27-8.06,12.81,2.32.16.37.2.78.3,1.17-5.59,3.94-9.06,9.61-12.2,15.42-7.7,14.24-10.68,29.53-9.94,45.69.32,6.93,1.72,13.73,5.46,19.24,9.15,13.5,8.31,33.94-4.48,45.5Z"/>
  <path class="cls-10" d="m310.62,322.99c-4.7,1.62-9.39,3.08-13.36,6.41-9.58,8.04-13.42,18.16-11.69,30.43.39,2.79,1.35,5.49,2.05,8.23-10.31-3.06-19.87-7.75-28.35-14.3-4.44-3.42-9.17-7.14-12.02-11.8-6.62-10.81-10.31-22.75-9.35-35.73,1.88-.92,4.15-.92,5.76-2.47,7.51-2.21,12.76-7.44,17.32-13.38,1.66-2.17,2.63-2.26,4.74-.69,4.21,3.16,8.66,5.99,13.02,8.96.99.68,2.09,1.2,2.52,2.5,1.63,4.97,5.52,7.51,10.16,9.11,3.5,1.21,6.52,2.88,8.91,5.9,2.63,3.32,6.19,5.58,10.3,6.84Z"/>
  <path class="cls-4" d="m231.45,412.94c4.8-4.35,10.11-8.05,15.2-12.04,10.21-8,32.56-8.37,42.36,1.13,6.68,6.48,9.18,14.46,9.92,23.27.32,3.77.16,7.58.22,11.37-.88,3.18-1.66,6.4-2.65,9.55-1.51,4.81-3.16,5.91-8.01,4.92-8.73-1.77-17.42-3.71-26.1-5.69-2.43-.55-4.32-2.35-5.99-3.98-9.04-8.85-17.76-18.02-24.93-28.53Z"/>
  <path class="cls-3" d="m394.28,144.81c-4.49,1.1-9.01,2.09-13.45,3.38-1.31.38-3.48-.03-3.62,2.35-3.41,1.66-.6,2.63.53,3.32,4.85,2.97,9.63,6,14,9.66,11.99,10.05,18.46,23.01,20.41,38.39-1.7-.21-1.95-1.62-2.4-2.88-2.87-8.18-8.51-14.16-15.13-19.48-4.08-3.28-8.46-5.65-13.59-6.69-1.4-.28-2.74-.69-3.06,1.34-1.61.14-2.75-1.73-4.97-1,8.4,9.48,13.87,20.01,13.89,32.78-1.34-.09-1.71-1.16-2.17-2.14-1.66-3.55-3.05-7.27-5.04-10.63-5.92-9.97-13.81-17.6-25.55-20.4-1.31-.31-3.08.43-3.97-1.25.26-.74.86-.53,1.34-.64,1.36-.33,3.54.88,3.95-.86.39-1.68-1.92-1.92-3.15-2.57-12.09-6.34-24.83-9.58-38.57-8.01.53-4.15.8-8.37,1.67-12.45,1.27-5.95-.24-11.84.08-17.75,2.17-.15,1.97-3.33,4.4-3.53-.73,2.51-1.49,4.79-2.04,7.11-.43,1.83.08,3.62,1.5,4.79,1.49,1.23,3.36.97,4.97.15,1.18-.6,2.24-1.49,3.22-2.38,7.37-6.74,16.02-11.3,25.2-15,.27,3.1-2.45,4.25-4.06,6.06-3.87,4.35-8.19,8.36-9.76,14.27-1.19.85-2.99,1.63-2.12,3.37.72,1.44,2.38.71,3.67.37,1.44-.38,2.89-.71,4.29-1.2,15.87-5.56,31.74-4.99,47.64-.14.97.3,1.87.4,1.89,1.66Z"/>
  <path class="cls-3" d="m131.16,591.29c4.25-1.76,8.8-2.35,13.28-2.84,13-1.43,26.01-1.8,38.89,1.25,10.78,11.06,16.44,24.11,15.52,39.73-6.61,2.59-13.62,3.28-20.56,4.17-9.7,1.25-19.43.9-29.14-.1-.55-12.92-4.97-24.39-12.46-34.89-1.78-2.5-4.88-3.99-5.52-7.31Z"/>
  <path class="cls-12" d="m456.06,277.58c.84,17.37-2.29,33.62-15.01,46.44-5.32,5.36-12.24,7.8-20.08,5.84-.78-.2-1.61-.25-2.42-.28-10.41-.39-17.32-5.19-21.24-15.16-2.08-5.3-5.98-9.74-12.95-9.24-3.56.25-6.04,2.2-8.51,4.31-2.36,2.02-4.82,4.01-6.83,6.37-7.16,8.39-16.55,8.23-26.18,7.03-9.11-1.13-18.21-2.38-27.28-3.8-6.93-1.08-12.05-4.71-14.26-11.64-3.79-11.85-2.96-23.72,0-35.58,1.59.23,1.39,2.6,3.04,2.7,1.26-3.68,2.28-7.35,3.76-10.81,3.79-8.92,9.14-14.3,20.09-13.85,5.95.25,11.8,1.3,17.7,1.92,13.52,1.41,26.95,3.61,40.42,5.48,9.6,1.34,19.2,2.66,28.8,4,8.67,1.21,17.32,2.58,26.05,3.4,4.59.43,8.31,2.66,11.2,6.56,1.5,2.02,1.2,5,3.71,6.32Zm-43.09,44.9c4.5,1.05,9.07,1.35,13.66,1.77,6.77.62,11.49-2.12,14.87-7.77,6.84-11.43,8.6-23.9,6.98-36.82-.95-7.5-4.68-10.92-12.23-11.98-16.03-2.25-32.09-4.37-48.18-6.17-18.49-2.07-36.9-4.76-55.31-7.38-12.65-1.8-18.53,1.71-22.85,13.82-2.77,7.76-4.26,15.72-3.57,23.93,1.17,13.77,6.89,19.53,17.87,21.01,6.29.84,12.62,1.66,18.81,3.02,11.56,2.53,20.74-.25,27.47-10.47,1.79-2.72,4.18-5.39,7.63-6.46.35.42.53.18.69-.18l.24-.11.25.06c10.91-.19,19.22,3.64,23.17,14.6,1.16,3.21,3.31,5.93,5.99,8.08,1.25,1,2.56,2.73,4.52,1.05Z"/>
  <path class="cls-10" d="m381.16,485.4c-7.66-13.8-20.19-20.31-34.96-23.73-4.57-1.06-9.16-1.74-13.78-2.29-1.45-.18-1.66-.95-2.16-1.88-1.32-2.42-2.9-4.57-5.99-4.82.02-1.13-.28-2.09-1.09-2.95-5.78-6.06-9.7-13.25-13.04-20.86-.7-1.59-.66-3.84-2.82-4.61-.29-9.96-.6-19.91-1.96-30.08,3.6,5.68,7.21,11.36,10.81,17.04-1.68,1.98.32,3.34,1.1,4.55,2.41,3.73,5.02,7.31,7.81,10.81,13.16,16.52,30.51,24.29,51.21,25.41,9.09.49,17.89,2.81,26.86,4.05-1.57,2.42-4.15,3.79-6.03,5.89-.63.7-1.49,1.47-1,2.45.55,1.1,1.55.56,2.45.26,3.08-1.04,2.44.75,1.78,2.44-1.37,3.51-2.1,7.14-2.2,10.9-5.66,2.48-11.31,4.96-16.97,7.44Z"/>
  <path class="cls-10" d="m304.72,538.49c.03.23,0,.46-.09.67-.47.21-1.17.29-1.38.65-4.08,7-8.58,13.73-13.21,20.37-5.3-.36-10.61-.72-15.54,1.83-1.06.55-3.11.55-2.74,2.27.3,1.37,2.06,1.01,3.21.9,7.9-.77,15.5,1.01,23.14,2.53.19.27.39.54.58.81-11.84-.28-23.38,1.69-34.78,4.71-2.44.65-4.83,1.51-7.24,2.28-.44-2.33-2.6-2.74-4.24-3.35-4.16-1.54-4.58-4.25-3.45-8.07,1.54-5.2,3.51-10.21,5.57-15.21,1.97-4.79,1.99-9.48-1.22-13.85,3.85-3.96,8.16-7.45,11.61-11.85,2.16-2.76,7.27-2.5,9.91-.02,3.66,3.44,7.59,6.54,12.14,8.74,2.83,1.37,5.72,2.72,8.7.25.95-.79,1.78-.15,2.6.28,2.14,1.15,4.27,2.31,6.41,3.46.01.86.02,1.72.04,2.58Z"/>
  <path class="cls-4" d="m169.57,462.4c1.09-4.19,3.44-7.96,4.06-12.31,5.99,8.2,11.93,16.4,18.72,24.01,14.22,15.94,31.14,28.11,50.3,37.31,3.84,1.85,7.68,3.71,11.51,5.57-1.5-.02-2.56.79-3.49,1.83-4.19,4.74-9.4,8.21-14.78,11.36-10.58,6.2-21.7,11.07-34.11,12.28,3.45-10.11,6-20.38,5.13-31.19-1.54-19.17-10.11-34.06-26.99-43.75-3.33-1.91-6.89-3.41-10.35-5.11Z"/>
  <path class="cls-3" d="m11.36,604.92c-2.08-.78-2.2-2.81-1.25-3.91,1.97-2.31,2.72-5.49,5.34-7.28.85-.02,1.64-.24,2.16-.94,7.88-10.53,12.49-21.99,9.99-35.43-.27-1.44-.79-3.13-2.5-3.38-3.02-.43-2.28-2.02-1.34-3.69,2.29-4.04,3.73-8.44,4.8-12.88.94-3.92,2.42-7.85,1.67-12.04.45-1.82.87-3.65,1.34-5.46,1.91-7.25,1.71-8.7,12.39-8.35-.17,4.74.52,9.38,1.32,14.04,2.08,12.03,5.15,23.97,2.82,36.39-3.73,19.91-14.35,33.98-33.89,40.6-1.38.47-2.6.67-2.86,2.32Z"/>
  <path class="cls-3" d="m322.61,612.57c-5.14,1.98-10.41,2.96-15.96,2.97-7.15.01-14.29.46-21.44.71-.07-2.82-.28-5.57-1.11-8.35-3.54-11.87-10-21.61-20.15-28.82,10.33-3.57,20.99-4.98,31.88-4.85,1.33.02,2.72-.34,3.96.5,3.38,3.04,7.28,5.55,10.1,9.17,6.62,8.48,11.96,17.57,12.71,28.67Z"/>
  <path class="cls-8" d="m11.36,604.92c.26-1.65,1.48-1.85,2.86-2.32,19.54-6.63,30.16-20.69,33.89-40.6,2.32-12.42-.74-24.36-2.82-36.39-.81-4.67-1.49-9.31-1.32-14.04,3.64,1.61,5.96,3.92,6.87,8.2,2.02,9.53,6.76,17.88,12.74,25.53,1.13,1.45,2.19,2.96,3.28,4.44-.58.41-.79.68-.99.68-2.04-.07-4.54-2.08-5.98.13-1.38,2.1,1.19,3.85,2.01,5.77,2.65,6.21,4.76,12.59,5.77,19.09-1.17-.89-2.5-1.82-3.73-2.86-.93-.79-1.73-1.84-3.12-1.55-1.74.37-1.77,2.09-1.9,3.25-.49,4.46-1.44,8.8-3.07,12.97-5.43,13.94-15.55,21.05-29.97,21.08-5.01.01-9.87-1.38-14.5-3.38Z"/>
  <path class="cls-9" d="m167,424.29c1.58.02,1.8,1.41,2.44,2.39,17.5,26.68,39.62,48.12,69.2,61.12,11.3,4.97,22.98,9.1,35.11,11,5.02.79,8.17,2.28,10.51,6.41.43.76,1.13,1.5,2.5,1.67-.59-2.66-1.21-5.15-.61-7.89,3.3,1.16,4.34,5.25,7.86,5.94v9.51c-2.69-.52-5.06-1.12-7.47-1.4-4.26-.51-4.98.4-4.02,4.69.11.5.08,1.03.18,2.46-9.03-8.17-19.02-13.33-29.84-17.24,2.27,2.38,4.55,4.75,7.37,7.7-4.1-.54-7.06-2.06-10.03-3.37-37.71-16.64-65.15-43.77-82.61-81.06-.28-.6-.39-1.27-.58-1.91Z"/>
  <path class="cls-11" d="m381.16,485.4c5.66-2.48,11.31-4.96,16.97-7.44,1.77-.58,3.64-.94,5.11-2.22,9.22-3.54,18.45-7.05,27.65-10.64,2.03-.79,3.76-.69,5.79.21,8.55,3.75,17.17,7.34,25.82,10.87,1.57.64,3.13,1.69,5.01,1.24l.03-.14c-.21.76.39.79.86.95,1.26.91,2.56,1.68,4.21,1.38,1.55,1.66,3.96,1.66,5.68,2.97-.25,3.28-1.83,6.03-3.47,8.76-.51-.07-1.02-.14-1.53-.2-11.57-5.02-23.15-9.99-35.08-14.13-.55.16-.63.55-.52,1.03-.03,11.25-.12,22.5-.03,33.76.02,2.88-.7,4.99-3.47,6.11-.27.07-.55.14-.82.21-.53,0-1.06,0-1.59-.01-.58-.27-1.15-.54-1.73-.81-1.87-1.85-1.88-4.26-2.03-6.63.54-10.88.33-21.76.15-32.65.36-1.68-.24-1.86-1.52-.96-2.95.55-5.58,1.98-8.31,3.11-4.23,1.75-8.44,3.54-12.66,5.31-3.64,1.49-7.41,2.72-10.78,4.82-1.15.43-2.3.85-3.44,1.28-2.31.79-4.61,1.58-6.92,2.37-1.13-2.86-2.25-5.71-3.38-8.56Z"/>
  <path class="cls-8" d="m263.96,579.09c10.14,7.21,16.61,16.96,20.15,28.82.83,2.78,1.04,5.53,1.11,8.35-6.84-.5-13.85.19-20.51-.83-6.96-1.07-14.25-.94-20.94-3.84-2.22-.96-3.11-2.35-3.87-4.58-3.74-10.95-3.94-11.03,4.37-18.24,5.67-4.92,12.54-7.66,19.7-9.69Z"/>
  <path class="cls-8" d="m131.16,591.29c.64,3.32,3.74,4.81,5.52,7.31,7.49,10.5,11.9,21.98,12.46,34.89-5.7,0-11.2-1.7-16.82-2.17-6.3-.53-11.95-2.93-17.66-5.17-4.46-1.74-6.14-5.26-6.47-10.22-.83-12.37,6.62-17.72,15.44-22.18,2.38-1.2,4.78-2.4,7.53-2.47Z"/>
  <path class="cls-13" d="m217.59,300.25c-4.53-2.26-8.9-4.74-12.26-8.65.26-.07.52-.14.78-.23,5.09,2.5,10.52,4.19,16.08,4.82,5.38.61,10.62-1.1,15.46-3.49,9.54-4.71,14.92-12.88,17.07-22.89,2.74-12.76,1.63-25.19-6.34-36.19-3.15-4.35-7.23-7.73-12.31-9.64-3.16-1.18-3.08-3.82-2.95-6.23.11-2.16,2.15-1.16,3.24-.97,9.23,1.58,16.82,6.08,21.92,13.95,8.17,12.6,8.82,26.64,5.95,40.79-2.7,13.34-10.62,23.06-23.14,28.81-7.84,1.9-15.67,3.01-23.49-.08Z"/>
  <path class="cls-3" d="m438.2,477.01c11.93,4.13,23.51,9.11,35.08,14.13-1.54,5.93-3.13,12.12-7.5,16.44-4.77,4.72-10.73,8.04-17.5,9.61-4.69,1.09-9.38.77-14.09.73,2.77-1.13,3.49-3.24,3.47-6.11-.1-11.25,0-22.5.03-33.76.17-.34.35-.69.52-1.03Z"/>
  <path class="cls-9" d="m253.33,535.05c3.21,4.37,3.19,9.05,1.22,13.85-2.06,5-4.03,10.01-5.57,15.21-1.13,3.81-.71,6.52,3.45,8.07,1.65.61,3.8,1.02,4.24,3.35-6.34,3.98-13.8,6.14-19.31,12.63-.25-2.86.69-4.57,1.56-6.3.54-1.09,1.37-2.3.14-3.29-1.05-.85-2.29-.3-3.43.22-1.45.66-2.16,2.44-4.24,2.67,1.16-12.85-1.67-23.02-17.35-24.35,14.98-4.87,27.6-12.62,39.29-22.04Z"/>
  <path class="cls-7" d="m120.57,390.05c-4.4,5.04-9.45,9.5-13.3,15.03-.96,1.38-1.91,3.03-4.05,2.87,7.67-12.35,16.96-23.47,26.26-34.59,11.79-14.1,26.41-25.21,39.62-37.81,11.33-10.8,21.3-22.75,29.66-36.01,2.77-4.4,2.73-4.44,6.7-1.23.52.42.97.93,1.45,1.4-5.03,9.28-10.72,18.08-17.47,26.25-7.35,8.9-15.66,16.73-24.54,24-11.16,9.14-23.3,17.09-33.76,27.04-3.69,3.51-7.22,7.56-9.73,12.2-.28.29-.56.58-.84.87l.02-.03Z"/>
  <path class="cls-8" d="m313.74,159.49c13.74-1.57,26.48,1.67,38.57,8.01,1.23.65,3.54.88,3.15,2.57-.41,1.74-2.59.54-3.95.86-.48.11-1.08-.1-1.34.64.89,1.67,2.66.93,3.97,1.25,11.74,2.8,19.62,10.43,25.55,20.4,1.99,3.36,3.38,7.08,5.04,10.63.46.98.83,2.05,2.17,2.14-.55,3.33,1.46,6.53.48,9.87-3.43-3.92-4.26-9.17-7.04-13.46-3.68-5.69-7.18-11.48-12.78-15.59-1.38-1.01-2.99-2.03-4.41-.82-1.65,1.41-.15,3.04.65,4.33,3.26,5.24,3.99,11.08,4.25,17.15-2.62-4.9-5.36-9.65-8.64-14.11-10.16-13.79-24.18-21.52-40.39-25.41-4.57-1.1-6.74-2.09-4.91-6.93.15-.41-.25-1.03-.39-1.55Z"/>
  <path class="cls-2" d="m223.31,286.97c12.79-11.56,13.63-31.99,4.48-45.5-3.74-5.51-5.14-12.31-5.46-19.24-.74-16.16,2.24-31.45,9.94-45.69,3.14-5.81,6.62-11.49,12.2-15.42,2.45,2.95,2.64,5.44-.08,8.77-8.17,9.99-13.41,21.63-15.21,34.33-1.83,12.95-1.66,25.93,6.5,37.38,3.16,4.43,4.24,9.75,5.65,14.9-.13.25-.14.51-.02.77-.07,2.96-.14,5.91-.21,8.87-.11.28-.21.56-.32.84-2.77,9.33-7.74,16.74-17.47,20Z"/>
  <path class="cls-9" d="m484.71,95.17c.22-1.53.67-2.89,2.27-3.56.9-.37,1.87-.83,2.69-.19,1.09.85.05,1.75-.34,2.48-5.59,10.64-10.64,21.58-17.37,31.58-7.56,11.24-16,21.64-26.3,30.63-8.95,7.8-18.41,14.58-29.12,19.66-.12-.07-.28-.1-.35-.2q-5-7.8,2.88-12.45c25.74-15.16,46.44-35.5,62.42-60.69,1.01-1.58,2.26-3.09,2.27-5.13,0,0,.09-.07.09-.07.99-.39.88-1.24.86-2.06Z"/>
  <path class="cls-3" d="m167.87,327.42c-.43.52-.84,1.05-1.3,1.55-.59.64-1.37,1.08-2.16.61-1.01-.61-.17-1.39.02-2.11,1.27-4.76,3.52-9.08,6.14-13.18,2.33-3.64,4.93-7.11,7.33-10.71.96-1.44,2.23-3.16.72-4.79-1.57-1.69-3.55-.83-5.21.15-1.62.96-3.12,2.14-4.65,3.24-.58.41-1.27.82-1.86.44-.98-.64-.21-1.45.12-2.1,2.79-5.46,6.73-10.11,10.45-14.92,1.24-1.6,2.61-3.12,3.74-4.79,2.52-3.73.9-7.24-3.58-8.07-3-.55-6.16-.25-8.99-1.67,2.73-2.58,5.39-5.24,8.21-7.71,4.96-4.35,8.42-10.11,13.54-14.3.09.3.19.59.28.89-1.38,2.59-.75,5.41-.93,8.14-1.56,5.9.35,11.49,1.6,17.11.68,3.02,1.77,5.95,2.68,8.92-.43.5-.93.95-1.27,1.5-5.91,9.64-11.59,19.41-17.83,28.85-2.67,4.03-6.61,7.6-7.06,12.93Z"/>
  <path class="cls-9" d="m237.9,306.23c-.96,12.97,2.73,24.91,9.35,35.73,2.85,4.66,7.58,8.38,12.02,11.8,8.49,6.55,18.04,11.24,28.35,14.3.54.54,1.08,1.09,1.62,1.63-.09,2.56,2.57,3.56,3.21,5.7,1.89,5.15-2.84,2.36-3.36,2.21-8.05-2.36-16.03-4.93-23.18-9.54-14.63-9.42-24.77-22.3-30.57-38.72-2.57-7.27-4.65-14.58-4.77-22.34,2.32-1.43,4.87-.65,7.32-.76Z"/>
  <path class="cls-7" d="m172.65,567.78c12.89-18.5,21.25-38.53,19.52-61.57-.82-10.97-4.5-21.04-12.56-29.07-1.49-1.48-3.58-2.6-3.74-5.09,13.84,7.36,21.41,19.07,23.85,34.36,3.03,18.99-4.02,35.26-13.66,50.85-1.97,3.19-3.68,6.54-5.66,9.72-2.53,4.07-3.98,4.17-7.74.79Z"/>
  <path class="cls-5" d="m456.06,277.58c-2.51-1.32-2.21-4.29-3.71-6.32-2.89-3.91-6.61-6.13-11.2-6.56-8.73-.83-17.38-2.2-26.05-3.4-9.6-1.34-19.2-2.67-28.8-4-13.47-1.87-26.91-4.07-40.42-5.48-5.89-.62-11.75-1.67-17.7-1.92-10.95-.45-16.3,4.93-20.09,13.85-1.47,3.47-2.49,7.13-3.76,10.81-1.64-.09-1.45-2.47-3.04-2.7,2.27-10.05,3.72-20.53,15.2-25.06,5.26-2.08,10.5-.75,15.61-.07,8.92,1.2,17.88,2.18,26.78,3.66,7.28,1.21,14.69,1.63,22.03,2.68,19.08,2.71,38.22,5.03,57.34,7.51,11.73,1.52,15.51,5.13,17.8,17Z"/>
  <path class="cls-9" d="m301.26,393.38c-18.86-.54-35.02-7.66-49.35-19.73-18.04-15.2-26.57-35.24-30.36-57.84-.53-3.18-1.08-6.36-1.62-9.55,1.09-.02,2.19-.04,3.28-.05,1,5.08,1.92,10.18,3.01,15.24,7.48,34.82,30.97,59.39,69.53,64.64,3.81.52,5.88,3.21,5.5,7.29Z"/>
  <path class="cls-10" d="m201.78,542.44c12.41-1.2,23.53-6.07,34.11-12.28,5.37-3.15,10.58-6.62,14.78-11.36.92-1.04,1.99-1.85,3.49-1.83,2.36.09,4.19,1.49,6.74,2.38-17.4,20.09-39.7,30.14-65.41,35.56,2.28-4.53,4.29-8.5,6.3-12.48Z"/>
  <path class="cls-8" d="m249.73,172.21c2.85,5.01,5.7,10.04,8.57,15.04.88,1.53.99,2.87-.02,4.51-3.9,6.33-7.53,12.83-10.09,19.84-.74,2.02-1.52,2.71-3.8,1.9-2.64-.94-5.49-1.39-8.29-1.75-1.75-.22-2.49-.92-2.23-2.57,2.07-13.38,6.03-26,15-36.55.16-.18.47-.24.86-.43Z"/>
  <path class="cls-7" d="m325.01,353.53c7.11,16.89,19.33,28.87,35.96,36.14,16.41,7.17,33.47,8.88,50.95,4.21,1.2-.32,2.35-.59,3.58-.49-2.54,2.28-5.34,3.92-8.71,4.94-8.83,2.68-17.92,3.1-26.86,2.21-21.58-2.15-45.4-14.27-55.57-40.32-.49-1.25-1.13-2.45-1.5-3.73-.5-1.77-.5-3.37,2.14-2.96Z"/>
  <path class="cls-8" d="m300.57,513.92c1.9-.02,2.66,1.65,3.9,2.62,17.73,13.91,37.45,18.01,59.22,12.05,1.8-.49,3.31-1.93,5.35-1.65-5.81,7.02-13.6,9.87-22.37,10.59-13.9,1.15-26.7-3.02-39.18-8.43-4.46-1.93-8.74-4.29-13.08-6.5-1.15-.59-2.56-.97-3.07-2.66,1.92-.93,3.59.57,5.39.53,2.89-.07,5.46.02,3.92-4.14-.27-.72-.06-1.61-.08-2.42Z"/>
  <path class="cls-12" d="m285.38,255.13c-1.52,5.87-4.01,11.45-5.08,17.46-1.22,6.83-.92,13.73-.78,21.28-5.08-2.81-9.11-6.27-13.32-9.46-.91-.69-.73-1.62-.32-2.57,4.51-10.46,5.05-21.46,4.35-32.61,5.32,1.27,10.29,3.46,15.15,5.91Z"/>
  <path class="cls-7" d="m403.13,456.03c-8.97-1.24-17.77-3.56-26.86-4.05-20.69-1.12-38.05-8.89-51.21-25.41-2.79-3.5-5.4-7.08-7.81-10.81-.78-1.21-2.78-2.57-1.1-4.55,6.64,6.38,13.11,12.95,19.96,19.1,10.76,9.65,23.42,15.41,37.74,17.53,8.15,1.21,16.26,1.14,24.4.1.75-.1,1.6-.33,2.32.33-.14,1.61-2.76,2.91-1.05,4.67,1.9,1.96,4.08-.43,6.16-.14-.13,1.64-1.36,2.42-2.56,3.22Z"/>
  <path class="cls-7" d="m308.67,139.15c-1.95-5.91-1.56-12.18-3.02-18.21-5.77-23.74-15.34-45.82-27.52-66.94-7.5-13-14.71-26.24-18.62-40.93-.25-.94-.69-1.8.25-2.58,9.36,23.03,23.57,43.56,34.08,65.98,6.67,14.22,11.65,29.01,14.01,44.57.78,5.16.73,10.45,1.06,15.67-.08.81-.16,1.62-.24,2.43Z"/>
  <path class="cls-5" d="m376.26,514.63c-1.81-3.29.25-6.67-.42-10.21-2.11-11.13-8.25-18.96-17.7-24.45-10.55-6.13-22.12-8.44-34.23-8.46-1.54,0-3.29.65-4.6-.82,2.59-4.07,6.21-5.51,11.01-4.9,12.46,1.58,24.56,4.26,34.91,11.85,11.12,8.15,15.32,21.54,11.31,34.98-.19.64-.19,1.33-.28,2Z"/>
  <path class="cls-10" d="m284.34,280.75c.58-7.19,1.86-14.22,4.71-20.9.3-.7.25-1.65,1.31-1.77,3.15.14,6.31.29,9.46.43-2.15,7.83-4.42,15.61-5.23,23.77-.63,6.35-.79,12.64-.15,18.97-4.73-2.66-7.15-6.87-8.56-11.99-.77-2.82-.05-5.87-1.55-8.51Z"/>
  <path class="cls-7" d="m501.71,64.2c-3.84,2.06-6.22,5.76-9.4,8.56-9.5,8.39-20.09,15.02-31.27,20.73-15.04,7.68-30.18,15.13-44.42,24.28-2.42,1.56-4.19,4.38-7.57,4.27.7-2.86,3.56-3.32,5.42-4.89,11.57-9.76,24.8-16.86,38.27-23.49,16.96-8.35,32.71-18.47,46.64-31.32.57-.52,1.03-1.31,2.04-1.19.69.95.32,2.02.28,3.05Z"/>
  <path class="cls-13" d="m228.92,289.87c10.78-6.24,15.96-15.76,16.9-28.03.94-12.25-5.17-21.92-11.13-31.8,1.94-1.14,3.17.1,4.41.95,7.26,5.02,10.65,12.09,11.96,20.74,1.21,7.96.41,15.48-2.71,22.71-3.54,8.21-9.08,14.36-18.62,15.57-.27-.05-.54-.1-.81-.14Z"/>
  <path class="cls-5" d="m472.6,479.61c-1.65.3-2.95-.47-4.21-1.38-.29-.32-.57-.63-.86-.95,0,0-.03.14-.03.14-4.55-10.71-12.86-17.27-23.42-21.45-11.65-4.61-23.02-1.66-34.42.99l.19-1.67c4.53-5.5,10.83-6.16,17.36-6.65,14.19-1.06,26.01,3.76,35.79,13.86,4.68,4.84,7.6,10.73,9.61,17.11Z"/>
  <path class="cls-10" d="m47.26,505.77c-4.03-1.18-8-1.44-11.86.62l.21-.31-.37.03c3.04-8.21,6.48-16.2,11.95-23.16,5.39-6.85,12.09-11.84,20.33-14.73,4.22-1.48,4.42-1.33,4,3.28-13.54,3.64-25.28,20.19-24.27,34.27Z"/>
  <path class="cls-8" d="m428.02,510.68c.15,2.37.15,4.79,2.03,6.63-9.56-1.63-17.12-6.75-23.54-13.72-3.98-4.32-7.75-8.85-11.61-13.28,3.37-2.11,7.13-3.33,10.77-4.82,4.36,11.14,11.71,19.62,22.35,25.19Z"/>
  <path class="cls-7" d="m240.34,442.87c-3.75-6.73-9.22-12.21-13.5-18.57-8.03-11.93-15.16-24.27-18.68-38.38-.42-1.67-1.52-3.72,1.09-4.8l.9.84s-.03-.07-.03-.07c-.36,1.74.6,3.16,1.19,4.63,7.85,19.55,18.89,37.09,33.26,52.52.94,1.01,2.95,1.88,1.99,3.54-.66,1.14-2.49.35-3.79.38-.81.02-1.62-.06-2.43-.1Z"/>
  <path class="cls-9" d="m307.31,424.25c2.16.77,2.12,3.02,2.82,4.61,3.34,7.61,7.26,14.8,13.04,20.86.82.86,1.11,1.82,1.09,2.95-6.21-.02-12.42-.01-18.62-.06-2.85-.02-4.28-.92-3.01-4.19,3.03-7.75,3.3-16.08,4.68-24.17Z"/>
  <path class="cls-7" d="m305.42,472.6c.08-5.05-2.02-7.51-6.84-8.47-18.49-3.67-36.68-8.44-54.43-14.81-1.43-.51-3.22-.83-3.79-2.7,8.43,2.09,16.84,4.25,25.29,6.26,15,3.57,29.91,7.72,45.7,7.37-.7,1.79-3.7,2.61-2.45,4.7,1.33,2.24,4.22.12,6.68,1.42-2.64,1.87-3.43,5.23-6.84,5.79-.23-.39-.49-.44-.79-.06-.84.17-1.69.34-2.53.51Z"/>
  <path class="cls-5" d="m30.22,525.37c.75,4.19-.73,8.12-1.67,12.04-1.07,4.45-2.51,8.84-4.8,12.88-.94,1.66-1.68,3.26,1.34,3.69,1.71.24,2.23,1.93,2.5,3.38,2.49,13.44-2.12,24.91-9.99,35.43-.52.7-1.31.92-2.16.94,3.14-6.35,5.1-13.06,6.47-19.99.96-4.86.81-9.69-.05-14.46-.56-3.13-2.45-3.57-4.74-1.21-.27-.06-.55-.12-.82-.18,5.64-10.41,9.77-21.47,13.93-32.52Z"/>
  <path class="cls-5" d="m412.15,201.92c-1.95-15.38-8.42-28.34-20.41-38.39-4.37-3.66-9.15-6.7-14-9.66-1.13-.69-3.95-1.66-.53-3.32,5.97,2.36,12.31,3.96,17.42,8.11,11.76,9.56,18.98,21.42,18.45,37.11-.07,2.02-.1,4.05-.14,6.07-.25.04-.5.07-.76.1l-.02-.02Z"/>
  <path class="cls-5" d="m352.74,120.42c-9.18,3.7-17.83,8.26-25.2,15-.98.9-2.05,1.79-3.22,2.38-1.61.82-3.48,1.08-4.97-.15-1.42-1.18-1.94-2.97-1.5-4.79.55-2.32,1.31-4.59,2.04-7.11-2.43.2-2.23,3.38-4.4,3.53-1.81-8.17,5.43-9.34,10.07-13.51.11,3.52-1.52,5.81-1.89,8.35-.28,1.92-1.16,4.27.78,5.67,1.98,1.43,3.54-.52,5.01-1.53,8.48-5.85,17.88-9.48,27.88-11.67,1.66-.36,3.46-.75,5.05.44-3.69-.23-6.53,1.97-9.64,3.39Z"/>
  <path class="cls-8" d="m167.87,327.42c.45-5.33,4.39-8.9,7.06-12.93,6.24-9.45,11.92-19.21,17.83-28.85.34-.55.84-1,1.27-1.5,3.93,4.75,3.99,5.82.92,11.01-7.26,12.25-15.93,23.31-27.09,32.28Z"/>
  <path class="cls-5" d="m394.28,144.81c-.03-1.25-.92-1.36-1.89-1.66-15.9-4.85-31.77-5.42-47.64.14-1.4.49-2.85.82-4.29,1.2-1.28.34-2.95,1.07-3.67-.37-.87-1.74.94-2.52,2.12-3.37,1.31-.48,2.61-.96,3.92-1.44,7.54-.65,14.72-3.29,22.29-3.85,12.42-.92,24.19,1.1,35.15,7.2.55.31,1.23.65.89,2.15h-6.88Z"/>
  <path class="cls-9" d="m47.26,505.77c-1.02-14.09,10.73-30.63,24.27-34.27,0,.27.08.56.02.81-.76,3.09-5.45,9.81-8.05,11.81-6.84,5.26-11.16,12.19-12.79,20.62-.64,3.31-1.66,2.78-3.44,1.03Z"/>
  <path class="cls-8" d="m377.98,174.21c.33-2.04,1.67-1.63,3.06-1.34,5.13,1.03,9.51,3.41,13.59,6.69,6.62,5.32,12.26,11.3,15.13,19.48.44,1.26.69,2.67,2.4,2.88,0,0,.02.02.02.02.02.3.04.59.06.89-.08.92.21,2.09-.88,2.49-1.03.38-1.19-.88-1.63-1.39-7-8.07-14.22-15.92-22.56-22.66-.85-.69-1.64-1.43-2.83-1.4-2.12-1.89-4.24-3.77-6.36-5.66Z"/>
  <path class="cls-5" d="m198.84,629.43c.92-15.63-4.74-28.68-15.52-39.73,3.41-.38,5.96,1.09,8.08,3.63,6.52,7.79,11.07,16.52,12.85,26.59.97,5.51-.45,7.93-5.42,9.51Z"/>
  <path class="cls-5" d="m322.61,612.57c-.76-11.1-6.09-20.19-12.71-28.67-2.82-3.62-6.72-6.13-10.1-9.17,8.07-.88,12.13,4.98,16.49,10.07,5.01,5.85,8.15,12.77,10.06,20.2,1.31,5.07.51,6.43-3.73,7.57Z"/>
  <path class="cls-5" d="m377.98,174.21c2.12,1.89,4.24,3.77,6.36,5.66,5.81,10.99,7.41,22.59,5.04,34.76-.13.66-.24,1.34-.52,1.93-.2.42-.09,1.64-1.11.83-.32-.25-.25-1.01-.36-1.53.98-3.35-1.03-6.55-.49-9.87-.02-12.76-5.5-23.3-13.89-32.78,2.22-.73,3.36,1.13,4.97,1Z"/>
  <path class="cls-6" d="m409.84,455.29c-.06.56-.13,1.11-.19,1.67.36,1.59-.61,2.8-1.16,4.15-1.93,4.81-4.7,9.33-5.27,14.63-1.47,1.28-3.34,1.64-5.11,2.22.1-3.76.83-7.39,2.2-10.9.66-1.69,1.3-3.48-1.78-2.44-.9.3-1.89.84-2.45-.26-.49-.98.37-1.75,1-2.45,1.88-2.1,4.47-3.47,6.03-5.89,1.2-.79,2.42-1.58,2.56-3.22.2-.94.6-2.16,1.45-.62.72,1.29,1.36,2.44,2.7,3.1Z"/>
  <path class="cls-5" d="m190.41,249.07c-5.12,4.18-8.58,9.95-13.54,14.3-2.82,2.47-5.48,5.13-8.21,7.71-.61-.32-3.33.83-1.44-1.22,10.28-11.14,17.88-24.39,28.19-35.49.14.15.29.3.43.44-.78,5.15-4.16,9.31-5.44,14.27Z"/>
  <path class="cls-7" d="m372.98,407.51c-10.39,4.49-26.71-4.1-34.44-16.71,10.34,7.46,22.3,11.55,34.44,16.71Z"/>
  <path class="cls-4" d="m299.82,258.51c-3.15-.14-6.31-.29-9.46-.43,1.92-9.9,7.09-13.47,19.81-12.7-6.08,3.15-8.03,8.27-10.35,13.13Z"/>
  <path class="cls-6" d="m223.21,306.21c-1.09.02-2.19.04-3.28.05-1.37-.01-2.23-.99-3.25-1.68.3-1.44.6-2.88.9-4.33,7.82,3.09,15.66,1.98,23.49.08.09,1.71,1.16,2.7,2.57,3.43-1.61,1.55-3.88,1.55-5.76,2.47-2.46.12-5.01-.67-7.32.76-1.56-.76-3.09-1.64-4.71-2.24-1.24-.46-2.47-.32-2.65,1.45Z"/>
  <path class="cls-12" d="m284.34,280.75c1.51,2.64.78,5.69,1.55,8.51,1.4,5.13,3.82,9.33,8.56,11.99.45,1.49,1.9,3.37.75,4.44-1.5,1.39-3.12-.65-4.66-1.23-3.17-1.18-4.85-3.58-5.53-6.89-1.14-5.59-2.75-11.12-.67-16.82Z"/>
  <path class="cls-7" d="m292.45,375.38c-.65-2.14-3.31-3.14-3.21-5.7,3.68.23,6.84,1.85,9.92,3.71,1.47.89,2.91,1.88,4.71,2.03.2.36,0,1.17.88.76,0,0-.03-.08-.02-.08-.68,3.34,2.54,6.1,1.43,9.52-4.57-3.44-7.92-8.47-13.7-10.25Z"/>
  <path class="cls-8" d="m342.83,139.32c-1.31.48-2.61.96-3.92,1.44,1.57-5.91,5.89-9.93,9.76-14.27,1.62-1.82,4.34-2.96,4.06-6.06,3.11-1.42,5.95-3.62,9.64-3.39-3.46,3.88-8.16,6.41-11.4,10.52-2.97,3.75-6.76,6.92-8.14,11.77Z"/>
  <path class="cls-9" d="m384.02,229.4c-2.19.4-2.76-1.27-3.35-2.76-1.25-3.11-2.38-6.27-3.63-9.38-.59-1.48-1.09-3.15-3.17-3.18,0-2.89,0-5.77,0-8.66.46-.08.92-.15,1.39-.23,4.42,7.48,7.04,15.66,8.77,24.2Z"/>
  <path class="cls-7" d="m169.45,581.51c0-2.42-.02-4.83-.03-7.25,6.2.7,10.66,4.47,15.79,8.82-5.89.18-10.77-1.32-15.76-1.57Z"/>
  <path class="cls-7" d="m285.38,255.13c-4.86-2.45-9.82-4.64-15.15-5.91-.81-1.1-.4-2.61-1.89-3.71,3.35-1,5.45.88,7.75,1.63,2.8.91,5.4,2.6,8.25,3.21,4.5.96,3.28,2.63,1.04,4.78Z"/>
  <path class="cls-7" d="m290.04,560.18c4.63-6.64,9.14-13.37,13.21-20.37.21-.36.91-.44,1.38-.65-1.44,7.83-5.71,14.24-10.4,20.38-.92,1.21-2.71.88-4.19.64Z"/>
  <path class="cls-6" d="m189.76,258.1c.18-2.73-.45-5.55.93-8.14,1.75.01,2.79,2.1,4.71,1.63-.58,4.07-1.98,8.03-1.65,12.22-1.74-.26-1.47-1.62-1.48-2.78,0-1.72-.66-2.82-2.51-2.92Z"/>
  <path class="cls-5" d="m384.54,493.96c2.31-.79,4.61-1.58,6.92-2.37.13.52.29,1.03.39,1.55.33,1.65,2.5,3.43,1.2,4.73-1.33,1.32-3.83.72-5.77.31-2.18-.47-2.91-2.11-2.74-4.22Z"/>
  <path class="cls-7" d="m319.16,362.42c-3.2-1.93-6.84-3.45-7.19-7.95,6.29-.48,6.81.09,7.19,7.95Z"/>
  <path class="cls-6" d="m308.67,139.15c.08-.81.16-1.62.24-2.43,2.57,1.34,1.63,3.11.62,4.9-.22,0-.44-.03-.66-.08-.06-.79-.13-1.59-.19-2.38Z"/>
  <path class="cls-7" d="m308.86,141.54c.22.06.44.08.66.08-.02,1.62-.05,3.24-.07,4.85-2.65-1.35-1.68-3.14-.59-4.94Z"/>
  <path class="cls-6" d="m228.92,289.87l.81.14q-1.44,1.38-3.8.86c.7-1.39,2.25-.08,2.98-1Z"/>
  <path class="cls-6" d="m437.5,350.96c1.14,1.09,1.21,2.19.04,3.3-1.24-1.09-1.24-2.18-.04-3.3Z"/>
  <path class="cls-6" d="m130.47,460.99c.65-1.31,1.7-1.81,3.13-1.52-.32,2-1.94,1.31-3.13,1.52Z"/>
  <path class="cls-6" d="m196.46,219.81c.04-1.13-.76-2.4.6-3.29,1.22,1.35,1.56,2.55-.6,3.29Z"/>
  <path class="cls-6" d="m27.03,506.57c-.45-1.25.86-1.89,1-2.94.62,1.3.85,2.47-1,2.94Z"/>
  <path class="cls-6" d="m431.53,386c.29,1.23-.25,1.94-1.4,2.29,0-1.05-.07-2.14,1.4-2.29Z"/>
  <path class="cls-6" d="m71.7,459.32c.18-1.01.99-.73,1.63-.8-.17,1.04-.34,2.05-1.63.8Z"/>
  <path class="cls-6" d="m76.72,444.66c-.45-1.06.49-1.58.9-2.31.7,1.16.52,1.98-.9,2.31Z"/>
  <path class="cls-6" d="m75.09,450.36c-.14-.7-.29-1.4.68-1.63,1.23,1.15.37,1.43-.68,1.63Z"/>
  <path class="cls-6" d="m135.99,460c.45-.6,1.05-.58,1.69-.44-.28,1.22-.75,1.74-1.69.44Z"/>
  <path class="cls-6" d="m97.91,577.45c-.12-.71-.32-1.47.77-1.6,1.12,1.2.21,1.42-.77,1.6Z"/>
  <path class="cls-6" d="m97.09,581.52c-.13-.7-.29-1.41.69-1.62,1.21,1.16.34,1.43-.69,1.62Z"/>
  <path class="cls-3" d="m397.62,200.07c-.53.08-1.07.16-1.6.24.07-.45.1-1.27.23-1.29.71-.1,1.11.44,1.38,1.05Z"/>
  <path class="cls-7" d="m304.72,538.49c-.01-.86-.02-1.72-.04-2.58,1.81.83,1.14,1.7.04,2.58Z"/>
  <path class="cls-6" d="m206.11,291.36c-.26.09-.52.16-.78.23.08-.38.16-.75.24-1.13.18.3.36.6.54.9Z"/>
  <path class="cls-6" d="m431.78,518.12c.53,0,1.06,0,1.59.01-.53.72-1.06.72-1.59-.01Z"/>
  <path class="cls-6" d="m79.23,437.31c-.25-.59.15-.74.59-.86-.2.29-.39.58-.59.86Z"/>
  <path class="cls-6" d="m416.21,105.74c.14-.41.28-.83.86-.56-.29.19-.57.37-.86.56Z"/>
  <path class="cls-6" d="m418.59,104.15c.18-.41.33-.87.94-.62-.31.21-.63.42-.94.62Z"/>
  <path class="cls-7" d="m415.52,393.37c.28-.25.57-.49.85-.74-.28.25-.57.49-.85.74Z"/>
  <path class="cls-6" d="m421.03,102.52c.17-.41.32-.87.93-.62-.31.21-.62.41-.93.62Z"/>
  <path class="cls-6" d="m423.48,100.89c.17-.41.32-.87.93-.61-.31.2-.62.41-.93.61Z"/>
  <path class="cls-6" d="m426,99.22c.15-.4.25-.86.85-.52-.28.17-.57.34-.85.52Z"/>
  <path class="cls-6" d="m431.68,95.96c.15-.41.28-.86.87-.54-.29.18-.58.36-.87.54Z"/>
  <path class="cls-6" d="m54.45,465.85c.18-.41.32-.87.94-.62-.31.21-.62.41-.94.62Z"/>
  <path class="cls-6" d="m433.39,95.17c.05-.48.18-.87.8-.6-.27.2-.53.4-.8.6Z"/>
  <path class="cls-6" d="m52.01,467.48c.17-.42.32-.86.93-.63-.31.21-.62.42-.93.63Z"/>
  <path class="cls-6" d="m456.88,82.96c.18-.4.3-.89.92-.57-.31.19-.61.38-.92.57Z"/>
  <path class="cls-6" d="m458.65,82.14c.04-.49.18-.86.79-.61-.26.2-.53.41-.79.61Z"/>
  <path class="cls-10" d="m307.95,472.09c.3-.38.56-.32.79.06-.26-.02-.53-.04-.79-.06Z"/>
  <path class="cls-6" d="m432.33,384.39c.31.62-.1.73-.57.79.19-.26.38-.53.57-.79Z"/>
  <path class="cls-6" d="m408.89,161.95c.15-.38.27-.8.84-.55l-.84.55Z"/>
  <path class="cls-6" d="m30.32,496.79c-.22-.59.17-.75.61-.88-.2.29-.41.59-.61.88Z"/>
  <path class="cls-6" d="m199.73,197.81c-.15-.57.17-.78.66-.85-.22.28-.44.57-.66.85Z"/>
  <path class="cls-3" d="m412.24,202.83c-.02-.3-.04-.59-.06-.89.25-.02.51-.06.76-.1-.23.33-.46.66-.7.98Z"/>
  <polygon class="cls-6" points="35.4 506.39 35.24 506.11 35.6 506.09 35.4 506.39"/>
  <path class="cls-6" d="m169.48,574c-.21.09-.44.13-.67.14-.12-.24-.18-.5-.18-.77.28.21.56.42.84.63Z"/>
  <path class="cls-7" d="m168.63,573.37c0,.27.05.53.18.77-.32-.29-.65-.57-.97-.86.27-.05.54-.02.8.09Z"/>
  <path class="cls-6" d="m164.55,279.15c-.57.17-.81-.15-.94-.63.31.21.63.42.94.63Z"/>
  <path class="cls-8" d="m298.69,568.52c-.19-.27-.39-.54-.58-.81.59-.01.89.18.58.81Z"/>
  <path class="cls-6" d="m196.38,233.35c.46-.29.56-.2.27.27l-.23-.04-.04-.23Z"/>
  <path class="cls-6" d="m240.78,266.97c.11-.28.21-.56.32-.84-.11.28-.21.56-.32.84Z"/>
  <path class="cls-5" d="m196.65,233.61c-.27.39-.54.78-.81,1.18-.15-.14-.29-.28-.43-.43.32-.34.65-.67.97-1.01,0,0,.04.22.04.22,0,0,.23.04.23.04Z"/>
  <path class="cls-6" d="m241.31,257.27c-.11-.26-.11-.52.02-.77.08.18.18.36.23.55.01.05-.16.15-.25.22Z"/>
  <path class="cls-6" d="m16.48,539.15c-.21-.58.17-.75.61-.87-.2.29-.41.58-.61.87Z"/>
  <path class="cls-6" d="m80.84,433.24c-.2-.6.14-.76.64-.79-.21.26-.43.53-.64.79Z"/>
  <path class="cls-14" d="m528.9,629.94c.13-.18.31-.3.53-.35.43.6.98,1.49.1,1.78-.68.23-.41-.93-.63-1.44Z"/>
  <path class="cls-14" d="m348.25,631.29c.18.14.31.31.39.53-.44.05-.58-.11-.39-.53Z"/>
  <path class="cls-1" d="m101.1,479.4c-.09-.46-.17-.93-.26-1.39.35-.38.69-.36,1,.05.74.99-.3,1-.74,1.34Z"/>
  <path class="cls-1" d="m210.15,381.97l-.9-.84c.29-.1.71-.38.84-.28.36.28.67.72.05,1.12Z"/>
  <path class="cls-9" d="m120.55,390.08c.28-.29.56-.58.84-.87-.28.29-.56.58-.84.87Z"/>
  <path class="cls-2" d="m395.96,540.63c-1.97-.8-3.93-1.62-5.92-2.38-6.11-2.35-6.76-5.78-1.94-10.32,2.73-.42,4.99,1.44,7.61,1.57,1.16.45,2.31.91,3.46,1.37,1.03.36,2.05.71,3.08,1.07,1.69.69,3.38,1.38,5.07,2.06,4.05,1.51,8.09,3.02,12.14,4.53,2.35.96,4.69,1.96,7.05,2.88,5.15,2.01,5.93,4.46,2.9,9.21-2.52,1.66-4.94.34-7.39-.23-6.97-2.95-13.95-5.87-21.23-7.97-1.49-.94-3.1-1.54-4.84-1.77Z"/>
  <path class="cls-2" d="m441.55,557.02c.8.84,1.6,1.67,2.4,2.51.09,2.71.17,5.42.26,8.14,0,1.09,0,2.18,0,3.26-.07,6.38-.15,12.75-.23,19.13-.02,1.35.06,2.69-.77,3.92-1.54,2.28-3.82,2.43-6.16,2.14-2.3-.28-2.49-2.41-2.67-4.03-.34-2.95-.25-5.96-.33-8.94.03-7.6.05-15.21.08-22.81,1.4-3.53,4.4-3.46,7.43-3.32Z"/>
  <path class="cls-4" d="m265.66,90.3c4.55,20.13,7.42,40.43,6.47,61.16-.29,6.23-1.39,12.28-3.06,18.74-4.01-3.27-5.75-7.7-7.94-11.69-8.65-15.77-14.6-32.61-17.23-50.36-2.99-20.2-1.09-40,8.32-58.56.98-1.93,1.57-4.46,4.33-4.95.05.55.09,1.09.14,1.64,1.94,14.89,5.74,29.4,8.97,44.03Z"/>
  <path class="cls-1" d="m256.69,46.27c-.05-.55-.09-1.09-.14-1.64,2.64-2.03,3.25.73,4.08,1.99,5.91,8.97,10.51,18.63,14.54,28.57,5.84,14.42,10.31,29.25,13.57,44.45,2.28,10.62,2.61,21.4,2.99,32.21.37,10.61-.08,21.11-2.66,31.43-1.08,4.34-2.71,8.53-5.4,12.19-.63.85-1.37,2.01-2.59,1.52-1.8-.72-.18-1.81.02-2.65,3.43-13.88,5.61-27.96,4.92-42.26-.84-17.47-3.21-34.73-8.68-51.48-1.48-4.54-2.7-9.17-4.54-13.59-4.21-14.04-10.1-27.41-16.11-40.74Z"/>
  <path class="cls-6" d="m330.43,223c7.15.29,13.54,2.57,19.18,6.93,1.67,1.29,3.43,3.07,1.95,5.09-1.16,1.58-3.32,2.36-5.66,1.36-9.07-3.86-18.35-3.6-27.74-1.26-1.28.32-2.71.23-4.04.06-1.64-.21-3.21-.8-3.65-2.7-.43-1.85.51-3.13,1.94-4.12,5.43-3.75,11.57-5.09,18.02-5.36Z"/>
  <path class="cls-7" d="m256.69,46.27c6.01,13.33,11.89,26.71,16.11,40.74-1.28-.05-2.48.16-3.05,1.47-.83,1.89-2.46,1.82-4.09,1.82-3.23-14.63-7.03-29.14-8.97-44.03Z"/>
  <path class="cls-6" d="m386.3,365.74c-.63,3.2.17,7.2-3.19,8.68-3.43,1.51-5.67-1.79-7.75-3.98-3.92-4.12-5.95-9.08-5.57-14.88.14-2.17.16-4.93,2.12-5.77,2.52-1.08,5.53-.93,7.99,1.08,4.77,3.89,5.87,9.28,6.4,14.87Z"/>
  <path class="cls-1" d="m413.08,369.95c-.34-5.32,1.56-9.32,3.27-13.33,1-2.36,3.18-2.4,5.44-2.43,2.62-.04,2.83,1.98,2.98,3.5.59,6.17-.62,11.89-5.03,16.6-1.42,1.52-3.35,1.56-4.87.93-2.72-1.13-1.59-3.89-1.79-5.27Z"/>
  <path class="cls-6" d="m390.94,347.27c-5.71-5.12-11.97-9.05-19.78-6.15-8.09,3.01-8.77,10.53-8.81,18.27-3.28-3.57-2.95-13.59.49-18.71,3.74-5.57,9.29-5.99,14.81-5.02,6.38,1.12,11.03,5.08,13.3,11.6Z"/>
  <path class="cls-1" d="m304.74,376.2c-.87.41-.68-.4-.88-.76.56-.06.91.14.88.76Z"/>
  <path class="cls-1" d="m484.71,95.17c.02.81.13,1.67-.86,2.06-1.15-1.29-.07-1.64.86-2.06Z"/>
  <path class="cls-1" d="m378.1,298.98c-3.45,1.08-5.84,3.74-7.63,6.46-6.73,10.22-15.92,12.99-27.47,10.47-6.19-1.36-12.52-2.17-18.81-3.02-10.98-1.47-16.7-7.24-17.87-21.01-.69-8.21.8-16.17,3.57-23.93,4.32-12.12,10.2-15.63,22.85-13.82,18.42,2.62,36.82,5.31,55.31,7.38,16.09,1.8,32.15,3.92,48.18,6.17,7.55,1.06,11.28,4.48,12.23,11.98,1.63,12.92-.14,25.4-6.98,36.82-3.38,5.65-8.1,8.39-14.87,7.77-4.59-.42-9.17-.72-13.66-1.77-1.43-.94-2.7-1.89-3.77-3.41-3.34-4.78-5.97-9.96-8.86-14.98-3.8-6.6-13.61-9.11-21.06-5.34l-.25-.06s-.24.11-.24.11c-.24,0-.47.06-.69.18Zm-49.73-40.26c.71,1.59,1.31,2.78,1.78,4.02,5.61,14.73,11.25,29.45,16.77,44.21,1.38,3.68,2.29,6.33,7.7,5.17,6.7-1.43,9.72-5.32,6.84-11.5-.22-.47-.37-.98-.57-1.46-4.88-12.4-9.78-24.79-14.64-37.2-.28-.7-.62-1.19-1.37-1.27-5.41-.65-10.82-1.29-16.52-1.97Zm84.66,10.23c1.18,3.25,1.01,6.18,1.91,8.19,4.94,10.94,8.3,22.4,12.13,33.71.65,1.91.93,3.97,1.8,5.77.67,1.39,1.22,3.48,3.8,2.46,3.79-1.49,8.19-9.75,6.92-13.53-3.25-9.76-6.7-19.45-9.83-29.25-1.16-3.62-3.05-5.1-6.97-5.38-2.94-.21-6.11-.19-9.76-1.98Zm-72.26,41.65c-3.02-5.5-4.47-11.35-6.54-16.93-3.82-10.28-8-20.41-12.06-30.58-.41-1.03-.43-3.23-2.43-2.42-1.53.62-3.27,1.63-2.95,3.88.13.91.31,1.85.64,2.7,5.06,12.99,10.32,25.91,15.15,38.99,1.5,4.07,3.47,5.87,8.19,4.36Zm59.33-42c.92,5.36,3.5,10.21,5.25,15.33,3.56,10.47,7.31,20.87,10.86,31.35.47,1.38,1.04,2.47,2.3,3.07.94.44,2.02,1.38,3,.69,1.18-.84.08-1.84-.23-2.83-4.54-14.35-9.77-28.46-14.55-42.72-1.24-3.7-2.37-5.78-6.61-4.88Z"/>
  <path class="cls-5" d="m379.27,298.75c7.44-3.77,17.25-1.26,21.06,5.34,2.89,5.02,5.52,10.2,8.86,14.98,1.07,1.53,2.34,2.47,3.77,3.41-1.97,1.68-3.28-.05-4.52-1.05-2.68-2.15-4.84-4.87-5.99-8.08-3.95-10.96-12.26-14.79-23.17-14.6Z"/>
  <path class="cls-5" d="m378.1,298.98c.21-.12.44-.18.69-.18-.15.36-.33.6-.69.18Z"/>
  <path class="cls-3" d="m403.23,475.74c.57-5.3,3.33-9.82,5.27-14.63.54-1.35,1.51-2.56,1.16-4.15,11.41-2.66,22.78-5.6,34.42-.99,10.57,4.18,18.88,10.74,23.42,21.45-1.88.44-3.44-.6-5.01-1.24-8.65-3.53-17.27-7.12-25.82-10.87-2.03-.89-3.76-1-5.79-.21-9.2,3.6-18.43,7.1-27.65,10.64Z"/>
  <path class="cls-3" d="m428.02,510.68c-10.64-5.57-17.98-14.05-22.35-25.19,4.22-1.77,8.43-3.56,12.66-5.31,2.74-1.13,5.36-2.56,8.32-3.11.51.32,1.01.64,1.52.96.18,10.88.39,21.77-.15,32.65Z"/>
  <path class="cls-12" d="m428.17,478.04c-.51-.32-1.01-.64-1.52-.96,1.28-.9,1.87-.72,1.52.96Z"/>
  <path class="cls-12" d="m438.2,477.01c-.17.34-.35.69-.52,1.03-.11-.49-.03-.88.52-1.03Z"/>
  <path class="cls-3" d="m467.53,477.28c.28.32.57.63.86.95-.46-.16-1.06-.19-.86-.95Z"/>
  <path class="cls-11" d="m328.37,258.72c5.7.68,11.11,1.32,16.52,1.97.75.09,1.09.57,1.37,1.27,4.86,12.41,9.75,24.8,14.64,37.2.19.49.35.99.57,1.46,2.88,6.19-.14,10.07-6.84,11.5-5.4,1.16-6.32-1.49-7.7-5.17-5.52-14.76-11.16-29.48-16.77-44.21-.47-1.24-1.07-2.43-1.78-4.02Z"/>
  <path class="cls-11" d="m413.03,268.96c3.66,1.79,6.82,1.77,9.76,1.98,3.92.28,5.81,1.75,6.97,5.38,3.13,9.8,6.57,19.49,9.83,29.25,1.26,3.78-3.14,12.04-6.92,13.53-2.58,1.02-3.13-1.07-3.8-2.46-.86-1.79-1.15-3.86-1.8-5.77-3.83-11.31-7.18-22.78-12.13-33.71-.91-2.01-.74-4.95-1.91-8.19Z"/>
  <path class="cls-11" d="m340.77,310.61c-4.72,1.51-6.69-.29-8.19-4.36-4.83-13.08-10.08-26-15.15-38.99-.33-.86-.51-1.79-.64-2.7-.32-2.24,1.42-3.26,2.95-3.88,1.99-.81,2.01,1.39,2.43,2.42,4.07,10.17,8.24,20.3,12.06,30.58,2.07,5.58,3.52,11.43,6.54,16.93Z"/>
  <path class="cls-11" d="m400.1,268.6c4.24-.9,5.37,1.18,6.61,4.88,4.78,14.26,10.02,28.37,14.55,42.72.31,1,1.41,1.99.23,2.83-.97.69-2.06-.25-3-.69-1.26-.6-1.83-1.69-2.3-3.07-3.55-10.47-7.29-20.88-10.86-31.35-1.74-5.12-4.33-9.97-5.25-15.33Z"/>
</svg>