<?xml version="1.0" encoding="UTF-8"?>
<svg id="Layer_1" data-name="Layer 1" xmlns="http://www.w3.org/2000/svg" viewBox="0 0 822 206.62">
  <defs>
    <style>
      .cls-1 {
        fill: #ff7b00;
      }

      .cls-2 {
        fill: #030202;
      }

      .cls-3 {
        fill: #fff;
      }

      .cls-4 {
        fill: #613a30;
      }

      .cls-5 {
        fill: #040304;
      }

      .cls-6 {
        fill: #865039;
      }

      .cls-7 {
        fill: #9ccfe7;
      }

      .cls-8 {
        fill: #be9484;
      }

      .cls-9 {
        fill: #c78866;
      }

      .cls-10 {
        fill: #e7dfd3;
      }

      .cls-11 {
        fill: #ed773e;
      }

      .cls-12 {
        fill: #e3bba7;
      }

      .cls-13 {
        fill: #5ea9d1;
      }

      .cls-14 {
        fill: #ca593d;
      }

      .cls-15 {
        fill: #aa6b47;
      }

      .cls-16 {
        fill: #e7ded2;
      }

      .cls-17 {
        fill: #3578a7;
      }

      .cls-18 {
        fill: #fcfcfc;
      }
    </style>
  </defs>
  <g>
    <path class="cls-2" d="m136.92,59.69c-.36.41-.61.88-.77,1.41-1.66,2.55-3.15,5.21-5.01,7.63-.23.3-.1.47.06.75,2.28,3.87,3.71,8,3.79,12.54v.5c-.11.74-.22,1.47-.33,2.21h0c-.15.03-.24.1-.19.27-.02.16-.03.31-.05.47-1.1.99-.02,2.02-.06,3.03.04.24.08.48.13.71,0,.5,0,.99,0,1.49-.06.15,0,.23.15.27.03,1.23.07,2.47.1,3.7.28.55.12,1.16.26,1.74,0,1.07,0,2.15.02,3.22,0,.41,0,.83-.02,1.24-.11.55-.09,1.07.33,1.5,1.63,1.66,2.76,3.65,3.83,5.69.06.08.12.16.18.24.87,2.18,1.59,4.41,2.1,6.7.27,2.79.67,5.57.26,8.4-.14.97-.46,1.98-.24,3.01-.32,1.42-.61,2.85-.97,4.27-.58,2.3-1.97,4.24-2.87,6.4-.06.08-.12.15-.19.23-.12.15.06.45-.24.51l-.25.24c0,.16-.03.32-.04.48-.35.3-.75.54-.95.99-.59.66-1.19,1.32-1.78,1.99l-.22.22c-.51.43-1.01.86-1.52,1.3-.06.06-.13.12-.19.18-.26.2-.64.22-.81.56-.06.06-.12.11-.18.17-.22.06-.47.05-.56.33-.08.03-.14.08-.18.15-1.09.43-2.16.92-3.22,1.39-1.47.64-3.19.42-4.52,1.42-.31,0-.63-.03-.69.4-1.05.37-1.92,1.2-3.13,1.21-.37,0-.64.24-.61.74.2,2.78-.21,5.52-.64,8.26-.01.09.13.2.2.3-.23.57-.5,1.13-.67,1.72-.71,2.48-1.69,4.85-3.37,6.82-1.19,1.4-2.38,3.04-4.65,2.62-.53-.1-.7.31-.94.63-1.47,1.97-3.06,3.84-5.01,5.35-.99.77-2.01,1.67-3.31,1.67-.91,0-1.41.41-1.96.96-3.42,3.41-7.52,5.52-12.22,6.58-.64.14-1.64-.27-2,.72-.92,2.53-2.27,4.84-3.61,7.15-.08.08-.16.17-.23.25-.15.02-.24.08-.21.25-.34.5-.68,1-1.03,1.5-.28.16-.57.32-.57.7-.73.74-1.45,1.48-2.18,2.22-1.43,1.49-3.1,2.69-4.71,3.96-.08.02-.16.04-.24.07-.17-.03-.25.06-.27.21-.24.17-.48.34-.72.5-.41-.08-.6.22-.82.47-.89.43-1.77.87-2.66,1.3-.43-.05-.75.15-1.04.45-.08,0-.14.02-.2.06-.2-.03-.41-.11-.51.16-.16.03-.32.06-.48.09-.17-.06-.25.04-.3.18-.07,0-.14,0-.2.05-1,.2-2.03.28-2.98.7-.33.03-.66.06-.99.09-.2-.05-.39-.07-.5.16-1.4.02-2.81.03-4.21.05-.5-.14-.99-.07-1.49,0-.85-.48-1.86-.24-2.73-.62-.08-.32-.19-.53-.5-.16-.72.04-1.31-.42-1.99-.55-.07-.07-.14-.14-.21-.2-1.84-.34-3.02-1.87-4.68-2.54-.18-.07-.37-.14-.55-.22l-1.25-.67c-2.77-1.7-4.51-4.18-5.48-7.24.07-1-.43-1.96-.18-2.98.34-.07.57-.17.18-.5,0-.95.29-1.83.57-2.72l.19-.26c.38-1.32,1.12-2.45,1.98-3.47.54-.64.33-.98-.08-1.41-.79-.84-1.63-1.64-2.41-2.49-.43-.46-.89-.61-1.52-.59-1.73.05-3.48.2-5.18,0-2.74-.33-5.5-.67-8.16-1.48-.06-.32-.15-.57-.5-.2-.63,0-1.19-.25-1.73-.54-.06-.31-.14-.57-.49-.21-.09,0-.17-.03-.26-.04-.07-.07-.15-.14-.22-.2-.09-.03-.18-.05-.27-.08-.04-.09-.08-.18-.11-.26-.05.04-.1.08-.14.12-.08-.02-.16-.04-.24-.07-.1-.42-.34-.49-.69-.26-.29-.1-.62-.16-.8-.46-.08-.08-.16-.15-.25-.23-.09-.03-.17-.05-.26-.08-.09-.05-.17-.11-.26-.16-.19-.03-.41,0-.48-.26-.08-.08-.16-.16-.25-.24-.09-.03-.17-.05-.26-.08-.08-.05-.17-.11-.25-.16-1.48-.66-2.47-1.91-3.62-2.97-.23-.24-.46-.49-.69-.73-.13-.1-.25-.2-.38-.3-1.6-2.14-2.9-4.47-3.96-6.92-.9-3.02-1.06-6.11-.96-9.24.04-1.15.4-2.21.52-3.33.07-.61.09-1.14-.07-1.72-.82-3.05-.75-6.15-.46-9.26.06-.09.13-.18.19-.27.03-.24.05-.48.08-.72.06-.09.11-.18.17-.27-.04-.72.44-1.28.56-1.96.07-.08.13-.17.2-.25.93-2.14,2.35-3.86,4.45-4.92.55-.28.42-.58.24-.91-.41-.74-.8-1.48-.97-2.31-.06-.09-.13-.18-.19-.27-.26-1.07-.77-2.07-.81-3.2-.06-.09-.13-.18-.19-.28,0-.09.01-.17.02-.26.26-.42.37-.8-.26-.98-.47-3.01-.43-6.03-.28-9.06.1-1.99.68-3.88,1.04-5.82.06-.09.12-.18.17-.27.1-1.15.71-2.13,1.05-3.2.06-.09.13-.17.19-.26.44-.98.88-1.96,1.32-2.93,1.16-1.93,2.54-3.7,3.93-5.47.52-.43,1.03-.9,1.57-1.3.61-.45.66-1.05.62-1.72-.02-.48.03-.97.04-1.46.35-.07.57-.18.17-.51v-1.47c.32-.63.3-1.3.3-1.98.23-.1.24-.29.19-.5.11-.75.22-1.49.34-2.24.06-.09.13-.18.19-.27.02-.32.04-.64.06-.97.07-.09.13-.17.2-.26.09-.91.39-1.84-.19-2.71.34,0,.69-.03.67-.5-.04-.64-.55-.44-.92-.49,0-.58-.02-1.15-.03-1.73.41-1.74.82-3.47,1.22-5.21,0-1.6-.08-1.67-1.96-1.99l-.54-.66c.45-.33,1.19.51,1.46-.29.19-.57-.16-1.1-.59-1.52-.33-.33-.76-.28-1.15-.25-.48.04-.95.15-1.43.23h0c-.07-.08-.15-.16-.22-.24-1.3-1.66-2.61-3.33-3.91-4.99-.91-1.39-1.81-2.78-2.72-4.17-.19-.35-.37-.71-.56-1.06-.27-.81-.78-1.48-1.22-2.19,0-.16,0-.33-.01-.49.16-.02.37-.05.35-.24-.05-.34-.37-.21-.58-.25-1.26-2.28-2.25-4.68-3.03-7.16-.06-.09-.12-.18-.18-.27-.02-.16-.04-.33-.07-.49l-.18-.26c-.27-.99-.54-1.97-.81-2.96-.07-.09-.13-.18-.2-.27l-.09-.54c-.26-1.08-.51-2.17-.77-3.25-.15-.88-.3-1.76-.45-2.65.4-.35.36-.61-.16-.76-.03-.24-.06-.49-.09-.73.39-.32.17-.44-.17-.51C.09,31.44.05,27.96,0,24.48c.03-.91.06-1.82.09-2.73.53-.14.59-.39.19-.75.02-.58.04-1.16.06-1.73.06-.09.13-.19.19-.28,0-2.04.76-3.94,1.08-5.92.06-.09.11-.17.17-.26.1-.41.21-.82.31-1.22.06-.09.12-.17.18-.26.9-2.66,2.14-5.15,4.26-7.03,1.25-1.11,2.74-1.98,4.54-1.86.97.06,1.93-.12,2.92.14,2.88.76,4.31,2.92,5.37,5.42,1.14,2.7,1.59,5.63,2.73,8.34h0c.12.23-.13.58.24.74.59,1.56,1.18,3.12,1.78,4.67.05.09.11.18.16.26.88,2.34,1.98,4.57,3.31,6.69.05.08.11.16.16.25.03.09.05.18.08.26.06.08.12.16.19.24.05.22.03.47.32.56.03.08.08.14.15.18.03.09.06.18.09.27.06.08.13.16.19.23.06.21.03.47.31.55.06.06.11.13.17.19.19.33.63.53.57,1.01.06.08.13.16.19.23.05.21.03.47.31.55.06.06.12.13.17.19.09.91.79,1.48,1.26,2.17.09.1.19.21.28.31.08.58.69.82.85,1.35.58.59.86,1.44,1.63,1.87.08.09.17.18.25.27,0,.16.07.24.23.26.54.84,1.19,1.58,1.93,2.24.06.51.47.72.84.95,1.29,1.68,2.71,3.23,4.33,4.6.49.41.77.35,1.23-.04,1.44-1.22,2.93-2.39,4.41-3.57,2.13-1.62,4.53-2.79,6.84-4.11.71-.35,1.48-.52,2.21-.81,2.94-1.15,5.84-2.44,8.98-3.04,1.5-.28,2.98-.65,4.46-.97.17-.02.33-.03.5-.05.2.04.4.07.5-.17.41-.02.82-.03,1.23-.05.67.25,1.27-.19,1.91-.21,3.11-.11,6.2-.12,9.33.16,3.86.34,7.59,1.11,11.32,2.03.17.08.33.16.5.25,2.54.86,5.12,1.61,7.39,3.11.55.36.82.02,1.13-.31,1.45-1.6,2.98-3.14,4.33-4.83,1.14-1.42,2.56-2.64,3.34-4.34.57-.35.82-.96,1.19-1.48.43-.14.61-.53.85-.86,3.17-4.28,6.19-8.65,8.81-13.28.48-.82.96-1.64,1.44-2.47.78-1.36,1.57-2.72,2.35-4.09.89-1.44,1.79-2.87,2.68-4.31.79-.9,1.48-1.9,2.52-2.56.64-.34,1.27-.69,1.91-1.03.19.02.42.12.51-.17.08-.03.16-.05.24-.08.78.01,1.57,0,2.35.05,1.04.06,2.27.12,2.93.85,1.09,1.21,2.43,2.2,3.19,3.73,1.12,2.26,1.86,4.62,2.45,7.06v.28c.08.32.16.63.24.95v.99c0,.29-.05.59.26.77.08.49.15.98.23,1.48-.38.34-.13.43.2.5-.18.67-.27,1.33.07,1.98,0,.33.02.66.03.99v6.7c-.4,1.05-.32,2.14-.25,3.22-.05.07-.07.14-.07.22-.15.03-.24.1-.19.27.13,1.34-.34,2.62-.36,3.94-.83,4.71-2.04,9.33-3.46,13.89-.26.11-.2.32-.17.52-.1.25-.19.49-.29.74-.4.14-.1.52-.26.74-.15.02-.24.09-.17.26-.19.58-.38,1.15-.57,1.73-.15.02-.24.08-.18.25-.17.41-.34.83-.51,1.24l-.09.47c-.25.29-.45.6-.42,1.01-.17.2-.3.41-.29.68-.65.63-.75,1.54-1.16,2.29-.11.24-.22.49-.33.73-.28.28-.47.59-.47,1h.02Zm-100.43,16.34v-.23c1.28-.97,2.27-2.26,3.58-3.21,4.38-3.19,9.02-5.63,14.65-5.46-.38.38-.75.76-1.14,1.13-3.52,3.42-5.35,7.53-5.13,12.49.12,3.01.82,5.83,2.84,8.51,1.15-4.93,2.98-9.33,6.36-12.85,3.35-3.49,7.26-6.17,12.15-7.18-2.27,1.95-4.06,4.17-4.73,7.44.37-.3.53-.42.68-.55,5.26-4.77,11.46-6.41,18.42-5.57,2.22.27,4.38.75,6.46,1.59.66.27.96.23,1.23-.57.6-1.8,1.37-3.53,2.08-5.29.14-.34.31-.67.25-1.07-.24-1.67-.37-3.36-.73-4.99-.4-1.81-.94-3.6-2.29-5.39-.29,4.01-.91,7.59-2.7,11.03-3.05-8.63-5.08-12.34-7.41-13.43,1.05,2.75,1.52,5.5,1.17,8.54-.84-.79-1.21-1.78-2.1-2.26-4.75-7.21-11.19-11.9-19.8-13.36.07.23.22.35.38.45.17.11.36.19.54.28.45.48.89.97,1.37,1.42,2.27,2.13,4.14,4.6,5.85,7.18.4.6,1.03,1.18.73,2.05-.45-.28-.88-.61-1.35-.84-6.15-2.99-12.63-3.67-19.3-2.54-3.32.56-6.41,1.81-9.18,3.77-.2.14-.64.19-.49.57.14.36.45.17.74.11.76-.16,1.54-.26,2.31-.38.62,0,1.24.07,1.85,0,3.35-.44,6.65-.17,9.92.58,1.16.27,2.32.6,3.33,1.27.18.12.53.21.35.52-.08.13-.37.12-.56.18-.07-.02-.15-.02-.22,0h-.52c-3.24.1-6.37.73-9.3,2.16-2.42,1.19-4.58,2.74-6.15,4.99-2.12,2.55-3.85,5.27-4.12,8.7-.07.06-.15.13-.22.19.05.16.12.18.2.03h0Zm77.38,27.81c.02-.08.03-.16.05-.25.3-.28.24-.65.28-1,.26-.05.44-.18.36-.47-.07-.24-.24-.26-.42-.08-3.08,1.5-5.39,3.72-7.02,6.8-3.18,6.03-4.08,12.39-3.13,19.06.52,3.62,1.53,7.1,3.57,10.18,2.66,4.03,6.13,6.77,11.26,6.66.25.32.5.31.75,0,.02-.04.03-.07.05-.11-.02.03-.04.06-.06.1-.28-.28-.54-.59-1.01-.48-.83-.16-1.47-.72-2.22-1.06-.08-.06-.15-.13-.23-.19-.19-.07-.42-.09-.56-.22-1.6-1.55-3.18-3.1-4.35-5.04-1.99-3.28-2.89-6.88-3.36-10.62-.04-.33-.08-.67-.12-1-.01-.24-.03-.48-.04-.71.08-1.92-.13-3.86.25-5.76.55-2.79,1.08-5.58,2.29-8.21,1.14-2.46,2.62-4.76,3.47-7.36.06-.08.12-.15.19-.23h0ZM31.55,66.64c.18-.04.41-.04.37-.29-.02-.09-.22-.15-.34-.22-.92-.54-1.33-1.53-2.01-2.28-5.52-6.1-9.94-12.91-13.31-20.42-.76-1.69-1.54-3.38-2.31-5.07-.05-.24-.09-.48-.17-.71-1.25-3.66-2.35-7.37-3.01-11.19.34-.01.69-.02,1.03-.04.42.54.38,1.24.6,1.85,1.63,4.51,3.47,8.94,5.51,13.27,4.51,9.58,10.29,18.24,18.32,25.27.67.59,1.01.75,1.56-.13,1.05-1.69,2.46-3.09,4.02-4.33,1.06-.85,2.2-1.58,3.61-2.43-1.07.02-1.8.11-2.53.15-2.55.13-5.04.76-7.59.87-1.14.05-1.52-.41-1.25-1.5.23-.94.78-1.72,1.44-2.42,1.58-1.69,3.53-2.83,5.62-3.76.77-.34,1.09-.72.3-1.4-.68-.59-1.32-1.24-1.98-1.86-3.28-3.51-6.66-6.91-9.48-10.83-3.7-5.15-6.82-10.62-9.33-16.44-.66-1.53-1.18-3.12-1.76-4.68-.06-.09-.12-.18-.18-.26-.6-2.06-1.2-4.13-1.8-6.19-.06-.09-.12-.17-.18-.26-.32-1.13-.73-2.23-1.28-3.27-1.53-2.88-5.1-2.87-6.74-.75-.56.33-.85.89-1.18,1.4-2.36,3.72-3.24,7.97-3.65,12.2-.39,4.03-.41,8.13.19,12.19.43,2.86.92,5.69,1.69,8.48.05.07.11.15.16.22.8,3.86,2.3,7.47,3.96,11.02,2.3,4.92,5.32,9.39,8.77,13.57,0,.4.08.74.6.68,1.82,1.6,3.2,3.66,5.14,5.14,1.07.81,2.13,1.64,3.19,2.45,1.88,1.44,3.95,2.53,6.26,3.63-.17-1.41,0-2.58.23-3.75.29-.32.18-.75.31-1.11.06-.23.06-.51.19-.7.76-1.12.24-1.69-.78-2.25-1-.55-1.98-1.19-2.77-2.05.04-.65.61-1.14.53-1.82h0l.03.02Zm47.86,84.32c.64,2.19.45,4.46.58,6.69-.39,3.48-.62,6.98-1.4,10.4-.06.08-.11.17-.17.25-.41,1.3-.79,2.6-1.23,3.89-2.75,8.02-7.36,14.66-14.5,19.41-3.58,2.38-7.47,3.92-11.8,4.22-.83-.4-1.66-.4-2.49,0-1.95-.1-3.68-.77-5.19-2-1.78-1.76-2.26-3.79-1.31-6.16.15-.37.5-.77.3-1.26,0-.22.08-.5-.16-.62-.27-.13-.28.14-.33.31-4.04,4.79-1.55,10.63,3.74,12.3,2.28.72,4.58.82,6.93.61,2.86.1,5.51-.81,8.17-1.67.08.3.16.6.25.9-.59.41-1.18.83-1.77,1.24-2.28.79-4.52,1.72-6.92,2.2,2.48.6,5.03.67,7.48.26,6.85-1.15,12.28-4.77,16.5-10.23,2.22-2.88,3.99-6.02,5-9.55.63-1.09.89-2.31,1.35-3.47.06-.08.12-.17.18-.25.1-.41.21-.82.31-1.23.06-.09.12-.18.18-.27.03-.24.06-.48.08-.72.06-.08.11-.17.17-.25.37-1.3.62-2.62.79-3.96.49-.11.58-.35.24-.73,0-.25,0-.5.01-.76.32-.06.57-.16.2-.5l.05-.99h.93c.41,1.64.2,3.3.18,4.96-.27,1.95-.49,3.91-.83,5.85-.19,1.06.12,1.25,1.07.97,5.01-1.43,9.11-4.17,12.2-8.38,2.33-3.18,3.51-6.87,4.57-10.6h.55c.42,3.16-.41,6.2-1.08,9.48,5.42-5.25,7.65-11.71,8.79-18.71,1.36,2.99,1.09,6.16,1.33,9.29,2.14-3.83,2.63-7.94,2.22-12.21-.04-.45-.35-.49-.71-.49-4.22-.09-7.94-1.51-11.16-4.23-.81-.88-1.68-1.71-2.42-2.64-4.7-5.89-6.35-12.73-6.15-20.11.05-1.72.14-3.46.46-5.14,1.51-7.8,5.11-14.36,11.61-19.15,1.38-.72,2.76-1.45,4.15-2.14.44-.22.64-.48.47-.96-.83-2.41-1.72-4.79-3.57-6.66-.23-.23-.44-.49-.82-.47-1.02.07-2.05-.12-3.07.15-.58.15-1.55.35-1.7-.1-.23-.7.72-.81,1.24-1.05,2.59-1.19,5.34-1.97,8.04-2.86.76-.25.87-.59.68-1.21-.28-.91-.63-1.79-.87-2.71-.21-.82-.59-.84-1.23-.45-.99.6-1.97,1.21-3.01,1.71-1.76.86-3.03.3-3.49-1.55-.17-.69-.12-1.44.08-2.18.46-1.76,1.18-3.42,1.79-5.12.88-1.48,1.76-2.96,2.65-4.43.19-.31.2-.62.02-.93-1.79-2.99-3.99-5.63-6.55-7.99-.35-.33-.71-.42-.98.12-.63,1.25-1.26,2.49-1.88,3.74-3.5,6.41-6.08,13.03-4.73,20.6-1.97-2.39-2.58-5.13-2.25-8.06.08-.72,0-.91-.63-1.14-1.98-.71-4.02-1.19-6.09-1.43-8.1-.97-14.86,1.55-20.1,7.9-.72.87-1.13.82-1.58-.2-.48-1.07-.04-2.21-.26-3.29-.13-.65.74-1.51.07-1.76-.62-.24-1.2.7-1.73,1.19-4,3.71-6.27,8.31-7.04,13.7-.13.93-.74,1.64-1.63,1.98-.82.32-1.53-.02-2.14-.6-.77-.71-1.34-1.56-1.84-2.47-1.73-3.2-2.4-6.63-2.3-10.24.28-.57-.2-1.23.21-1.8.13-.18.13-.43-.02-.57-.23-.22-.46,0-.65.14-.98.68-1.99,1.33-2.93,2.07-8.13,6.4-12.95,15.03-16.44,24.53-1.14,3.1-1.83,6.32-2.45,9.56-.56,2.95-.99,5.92-1.28,8.91-.21,2.18-.03,4.45-1.31,6.55.94-.43,1.88-.85,2.82-1.28,3.48-1.32,7.13-1.83,10.79-2.19,3.17-.31,6.32.08,9.41.76,5.41,1.18,10.04,3.77,13.78,7.9l-.12.6c-.34-.22-.66-.46-1.01-.66-1.44-.81-2.64-2.04-4.3-2.44-.25-.36-.63-.46-1.02-.57-.09-.05-.18-.1-.27-.16-.08,0-.15,0-.22-.05-.1-.43-.34-.5-.69-.26-.84-.33-1.69-.66-2.53-.98-.09-.07-.18-.13-.26-.2-.82-.18-1.64-.36-2.46-.54-.09-.07-.18-.13-.27-.2-1.68-.25-3.36-.55-5.04-.73-2.79-.29-5.55-.08-8.31.46-4.6.91-9.01,2.27-12.83,5.11-.29.21-.67.37-.57.85-.49.32-.95.65-1.01,1.3-.41-.2-.82-.4-1.23-.6-.08-.07-.16-.13-.25-.2-3.18-.48-4.58.12-6.09,2.77-.99,1.74-1.41,3.7-1.57,5.68-.17,2.21.43,4.33,1.08,6.42.18.58.23,1.12.02,1.67-.55,1.47-.72,2.98-.62,4.53-.25,2.15.02,4.24.65,6.3,1.71,5.6,5.73,9.08,10.77,11.51,2.82,1.36,5.89,2.12,9.02,2.25,5.17.23,10.33.19,15.42-1.02,7.55-1.79,14.43-4.92,20.46-9.86.29-.02.43-.18.46-.46,3.28-2.86,6.09-6.12,8.21-9.94.47-.05.47-.39.47-.73.19-.5.37-1.01.56-1.51.06-.07.12-.15.18-.22.1-.34.21-.67.31-1.01.3-.06.54-.15.23-.49v-.25c.32-.06.57-.15.21-.5.04-.97-.74-.67-1.24-.79v-1.4c2.04-.63,4.06-.41,5.92.51,3.55,1.75,5.58,6.72,4.47,10.6-.09,0-.18,0-.27.02-.07-.17-.15-.34-.22-.51.04-.05.08-.1.11-.15-.09-.03-.18-.07-.28-.1-.47-2.05-1.36-3.89-2.74-5.49-.21-.53-.65-.85-1.04-1.23-.07-.12-.13-.34-.21-.35-.26-.03-.25.21-.27.39h-.04Zm-33.75,37.66c.02.2.06.4.07.6.11,2.77.64,3.15,2.99,3.47.4.05.8.18,1.2,0,2.24.25,4.31-.5,6.41-1.09.09-.07.18-.13.27-.2.99-.43,1.98-.86,2.97-1.28.08-.06.17-.13.25-.19,2.86-1.61,5.45-3.59,7.57-6.09,1.03-1.21,2.53-2.22,2.4-4.13.28-.02.65.03.65-.38-.01-.55-.44-.62-.88-.62-.11-.49-.22-.99-.33-1.48.49-.4.98.06,1.47,0,.42.29.16.85.52,1.3.74-1.07,1.3-2.16,1.79-3.28.07-.09.13-.17.2-.26.49-1.57,1.25-3.04,1.47-4.69.48-.05.58-.34.43-.86-.26.29-.62.39-.66.8-1.01,1.16-1.95,2.39-3.05,3.47-.77.75-1.28,1.44-.91,2.53-.45.28-.95.26-1.45.25-.31-.51-.51-.1-.76.07-.95.66-1.81,1.46-3,1.69v-.98c.53-.43,1.05-.87,1.58-1.3,1.15-.93,1.53-2.07,1.14-3.44-.06-.09-.11-.17-.17-.26-.02-.17-.05-.33-.07-.5-.06-.08-.12-.17-.18-.25l-.07-.48c-.06-.09-.13-.18-.19-.27-.04-.07-.05-.15-.05-.23-.06-.09-.12-.17-.18-.26-.08-.42-.23-.82-.53-1.14,0-.12.01-.24.02-.36.07-.17.14-.34.21-.52.17.13.33.27.5.4.83,1.2,1.46,2.51,2.08,3.82.22.46.41.71.83.19,1.57-1.93,3.4-3.69,4.33-6.08.71-.6,1.35-1.3,1.41-2.24.16-2.35-.24-4.62-1.13-6.93-.35.51-.63.9-.89,1.31-2.56,4.02-5.78,7.44-9.61,10.28-2.64,1.96-5.48,3.6-8.45,5.03-2.03.97-4.08,1.88-6.25,2.49-.89.25-.99.61-.3,1.22.08.07.1.22.15.33-.15.37-.48.37-.8.38-.54-.33-.34-1.54-1.53-1.14-2.2.73-4.52.99-6.88,1.47,1.34,1.3,2.65,2.56,3.45,4.17.53,1.06,1.22,1.31,2.26,1.02.08.05.16.1.23.15,0,.43,0,.86,0,1.29h-1.51c.72.65.42,1.54.86,2.19l-.03.77c-.06.16.02.22.17.21v.03Zm71.09-99.45c-.39.11-1.14.09-.88.65.57,1.27.52,2.62.81,3.91.08.37.29.69.76.64.02.2.05.41.07.61l-.08.04.08.04c.09,2.6-.33,5.16-1.02,7.62-.85,3.06-2.33,5.89-3.71,8.75-2.09,4.32-3.01,8.89-2.61,13.7-.21,1.62.18,3.18.49,4.75.69,3.47,2.11,6.58,4.44,9.25,1.81,2.06,4.16,3.28,6.82,3.59,5.62.64,10.93-4.09,12.56-7.64,1.45-2.03,2.26-4.32,2.8-6.72l.15-.22c.03-.25.07-.51.1-.76.29-.08.5-.18.18-.48l.06-.76c.31-.08.52-.2.16-.5.02-.41.03-.83.05-1.24.32-.06.57-.16.2-.5.33-2.49.16-4.94-.19-7.43-.71-5.03-2.78-9.33-6.26-12.98-.03-.07-.09-.12-.16-.15-.06-.41-.22-.82-.1-1.25.34-.03.51-.2.49-.55-.02-.3-.21-.41-.47-.45.11-4.47-.1-8.92-.78-13.33-.13-.82.35-2.07-1-2.49-2.68-.84-5.39-.94-8.12-.27-.41.1-.84.12-.77.72-.66.07-1.34-.16-1.97.16-1.67.39-2.37,1.4-2.12,3.04.01.08.01.16.02.24h0Zm-2.17.29c-.88-1.24-2.24-1.55-3.89-2.14,1.26,2.19,2.12,4.13,2.59,6.23.12.51.2.96.92.83.68-.12.96-.43.95-1.16-.02-1.04-.33-2.02-.46-3.04.29-.04.6-.14.57-.47-.04-.39-.42-.24-.67-.26h0Zm-77.09-10.44c.57.06.9-.36,1.26-.67,2.38-2.06,4.9-3.91,7.77-5.24.95-.44,1.31-1.24,1.64-2.32-1.72.39-3.02,1.25-4.29,2.13-2.46,1.68-4.66,3.64-6.36,6.12-.06.08-.12.17-.18.25.03.02.07.03.1.05.02-.11.04-.21.06-.32Zm-6.44,2.24c.21.24.57.39.61.02.06-.55-.48-.48-.87-.5-1.86-1.25-3.71-2.53-5.6-3.73-.78-.5-1.46-1.87-2.27-1.41-.74.42-.57,1.86-.78,2.86-.14.65.03,1.05.72,1.33,2.63,1.09,5.33,1.68,8.19,1.43Zm99.21-5.5l.05.05.05-.05c-.61-2.09-1.25-4.06-3.94-4.38-3.52-.41-6.96-.25-10.34.89-1.39.25-2.64.91-3.94,1.41-.72.28-.89.74-.61,1.46.47,1.23.89,2.48,1.32,3.73.54,1.55,1.03,3.11,1.6,4.64.31.85,1,1.32,1.85.86,1.13-.61,2.37-.86,3.56-1.25,3.2-1.05,6.45-1.19,9.74-.39,2.22.53,2.25.46,2.08-2.09-.16-1.62-.68-3.14-1.21-4.65-.02-.12,0-.28-.21-.23h0Zm-83.19-26.74c-.47.4-.95.78-1.4,1.2-.21.19-.66.34-.35.77.21.3.55.38.89.28,1.84-.56,3.76-.67,5.65-.92,1.84-.25,3.7-.26,5.54.02,1.38.21,2.56-.28,3.97-.65-1.38-1.23-2.57-2.35-4.03-3.14-1-.63-2.02-1.25-3.01-1.9-.51-.33-.93-.3-1.46.02-2.06,1.27-4.03,2.67-5.8,4.32Zm-23.95,44.39c.33.37.43.14.5-.19.33-.08.66-.17.99-.25.03.16.05.34.25.34s.22-.19.24-.35c.58-.2,1.16-.36,1.8-.3.61.06,1.15-.16,1.42-.75,1.09-2.39,2.56-4.55,4.05-6.69.59-.84.28-1-.59-1.01-1.18-.02-2.4.01-3.52-.28-.95-.25-1.12.17-1.35.84-.67,1.99-1.21,4.02-2.14,5.91h-.95c.19-2.18.59-4.33,1.26-6.41.4-1.24-.68-1.01-1.26-1.27-.48-.22-.92-.39-1.11.38-.67,2.75-1.29,5.51-1.55,8.32-.21,2.25-.09,2.26,1.96,1.72h0Zm-2.97,3.66c-1.76,1.18-3.13,2.66-4.36,4.43-1.89,2.72-3.22,5.67-4,8.81-.85,3.44-1,7-.52,10.55.46,3.39,1.47,6.6,3.23,9.54.18.29.32.79.78.64.33-.1.68-.36.87-.65.27-.4-.11-.78-.28-1.14-1.74-3.65-2.61-7.51-2.61-11.54,0-7.62,2.33-14.43,7.19-20.34.36-.04.62-.2.64-.59,0-.1-.1-.28-.16-.28-.4-.02-.7.13-.79.57h.01Zm66.95-54.69c2.22.24,4.22,1.22,6.19,2.12,11.05,5.03,18.77,13.33,23.57,24.42.21.49.44.67,1.1.52,2.48-.56,5.01-.79,7.56-.59.09.06.27.17.27.16.54-.79.18-1.7-.81-2.11-.46-.76-.92-1.51-1.37-2.27-2.16-4.72-5.57-8.54-9-12.34-1.32-1.46-2.89-2.67-4.43-3.89-3.13-2.49-6.49-4.6-10.2-6.11-.08-.07-.17-.13-.25-.2-1.41-.51-2.81-1.02-4.22-1.53-.09-.07-.18-.13-.26-.2-.74-.18-1.48-.37-2.22-.55-.09-.06-.18-.13-.27-.19-.57-.1-1.14-.2-1.71-.3-.06-.32-.15-.57-.5-.21l-.74-.08c-.07-.3-.18-.53-.49-.18-.75-.09-1.5-.18-2.24-.27-.1-.06-.2-.12-.3-.19-1.64-.1-3.27-.21-4.91-.31-.14-.53-.4-.58-.76-.17-1.64,0-3.29,0-4.93,0-.32-.41-.44-.2-.51.16-1.92,0-3.81.22-5.7.55-3.06.53-6.09,1.2-8.96,2.43-1.05.18-1.96.68-2.89,1.16.31.51.76.32,1.15.37,1.08.13,2.16.28,3.25.39,2.05.2,3.83,1.3,5.8,1.73.94.52,1.91.99,2.8,1.57.82.54,1.72.65,2.61.5,3.67-.62,7.31-.1,10.83.74,12.08,2.85,20.91,9.98,26.73,20.9.37.69.65,1.44,1.1,2.08.69,1,1.39-.03,2.08-.13.64-.09.43-.61.27-.98-1.35-3.11-2.91-6.1-5.03-8.77-1.58-2.32-3.26-4.55-5.25-6.54-4.97-4.98-10.69-8.75-17.4-10.96,0-.24,0-.49.01-.73h.03Zm16.01,61.51c-2.06,2.5-3.67,5.3-4.78,8.3-1.05,2.83-1.65,5.82-1.76,8.89-.21,6.1.61,11.95,3.85,17.27,3.02,6.22,10.44,9.63,14.75,8.33-2.64-.95-5.03-2.31-6.99-4.32-3.98-4.08-5.69-9.18-6.47-14.68-.06-.1-.13-.19-.19-.29v-2.24c.85-.88.84-1.46-.02-2.23-.24-5.02,1.04-9.71,3.22-14.17,2.08-4.26,5.1-7.6,9.64-9.34.63-.24,1.09-1.89.67-2.44-.18-.23-.45-.11-.67.02-3.54.8-6.64,2.46-9.34,4.88-.61-.02-1.24-.13-1.81.22-.84.51-.88,1.12-.12,1.8h.02Zm30.62-79.39c-.18,1.39-1.06,2.55-1.32,3.92-.6.78-.92,1.71-1.35,2.58-3.41,6.98-7.04,13.84-11.42,20.28-.26.38-.53.7-.1,1.18,2.38,2.62,4.21,5.65,6.2,8.55.16.52.43.99.79,1.4.37.83.72,1.66,1.12,2.47.75,1.52.78,1.52,1.8.07,3.36-4.79,5.99-9.96,8.03-15.44,1.38-3.71,2.67-7.45,3.22-11.4.3-.06.57-.13.23-.49.02-.26.05-.51.07-.77.05-.08.1-.15.15-.23-.1-.78.35-1.47.35-2.24.3-.08.5-.2.16-.49.17-1.3.38-2.6.51-3.9.46-4.6.67-9.19,0-13.82-.49-3.45-1.1-6.81-2.92-9.83-1.79-3.42-4.75-3.64-7.05-.51-.93,1.27-1.77,2.59-2.55,3.95-2.38,4.15-4.75,8.31-7.37,12.31-4.37,6.7-9.18,13.07-14.66,18.91-.69.73-.61,1.07.25,1.4,2.94,2.19,5.99,4.24,8.54,6.91.82.86,1.22.72,1.81-.2,2.84-4.48,5.53-9.03,8.06-13.68,2.11-3.88,4.15-7.79,6.62-11.46.37.02.65.18.8.54h.02ZM23.82,97.36c-2.52,2-4.35,4.52-5.64,7.45-2.34,5.18-3.06,10.62-2.41,16.24.25,2.13.73,4.23,1.66,6.19.49,1.02.71,1,1.36.07.78-1.12.67-2.44.84-3.67.42-2.96.5-5.97,1.06-8.9,1.19-6.24,2.86-12.36,5.42-18.2.08-.17.25-.35-.01-.55-.84.32-1.66.68-2.28,1.38h0Zm85.21-27.49c-1.6,2.65-2.81,5.21-3.56,7.97-.07.27-.19.71.18.89.29.14.65.09.94-.12.74-.52,1.47-1.07,2.24-1.54.59-.36.67-.68.43-1.38-.29-.86-.92-1.99-.03-2.75,1.27-1.08.49-1.87-.2-3.07Zm-21.11-14.4c.52-1.01.42-1.99.4-2.95,0-.27.07-.65-.29-.73-1.12-.27-2.08-1.06-3.37-.99,1.3,1.4,2.2,3.02,3.26,4.67Zm8.7,3.45c.69-.72,1.51-1.31,1.36-2.11-.15-.78-1.07-1.11-2.02-1.34.22,1.16.42,2.2.65,3.45h0Zm-64.25,8.09c-.06,0-.12-.01-.18-.02.03.02.05.06.08.06s.06-.03.1-.05h0Z"/>
    <path class="cls-16" d="m134.73,94.65c-.03-1.23-.07-2.47-.1-3.7.75.74.81,2.91.1,3.7Z"/>
    <path class="cls-16" d="m134.37,88.48c.04-1.01-1.04-2.04.06-3.03,0,.61.02,1.21.2,1.81.12.4.2.9-.26,1.22Z"/>
    <path class="cls-16" d="m53.61,205.77c.5-.07.99-.14,1.49,0,0,.37,0,.85-.47.85-.5,0-.95-.24-1.02-.85Z"/>
    <path class="cls-16" d="m41.71,200.82l1.25.67c-.2.43-.55.66-.98.44-.46-.23-.2-.73-.27-1.11Z"/>
    <path class="cls-16" d="m134.66,84.71c.11-.74.21-1.47.32-2.21.65.7.53,1.55-.32,2.21Z"/>
    <path class="cls-5" d="m18.69,79.77c.37.05.89-.15.92.49.03.47-.33.49-.67.5-.3-.27-.36-.61-.26-.99h.01Z"/>
    <path class="cls-16" d="m140.38,52c.19-.58.38-1.15.57-1.73.41.56.22,1.14-.57,1.73Z"/>
    <path class="cls-16" d="m134.49,90.68c0-.5,0-.99,0-1.49.7.5.71,1,0,1.49Z"/>
    <path class="cls-16" d="m142.81,118.12c.4.36.36.76.15,1.24-.53-.4-.25-.84-.15-1.24Z"/>
    <path class="cls-16" d="m9.86,170.55c.23.24.46.49.69.73-.1.22-.21.49-.5.32-.45-.26-.32-.66-.19-1.05Z"/>
    <path class="cls-16" d="m139.69,53.49c.17-.41.34-.83.51-1.24.39.65.21,1.09-.51,1.24Z"/>
    <path class="cls-16" d="m136.92,59.69c0-.41.19-.72.47-1,.45.62.05.84-.47,1Z"/>
    <path class="cls-16" d="m139.18,54.98c-.03-.41.18-.72.42-1.01.51.61.07.82-.42,1.01Z"/>
    <path class="cls-16" d="m65.47,204.23c.28-.3.6-.5,1.04-.45-.13.65-.64.41-1.04.45Z"/>
    <path class="cls-5" d="m8.03,123.17c.63.18.52.56.26.98.08-.37-.45-.58-.26-.98Z"/>
    <path class="cls-5" d="m.28,21c.4.36.34.62-.19.75,0-.27-.18-.58.19-.75Z"/>
    <path class="cls-16" d="m69.16,202.49c.22-.25.4-.56.82-.47-.05.54-.44.5-.82.47Z"/>
    <path class="cls-16" d="m78.09,195.05c0-.39.29-.55.57-.7,0,.39-.04.74-.57.7Z"/>
    <path class="cls-5" d="m122.74,147.22c0,.3-.29.35-.45.51-.08-.03-.17-.07-.25-.1.06-.43.38-.4.69-.4h0Z"/>
    <path class="cls-16" d="m141.12,50.01c.15-.22-.15-.6.26-.74.46.44.04.57-.26.74Z"/>
    <path class="cls-16" d="m133.96.21c-.09.29-.31.19-.51.17.07-.35.18-.57.51-.17Z"/>
    <path class="cls-5" d="m17.87,91.17c.4.32.17.44-.17.51-.03-.2-.11-.41.17-.51Z"/>
    <path class="cls-16" d="m59.31,205.72c.11-.24.3-.21.5-.16-.08.33-.19.54-.5.16Z"/>
    <path class="cls-5" d="m50.39,204.99c.3-.36.42-.16.5.16-.22.11-.4.11-.5-.16Z"/>
    <path class="cls-16" d="m64.75,204.45c.1-.27.32-.19.51-.16-.08.36-.2.56-.51.16Z"/>
    <path class="cls-16" d="m18.35,87.21c.05.21.04.4-.19.5-.38-.33-.15-.43.19-.5Z"/>
    <path class="cls-16" d="m71.22,34.66c-.11.24-.3.21-.5.17.07-.33.19-.54.5-.17Z"/>
    <path class="cls-16" d="m111.29,184.35c-.03.07-.04.17-.09.19-.05.02-.13-.05-.2-.08.03-.07.04-.17.09-.19.05-.02.13.05.2.08Z"/>
    <path class="cls-5" d="m19.14,83.48c-.07.09-.13.17-.2.26-.04-.17.05-.23.2-.26Z"/>
    <path class="cls-5" d="m14.17,174.25c.08.05.17.11.25.16-.17.08-.21-.04-.25-.16Z"/>
    <path class="cls-5" d="m14.68,174.49c.08.08.16.16.25.24-.16,0-.24-.09-.25-.24Z"/>
    <path class="cls-5" d="m15.4,175c.09.05.17.11.26.16-.17.09-.21-.04-.26-.16Z"/>
    <path class="cls-5" d="m16.16,175.47h-.24c-.01-.07-.02-.15-.01-.22.08.08.16.15.25.23h0Z"/>
    <path class="cls-5" d="m9.27,127.88c.06.09.13.18.19.27-.15-.03-.24-.09-.19-.27Z"/>
    <path class="cls-16" d="m134.49,84.98c-.05-.17.04-.24.19-.28-.06.09-.13.19-.19.28Z"/>
    <path class="cls-5" d="m8.28,124.41c.06.09.13.18.19.28-.15-.03-.24-.11-.19-.28Z"/>
    <path class="cls-5" d="m.53,18.99c-.06.09-.13.19-.19.28-.04-.17.04-.24.19-.28Z"/>
    <path class="cls-5" d="m5.75,136.3c-.07.08-.13.17-.2.25-.05-.17.05-.23.2-.25Z"/>
    <path class="cls-16" d="m79.68,192.84c-.03-.17.06-.24.21-.25l-.21.25Z"/>
    <path class="cls-5" d="m5,138.51l-.17.27c-.07-.17.03-.23.17-.27Z"/>
    <path class="cls-5" d="m8.97,108.02c-.06.09-.12.18-.17.27-.07-.17.03-.23.17-.27Z"/>
    <path class="cls-5" d="m10.21,104.55c-.06.09-.13.17-.19.26-.05-.17.05-.23.19-.26Z"/>
    <path class="cls-16" d="m70.69,201.51c.03-.15.1-.24.27-.21-.09.07-.18.14-.27.21Z"/>
    <path class="cls-5" d="m48.18,204.24c.07.07.14.14.21.2-.17.04-.22-.05-.21-.2Z"/>
    <path class="cls-16" d="m63.97,204.72c.05-.14.12-.24.3-.18-.1.06-.2.12-.3.18Z"/>
    <path class="cls-5" d="m4.75,139.5c-.06.09-.13.18-.19.27-.04-.17.05-.24.19-.27Z"/>
    <path class="cls-5" d="m18.88,84.7c-.06.09-.13.18-.19.27-.04-.17.05-.24.19-.27Z"/>
    <path class="cls-5" d="m1.78,12.8c-.06.09-.11.17-.17.26-.08-.17.04-.22.17-.26Z"/>
    <path class="cls-5" d="m2.27,11.32c-.06.09-.12.17-.18.26-.06-.17.04-.23.18-.26Z"/>
    <path class="cls-15" d="m104.9,72.33c-.61,1.7-1.33,3.36-1.79,5.12-.19.75-.25,1.49-.08,2.18.46,1.86,1.73,2.41,3.49,1.55,1.04-.5,2.02-1.11,3.01-1.71.64-.38,1.02-.36,1.23.45.24.92.59,1.8.87,2.71.19.62.08.96-.68,1.21-2.7.89-5.44,1.67-8.04,2.86-.52.24-1.47.35-1.24,1.05.15.45,1.12.25,1.7.1,1.02-.27,2.05-.08,3.07-.15.38-.03.59.24.82.47-.26.12-.36.34-.32.6.25,1.57.43,3.15.8,4.69.23.94.18,1.64-.57,2.31-.61.55-1.04,1.27-.96,2.16-6.5,4.79-10.1,11.35-11.61,19.15-.33,1.68-.42,3.42-.46,5.14-.2,7.38,1.45,14.22,6.15,20.11.74.93,1.61,1.76,2.42,2.64,0,1.85-.34,3.64-.68,5.46-.68,3.59-1.83,7.02-3.59,10.17-2.21,3.95-4.83,7.66-8.52,10.42-1.36,1.02-2.53,2.33-4.16,2.97.01-1.66.22-3.32-.18-4.96v-1.2c.7.09,1.04-.39,1.39-.86,1.61-2.2,2.53-4.71,3.07-7.34.67-3.27.25-6.5-.97-9.59-1.9-4.79-5.47-7.56-10.55-8.24-3.46-.46-6.73.4-9.89,1.83-.94.42-1.89,1.66-2.79,1.14-.78-.45-1-1.82-1.55-2.74-1.51-2.5-3.16-4.89-5.47-6.75.16-.85-.45-1.26-.99-1.7-3.73-4.13-8.36-6.73-13.78-7.9-3.09-.67-6.24-1.07-9.41-.76-3.66.36-7.31.87-10.79,2.19.16-1.59.45-3.18.42-4.77-.02-1.1,1.05-2.32-.23-3.37-.09-.08.32-.27.57-.28.32.11.63.13.96.02,3.88-1.24,7.69-1.18,11.41.63.73.36,1.56.67,2.29-.09.71-.74.55-1.61.24-2.43-.67-1.81-1.75-3.36-3.12-4.7-1.72-1.69-3.7-2.92-5.72-3.28.22.3.6.84.99,1.38.14.19.44.32.32.6-.12.3-.43.19-.65.18-1.77-.08-3.52.1-5.24.53.57-2.13,1.05-4.28,1.77-6.38,1.19-3.47,2.55-6.84,4.32-10.05,2.85-5.16,6.26-9.89,10.65-13.86.94-.85,1.92-1.67,3.07-2.23-.1,3.61.57,7.04,2.3,10.24.49.91,1.07,1.76,1.84,2.47.62.57,1.32.91,2.14.6.89-.34,1.5-1.05,1.63-1.98.77-5.39,3.04-9.99,7.04-13.7.53-.49,1.11-1.43,1.73-1.19.67.26-.2,1.11-.07,1.76.22,1.08-.22,2.22.26,3.29.45,1.02.86,1.07,1.58.2,5.24-6.35,12-8.87,20.1-7.9,2.07.25,4.11.73,6.09,1.43.62.22.71.42.63,1.14-.32,2.93.29,5.66,2.25,8.06-1.34-7.57,1.23-14.2,4.73-20.6.28.4.52.83.85,1.18,2.09,2.24,3.71,4.79,5.05,7.53.18.37.32.78.84.78h.01Zm-44.18,47.99c.05,3.89.81,6.8,2.48,9.84,4.7,8.54,14.27,9.26,20.13,1.47,5.27-7,5.47-16.72,1.15-23.98-2.28-3.83-5.77-5.81-10.11-5.75-3.81.06-7.02,1.9-9.37,4.95-3.13,4.06-4.52,8.69-4.28,13.46h0Zm17.73-35.81c-1.17-.06-2.5.24-3.8.62-2.47.73-4.64,1.95-6.09,4.19-.27.41-.52.92-.15,1.38.39.48.91.26,1.37.07,2.19-.91,4.48-1.38,6.85-1.44,4.06-.1,7.75.83,10.71,3.85,2.04,2.09,3.39,4.55,4.28,7.3.11.34.18.81.62.8.37,0,.48-.45.51-.76.12-1.46.23-2.89-.06-4.37-1.35-6.86-6.99-11.55-14.25-11.65h0Zm7.05,16.46c-1.04-3.13-3.05-5.53-6.27-6.17-3.26-.64-6.58-.37-9.28,2.63,5.98-1.71,11.09-.58,15.54,3.54h0Z"/>
    <path class="cls-12" d="m58.81,135.29c2.3,1.86,3.96,4.25,5.47,6.75.55.91.77,2.29,1.55,2.74.9.52,1.85-.71,2.79-1.14,3.16-1.43,6.43-2.29,9.89-1.83,5.08.68,8.65,3.45,10.55,8.24,1.22,3.09,1.64,6.32.97,9.59-.54,2.63-1.46,5.14-3.07,7.34-.34.47-.69.95-1.39.86-.78-.31-.94-.11-.92,1.2l-.05.99c-.28.08-.24.29-.2.5,0,.25,0,.5-.01.76-.41.14-.24.46-.24.73-.17,1.34-.43,2.66-.79,3.96-.14.03-.24.08-.17.25-.03.24-.06.48-.08.72-.15.03-.24.11-.18.27-.1.41-.21.82-.31,1.23-.15.02-.24.09-.18.25-.46,1.15-.72,2.38-1.35,3.47-.35.03-.46.31-.59.56-2.3,4.36-5.36,8.11-9.22,11.16-3.36,2.65-7.01,4.76-11.25,5.71-.35.08-.7.34-.99-.11.59-.41,1.18-.83,1.77-1.24.7-.51,1.49-.92,2.01-1.65.1-.02.21-.07.12-.19-.02-.03-.17.03-.26.05-.71.3-1.41.59-2.12.89-2.66.86-5.32,1.77-8.17,1.67-.62-.9-1.63-.47-2.45-.69-2.58-.67-5.09-1.38-6.66-3.79-.15-.24-.44-.44-.06-.71,1.51,1.23,3.24,1.91,5.19,2,.83.36,1.66.36,2.49,0,4.33-.3,8.22-1.85,11.8-4.22,7.14-4.74,11.75-11.38,14.5-19.41.44-1.29.82-2.59,1.23-3.89.13-.03.25-.08.17-.25.78-3.43,1.01-6.92,1.4-10.4.46,0,.66-.24.64-.71-.02-.49-.05-1,.01-1.48.15-1.1-.23-2.25.3-3.32,1.38,1.6,2.28,3.44,2.74,5.49-.07.17.02.23.16.26.07.17.15.34.22.51.03.18.07.37.1.55h.12c.02-.19.03-.37.05-.56,1.11-3.88-.92-8.85-4.47-10.6-1.86-.92-3.88-1.14-5.92-.51-.59.38-1.69.05-1.78.9-.03.33,1.12.44,1.78.5.5.12,1.28-.18,1.24.79-.29.07-.24.29-.21.5v.25c-.08.16-.15.33-.23.49-.1.34-.21.67-.31,1.01-.14,0-.24.05-.18.22-.19.5-.37,1.01-.56,1.51-.32.14-.5.37-.47.73-2.12,3.82-4.92,7.08-8.21,9.94-.21,0-.43-.06-.53.21-.39,0-.68.19-1,.4-1.31.85-2.57,1.81-3.99,2.44-8.62,3.83-17.62,5.61-27.08,5.15-4.24-.21-8.33-.94-12.23-2.56-6.18-2.58-10.22-7.02-11.48-13.74-.06-.31-.11-.57-.47-.61-.1-1.55.07-3.07.62-4.53.21-.55.16-1.09-.02-1.67-.66-2.09-1.26-4.21-1.08-6.42.16-1.98.58-3.93,1.57-5.68,1.51-2.65,2.91-3.25,6.09-2.77.02.15.08.23.25.2.41.2.82.4,1.23.6.93.82,1.71,1.77,2.42,2.86.34-1.09-.33-1.92-.45-2.85.09-.3.33-.45.58-.6,5.54-3.17,11.55-4.67,17.89-4.91,4.04-.15,7.9.81,11.65,2.26,1.34.52,2.48.25,3.41-.8,1.67.4,2.86,1.64,4.3,2.44.35.2.68.44,1.01.66.37.37.74.73,1.1,1.1v-.02Zm-14.42,8.61c-.27.25-.54.5-.82.74-2.75,2.37-4.36,5.28-4.37,8.99,0,.97.58,1.27,1.23.98,2.38-1.05,5-.96,7.43-1.73.47,1.94,2.64,2.6,4.11,1.29,1.75-1.55,2.62-3.58,3.06-5.79.65-3.29-1.11-6.72-3.93-7.71-2.24-.78-4.48-.52-6.59.47-1.86.88-2.54.74-.49,2.4.13.1.24.23.35.34l.02.02Zm-4.88-1.19c.52.12.73-.18.95-.4,2.62-2.59,5.73-3.87,9.43-3.53,3.5.32,6.26,2.57,6.94,6.26.17.92-.02,1.9,0,2.84.07,1.94-.7,3.59-1.71,5.16-.79,1.23-1.81,2.28-3.01,3.49,4.34-.86,6.77-4.44,7.12-8.97.39-5.17-2.04-8.92-6.02-10.35-5.36-1.93-10.55-.08-13.7,5.51h0Zm-30.07.59c0,3,1.31,5.39,3.44,7.41,1.24,1.18,2,.98,2.54-.62.71-2.08.59-4.19.5-6.32-.06-1.25-.39-2.42-.92-3.49-1.02-2.08-3.42-2.13-4.75-.21-.69,1-.81,2.08-.82,3.23h0Z"/>
    <path class="cls-15" d="m5.75,41.6c-.77-2.79-1.27-5.62-1.69-8.48-.6-4.06-.57-8.17-.19-12.19.41-4.23,1.29-8.48,3.65-12.2.33-.52.62-1.07,1.18-1.4.15.26.38.32.63.23,1.33-.49,2.31.13,3.2,1.02.89.89,1.45,1.99,1.91,3.14,1.55,3.94,2.78,8,4.44,11.9,1.7,3.98,3.6,7.85,5.97,11.48,3.26,4.99,7.13,9.45,11.69,13.29.84.71,1.61,1.71,2.93,1.63.66.62,1.3,1.27,1.98,1.86.79.68.47,1.06-.3,1.4-2.09.92-4.04,2.06-5.62,3.76-.66.7-1.21,1.48-1.44,2.42-.27,1.1.11,1.55,1.25,1.5,2.55-.11,5.04-.74,7.59-.87.73-.04,1.47-.13,2.53-.15-1.4.86-2.55,1.58-3.61,2.43-1.56,1.25-2.97,2.64-4.02,4.33-.55.88-.9.72-1.56.13-8.03-7.03-13.82-15.69-18.32-25.27-2.04-4.34-3.88-8.76-5.51-13.27-.22-.61-.18-1.3-.6-1.85-.17-.84-.52-1.61-.94-2.41-.51.5-.02,1.02-.21,1.47-.96,1.38-1.06,3.05-1.13,4.57-.33,6.35.11,12.63,2.26,18.72,2.68,7.57,7,13.97,13.14,19.16,1.61,1.37,3.48,2.35,5.09,3.71.01.08.03.15.04.23,1.27.99,2.39,2.2,4,2.69-.22,1.17-.4,2.34-.23,3.75-2.31-1.1-4.38-2.19-6.26-3.63-1.07-.82-2.13-1.64-3.19-2.45-1.95-1.48-3.32-3.53-5.14-5.14-.13-.29-.3-.54-.6-.68-3.45-4.19-6.47-8.65-8.77-13.57-1.66-3.55-3.16-7.16-3.96-11.02.07-.17-.04-.2-.16-.22l-.03-.02Z"/>
    <path class="cls-4" d="m69.22,56.73c.29-.87-.34-1.46-.73-2.05-1.71-2.59-3.57-5.05-5.85-7.18-.48-.45-.91-.95-1.37-1.42.39-.07.73.09,1.06.26,4.35,2.22,8.32,5,11.88,8.32,2.4,2.24,4.44,4.81,6.56,7.46.41-1.36-.61-2.3-.63-3.42.88.49,1.25,1.47,2.1,2.26.35-3.04-.12-5.78-1.17-8.54,2.34,1.09,4.36,4.79,7.41,13.43,1.79-3.44,2.41-7.02,2.7-11.03,1.35,1.79,1.89,3.58,2.29,5.39.37,1.64.49,3.33.73,4.99.06.39-.12.72-.25,1.07-.71,1.76-1.48,3.5-2.08,5.29-.27.81-.58.84-1.23.57-2.07-.84-4.23-1.32-6.46-1.59-6.97-.84-13.16.8-18.42,5.57-.15.13-.31.25-.68.55.67-3.27,2.46-5.5,4.73-7.44-4.9,1.01-8.8,3.69-12.15,7.18-3.38,3.52-5.21,7.92-6.36,12.85-2.02-2.68-2.72-5.49-2.84-8.51.7-.2.52-.88.64-1.33,1.22-4.46,3.19-8.46,6.81-11.49.52-.44,1.02-.9,1.58-1.39-1.16-.47-1.83.66-2.78.6-5.63-.17-10.27,2.27-14.65,5.46-1.31.95-2.3,2.24-3.58,3.21h.02c.27-3.41,2-6.14,4.12-8.69.42.05.67-.23.95-.48,3.94-3.51,8.54-5.57,13.77-6.2.34-.04.68-.02.73-.47h.52c.07.12.15.12.22,0,.19-.06.49-.05.56-.18.19-.31-.17-.4-.35-.52-1.01-.67-2.17-1.01-3.33-1.27-3.27-.75-6.57-1.02-9.92-.58-.61.08-1.23,0-1.85,0,.09-.13.15-.35.26-.38,3.98-1.15,7.96-2.38,12.12-2.51,3.86-.13,7.67.42,11.41,1.52,1.12.33,2.21,1.08,3.49.68h.02Z"/>
    <path class="cls-15" d="m140.69,38.12c-.55,3.95-1.83,7.69-3.22,11.4-2.04,5.48-4.67,10.65-8.03,15.44-1.02,1.45-1.05,1.46-1.8-.07-.4-.81-.75-1.65-1.12-2.47.29-.52.92-.82.98-1.49.41.05.58-.22.75-.52,2.15-3.72,3.85-7.64,5.22-11.71,1.43-4.25,2.01-8.65,2.51-13.08.44-3.93.06-7.8-.92-11.61-.1-.39,0-.97-.64-1.07.04-.51-.09-.9-.6-.38-.38.39-.61.93-.9,1.41-2.47,3.67-4.51,7.59-6.62,11.46-2.53,4.66-5.23,9.21-8.06,13.68-.59.93-.99,1.06-1.81.2-2.55-2.66-5.6-4.72-8.54-6.91,1.85-2.19,3.97-4.13,5.89-6.26,4.53-5.01,8.51-10.44,12.29-16.01,2.52-3.7,4.91-7.5,7.65-11.05,1.37-1.78,2.88-3.47,5.54-2.74,1.82,3.03,2.43,6.39,2.92,9.83.65,4.62.45,9.21,0,13.82-.13,1.3-.34,2.6-.51,3.9-.27.09-.27.27-.16.49,0,.76-.45,1.46-.35,2.24-.12.03-.23.06-.15.23-.02.26-.05.51-.07.77-.28.07-.26.27-.23.49h0Z"/>
    <path class="cls-13" d="m120.81,85.72c-.08-.6.36-.62.77-.72,2.73-.67,5.43-.58,8.12.27,1.35.42.87,1.67,1,2.49.69,4.41.89,8.87.78,13.33,0,.33,0,.66-.02.99-.13.43.04.83.1,1.25-.04.15,0,.2.16.15,3.48,3.66,5.56,7.95,6.26,12.98.35,2.5.52,4.94.19,7.43-.27.09-.23.29-.2.5-.02.41-.03.83-.05,1.24-.28.09-.27.28-.16.5l-.06.76c-.3.07-.29.26-.18.48-.03.25-.07.51-.1.76-.13.02-.26.03-.15.22-.54,2.4-1.36,4.69-2.8,6.72-.38-.05-.59.22-.85.42-1.01.78-1.97,1.63-3.06,2.29-3.8,2.31-7.71,2.69-11.64.31-4.58-2.78-6.91-7.12-8.27-12.11-.09-.34.03-.78-.5-.85-.4-4.81.53-9.38,2.61-13.7,1.38-2.86,2.86-5.7,3.71-8.75.69-2.47,1.11-5.03,1.02-7.62v-.08c-.02-.2-.05-.41-.07-.61.01-.31.02-.63.03-.94.31-.05.36-.29.39-.54.16-1.5.33-2.99.47-4.49.05-.53-.03-1.11.74-1.18.68,1.46.85,3.05,1.03,4.61.67,5.9-.29,11.52-3.18,16.76-.67,1.22-1.41,2.42-1.92,3.71-1.67,4.23-2.46,8.61-1.57,13.13.29,1.45.47,3,1.34,4.31-.32-2.29-.2-4.59-.13-6.86.05-1.68.21-3.36.65-5.03.92-3.42,2.55-6.5,4.13-9.63,1.94-3.83,2.93-7.88,2.92-12.17v-.09c.18-2.53-.39-5-.67-7.49-.11-.94-.25-1.94-.86-2.76h.02Zm15.51,35.34c.05-2.22-.29-3.9-.63-5.58-.5-2.54-1.48-4.85-3.4-6.67-1.97-1.87-4.83-2.38-7.3-1.24-3.45,1.58-5.05,4.7-6.43,7.96-1.66,3.93-1.83,8.08-1.16,12.19.53,3.22,1.81,6.27,4.68,8.24,1.35.93,2.77,1.54,4.57,1.17,2.78-.57,4.72-2.2,6.25-4.43,2.51-3.66,3.13-7.86,3.41-11.65h0Z"/>
    <path class="cls-6" d="m85.76,174c1.64-.64,2.8-1.95,4.16-2.97,3.69-2.77,6.31-6.47,8.52-10.42,1.76-3.15,2.91-6.57,3.59-10.17.34-1.82.68-3.61.68-5.46,3.22,2.73,6.94,4.15,11.16,4.23.35,0,.66.04.71.49.41,4.28-.09,8.39-2.22,12.21-.24-3.13.03-6.3-1.33-9.29-1.14,7.01-3.36,13.46-8.79,18.71.66-3.29,1.49-6.32,1.08-9.48.13-.47-.06-.87-.24-1.32-.2.44-.36.86-.32,1.32-1.06,3.73-2.23,7.42-4.57,10.6-3.09,4.21-7.19,6.95-12.2,8.38-.95.27-1.26.09-1.07-.97.35-1.94.56-3.9.83-5.85h.01Z"/>
    <path class="cls-18" d="m69.21,177.23c.11.49.22.99.33,1.48-.22.4.3.63.24.99.13,1.91-1.37,2.93-2.4,4.13-2.13,2.5-4.71,4.47-7.57,6.09-.18-.06-.23.04-.25.19-.99.43-1.98.86-2.97,1.28-.17-.05-.24.05-.27.2-2.1.59-4.17,1.34-6.41,1.09.07-.57-.41-.67-.77-.82-1.86-.8-2.73-2.29-2.97-4.22-.14-.67.23-1.27.24-1.91,1.21-.12,2.46,0,3.63-.4,1.16-.42,1.78-.2,2.12,1.1.36,1.38.98,2.69,1.62,4.37.19-1.55-.12-2.66-.27-3.78-.11-.78-.76-1.7-.51-2.25.24-.53,1.35-.64,2.06-.98,1.2-.58,2.52-.97,3.56-2.05-.57-.04-.97-.02-1.42.13-1.21.41-2.46.74-3.71.99-.46.09-1.18.47-1.44-.38-.42-1.38-1.39-2.47-1.96-3.77.32-.07.65-.1.95-.22,2.64-1.08,5.17-2.4,7.63-3.84,2.77-1.62,5.5-3.31,7.87-5.5.3.32.45.72.53,1.14-.07.18.04.23.18.26,0,.08.02.16.05.23-.05.17.04.24.19.27l.07.48c-.07.18.03.23.18.25.02.17.05.33.07.5-.08.18.04.22.17.26.4,1.37.02,2.51-1.14,3.44-.53.43-1.06.86-1.58,1.3-.57.43-1.13.87-1.81,1.39.8.1,1.37.09,1.82-.41,1.19-.23,2.05-1.03,3-1.69.25-.17.45-.58.76-.07-.02.27-.19.58.19.75v-.02Z"/>
    <path class="cls-7" d="m61.02,41.05c2.87-1.22,5.9-1.9,8.96-2.43,1.89-.33,3.78-.54,5.7-.55.2.04.41.1.51-.16,1.64,0,3.29,0,4.93,0,.19.35.49.18.76.17,1.64.1,3.27.21,4.91.31.05.15.13.23.3.19.75.09,1.5.18,2.24.27.07.3.27.28.49.18l.74.08c.07.3.29.24.5.21.57.1,1.14.2,1.71.3.03.15.11.23.27.19.74.18,1.48.37,2.22.55.03.15.1.24.26.2,1.41.51,2.81,1.02,4.22,1.53.02.15.08.24.25.2,3.72,1.51,7.08,3.62,10.2,6.11,1.54,1.22,3.11,2.43,4.43,3.89,3.42,3.8,6.83,7.62,9,12.34-.99.88-2.06,1.42-3.33.56-.51-.34-1-.73-1.44-1.16-2.43-2.3-4.46-4.95-6.71-7.4-2.48-2.71-5.39-4.94-8.3-7.17-4.8-3.67-10.03-6.4-15.85-8.02-2.82-.78-5.73-1.03-8.63-1.28-.68-.06-1.66-.6-2.17.48-.35,0-.7.02-1.05.03-1.16-.19-2.32-.02-3.48-.02-2.5-.25-4.97.2-7.45.3-1.38.06-2.77.67-4.17.1h-.02Z"/>
    <path class="cls-12" d="m30.02,71.65c-1.61-1.36-3.47-2.34-5.09-3.71-6.14-5.19-10.46-11.59-13.14-19.16-2.15-6.09-2.59-12.37-2.26-18.72.08-1.52.18-3.19,1.13-4.57.04.33.08.65.11.98.66,3.82,1.76,7.53,3.01,11.19.08.23.11.47.17.71-.41.91.26,1.62.48,2.4,1.89,6.56,4.74,12.72,8.23,18.56,2.31,3.88,4.9,7.59,7.37,11.37.22.34.41.64-.02.94h.01Z"/>
    <path class="cls-8" d="m125.73,61.02c-2-2.9-3.82-5.93-6.2-8.55-.44-.48-.16-.8.1-1.18,4.37-6.44,8.01-13.29,11.42-20.28.43-.87.75-1.8,1.35-2.58.43.34.57.85.51,1.32-.39,2.85-.27,5.72-.63,8.58-.83,6.65-2.33,13.08-5.19,19.15-.53,1.12-1.27,2.14.32,2.98.06.03.07.14.1.22-.56.26-1.35-.7-1.77.33h0Z"/>
    <path class="cls-8" d="m8.25,155.39c.37.04.42.3.47.61,1.26,6.72,5.29,11.17,11.48,13.74,3.9,1.62,7.99,2.35,12.23,2.56,9.46.47,18.46-1.32,27.08-5.15,1.41-.63,2.68-1.59,3.99-2.44.32-.21.61-.4,1-.4.02.08.04.17.07.25-6.02,4.94-12.91,8.08-20.46,9.86-5.09,1.2-10.25,1.25-15.42,1.02-3.13-.14-6.2-.9-9.02-2.25-5.04-2.43-9.07-5.91-10.77-11.51-.63-2.05-.9-4.15-.65-6.3h0Z"/>
    <path class="cls-14" d="m107.84,127.12c.47,3.75,1.37,7.35,3.36,10.62,1.17,1.94,2.75,3.49,4.35,5.04.13.13.37.15.56.22,0,.14.06.24.23.19.74.34,1.39.9,2.22,1.06.09.16.18.32.27.49-5.13.12-8.6-2.62-11.26-6.66-2.04-3.08-3.05-6.56-3.57-10.18-.95-6.68-.05-13.03,3.13-19.06,1.62-3.08,3.93-5.3,7.02-6.8.02.18.04.37.06.55-.04.35.01.73-.28,1-.1.09-.2.18-.3.27h.02c-.38-.04-.57.2-.79.47-4.83,6.01-6.38,12.93-5.68,20.47.03.33.14.55.49.59.01.24.03.48.04.71-.36.38-.51.74.12,1v.02Z"/>
    <path class="cls-17" d="m101.7,127.68c.78,5.5,2.49,10.6,6.47,14.68,1.96,2.01,4.34,3.37,6.99,4.32-4.31,1.3-11.73-2.11-14.75-8.33.5-.33.18-.73.09-1.11-.59-2.48-1.1-5-1.21-7.53-.22-4.9-.13-9.78,1.32-14.57,1.84-6.09,4.94-11.25,10-15.21,1.25-.98,2.62-1.82,3.76-2.94.22-.13.49-.26.67-.02.42.55-.04,2.2-.67,2.44-4.55,1.74-7.56,5.08-9.64,9.34-2.18,4.46-3.46,9.15-3.22,14.17,0,.74.01,1.49.02,2.23v2.24c.06.1.13.19.19.29h-.02Z"/>
    <path class="cls-17" d="m109.72,60.61c2.11,2.67,3.67,5.67,5.03,8.77.16.37.36.89-.27.98-.69.1-1.38,1.12-2.08.13-.44-.64-.73-1.39-1.1-2.08-5.81-10.92-14.65-18.05-26.73-20.9-3.52-.83-7.15-1.36-10.83-.74-.89.15-1.78.04-2.61-.5-.89-.59-1.86-1.05-2.8-1.57.35-.12.69-.31,1.05-.35,4.36-.46,8.73-.5,13.05.3,10.48,1.94,18.94,7.34,25.88,15.29.36.41.77.77,1.39.67h.02Z"/>
    <path class="cls-13" d="m109.72,60.61c-.62.1-1.03-.26-1.39-.67-6.94-7.95-15.4-13.36-25.88-15.29-4.32-.8-8.69-.75-13.05-.3-.36.04-.7.23-1.05.35-1.98-.44-3.75-1.54-5.8-1.73-1.08-.1-2.16-.26-3.25-.39-.39-.05-.84.14-1.15-.37.92-.48,1.84-.98,2.89-1.16,1.4.57,2.78-.04,4.17-.1,2.48-.1,4.95-.55,7.45-.3,1.13.4,2.3.49,3.49.34,3.7.43,7.36,1.1,10.94,2.12,6.71,2.21,12.43,5.98,17.4,10.96,1.99,1.99,3.68,4.22,5.25,6.54h-.02Z"/>
    <path class="cls-17" d="m23.82,97.36c.62-.7,1.45-1.06,2.28-1.38.26.2.09.38.01.55-2.56,5.84-4.23,11.96-5.42,18.2-.56,2.93-.64,5.94-1.06,8.9-.17,1.23-.06,2.55-.84,3.67-.65.93-.88.95-1.36-.07-.93-1.96-1.41-4.06-1.66-6.19-.65-5.62.07-11.05,2.41-16.24.42-.14.91.53,1.29-.17,1.25-2.3,2.86-4.38,4.31-6.56.16-.24.4-.46.04-.72h0Z"/>
    <path class="cls-9" d="m24.61,118.7c-.25.01-.66.21-.57.28,1.28,1.05.21,2.27.23,3.37.03,1.59-.27,3.18-.42,4.77-.94.43-1.88.85-2.82,1.28,1.28-2.1,1.1-4.37,1.31-6.55.29-2.99.72-5.96,1.28-8.91.62-3.23,1.31-6.46,2.45-9.56,3.49-9.5,8.31-18.13,16.44-24.53.94-.74,1.95-1.39,2.93-2.07.19-.13.42-.35.65-.14.15.14.15.39.02.57-.41.57.08,1.22-.21,1.8-1.15.57-2.13,1.38-3.07,2.23-4.39,3.97-7.81,8.69-10.65,13.86-1.77,3.21-3.13,6.58-4.32,10.05-.72,2.1-1.2,4.25-1.77,6.38-.32.17-.65.34-.97.51-.31.11-.62.21-.97.33.4.44.68.09.97.07h.73c-.44,1.9-.82,3.81-1,5.75-.08.16-.16.32-.25.48v.03Z"/>
    <path class="cls-12" d="m127.51,60.69c-.03-.08-.04-.19-.1-.22-1.6-.84-.85-1.87-.32-2.98,2.86-6.07,4.36-12.51,5.19-19.15.36-2.86.24-5.73.63-8.58.06-.47-.08-.98-.51-1.32.25-1.37,1.14-2.53,1.32-3.92.65-.33.27-1.13.71-1.56.64.1.54.68.64,1.07.98,3.82,1.36,7.68.92,11.61-.49,4.43-1.08,8.83-2.51,13.08-1.37,4.07-3.07,7.99-5.22,11.71-.17.3-.34.57-.75.52.01-.08.01-.16,0-.24v-.02Z"/>
    <path class="cls-13" d="m114.36,96.99c-1.14,1.12-2.51,1.96-3.76,2.94-5.06,3.97-8.16,9.13-10,15.21-1.45,4.79-1.54,9.67-1.32,14.57.12,2.53.62,5.05,1.21,7.53.09.38.41.77-.09,1.11-3.24-5.32-4.06-11.17-3.85-17.27.11-3.07.71-6.05,1.76-8.89,1.11-3,2.72-5.81,4.78-8.3.68-.64,1.39-1.25,1.93-2.02,2.7-2.42,5.79-4.08,9.34-4.88Z"/>
    <path class="cls-13" d="m77.17,40.64c.5-1.08,1.49-.54,2.17-.48,2.9.26,5.81.5,8.63,1.28,5.82,1.61,11.05,4.34,15.85,8.02,2.92,2.23,5.82,4.47,8.3,7.17,2.25,2.45,4.29,5.11,6.71,7.4.45.42.93.81,1.44,1.16,1.27.86,2.34.32,3.33-.56.46.76.92,1.51,1.37,2.27.06.68.72,1.2.53,1.95-2.55-.2-5.08.03-7.56.59-.66.15-.89-.03-1.1-.52-4.8-11.09-12.52-19.39-23.57-24.42-1.97-.9-3.97-1.88-6.19-2.12-.42-.15-.83-.4-1.26-.45-2.67-.29-5.26-1.2-7.98-1.06-.26,0-.49-.04-.68-.23h.01Z"/>
    <path class="cls-9" d="m139.26,6.36c-2.66-.73-4.17.96-5.54,2.74-2.74,3.55-5.13,7.34-7.65,11.05-3.79,5.57-7.76,11-12.29,16.01-1.92,2.13-4.04,4.06-5.89,6.26-.86-.33-.94-.66-.25-1.4,5.48-5.84,10.29-12.21,14.66-18.91,2.61-4.01,4.99-8.17,7.37-12.31.78-1.36,1.62-2.68,2.55-3.95,2.3-3.13,5.26-2.91,7.05.51h-.01Z"/>
    <path class="cls-9" d="m39.45,50.01c-1.32.08-2.08-.92-2.93-1.63-4.56-3.84-8.43-8.3-11.69-13.29-2.37-3.62-4.27-7.49-5.97-11.48-1.66-3.9-2.89-7.96-4.44-11.9-.45-1.16-1.01-2.26-1.91-3.14-.89-.88-1.86-1.51-3.2-1.02-.26.1-.49.03-.63-.23,1.64-2.12,5.21-2.13,6.74.75.56,1.05.97,2.14,1.28,3.27-.04.16.05.23.18.26.6,2.06,1.2,4.13,1.8,6.19-.04.16.05.23.18.26.58,1.56,1.1,3.15,1.76,4.68,2.5,5.82,5.63,11.28,9.33,16.44,2.81,3.92,6.2,7.33,9.48,10.83h.02Z"/>
    <path class="cls-11" d="m130.45,75.98c.54,1.52,1.06,3.04,1.21,4.65-2.71-.55-5.39-.7-8.16-.19-1.51.28-3.35.55-4.51-.92-1.48-1.86-2.68-3.91-2.69-6.43,1.31.19,2.6.14,3.92.01,1.34-.13,2.71-.1,4.07.04,2.29.24,4.21,1.3,6.03,2.59l-.05.05-.05-.05c.07.08.14.15.21.23l.02.02Z"/>
    <path class="cls-14" d="m116.32,73.1c0,2.51,1.21,4.56,2.69,6.43,1.16,1.46,3,1.2,4.51.92,2.77-.51,5.45-.37,8.16.19.16,2.56.14,2.63-2.08,2.09-3.3-.79-6.54-.66-9.74.39-1.19.39-2.42.64-3.56,1.25-.85.46-1.53-.01-1.85-.86-.57-1.53-1.06-3.09-1.6-4.64-.43-1.25-.85-2.5-1.32-3.73-.28-.72-.11-1.18.61-1.46,1.3-.5,2.55-1.16,3.94-1.41.02.3.04.6.25.84h-.01Z"/>
    <path class="cls-5" d="m122.34,96.06c0,4.29-.99,8.35-2.92,12.17-1.58,3.12-3.21,6.21-4.13,9.63-.45,1.66-.6,3.34-.65,5.03-.07,2.28-.19,4.57.13,6.86-.88-1.31-1.06-2.86-1.34-4.31-.89-4.52-.1-8.9,1.57-13.13.51-1.29,1.24-2.49,1.92-3.71,2.89-5.24,3.85-10.86,3.18-16.76-.18-1.56-.35-3.15-1.03-4.61.16-.48-.08-.9-.22-1.33.64-.32,1.32-.09,1.97-.16.61.82.75,1.82.86,2.76.28,2.49.86,4.96.67,7.49-.07.01-.13.03-.2.04.07.01.13.03.2.04h-.01Z"/>
    <path class="cls-8" d="m30.02,71.65c.43-.31.24-.6.02-.94-2.47-3.78-5.06-7.5-7.37-11.37-3.49-5.84-6.34-12-8.23-18.56-.22-.78-.9-1.49-.48-2.4.77,1.69,1.55,3.37,2.31,5.07,3.37,7.5,7.79,14.32,13.31,20.42.68.75,1.1,1.74,2.01,2.28-.01.17-.02.34-.03.51h0c-1.04-.04-1.99-.87-3.14-.37.8.87,1.67,1.57,2.6,2.2.79.86,1.77,1.5,2.77,2.05,1.02.56,1.53,1.13.78,2.25-.13.19-.13.46-.19.7-.65-.23-1.3-.48-1.96-.7-.8-.26-1.39-1.05-2.35-.88-.01-.08-.03-.15-.04-.23v-.03Z"/>
    <path class="cls-16" d="m52.39,131.09c-.93,1.06-2.07,1.33-3.41.8-3.75-1.46-7.61-2.42-11.65-2.26-6.33.24-12.34,1.74-17.89,4.91-.26.15-.49.3-.58.6-.52-.29-.44-1.02-.95-1.31-.11-.48.28-.63.57-.85,3.83-2.84,8.23-4.2,12.83-5.11,2.75-.54,5.52-.76,8.31-.46,1.69.18,3.36.48,5.04.73.03.15.1.24.27.2.82.18,1.64.36,2.46.54.03.15.09.24.26.2.84.33,1.69.66,2.53.98.21.13.39.38.69.26.07.04.14.06.22.05.05.12.09.26.27.16.39.1.77.21,1.02.57h0Z"/>
    <path class="cls-17" d="m110.16,125.14c.53.07.41.51.5.85,1.36,4.99,3.69,9.33,8.27,12.11,3.92,2.38,7.84,2,11.64-.31,1.08-.66,2.05-1.51,3.06-2.29.26-.2.47-.47.85-.42-1.63,3.56-6.94,8.28-12.56,7.64-2.67-.3-5.02-1.52-6.82-3.59-2.34-2.66-3.76-5.78-4.44-9.25-.31-1.57-.7-3.13-.49-4.75h-.01Z"/>
    <path class="cls-12" d="m66.54,169.14c-2.37,2.2-5.1,3.89-7.87,5.5-2.46,1.43-4.99,2.75-7.63,3.84-.3.12-.63.15-.95.22-.21-.21-.42-.41-.64-.62-.05-.11-.07-.26-.15-.33-.69-.61-.59-.97.3-1.22,2.17-.61,4.22-1.52,6.25-2.49,2.97-1.42,5.81-3.07,8.45-5.03,3.82-2.84,7.04-6.26,9.61-10.28.26-.41.54-.8.89-1.31.89,2.32,1.29,4.59,1.13,6.93-.07.94-.7,1.64-1.41,2.24-.59-2.02-1.08-2.48-2.4-1.93-2.01.82-3.5,2.33-4.84,4-.17-.13-.33-.27-.5-.4-.11-.22-.28-.3-.42-.08-.16.25.09.41.21.6,0,.12-.01.24-.02.36h0Z"/>
    <path class="cls-17" d="m20.44,97.38c-4.86,5.91-7.19,12.72-7.19,20.34,0,4.04.87,7.89,2.61,11.54.17.35.54.74.28,1.14-.19.29-.54.55-.87.65-.46.14-.6-.35-.78-.64-1.76-2.95-2.77-6.15-3.23-9.54-.48-3.55-.33-7.11.52-10.55.77-3.14,2.1-6.09,4-8.81,1.23-1.77,2.61-3.25,4.36-4.43.1.1.2.21.31.31h-.01Z"/>
    <path class="cls-17" d="m24.6,92.97c-.33.08-.66.17-.99.25-.17.06-.33.13-.5.19-2.05.54-2.17.53-1.96-1.72.26-2.81.88-5.58,1.55-8.32.19-.77.63-.6,1.11-.38.58.26,1.65.03,1.26,1.27-.67,2.09-1.07,4.23-1.26,6.41-.34.47-.2.95-.07,1.55.68-.4.82-.99,1.01-1.54.94-1.89,1.48-3.92,2.14-5.91.23-.68.4-1.09,1.35-.84,1.12.29,2.34.26,3.52.28.87.01,1.17.17.59,1.01-1.49,2.14-2.96,4.3-4.05,6.69-.27.59-.81.81-1.42.75-.64-.06-1.22.09-1.8.3-.17,0-.33,0-.5.01h.02Z"/>
    <path class="cls-8" d="m59.03,199.48c.28.45.64.19.99.11,4.24-.94,7.9-3.05,11.25-5.71,3.86-3.05,6.92-6.8,9.22-11.16.13-.25.25-.54.59-.56-1.01,3.53-2.78,6.67-5,9.55-4.21,5.46-9.65,9.08-16.5,10.23-2.45.41-4.99.34-7.48-.26,2.4-.48,4.64-1.41,6.92-2.2h0Z"/>
    <path class="cls-6" d="m104.9,72.33c-.52,0-.66-.42-.84-.78-1.34-2.74-2.95-5.29-5.05-7.53-.33-.35-.57-.79-.85-1.18.63-1.25,1.26-2.49,1.88-3.74.27-.54.63-.45.98-.12,2.55,2.36,4.76,5,6.55,7.99.18.31.17.62-.02.93-.89,1.47-1.77,2.95-2.65,4.43Z"/>
    <path class="cls-6" d="m69.22,56.73c-1.28.39-2.37-.35-3.49-.68-3.73-1.1-7.54-1.65-11.41-1.52-4.16.13-8.14,1.36-12.12,2.51-.11.03-.18.25-.26.38-.77.12-1.55.22-2.31.38-.29.06-.59.25-.74-.11-.15-.38.29-.43.49-.57,2.77-1.96,5.87-3.21,9.18-3.77,6.67-1.13,13.15-.46,19.3,2.54.48.23.9.56,1.35.84h.01Z"/>
    <path class="cls-6" d="m80.15,58.69c.01,1.13,1.04,2.06.63,3.42-2.12-2.65-4.16-5.22-6.56-7.46-3.57-3.33-7.53-6.1-11.88-8.32-.33-.17-.67-.33-1.06-.26-.18-.09-.37-.18-.54-.28-.16-.1-.31-.23-.38-.45,8.61,1.45,15.05,6.14,19.8,13.36h0Z"/>
    <path class="cls-17" d="m57.32,46.57c1.46.78,2.65,1.9,4.03,3.14-1.41.37-2.6.86-3.97.65-1.84-.28-3.7-.27-5.54-.02-1.89.25-3.81.36-5.65.92-.34.1-.67,0-.89-.28-.3-.43.15-.57.35-.77.44-.42.93-.8,1.4-1.2.33,0,.68.09.97-.02,3.03-1.07,6.15-1.78,9.29-2.42h.01Z"/>
    <path class="cls-18" d="m67.26,168.67c1.34-1.67,2.84-3.18,4.84-4,1.32-.54,1.81-.08,2.4,1.93-.93,2.39-2.76,4.15-4.33,6.08-.42.52-.61.27-.83-.19-.63-1.31-1.25-2.62-2.08-3.82h0Z"/>
    <path class="cls-8" d="m43.21,193.83c-.37.27-.09.47.06.71,1.57,2.41,4.08,3.12,6.66,3.79.81.21,1.83-.21,2.45.69-2.35.21-4.65.11-6.93-.61-5.29-1.67-7.78-7.51-3.74-12.3.16.1.33.21.49.31.2.49-.15.88-.3,1.26-.95,2.37-.47,4.39,1.31,6.16h0Z"/>
    <path class="cls-5" d="m49.45,178.09c.21.21.42.41.64.62.56,1.3,1.54,2.39,1.96,3.77.26.85.97.48,1.44.38,1.25-.25,2.5-.58,3.71-.99.45-.15.85-.17,1.42-.13-1.04,1.08-2.36,1.47-3.56,2.05-.71.34-1.82.45-2.06.98-.25.55.4,1.47.51,2.25.16,1.12.47,2.23.27,3.78-.63-1.67-1.26-2.99-1.62-4.37-.34-1.3-.96-1.52-2.12-1.1-1.17.42-2.42.29-3.63.4-.09-.1-.17-.2-.26-.3,0-.43,0-.86,0-1.29,1.37-.16,2.75-.18,4.11-.44.52-.1.78-.19.49-.74-.69-1.31-1.18-2.72-2.09-3.91l-.04-.58c.33,0,.65,0,.8-.38h.02Z"/>
    <path class="cls-12" d="m116.32,73.1c-.21-.24-.23-.54-.25-.84,3.37-1.14,6.81-1.3,10.34-.89,2.69.31,3.33,2.29,3.94,4.38-1.82-1.29-3.74-2.35-6.03-2.59-1.36-.14-2.73-.17-4.07-.04-1.32.13-2.62.18-3.92-.01h-.01Z"/>
    <path class="cls-12" d="m48.64,178.46c0,.19.03.39.04.58-.8.76-1.93.81-2.83,1.38-.9.58-1.12,1.23-.6,2.16.26.45.72.81.68,1.41-1.04.28-1.73.04-2.26-1.02-.8-1.61-2.11-2.87-3.45-4.17,2.36-.47,4.68-.73,6.88-1.47,1.19-.4.99.81,1.53,1.14h0Z"/>
    <path class="cls-14" d="m31.04,81.26c-2.86.25-5.56-.34-8.19-1.43-.68-.28-.85-.68-.72-1.33.21-1,.05-2.44.78-2.86.81-.46,1.49.91,2.27,1.41,1.89,1.2,3.74,2.48,5.6,3.73l.25.49h0Z"/>
    <path class="cls-11" d="m107.67,125.4c-.35-.04-.46-.26-.49-.59-.7-7.54.86-14.46,5.68-20.47.22-.27.4-.52.79-.48-.02.08-.01.15.03.21-.85,2.59-2.33,4.9-3.47,7.36-1.22,2.63-1.74,5.42-2.29,8.21-.38,1.9-.17,3.84-.25,5.76Z"/>
    <path class="cls-6" d="m54.72,67.12c.95.06,1.62-1.06,2.78-.6-.56.49-1.06.95-1.58,1.39-3.62,3.03-5.6,7.03-6.81,11.49-.12.45.06,1.13-.64,1.33-.22-4.96,1.61-9.07,5.13-12.49.38-.37.76-.76,1.14-1.13h-.02Z"/>
    <path class="cls-6" d="m106.22,97.94c-.08-.9.35-1.61.96-2.16.75-.67.8-1.37.57-2.31-.37-1.54-.55-3.12-.8-4.69-.04-.26.06-.48.32-.6,1.85,1.87,2.74,4.25,3.57,6.66.17.48-.03.74-.47.96-1.39.69-2.77,1.42-4.15,2.14Z"/>
    <path class="cls-18" d="m45.94,183.99c.04-.6-.42-.95-.68-1.41-.52-.92-.3-1.58.6-2.16.9-.57,2.03-.63,2.83-1.38.91,1.19,1.4,2.6,2.09,3.91.29.55.03.64-.49.74-1.36.27-2.74.29-4.11.44-.08-.05-.16-.1-.23-.15h0Z"/>
    <path class="cls-8" d="m109.03,69.86c.69,1.2,1.48,1.99.2,3.07-.89.75-.26,1.88.03,2.75.24.71.15,1.02-.43,1.38-.77.48-1.49,1.02-2.24,1.54-.3.21-.65.25-.94.12-.37-.17-.25-.62-.18-.89.75-2.77,1.96-5.32,3.56-7.97Z"/>
    <path class="cls-13" d="m57.32,46.57c-3.14.64-6.26,1.35-9.29,2.42-.29.1-.65.02-.97.02,1.77-1.66,3.74-3.05,5.8-4.32.52-.32.95-.36,1.46-.02.99.65,2,1.27,3.01,1.9h0Z"/>
    <path class="cls-6" d="m37.5,79.03c1.7-2.47,3.9-4.43,6.36-6.12,1.28-.87,2.58-1.74,4.29-2.13-.33,1.08-.69,1.88-1.64,2.32-2.87,1.33-5.39,3.17-7.77,5.24-.36.31-.68.74-1.26.67h.02v.02Z"/>
    <path class="cls-4" d="m114.67,90.19c.12,1.02.44,2,.46,3.04.01.73-.26,1.04-.95,1.16-.72.13-.8-.32-.92-.83-.48-2.09-1.34-4.03-2.59-6.23,1.65.59,3.01.9,3.89,2.14.04.24.07.49.11.73h0Z"/>
    <path class="cls-18" d="m72.99,175.23c-.5,1.12-1.05,2.22-1.79,3.28-.36-.45-.1-1.01-.52-1.3,0-.34.22-.73-.2-1-.37-1.09.14-1.79.91-2.53,1.1-1.07,2.04-2.3,3.05-3.47.07.03.15.05.23.06-.22,1.65-.98,3.13-1.47,4.69-.15.02-.25.08-.2.26h-.01Z"/>
    <path class="cls-6" d="m56.08,59.96c-.05.45-.39.43-.73.47-5.24.63-9.83,2.7-13.77,6.2-.28.25-.53.52-.95.48,1.58-2.25,3.73-3.8,6.15-4.99,2.93-1.43,6.06-2.06,9.3-2.16Z"/>
    <path class="cls-17" d="m118.84,85.88c.15.43.39.85.22,1.33-.77.06-.69.64-.74,1.18-.14,1.5-.31,3-.47,4.49-.03.26-.08.49-.39.54-.51-1.37-.24-2.88-.72-4.26,0-.08,0-.16-.02-.24-.25-1.64.45-2.65,2.12-3.04Z"/>
    <path class="cls-13" d="m23.82,97.36c.36.26.12.48-.04.72-1.45,2.18-3.06,4.25-4.31,6.56-.39.71-.87.03-1.29.17,1.29-2.93,3.12-5.45,5.64-7.45Z"/>
    <path class="cls-16" d="m46.17,187.64c.24,1.93,1.11,3.42,2.97,4.22.36.15.83.25.77.82-.4.18-.8.06-1.2,0-2.35-.32-2.88-.7-2.99-3.47,0-.2-.05-.4-.07-.6-.06-.07-.11-.14-.17-.21,0-.26.02-.52.03-.77.22,0,.44,0,.66.02h0Z"/>
    <path class="cls-12" d="m87.92,55.47c-1.06-1.65-1.95-3.26-3.26-4.67,1.29-.07,2.25.72,3.37.99.36.09.28.46.29.73.02.96.11,1.94-.4,2.95Z"/>
    <path class="cls-5" d="m77.17,40.64c.19.18.42.24.68.23,2.72-.14,5.31.77,7.98,1.06.43.05.84.29,1.26.45,0,.24,0,.49-.01.73-3.59-1.02-7.24-1.69-10.94-2.12.02-.03.06-.07.05-.1,0-.07-.04-.14-.06-.22.35,0,.7-.02,1.05-.03h-.01Z"/>
    <path class="cls-8" d="m80.93,152.14c-.53,1.07-.15,2.22-.3,3.32-.07.49-.03.99-.01,1.48.02.46-.18.7-.64.71-.13-2.24.06-4.5-.58-6.69.16-.02.33-.03.49-.05.39.38.83.71,1.04,1.23Z"/>
    <path class="cls-5" d="m17.39,70.18c-.57-.61-1.14-1.21-1.71-1.82.48-.08.95-.19,1.43-.23.4-.03.82-.08,1.15.25.42.42.78.94.59,1.52-.27.8-1.01-.04-1.46.29h0Z"/>
    <path class="cls-5" d="m17.9,133.83c.52.29.43,1.02.95,1.31.12.93.79,1.76.45,2.85-.7-1.09-1.49-2.04-2.42-2.86.06-.65.53-.98,1.01-1.3h0Z"/>
    <path class="cls-5" d="m116.74,89.17c.48,1.38.21,2.88.72,4.26-.01.31-.02.63-.03.94-.47.05-.68-.27-.76-.64-.29-1.3-.24-2.65-.81-3.91-.25-.56.5-.54.88-.65Z"/>
    <path class="cls-6" d="m96.62,58.92c-.24-1.25-.43-2.29-.65-3.45.95.24,1.87.56,2.02,1.34.15.8-.68,1.39-1.36,2.11h0Z"/>
    <path class="cls-5" d="m31.01,68.46c-.93-.63-1.8-1.33-2.6-2.2,1.15-.49,2.1.33,3.14.38.08.68-.49,1.18-.53,1.82h0Z"/>
    <path class="cls-6" d="m30.06,71.87c.96-.17,1.56.62,2.35.88.66.22,1.3.47,1.96.7-.14.36-.02.79-.31,1.11-1.61-.49-2.73-1.7-4-2.69Z"/>
    <path class="cls-5" d="m105.02,101.87c-.54.77-1.25,1.38-1.93,2.02-.76-.68-.72-1.3.12-1.8.57-.35,1.2-.24,1.81-.22Z"/>
    <path class="cls-12" d="m46.17,187.64c-.22,0-.44,0-.66-.02-.45-.65-.15-1.55-.86-2.19h1.51c.09.1.17.2.26.3,0,.65-.38,1.25-.24,1.91h0Z"/>
    <path class="cls-9" d="m127.51,60.69c.01.08,0,.16,0,.24-.06.67-.69.97-.98,1.49-.36-.41-.63-.88-.79-1.4.42-1.03,1.21-.07,1.77-.33Z"/>
    <path class="cls-5" d="m10.78,26.46c-.04-.33-.08-.65-.11-.98.18-.45-.3-.97.21-1.47.42.8.77,1.56.94,2.41-.34.01-.69.02-1.03.04h-.01Z"/>
    <path class="cls-5" d="m73.94,148.66c-.66-.06-1.81-.17-1.78-.5.09-.84,1.19-.52,1.78-.9v1.4Z"/>
    <path class="cls-5" d="m19.88,72.83c-.69-.62-1.47-1.16-1.96-1.99,1.88.32,1.95.39,1.96,1.99Z"/>
    <path class="cls-5" d="m134.42,22.94c-.44.43-.06,1.23-.71,1.56-.14-.36-.42-.52-.8-.54.3-.48.52-1.02.9-1.41.51-.52.64-.13.6.38h.01Z"/>
    <path class="cls-10" d="m146.16,26.46c.21.05.44.16.41.39-.14.96.1,2.01-.65,2.83-.07-1.09-.15-2.17.25-3.22h-.01Z"/>
    <path class="cls-10" d="m111.7,30.46c-.49-.48-.46-1.07-.08-1.51.34-.4.86-.39,1.27.04-.37.51-.62,1.13-1.19,1.48h0Z"/>
    <path class="cls-5" d="m62.81,196.59c-.52.73-1.31,1.14-2.01,1.65-.08-.3-.16-.6-.25-.9.71-.3,1.41-.59,2.12-.89.05.05.09.09.14.14Z"/>
    <path class="cls-5" d="m84.65,169.04c-.01-1.31.14-1.51.92-1.2v1.2h-.93.01Z"/>
    <path class="cls-5" d="m24.75,90.68c-.2.55-.33,1.14-1.01,1.54-.14-.6-.27-1.08.07-1.55h.95-.01Z"/>
    <path class="cls-5" d="m70.48,176.23c.42.26.19.65.2,1-.49.06-.98-.39-1.47,0-.38-.17-.2-.48-.19-.75.5,0,1,.03,1.45-.25h.01Z"/>
    <path class="cls-5" d="m65.27,178.24c-.45.5-1.02.51-1.82.41.68-.52,1.24-.95,1.81-1.39v.98h.01Z"/>
    <path class="cls-5" d="m125.51,68.84c.18-.75-.47-1.27-.53-1.95.99.41,1.34,1.32.81,2.11,0,0-.18-.11-.27-.16h-.01Z"/>
    <path class="cls-5" d="m101.5,125.15c0-.74-.01-1.49-.02-2.23.86.77.87,1.35.02,2.23Z"/>
    <path class="cls-5" d="m50.88,195.83c-.83.36-1.66.37-2.49,0,.83-.41,1.66-.4,2.49,0Z"/>
    <path class="cls-12" d="m32.87,37.23c1.12.13,1.38.99,1.63,1.87-.77-.43-1.05-1.28-1.63-1.87Z"/>
    <path class="cls-5" d="m58.81,135.29c-.37-.37-.74-.73-1.1-1.1.04-.2.08-.4.12-.6.54.44,1.15.85.99,1.7h-.01Z"/>
    <path class="cls-5" d="m69.78,179.7c.06-.36-.46-.59-.24-.99.44,0,.87.07.88.62,0,.4-.36.36-.65.38h.01Z"/>
    <path class="cls-10" d="m.75,36.38c-.79-.27-1.06-.65-.24-1.24.08.09.17.17.25.26.03.24.06.49.09.73-.03.08-.06.17-.09.25h0Z"/>
    <path class="cls-5" d="m20.44,97.38c-.1-.1-.2-.21-.31-.31.09-.43.39-.59.79-.57.06,0,.16.19.16.28-.02.39-.29.55-.64.59h0Z"/>
    <path class="cls-5" d="m102.76,161.85c-.04-.46.11-.88.32-1.32.18.45.36.86.24,1.32h-.56Z"/>
    <path class="cls-5" d="m31.04,81.26l-.25-.49c.38.02.93-.05.87.5-.04.37-.4.22-.61-.02h-.01Z"/>
    <path class="cls-5" d="m118.82,144.74c-.09-.16-.18-.32-.27-.49.47-.11.73.21,1.01.48h.01c-.25.32-.5.32-.75,0h0Z"/>
    <path class="cls-5" d="m114.67,90.19c-.03-.24-.07-.49-.11-.73.25.03.63-.13.67.26.04.33-.28.43-.57.47h.01Z"/>
    <path class="cls-10" d="m146.13,18.78c.66.31.67.64.03.99,0-.33-.02-.66-.03-.99Z"/>
    <path class="cls-5" d="m131.45,102.09c0-.33,0-.66.02-.99.26.03.46.14.47.45.02.35-.16.52-.49.55h0Z"/>
    <path class="cls-5" d="m74.67,170.28c-.08,0-.16-.03-.23-.06.04-.42.4-.52.66-.8.15.52.06.81-.43.86Z"/>
    <path class="cls-11" d="m107.84,127.12c-.64-.26-.49-.62-.12-1,.04.33.08.67.12,1Z"/>
    <path class="cls-5" d="m81.88,38.07c-.27,0-.57.17-.76-.17.36-.41.61-.36.76.17Z"/>
    <path class="cls-5" d="m7.02,55.22c-.08-.16-.16-.33-.24-.49.22.04.53-.09.58.25.03.18-.19.22-.35.24h0Z"/>
    <path class="cls-5" d="m84.15,172.01c0-.27-.17-.6.24-.73.34.38.26.62-.24.73Z"/>
    <path class="cls-5" d="m114.2,102.59c-.02-.18-.04-.37-.06-.55.18-.18.36-.16.42.08.08.28-.1.42-.36.47Z"/>
    <path class="cls-10" d="m22.09,16.31c.57.09.68.33.24.74-.37-.15-.12-.51-.24-.74Z"/>
    <path class="cls-5" d="m.75,36.38c.03-.08.06-.17.09-.25.53.15.56.4.16.76-.28-.07-.18-.33-.26-.51h0Z"/>
    <path class="cls-5" d="m145.36,14.05c.15.24.83.29.26.77-.31-.18-.26-.48-.26-.77Z"/>
    <path class="cls-5" d="m66.55,168.78c-.12-.19-.37-.35-.21-.6.14-.22.32-.13.42.08-.07.17-.14.34-.21.52Z"/>
    <path class="cls-10" d="m95.02,36.59c.03-.16.06-.37.25-.34.34.05.21.37.25.59-.17-.08-.33-.16-.5-.25Z"/>
    <path class="cls-5" d="m73.23,154.17c-.03-.37.15-.6.47-.73,0,.34,0,.69-.47.73Z"/>
    <path class="cls-5" d="m18.63,66.42c.29.14.47.39.6.68-.52.06-.59-.28-.6-.68Z"/>
    <path class="cls-12" d="m31.74,35.57c.04-.18.15-.31.33-.17.19.15.18.34-.04.48-.09-.1-.19-.21-.28-.31h0Z"/>
    <path class="cls-5" d="m42.19,186.41c-.16-.1-.33-.21-.49-.31.05-.17.07-.44.33-.31.24.12.14.4.16.62Z"/>
    <path class="cls-5" d="m64.57,164.58c-.02-.08-.04-.17-.07-.25.1-.26.32-.22.53-.21-.02.28-.17.44-.46.46Z"/>
    <path class="cls-5" d="m137.76,126.14c-.11-.22-.12-.4.16-.5.36.3.16.41-.16.5Z"/>
    <path class="cls-5" d="m23.11,93.41c.17-.06.33-.13.5-.19-.07.32-.17.56-.5.19Z"/>
    <path class="cls-5" d="m31.55,66.64c.01-.17.02-.34.03-.51.12.07.32.13.34.22.04.25-.19.25-.37.29Z"/>
    <path class="cls-5" d="m24.6,92.97c.17,0,.33,0,.5-.01-.02.16-.04.34-.24.35-.2,0-.23-.18-.25-.34h-.01Z"/>
    <path class="cls-5" d="m.76,35.4l-.25-.26c.03-.08.05-.17.08-.25.34.07.57.18.17.51Z"/>
    <path class="cls-5" d="m50.88,130.32c-.31.12-.48-.12-.69-.26.35-.24.59-.17.69.26Z"/>
    <path class="cls-5" d="m74.98,149.95c-.04-.21-.08-.42.21-.5.37.35.11.43-.21.5Z"/>
    <path class="cls-5" d="m84.4,170.53c-.04-.21-.09-.42.2-.5.38.34.13.43-.2.5Z"/>
    <path class="cls-5" d="m79.89,150.91c-.16.02-.33.03-.49.05.03-.18.01-.42.27-.39.08,0,.14.23.21.35h.01Z"/>
    <path class="cls-5" d="m91.05,39.31c-.21.04-.43.1-.5-.21.35-.37.43-.11.5.21Z"/>
    <path class="cls-5" d="m36.05,190.61c-.04-.2-.1-.42.18-.5.39.33.15.44-.18.5Z"/>
    <path class="cls-5" d="m89.81,39.02c-.22.1-.42.12-.49-.18.31-.35.41-.12.49.18Z"/>
    <path class="cls-5" d="m145.86,16.29c.29.08.24.29.2.5-.32-.06-.57-.16-.2-.5Z"/>
    <path class="cls-5" d="m19.39,176.93c-.21.04-.42.06-.49-.21.35-.36.43-.1.49.21Z"/>
    <path class="cls-5" d="m140.69,38.12c-.03-.21-.05-.42.23-.49.34.36.07.43-.23.49Z"/>
    <path class="cls-5" d="m21.62,177.67c-.21.04-.42.07-.5-.2.34-.37.43-.12.5.2Z"/>
    <path class="cls-5" d="m137.52,127.38c-.11-.22-.12-.41.18-.48.33.3.11.41-.18.48Z"/>
    <path class="cls-5" d="m141.49,34.4c-.11-.22-.11-.4.16-.49.34.29.14.41-.16.49Z"/>
    <path class="cls-5" d="m137.97,124.41c-.04-.21-.07-.41.2-.5.37.34.13.43-.2.5Z"/>
    <path class="cls-5" d="m76.19,37.91c-.11.26-.31.2-.51.16.08-.36.2-.57.51-.16Z"/>
    <path class="cls-5" d="m17.65,176.19c-.31.12-.48-.13-.69-.26.35-.23.59-.16.69.26Z"/>
    <path class="cls-5" d="m84.33,158.38c-.02.19-.03.37-.05.56h-.12c-.03-.18-.07-.37-.1-.55.09,0,.18,0,.27-.02h0Z"/>
    <path class="cls-5" d="m74.75,150.69c.08-.16.15-.33.23-.49.31.34.07.43-.23.49Z"/>
    <path class="cls-5" d="m83.84,157.89c-.14-.03-.24-.09-.16-.26.09.03.18.07.28.1-.04.05-.08.1-.11.15h0Z"/>
    <path class="cls-6" d="m37.48,79.02c-.02.11-.04.21-.06.32-.03-.02-.07-.03-.1-.05.06-.08.12-.17.18-.25h-.02v-.02Z"/>
    <path class="cls-5" d="m18.15,176.39c-.17.1-.22,0-.26-.14.05-.04.1-.08.14-.12.04.09.08.18.11.26h.01Z"/>
    <path class="cls-5" d="m32.37,67.01s-.07.05-.1.05-.06-.04-.08-.06c.06,0,.12.01.18.02h0Z"/>
    <path class="cls-5" d="m113.68,104.07c-.05-.06-.06-.13-.03-.21h-.02c.08-.03.16-.03.24-.03-.06.08-.12.15-.19.23h0Z"/>
    <path class="cls-5" d="m137.28,128.36c-.12-.19.02-.2.15-.22l-.15.22Z"/>
    <path class="cls-5" d="m67.74,171.77c-.15-.02-.25-.07-.18-.25.06.08.12.17.18.25Z"/>
    <path class="cls-5" d="m67.99,172.53c-.14-.03-.25-.08-.17-.26.06.09.11.17.17.26Z"/>
    <path class="cls-5" d="m44.93,128.33c-.17.04-.24-.05-.27-.2.09.07.18.13.27.2Z"/>
    <path class="cls-5" d="m72.99,175.23c-.05-.18.05-.24.2-.26-.07.09-.13.17-.2.26Z"/>
    <path class="cls-5" d="m27.57,28.69c.13.03.26.07.16.25-.05-.08-.11-.16-.16-.25Z"/>
    <path class="cls-5" d="m47.65,129.08c-.17.04-.24-.05-.26-.2.09.07.18.13.26.2Z"/>
    <path class="cls-5" d="m67.24,170.54c-.14-.03-.25-.08-.18-.26.06.09.12.17.18.26Z"/>
    <path class="cls-5" d="m83.19,176.22c-.07-.17.03-.22.17-.25-.06.08-.11.17-.17.25Z"/>
    <path class="cls-5" d="m101.7,127.68c-.06-.1-.13-.19-.19-.29.06.1.13.19.19.29Z"/>
    <path class="cls-5" d="m140.99,36.86c-.08-.16.03-.2.15-.23-.05.08-.1.15-.15.23Z"/>
    <path class="cls-5" d="m18.64,176.68c-.17.04-.23-.05-.22-.2.07.07.15.14.22.2Z"/>
    <path class="cls-5" d="m51.37,130.52c-.18.1-.22-.03-.27-.16.09.05.18.1.27.16Z"/>
    <path class="cls-5" d="m82.93,177.22c-.05-.17.04-.24.18-.27-.06.09-.12.18-.18.27Z"/>
    <path class="cls-5" d="m78.58,168.05c.08.18-.04.22-.17.25.06-.08.11-.17.17-.25Z"/>
    <path class="cls-5" d="m15.67,134.52c-.16.04-.23-.05-.25-.2.08.07.16.13.25.2Z"/>
    <path class="cls-5" d="m82.43,178.7c-.06-.17.04-.23.18-.25l-.18.25Z"/>
    <path class="cls-5" d="m27.82,29.2c.15.01.25.05.19.24-.06-.08-.12-.16-.19-.24Z"/>
    <path class="cls-5" d="m24.11,21.73c.12.04.26.08.16.26-.05-.09-.11-.18-.16-.26Z"/>
    <path class="cls-5" d="m28.32,30c.16-.03.24,0,.15.18-.07-.04-.12-.1-.15-.18Z"/>
    <path class="cls-5" d="m18.89,18.05c-.14-.03-.23-.1-.18-.26.06.09.12.18.18.26Z"/>
    <path class="cls-5" d="m28.56,30.44c.15,0,.25.05.19.23-.06-.08-.13-.16-.19-.23Z"/>
    <path class="cls-5" d="m137.61,137.06c.07.18-.04.23-.19.23.06-.08.12-.15.19-.23Z"/>
    <path class="cls-5" d="m29.06,31.23c.16-.03.24,0,.17.19-.06-.06-.11-.13-.17-.19Z"/>
    <path class="cls-5" d="m87.08,38.57c-.16.04-.25-.04-.3-.19.1.06.2.12.3.19Z"/>
    <path class="cls-5" d="m36.8,187.38c-.06-.17.04-.23.19-.26l-.19.26Z"/>
    <path class="cls-5" d="m36.49,76.03c-.09.16-.16.14-.2-.03.07.02.14.03.2.03Z"/>
    <path class="cls-12" d="m45.48,188.4c.06.07.11.14.17.21-.15,0-.23-.05-.17-.21Z"/>
    <path class="cls-5" d="m59.55,190.11c.02-.15.07-.25.25-.19-.08.06-.17.13-.25.19Z"/>
    <path class="cls-5" d="m74.26,151.92c-.06-.17.04-.21.18-.22-.06.07-.12.15-.18.22Z"/>
    <path class="cls-5" d="m137.18,137.8c0,.16-.09.24-.25.24l.25-.24Z"/>
    <path class="cls-12" d="m130.45,75.98c-.07-.08-.14-.15-.21-.23.21-.05.19.11.21.23Z"/>
    <path class="cls-5" d="m56.32,191.6c.03-.15.09-.25.27-.2-.09.07-.18.13-.27.2Z"/>
    <path class="cls-4" d="m36.49,76.03c-.07,0-.14,0-.2-.03.07-.06.15-.13.22-.19h-.02v.22Z"/>
    <path class="cls-12" d="m34.76,39.37c.08.09.15.18.23.26-.16-.02-.24-.1-.23-.26Z"/>
    <path class="cls-5" d="m139.16,108.04c.14.02.26.06.18.24-.06-.08-.12-.16-.18-.24Z"/>
    <path class="cls-5" d="m93.03,39.81c-.16.04-.24-.05-.27-.19.09.06.18.13.27.19Z"/>
    <path class="cls-5" d="m95.51,40.55c-.17.04-.24-.05-.26-.2.09.07.18.13.26.2Z"/>
    <path class="cls-11" d="m113.87,103.83c-.08,0-.16,0-.24.03.1-.09.2-.18.3-.27-.02.08-.03.16-.05.25h-.01Z"/>
    <path class="cls-5" d="m145.36,13.06c.06.03.12.07.18.1-.06.06-.12.13-.18.19v-.29Z"/>
    <path class="cls-5" d="m29.8,32.42c.15,0,.26.05.19.23-.06-.08-.13-.16-.19-.23Z"/>
    <path class="cls-5" d="m131.71,103.49c-.14.04-.2,0-.16-.15.07.03.12.08.16.15Z"/>
    <path class="cls-5" d="m5.75,41.6c.12.02.23.06.16.22-.05-.07-.11-.15-.16-.22Z"/>
    <path class="cls-5" d="m99.97,42.29c-.17.04-.23-.05-.25-.2.08.07.17.13.25.2Z"/>
    <path class="cls-5" d="m30.3,33.21c.16-.03.24,0,.17.19-.06-.06-.12-.13-.17-.19Z"/>
    <path class="cls-5" d="m119.56,144.73s.04-.06.06-.1c-.02.04-.03.07-.05.11,0,0-.01,0,0,0Z"/>
    <path class="cls-5" d="m15.67,68.36c-.16,0-.24-.07-.22-.24l.22.24Z"/>
    <path class="cls-5" d="m145.11,11.82c.06.03.12.06.18.1-.06.06-.12.13-.18.19v-.28h0Z"/>
    <path class="cls-5" d="m16.9,11.6c-.14-.03-.23-.1-.18-.26.06.09.12.17.18.26Z"/>
    <path class="cls-5" d="m2.52,43.59c-.15-.03-.24-.1-.2-.27.07.09.13.18.2.27Z"/>
    <path class="cls-5" d="m130.66,144.25c.04.16,0,.23-.18.15.04-.07.1-.12.18-.15Z"/>
    <path class="cls-5" d="m131.41,143.75c.03.16,0,.24-.18.17.06-.06.12-.11.18-.17Z"/>
    <path class="cls-5" d="m132.41,143.01c.04.17-.02.23-.19.18.06-.06.13-.12.19-.18Z"/>
    <path class="cls-5" d="m116.34,143.19c-.17.05-.22-.05-.23-.19.08.06.15.13.23.19Z"/>
    <path class="cls-5" d="m3.51,46.81c-.14-.03-.25-.08-.18-.26.06.09.12.17.18.26Z"/>
    <path class="cls-5" d="m3.76,47.57c-.14-.04-.24-.1-.18-.27.06.09.12.18.18.27Z"/>
    <path class="cls-6" d="m56.82,59.96c-.07.12-.15.12-.22,0,.07-.02.15-.02.22,0Z"/>
    <path class="cls-10" d="m145.84,29.91c-.06.09-.13.18-.19.27-.04-.17.05-.24.19-.27Z"/>
    <polygon class="cls-4" points="117.5 94.99 117.5 95.06 117.42 95.02 117.5 94.99"/>
    <path class="cls-5" d="m67.49,171.05c-.15-.03-.25-.1-.19-.27.06.09.13.18.19.27Z"/>
    <path class="cls-10" d="m91.77,31.44c.21.01.42.04.46.3.04.25-.1.38-.34.38-.22,0-.4-.1-.46-.32-.08-.28.13-.33.34-.36Z"/>
    <path class="cls-5" d="m60.72,120.32c-.23-4.77,1.16-9.41,4.28-13.46,2.35-3.05,5.56-4.89,9.37-4.95,4.34-.07,7.82,1.92,10.11,5.75,4.32,7.25,4.12,16.98-1.15,23.98-5.86,7.78-15.43,7.07-20.13-1.47-1.67-3.04-2.43-5.95-2.48-9.84h0Zm24.5-1.48c-.12-3.7-.8-7.05-2.69-9.93-2.77-4.22-5.95-5.36-10.43-4.3-3.43.82-5.58,3.34-7.07,6.39-1.96,4-2.71,8.18-1.79,12.65.77,3.76,2.22,7.05,5.36,9.42,1.45,1.09,3.01,1.94,4.87,1.74,2.92-.31,5.42-1.56,7.38-3.78,3.14-3.55,4.14-7.86,4.36-12.19h.01Z"/>
    <path class="cls-2" d="m78.45,84.51c7.26.1,12.9,4.79,14.25,11.65.29,1.48.18,2.91.06,4.37-.03.31-.14.75-.51.76-.44,0-.51-.46-.62-.8-.9-2.75-2.24-5.21-4.28-7.3-2.96-3.03-6.65-3.96-10.71-3.85-2.37.06-4.66.53-6.85,1.44-.46.19-.98.41-1.37-.07-.37-.46-.12-.97.15-1.38,1.44-2.24,3.61-3.46,6.09-4.19,1.3-.38,2.63-.68,3.8-.62h0Z"/>
    <path class="cls-2" d="m25.85,112.46h-.73v-.41c.32-.17.65-.34.97-.51,1.72-.42,3.47-.61,5.24-.53.22.01.53.13.65-.18.11-.29-.18-.42-.32-.6-.39-.53-.77-1.07-.99-1.38,2.02.36,4,1.59,5.72,3.28,1.37,1.34,2.45,2.89,3.12,4.7.3.82.47,1.69-.24,2.43-.73.76-1.56.44-2.29.09-3.72-1.81-7.53-1.88-11.41-.63-.33.11-.64.09-.96-.02.08-.16.16-.32.25-.48,2.26-1.81,4.77-2.88,7.72-2.76.33.01.84.21.95-.27.09-.4-.35-.62-.64-.83-2.09-1.57-4.47-2.11-7.04-1.89h0Z"/>
    <path class="cls-5" d="m85.51,100.96c-4.45-4.13-9.56-5.25-15.54-3.54,2.69-3,6.02-3.27,9.28-2.63,3.22.63,5.22,3.04,6.27,6.17h0Z"/>
    <path class="cls-5" d="m47.87,152.88c-2.43.77-5.05.68-7.43,1.73-.65.29-1.23,0-1.23-.98,0-3.72,1.61-6.62,4.37-8.99.28-.24.54-.5.82-.74.1-.05.2-.11.3-.16.18.03.23-.1.29-.22,1.53-.64,3.13-.84,4.78-.77,1.58.07,3.17,1.17,3.32,2.56.15,1.44-.04,2.84-.86,4.11-1,1.55-2.44,2.54-4.07,3.29-.09.07-.19.14-.28.21v-.03h0Z"/>
    <path class="cls-5" d="m39.51,142.71c3.15-5.59,8.34-7.43,13.7-5.51,3.98,1.43,6.42,5.18,6.02,10.35-.35,4.53-2.78,8.11-7.12,8.97,1.2-1.21,2.22-2.26,3.01-3.49,1.02-1.57,1.78-3.22,1.71-5.16-.03-.95.15-1.93,0-2.84-.67-3.69-3.44-5.94-6.94-6.26-3.7-.34-6.81.95-9.43,3.53-.23.22-.43.52-.95.4h0Z"/>
    <path class="cls-2" d="m9.45,143.29c0-1.15.13-2.23.82-3.23,1.32-1.92,3.72-1.87,4.75.21.53,1.08.86,2.25.92,3.49.1,2.13.21,4.25-.5,6.32-.55,1.6-1.3,1.8-2.54.62-2.13-2.02-3.45-4.41-3.44-7.41h0Z"/>
    <path class="cls-8" d="m44.69,143.73c-.1.05-.2.11-.3.16-.12-.12-.23-.24-.35-.34-2.05-1.66-1.37-1.52.49-2.4,2.11-1,4.35-1.25,6.59-.47,2.81.99,4.57,4.42,3.93,7.71-.43,2.21-1.31,4.23-3.06,5.79-1.47,1.31-3.64.65-4.11-1.29v.03c.09-.07.19-.14.28-.21,1.64-.75,3.07-1.74,4.07-3.29.82-1.27,1.01-2.67.86-4.11-.15-1.39-1.73-2.49-3.32-2.56-1.66-.07-3.25.13-4.78.77-.1.07-.19.15-.29.22h-.01Z"/>
    <path class="cls-5" d="m62.67,196.45c.09-.02.24-.08.26-.05.09.12-.02.16-.12.19-.05-.05-.09-.09-.14-.14Z"/>
    <path class="cls-5" d="m136.32,121.07c-.28,3.79-.9,7.99-3.41,11.65-1.53,2.23-3.47,3.86-6.25,4.43-1.8.37-3.23-.25-4.57-1.17-2.86-1.98-4.15-5.03-4.68-8.24-.68-4.1-.51-8.25,1.16-12.19,1.38-3.26,2.98-6.38,6.43-7.96,2.48-1.14,5.33-.63,7.3,1.24,1.92,1.82,2.89,4.13,3.4,6.67.33,1.68.67,3.36.63,5.58h0Zm-16.93,1.35c0,.7-.04,1.4-.02,2.1.12,2.96.71,5.79,2.58,8.18,2.09,2.68,5.01,2.88,7.53.59,1.06-.96,1.87-2.1,2.46-3.39,1-2.18,1.6-4.43,1.85-6.85.39-3.64.15-7.11-1.46-10.44-1.89-3.9-6.22-4.51-9.03-.89-2.12,2.73-3.38,5.79-3.76,9.22-.28.47-.24.97-.16,1.47h0Z"/>
    <path class="cls-17" d="m122.34,96.06c-.07-.01-.13-.03-.2-.04.07-.01.13-.03.2-.04v.09h0Z"/>
    <path class="cls-4" d="m76.12,40.68c.02.07.05.14.06.22,0,.03-.03.07-.05.1-1.19.15-2.36.05-3.49-.34,1.16,0,2.32-.17,3.48.02Z"/>
    <path class="cls-15" d="m25.85,112.46c2.58-.22,4.95.32,7.04,1.89.29.21.73.43.64.83-.12.49-.62.29-.95.27-2.95-.12-5.47.95-7.72,2.76.18-1.94.56-3.85,1-5.75h0Z"/>
    <path class="cls-4" d="m25.12,112.05v.41c-.29.02-.57.37-.97-.07.35-.12.66-.23.97-.33h0Z"/>
    <path class="cls-18" d="m85.22,118.84c-.22,4.33-1.22,8.63-4.36,12.19-1.96,2.22-4.46,3.47-7.38,3.78-1.86.2-3.43-.65-4.87-1.74-3.15-2.37-4.59-5.66-5.36-9.42-.92-4.47-.17-8.64,1.79-12.65,1.49-3.05,3.64-5.57,7.07-6.39,4.48-1.06,7.65.08,10.43,4.3,1.89,2.88,2.57,6.23,2.69,9.93h-.01Zm-14.75-1.44c-.76,1.25-.53,2.55-.6,3.78-.14,2.49,0,4.96,1.23,7.23.94,1.72,2.22,2.99,4.36,2.94,2.53-.06,4.19-1.43,5.43-3.53,1.67-2.83,2.09-5.88,2-9.1-.06-2.07-.5-3.98-1.54-5.76-1.81-3.1-6.46-2.77-7.62-.39,2.29,1.02,2.54,1.8,2.46,3.89-.04.9-.92,2.29-1.99,2.7-1.29.5-2.42-.05-3.74-1.75h0Z"/>
    <path class="cls-12" d="m48.14,152.7c-.09.07-.19.14-.28.21.09-.07.19-.14.28-.21Z"/>
    <path class="cls-12" d="m44.69,143.73c.1-.07.19-.15.29-.22-.06.12-.11.26-.29.22Z"/>
    <path class="cls-11" d="m119.55,120.94c.37-3.43,1.63-6.49,3.76-9.22,2.81-3.62,7.15-3.01,9.03.89,1.61,3.33,1.85,6.8,1.46,10.44-.26,2.42-.86,4.67-1.85,6.85-.59,1.29-1.4,2.43-2.46,3.39-2.52,2.28-5.44,2.09-7.53-.59-1.87-2.39-2.46-5.22-2.58-8.18-.03-.7,0-1.4.02-2.1.29-.47.19-.97.16-1.47h-.01Zm7.44-2.87c0-.87.07-1.74-.02-2.6-.08-.67-.18-1.5-1.01-1.69s-1.14.58-1.45,1.12c-1.94,3.39-3.06,7.01-2.95,10.95.03,1.09.04,2.37,1.32,2.64,1.23.26,1.85-.86,2.36-1.82,1.44-2.69,1.77-5.63,1.75-8.62v.02Z"/>
    <path class="cls-6" d="m119.55,120.94c.03.5.14,1.01-.16,1.47-.09-.51-.13-1.01.16-1.47Z"/>
    <path class="cls-5" d="m70.47,117.4c1.32,1.7,2.46,2.25,3.74,1.75,1.06-.41,1.95-1.8,1.99-2.7.08-2.09-.17-2.86-2.46-3.89,1.16-2.38,5.81-2.71,7.62.39,1.04,1.78,1.48,3.69,1.54,5.76.09,3.22-.33,6.27-2,9.1-1.24,2.1-2.9,3.47-5.43,3.53-2.14.05-3.42-1.22-4.36-2.94-1.24-2.26-1.38-4.74-1.23-7.23.07-1.22-.16-2.52.6-3.78h0Zm7.15,5.79c-.97-.2-1.4.35-1.43,1.19-.03.69.24,1.33,1.11,1.3.92-.04,1.56-.56,1.61-1.48.05-.8-.47-1.17-1.29-1.01Z"/>
    <path class="cls-12" d="m126.98,118.07c.01,2.99-.32,5.92-1.75,8.62-.51.96-1.13,2.08-2.36,1.82-1.27-.27-1.29-1.56-1.32-2.64-.11-3.94,1.01-7.56,2.95-10.95.31-.54.62-1.31,1.45-1.12.83.19.93,1.01,1.01,1.69.1.85.02,1.73.02,2.6v-.02Z"/>
    <path class="cls-18" d="m77.62,123.18c.82-.16,1.33.21,1.29,1.01-.05.92-.69,1.44-1.61,1.48-.87.04-1.14-.61-1.11-1.3.04-.84.46-1.39,1.43-1.19Z"/>
  </g>
  <g>
    <g>
      <path class="cls-1" d="m207.09,58.54s.01,0,.02,0c0,0,0,0,.01,0h-.03Z"/>
      <path class="cls-1" d="m218.43,58.93c-3.18-.26-6.95-.39-11.32-.39-7.13,0-13.22.71-18.29,2.13-5.07,1.42-9.28,3.8-12.63,7.15-3.35,3.35-6.06,7.95-8.12,13.79s-3.73,13.18-5.02,22.03c-1.63,11.51-1.54,20.7.26,27.57,1.8,6.88,5.45,11.81,10.95,14.82,5.5,3.01,13.02,4.51,22.55,4.51,6.35,0,11.76-.3,16.23-.9,4.47-.6,8.98-1.58,13.53-2.96l-.9-17.78c-4.04.35-8.12.63-12.24.84s-9.32.32-15.59.32c-3.69,0-6.37-.68-8.05-2.06-1.68-1.37-2.58-3.84-2.71-7.41-.13-3.56.27-8.61,1.22-15.14.69-5.67,1.5-10.27,2.45-13.79.94-3.52,2.08-6.19,3.41-7.99,1.33-1.8,2.94-3.03,4.83-3.67,1.89-.65,4.21-.97,6.96-.97,3.86,0,7.19.03,9.98.07,2.79.05,5.47.09,8.05.13,2.57.04,5.36.15,8.37.32l2.83-17.65c-2.66-.78-5.33-1.4-7.99-1.87-2.66-.48-5.58-.84-8.76-1.1Z"/>
      <path class="cls-1" d="m294.39,86.63c-5.03-2.32-11.66-3.48-19.91-3.48h.01c-8.24-.01-14.96,1.06-20.16,3.21s-9.19,5.6-11.98,10.37c-2.79,4.77-4.74,11.23-5.86,19.39-1.21,8.42-.84,15.14,1.09,20.17,1.93,5.03,5.43,8.66,10.5,10.89s11.68,3.35,19.84,3.35,14.82-1.03,19.97-3.09c5.16-2.06,9.13-5.47,11.92-10.24,2.79-4.76,4.74-11.18,5.86-19.26,1.2-8.42.88-15.16-.97-20.23-1.85-5.07-5.28-8.76-10.31-11.08Zm-12.82,29.51c-.78,4.89-1.64,8.65-2.58,11.27-.95,2.62-2.21,4.42-3.8,5.41-1.59.99-3.76,1.48-6.51,1.48s-4.81-.43-6.18-1.29c-1.38-.86-2.15-2.47-2.32-4.83-.18-2.36.04-5.77.64-10.24.77-5.07,1.65-8.94,2.64-11.6.99-2.66,2.3-4.46,3.93-5.41s3.87-1.42,6.7-1.42h0c2.66,0,4.64.45,5.93,1.36,1.29.91,2.02,2.54,2.19,4.9.17,2.36-.04,5.82-.64,10.37Z"/>
      <path class="cls-1" d="m364.03,71.81c-.35,2.4-.59,4.7-.71,6.89-.11,2.08-.18,4.14-.18,6.18-.72-.14-1.45-.27-2.2-.38-5.75-.9-11.89-1.35-18.42-1.35v-.02c-3.54,0-6.82.45-9.87,1.35-3.05.91-5.76,2.54-8.12,4.9-2.36,2.37-4.4,5.65-6.12,9.86-1.71,4.21-3,9.58-3.86,16.11-1.03,8.08-1.03,14.72,0,19.91,1.03,5.2,3.09,9.04,6.18,11.53,3.09,2.49,7.17,3.74,12.24,3.74,3.61,0,7-.69,10.18-2.06s6.12-3.07,8.83-5.09c2.35-1.75,4.43-3.54,6.26-5.36l.26,10.97h18.55l12.63-90.19h-23.32l-2.32,13.01Zm-12.7,56.44c-2.71,1.71-5.61,2.66-8.7,2.83-1.97,0-3.35-.54-4.12-1.61-.78-1.07-1.1-2.81-.97-5.22s.41-5.5.84-9.28c.52-3.69,1.1-6.66,1.74-8.89.65-2.23,1.46-3.95,2.45-5.15s2.3-2.02,3.93-2.45c1.63-.42,3.65-.64,6.06-.64,2.91,0,5.56.02,7.94.04l-3.65,26.39c-1.85,1.48-3.69,2.81-5.52,3.97Z"/>
      <path class="cls-1" d="m459.31,93.65c-1.59-3.39-4.69-5.99-9.28-7.79-4.6-1.81-11.1-2.71-19.52-2.71h0c-5.67-.01-10.72.48-15.14,1.47-4.43.98-8.21,2.66-11.34,5.02-3.14,2.36-5.67,5.71-7.6,10.05-1.93,4.34-3.29,9.86-4.06,16.56-.77,7.39-.34,13.64,1.29,18.75,1.63,5.12,4.94,8.98,9.92,11.6,4.98,2.62,12.07,3.93,21.26,3.93,3.26,0,6.61-.15,10.05-.45,3.44-.31,6.83-.86,10.18-1.68,3.35-.82,6.45-1.83,9.28-3.03l-1.68-14.43c-2.5.26-5.39.5-8.7.71-3.31.22-6.46.39-9.47.52-3,.13-5.49.19-7.47.19-3.18,0-5.65-.39-7.41-1.16-1.76-.78-2.83-2.36-3.22-4.77-.11-.7-.17-1.52-.19-2.43l17.65-1.43c5.67-.42,10.35-1.17,14.04-2.25,3.7-1.08,6.59-2.71,8.7-4.9,2.1-2.19,3.41-5.22,3.93-9.08.78-5.07.37-9.3-1.22-12.69Zm-21.2,10.37c-.17,1.81-.67,3.16-1.48,4.06-.82.9-1.89,1.54-3.22,1.93-1.33.39-2.99.67-4.96.84l-10.79,1.11c.39-1.9.79-3.54,1.19-4.92.65-2.19,1.46-3.86,2.45-5.02.98-1.16,2.21-1.99,3.67-2.51,1.46-.51,3.26-.77,5.41-.77,2.23-.09,3.93.02,5.09.32,1.16.3,1.95.84,2.38,1.61.43.77.52,1.89.26,3.35Z"/>
    </g>
    <g>
      <path class="cls-3" d="m535.84,62.92c-5.8-2.75-13.47-4.12-23-4.12h-.04c-4.03-.01-8.09.04-12.17.12-4.08.09-8.01.24-11.79.45-3.78.22-7.3.45-10.56.71l.03.05-12.49,88.85v.02c5.66.34,11.57.64,17.71.9,6.14.26,12.39.39,19.78.39s13.66-.67,18.81-2c5.15-1.33,9.43-3.61,12.82-6.83,3.4-3.22,6.15-7.78,8.25-13.66,2.11-5.88,3.8-13.33,5.09-22.35,1.72-12.03,1.52-21.43-.58-28.22-2.1-6.78-6.05-11.55-11.85-14.3Zm-11.68,27.19c-.09,3.53-.52,8.03-1.29,13.53-.77,6.02-1.71,10.91-2.83,14.69-1.11,3.78-2.44,6.7-3.99,8.76s-3.39,3.46-5.54,4.19c-2.14.73-4.64,1.09-7.47,1.09-3.52,0-7.13-.05-10.79-.13l7.81-55.54h11.98c3.01,0,5.42.37,7.22,1.1,1.81.73,3.1,2.09,3.87,4.06.77,1.98,1.11,4.73,1.03,8.25Z"/>
      <path class="cls-3" d="m613.79,86.63c-5.03-2.32-11.66-3.48-19.91-3.48h0c-8.24-.01-14.96,1.06-20.16,3.21-5.19,2.15-9.19,5.6-11.98,10.37-2.79,4.77-4.74,11.23-5.86,19.39-1.21,8.42-.84,15.14,1.09,20.17,1.93,5.03,5.43,8.66,10.5,10.89,5.06,2.23,11.68,3.35,19.84,3.35s14.82-1.03,19.97-3.09c5.16-2.06,9.13-5.47,11.92-10.24,2.79-4.76,4.74-11.18,5.86-19.26,1.2-8.42.88-15.16-.97-20.23s-5.29-8.76-10.31-11.08Zm-12.82,29.51c-.77,4.89-1.64,8.65-2.58,11.27-.95,2.62-2.21,4.42-3.8,5.41-1.59.99-3.77,1.48-6.51,1.48s-4.81-.43-6.18-1.29c-1.38-.86-2.15-2.47-2.32-4.83-.18-2.36.04-5.77.64-10.24.77-5.07,1.65-8.94,2.64-11.6.99-2.66,2.3-4.46,3.93-5.41s3.87-1.42,6.7-1.42h0c2.66,0,4.64.46,5.93,1.36,1.29.91,2.02,2.54,2.19,4.9.18,2.36-.04,5.82-.64,10.37Z"/>
      <path class="cls-3" d="m696.83,85.21c-2.67-1.37-5.76-2.06-9.28-2.06h0c-5.41,0-10.97,1.56-16.68,4.69-4.27,2.35-8.24,5.35-11.91,9.01l-.27-11.9h-18.42l-8.89,64.03h23.45l5.41-38.88c3.01-2.34,5.63-4.07,7.86-5.18,2.57-1.29,4.93-1.93,7.08-1.93,1.98-.18,3.27.19,3.87,1.09.6.9.73,2.51.39,4.83l-5.67,40.07h23.45l6.7-47.54c.6-4.03.23-7.4-1.1-10.11-1.33-2.71-3.33-4.74-5.99-6.12Z"/>
      <polygon class="cls-3" points="783.4 84.96 783.4 84.97 783.41 84.97 783.4 84.96"/>
      <path class="cls-3" d="m775.35,102.48c3.65-4.81,6.33-10.64,8.05-17.51h-24.08c-1.03,4.21-2.97,8.2-5.8,11.98-2.84,3.79-6.27,7.11-10.31,9.99-2.38,1.7-4.84,3.16-7.37,4.46,1.32-2.66,2.41-5.24,3.24-7.7.86-2.53,1.5-5.17,1.93-7.92l5.03-36.98h.01s-23.45-.01-23.45-.01l-12.63,90.19h23.45l2.83-19.71c.07-.71.12-1.47.15-2.25,2.61-.9,5.27-1.89,7.98-2.96l11.31,24.94h24.09l-11.85-25.12c-.95-2.15-2.26-4.19-3.93-6.12-.73-.85-1.6-1.62-2.56-2.35.45-.29.91-.57,1.35-.87,4.72-3.22,8.91-7.24,12.56-12.05Z"/>
      <path class="cls-3" d="m820.64,57.89c-1.12-1.2-2.92-1.8-5.41-1.8h0s-9.28,0-9.28,0c-4.64,0-7.17,2.15-7.6,6.44l-.9,6.83c-.6,4.89,1.59,7.34,6.57,7.34h9.28c4.64,0,7.21-2.14,7.73-6.44l.9-6.83c.26-2.49-.17-4.34-1.29-5.54Z"/>
      <polygon class="cls-3" points="786.37 148.98 809.69 148.98 818.58 84.95 795.26 84.95 786.37 148.98"/>
    </g>
  </g>
</svg>