<?xml version="1.0" encoding="UTF-8"?>
<svg id="Layer_1" data-name="Layer 1" xmlns="http://www.w3.org/2000/svg" viewBox="0 0 688.95 709.2">
  <defs>
    <style>
      .cls-1 {
        fill: #896149;
      }

      .cls-2 {
        fill: #050504;
      }

      .cls-3 {
        fill: #c07f5a;
      }

      .cls-4 {
        fill: #f4b534;
      }

      .cls-5 {
        fill: #3f7a43;
      }

      .cls-6 {
        fill: #58a74d;
      }

      .cls-7 {
        fill: #41a5d0;
      }

      .cls-8 {
        fill: #41312d;
      }

      .cls-9 {
        fill: #a68c72;
      }

      .cls-10 {
        fill: #5b4239;
      }

      .cls-11 {
        fill: #cc9375;
      }

      .cls-12 {
        fill: #ea5138;
      }

      .cls-13 {
        fill: #3a83ad;
      }

      .cls-14 {
        fill: #fefefe;
      }

      .cls-15 {
        fill: #dfbe9c;
      }
    </style>
  </defs>
  <path class="cls-2" d="m201.63,90.62c12.35,5.65,24.39,11.83,35.58,19.59,7.42,5.14,13.57,11.58,19.53,18.24.69.77,1.24,1.79,3.06,1.96-1.12-2.26-2.12-4.24-3.08-6.23-1.99-4.16-.46-6.43,4.03-6.75,7.77-.55,14.69,2.32,21.69,4.93,3.69,1.38,7.3,2.96,11.25,4.57-.42-3.2-2.67-5.4-4.05-7.92-7.55-13.86-13.71-28.25-18.55-43.3-5.83-18.1-7.11-36.59-6.32-55.37.09-2.2.72-4.38,1.1-6.57,1.42-4.33,2.19-8.94,5.33-12.55,3.92-2.63,7.59-.38,11.32.6,10.25,6.37,20.05,13.4,29.9,20.35,3.89,3.41,7.84,6.76,11.67,10.24,12.87,11.72,23.68,25.14,32.73,40,6.45,10.58,11.16,21.99,14.48,33.81,2.77,9.84,4.2,20.1,4.87,30.35.35,5.29.66,10.62-.45,15.99-1.67,8.06-.35,10.46,5.27,11.74.51.12,1.07.02,1.6.11,10.05,1.68,19.41,5.36,28.38,10.05,1.41.74,3.12,1.99,2.62,4.11-.46,1.94-1.7,3.28-3.8,3.65-.49.09-1.27-.23-1.52.83.64.32,1.22.61,1.79.89,8.4,4.18,16.42,8.95,23.36,15.33,2.01,1.84,4.83,3.75,3.23,6.99-1.61,3.25-5.03,2.68-8.01,2.62-.5-.01-.97-.46-1.48-.5-3.89-.32-7.6-2.05-12.4-1.83,3.42,2.86,6.19,5.11,8.89,7.45,9.64,8.35,18.09,17.72,24.37,28.9,1.33,2.37,2.6,5.29.02,7.28-2.32,1.79-5.29,1.18-7.8-.5-1.36-.92-2.56-2.29-4.38-1.74,4.71,7.61,9.44,15.07,13.5,22.93,1.57,3.04,3.28,5.95,3.25,9.59-.02,1.99-.86,2.32-2.53,3.13-2.8,1.37-4.64-1.49-7.27-.88,2.06,3.15,2.43,6.69,3.59,9.95,1.57,4.4,1.57,9.16,1.21,13.8-.17,2.22-1.35,3.83-4.2,3.74-1.55-.05-2.95-.71-4.74-.9.34,3.81-.48,7.11,1.99,10.59,8.93,12.56,18.95,24.12,30.25,34.55,5.58,5.16,11.11,10.47,17.95,14.07,3.49,2.87,7.07,5.61,11.36,7.21,1.4,1.92,3.54,2.58,5.63,3.31,3.33,2.17,6.94,3.8,10.58,5.35.89.85,2.02,1.06,3.19,1.1,1.47,1.11,2.99,2.09,4.88,2.3.06.49.25.81.82.66,5.66,1.69,11.05,4.27,16.95,5.16,2.45.71,4.89,1.42,7.34,2.14,2.04,1,4.13,1.81,6.47,1.59,7.41,2.71,14.95,5.15,21.82,9.14.17.89.9.72,1.5.79,4.39,3.44,8.63,7.03,12.55,11.04,3.55,3.63,6.78,7.47,9.52,11.74.68,1.06,1.35,2.27,3.01,2.27,7.16-.03,14.32.49,21.01-3.17,3.95-2.16,7.12-4.97,9.8-8.48,1.26-1.65,1.09-2.96-.31-4.61-8-9.41-12.19-20.46-14.27-32.56-.97-5.66-.85-11.16-.15-16.75.8-.96,1.87-1.67,3.05-1.57,1.98.17,2.48-.91,2.06-2.37-1.73-5.91-.23-11.97-.98-17.91.48-2.13-.34-4.41.74-6.48.66-3.58.6-7.93,4.14-9.74,3.48-1.78,2.87-4.19,2.27-6.64-.31-1.29-.33-2.59-.65-3.85-.01-.91-.03-1.83-.04-2.74.06-3.46.07-6.91.18-10.37.12-3.81,2.58-6.18,6.42-6.29.11.45.25.84.84.52,2.58.55,4.9,1.59,7.24,2.87,6.71,3.64,12.18,8.63,17.04,14.4,5.89,7.65,9.86,16.34,13.68,25.12,1.04,4.13,2.1,8.25,3.12,12.39.36,1.46.3,2.41,2.64,1.6,4.37-1.51,6.32.3,6.5,5.04.03.93.09,1.86.14,2.79,0,2.7,0,5.4,0,8.09-.38,3.75-.76,7.51-1.14,11.26-1.08.66-.39,1.65-.46,2.5-1.65,3.34-2.71,6.87-3.48,10.49-3.19,5.73-6.37,11.47-10.25,16.78-5.67,4.96-10.53,11-18,13.62-.66.23-1.27,1.05-1.6,1.74-1.57,3.24-3.83,6-5.97,8.83-7.15,9.43-17.53,13.71-28.28,17.26-1.93.64-4.91-.93-6,.74-1.19,1.82.94,4.11,1.52,6.23.1.38.07.8.11,1.21-.29.59.09.75.55.86.32,2.41.65,4.81.97,7.22-.12.68-.34,1.4.66,1.62.49,5.12.98,10.24,1.47,15.36-.43,1.35-.44,2.71-.04,4.08-.61,2.94-.59,5.91-.51,8.89-.89.93-1.13,2.01-.77,3.24.02.28.04.55.06.83.28,1.22-1.45,1.91-.86,3.22.16,4.41-1.54,8.57-1.78,12.93-.48.06-.8.26-.65.82-.06,1.06-.12,2.13-.17,3.19-.48.08-.79.29-.64.85-.11,1.58.22,3.36-.39,4.71-2.74,5.97-3.07,12.49-4.63,18.72-.48.08-.79.29-.64.84.01.28.03.56.04.84-.1.5,0,.8.59.56,7.21,1.83,14.04,4.4,19.28,10.01-.09,1.53,1.61,2.01,1.93,3.3,1.06,2.58,2.35,5.09,2.42,7.97-.16.56.15.79.63.89.86,5.36.75,10.73.03,16.09-.98.23-.77.94-.66,1.62.22,4.43-1.57,8.58-1.78,12.94-.96.24-.79.94-.65,1.62-.04,1.07.08,2.17-.16,3.2-1.82,7.74-2.75,15.55-2.35,23.51l-.04,2.43c-.51,4.59.09,9.17.12,13.76.54,2.97,1.08,5.93,1.62,8.9.63,1.61.57,3.31.82,4.98.78,5.31-.68,7.24-5.78,7.07-.86-1.17-1.68-.99-1.55.39.13,1.47-1.03,2.38-1.06,3.69-3.33.39-4.09,2.43-3.94,5.5.19,3.83-.02,7.67-.06,11.51-.9.31-.68,1.01-.55,1.66-.32,3.92-2.05,6.76-5.43,9.1-7.83,5.43-16.96,5.71-25.79,6.98-5.75.83-11.64.66-17.47.94-4.86,0-9.71,0-14.57,0-8.4.45-16.75-.58-24.96-1.9-4.11-.66-8.56-2.12-12.08-4.87-6.23-4.87-4.63-11.68-3.89-18.03.82-7,3.74-13.38,7.03-19.56,2.81-2.75,5.58-5.55,8.44-8.24,1.34-1.26,2.68-2.73,4.31-3.43,6.67-2.88,10.23-8.72,13.77-14.43,3.6-5.81,6.16-12.17,8.2-18.72.72-2.3.32-3.63-2.27-3.94-1.41-.17-2.81-.54-4.21-.82-9.06-3.93-16.98-9.39-22.88-17.43-6.69-9.11-11.7-19.01-13.73-30.26-.38-2.13-1.23-3.46-4.08-3.36-4.77.17-9.54.2-14.37-.49-4.59-.65-9.71-1.39-13.75,2.4-.57-.21-.73.17-.86.6l.03-.03c-1.81,1.11-3.75,2.06-4.85,4.02-2.84.52-2.62,3.95-4.83,5.08-.57-.13-.79.09-.66.66-.61.76-1.21,1.52-1.82,2.28-2.15,1.44-3.17,3.83-4.3,5.92-1.3,2.38-2.42,5.24-.38,8,1.07,1.35,2.15,2.7,3.22,4.05,1.95,2.48,3.39,5.25,4.67,8.12l.23,3.21c.53,6.58-2.54,12.09-5.24,17.72-1.94,1.53-2.29,3.99-3.5,5.95-.77,1.77-2.07,3.34-2.09,5.4-3.75,8.57-4.08,17.63-3.88,26.77-.51,4.73-1.95,7.81-7.94,7.17-1.78-.19-3.83,3.74-7.03,3.55-.09,0-.29,1.43-.38,2.19-.33,2.75-.41,5.54-.99,8.24-1.09,5.12-3.21,9.61-8.73,11.42-2.34-.21-4.45.48-6.47,1.57-1.08.03-2.16.05-3.24.08-6.13.95-12.36.89-18.52,1.23-11.54.63-23.15.55-34.7.02-7.16-.33-14.28-1.94-20.34-6.34-7.11-6.02-6.84-13.74-5.03-21.82,2.4-7.72,5.77-14.93,11.63-20.66,5.72-5.6,13.23-8.74,19.2-14.24,5.29-4.87,11.83-8.44,17.05-13.57,1.15-1.08,2.29-2.16,3.44-3.23,1.47-2.36,3.7-4.07,5.42-6.19,1.23-1.51,2.76-2.98-.07-5.14-3.03-2.31-5.32-5.66-7.17-9.1-3.78-7.03-5.16-14.63-5.03-22.55-.12-7.05,1.59-13.81,3.43-20.52,1.81-6.6,5.22-12.5,8.44-18.48.65-.95,1.36-1.86,1.94-2.85.56-.97,1.16-2.08-.46-2.69-1.57-.59-2.4-2.44-4.27-2.49-.54-.55-1.07-1.1-1.61-1.64-4.83-4.11-9.8-8.06-14.46-12.36-5.09-4.69-9.32-10.17-13.47-15.7-1.03-1.37-2.14-2.81-3.83-1.14-4.6,4.57-10.27,7.95-14.46,12.97-1.77.2-2.66,1.44-3.42,2.85-1.02.93-2.04,1.86-3.06,2.79-1.17.04-1.92.67-2.41,1.69-1.09,1.04-2.18,2.09-3.27,3.13-1.16.07-1.91.71-2.39,1.73-7.02,4.47-11.93,12.67-21.73,12.2-.24-.01-.55.11-.72.28-4.53,4.44-11.65,5.66-14.74,11.88-.86.17-1.3.8-1.66,1.52-2.58,3.07-6.58,4.82-8.11,8.85-1.6-.14-2.54,1.35-3.92,1.63-2.87.58-2.99,1.73-1.56,4.14,2.46,4.16,4.52,8.55,6.75,12.85.42.96.76,1.97,1.28,2.87,3.8,6.63,3.43,7.71-3.1,11.26-9.56,5.2-19.04,10.55-28.55,15.84-1.07.08-2.13.17-3.2.25-3.24-.04-4.93-2.51-3.88-6.09.86-2.94,1.09-5.78-.03-8.67-.41-2.99-1.54-5.59-4.13-7.36-4.35-4.03-9.5-5.11-14.93-3.16-5.52,1.98-8.68,6.27-9.4,12.16-.9,7.31,2.44,12.46,8.36,16.33,1.57,1.03,3.9,1.38,4.03,3.93-.03.54-.07,1.08-.1,1.62.07,1.82-.9,3.17-2.33,3.95-11.45,6.28-22.96,12.46-34.43,18.71-10.76,5.87-21.5,11.78-32.24,17.68-2.09,1.79-3.92.76-5.72-.53-1.99-1.44-1.86-3.54-1.32-5.46,2.18-7.84-.89-15.85-8.79-18.9-9.09-3.5-18.34,2.2-19.63,11.72-1.01,7.45,2.27,13.11,9.04,16.62,2.01,1.04,4.02,1.95,3.86,4.94-.15,2.77-1.97,3.2-3.95,4.26-9.97,5.33-19.73,11.05-29.7,16.39-2.56,1.37-5.62,3.48-8.4-.02-.76-1.65-1.48-3.31-2.27-4.94-5.63-11.57-11.28-23.14-16.92-34.71-2.14-4.4-.42-7.05,4.58-7.06,1.88,0,3.77,0,5.65,0,9.76.02,14.59-4.87,14.55-14.72-.03-6.01-3.06-11.12-7.86-12.65-6.14-1.95-14.06-1.76-17.22,3.94-2.46,1.72-3.39,4.47-4.72,6.96l-.95.44c-.88-.04-1.89-.65-2.46.58-3.08.52-3.79-2.01-4.75-3.92-10.25-20.49-20.49-40.99-30.61-61.55-2.63-5.35-5.87-10.42-7.63-16.18-.12-1.49,1.36-2.06,1.84-3.21,1.36-1.21,3.17-1.24,4.54-.7,2.51.98,5.02.69,7.51.63,6.35-.14,12.69-5.52,13.6-12.2.84-6.09-.78-12.11-7.66-15.14-8.33-3.67-16-2.77-22.44,8.74-.99,1.77-1.87,3.28-4.4,3.33-2.58.04-3.49-1.49-4.42-3.29-5.61-10.9-11.24-21.79-16.78-32.72-1.77-3.5-1.01-5.55,2.39-7.38,9.45-5.09,18.87-10.24,28.36-15.25,2.09-1.1,2.74-1.59.65-3.68-5.32-5.32-9.54-11.35-8.86-19.49.38-8.53,5.3-17.97,17.19-20.53,8.87-1.91,16.9-.95,24.14,9.23,1.61,3.93,3.04,7.88,2.54,12.27-.22,1.91.89,2.29,2.43,1.49,5.97-3.11,12.04-6.04,17.75-9.65.96-.6.95-1.29.81-1.93-2.23-10.27.34-19.7,4.92-28.79,5.59-8.38,12.83-14.91,21.83-19.48,1.97-.27,3.89-.71,5.64-1.71,2.7-.33,5.4-.66,8.09-.99,1.43.09,2.8.42,4.26-.36,2.42-1.31,5.06-2.07,7.88-2,9.12-.41,17.67,1.67,25.73,5.87,4.35,4.13,8.97,7.6,15.51,6.51,2.04,1.37,4.73.26,6.74,1.77,2.51,2.63,3.59,6.12,5.45,9.14,3.93,6.36,7.13,13.14,10.74,19.67,3.82,6.91,6.86,14.33,10.96,21.17.06.65.17,1.27.83,1.62,1.44,2.96,2.89,5.91,4.33,8.87-.13.54.07.76.62.66,3.05.59,5.97-.28,8.91-.81,1.48.04,3.03.4,4.42.08,9.99-2.32,19.69-5.53,28.7-10.49,18.61-10.24,34.29-24.03,47.98-40.16,3.01-3.55,6.35-7.09,3.13-12.42-1.42,2.55-2.57,5.21-4.24,7.48-5.65,7.7-11.88,14.61-21.72,17.2-9.81,2.58-19.59,3.18-29.21-.11-9.16-3.12-14.67-9.67-16.1-19.48-.57-3.87-1.08-7.84-3.5-11.19-.9-1.24-1.71-2.5-3.54-1.81-3.39,1.28-6.9,1.58-10.48,1.44-1.19-.05-2.25,0-3.35.86-5.25,4.14-11.26,6.09-17.98,5.75-4.04-.68-7.73-1.94-11.29-4.24-4.81-3.1-8.35-7.45-12.55-11.13-3.89-6.01-7.88-11.95-10.31-18.76-2.6-9.65-4.6-19.38-4.77-29.43-.11-6.56,1.55-12.46,5.72-17.59.62-.57,1.25-1.14,1.87-1.71,2.11-1.79,4.49-2.75,7.29-2.26,4.67.83,7.1-1.8,8.77-5.63l3.17-3.19c2.95-1.76,5.29-4.41,8.54-5.78,1.03-.44,1.4-1.62.97-3.06-.97-3.23-1.62-6.56-2.4-9.86.06-1.14.56-2.36-.66-3.24.09-7.49-.85-14.95-.18-22.49.22-2.44-1.92-5.06-2.84-7.65-1.77-5.03-1.59-10.12.08-15.11,1.51-4.5,5.26-6.66,9.4-8.3,1.16.12,2.59.65,2.33-1.48.17-3.05,2.01-5.76,1.77-8.88,1.37-.69.47-2.39,1.43-3.26.35-1.06.7-2.13,1.06-3.19,1.81-2.38,2.67-5.21,3.97-8.15-2.42.26-3.84,1.46-4.93,3.16-6.56,2.07-7.96.87-8.17-6.03-.14-4.67,1.4-8.74,3.29-12.77.86-1.83.69-2.76-1.23-3.82-11.63-6.38-22.02-14.48-31.6-23.59-10.91-10.37-19.14-22.73-26.4-35.88-4.63-8.38-7.6-17.26-10.41-26.27-1.01-5.41-2.03-10.81-3.04-16.22-.24-4.65-.7-9.37,3.74-12.65,2.7-.67,5.21-.27,7.49,1.37,8.12,5.54,16.85,9.91,25.88,13.74.05.5.26.81.83.66,9.98,4.31,19.97,8.61,29.95,12.92Zm235.63,148.13c-.22-.31-.45-.63-.67-.94-4.28-6.58-9.88-11.98-15.45-17.41-6.29-6.13-13.78-10.72-20.59-16.18-1.48-1.18-3.01-2.64-2.09-4.79.83-1.94,2.81-1.77,4.55-1.82,6.9-.19,13.59,1.37,20.33,2.49.29.19.58.38.89.54.02.01.15-.18.23-.27-.34-.13-.67-.26-1.01-.39-.5-1.36-1.69-2.1-2.8-2.8-9.74-6.14-20.07-10.96-31.41-13.31-2.04-.42-3.86-1.09-5.4-2.49,2.12-2.69,5.14-3.12,8.23-3.13,2.98-.01,5.87-.33,8.93-1.21-1.91-1.63-4.02-2.07-5.98-2.83-.52-.04-1.04-.07-1.56-.11l.02.02c-5.31-2.94-11.32-3.43-17.07-4.83-1.97-.48-2.6.72-2.77,2.38-1.02,2.06-1.88,4.16-2.11,6.47-1.52,1.83-2.08,4.05-2.55,6.31-.27.03-.5.15-.69.35-.72.28-1.42.73-2.24.26-.66-.93-1.9-1.49-1.46-3.04,2.04-7.23,3.37-14.56,4.06-22.07.71-7.71,1.84-15.36.97-23.12-.18-2.1-.36-4.21-.54-6.31.15-.69.17-1.33-.62-1.68-2.79-29.75-15.39-55.04-35.06-77.11-2.28-3.21-5.42-5.6-8.09-8.43-13.59-14.44-29.63-25.68-46.56-35.76-2.22-1.32-3.26-.66-4.16,1.58-1.96,4.88-2.31,10.01-2.89,15.15-1.49,13.31-.07,26.45,3.02,39.3,2.66,11.08,6.44,21.89,11.04,32.38,4.77,10.88,10.43,21.23,17.73,30.63l-.07-.1c.34.56.68,1.12,1.02,1.67,2.55,4.57,5.28,9,8.97,12.76,7.24,10.69,16.73,19.13,27.21,27.34.38-1.99,1.05-3.67.92-5.29-.15-1.83,1.33-4.12-1.12-5.49-7.63-4.28-13.19-10.82-18.82-17.29-15.82-21.86-28.71-45.18-35.9-71.39-2.37-8.64-4.11-17.38-4.7-26.31-.19-2.83-1.08-6.45,2.19-7.99,3.45-1.63,5.73,1.49,7.97,3.46,13.66,12,25.36,25.66,34.98,41.13,13.37,21.51,21.14,44.66,21.08,70.16-.01,4.8-.55,9.61-.85,14.41-.68,2.97-1.33,5.94-2.07,8.89-.23.93.14,1.56.67,2.16,4.51,5.15,8.1,10.94,11.81,16.66.71,2.21,1.41,3.63,4.56,3.22,4.26-.55,8.74-.63,12.92,1.21.89.39,1.96.56,2.88-.43-2.28-3.27-5.83-5.33-7.33-9.02,4.27.39,5.79,4.62,9.05,6.44,1.82,1.96,3.51,4.06,5.47,5.87,9.66,8.88,15.43,19.79,17.44,32.73.39,2.5.19,5.21,1.07,7.5,5.98,15.52,10.66,31.54,17.38,46.77,3.23,7.33,6.39,14.76,11.16,21.3.13.36.26.71.39,1.07.1-.08.3-.21.29-.24-.17-.32-.37-.63-.56-.93.23-3.3-2.19-6.11-1.73-9.45.16-1.13-.49-2.6.96-3.23,1.52-.66,2.47.51,3.49,1.4,2.21,1.95,3.85,4.58,6.72,6,.39-1.54.02-2.68-.24-3.87-1.85-8.62-5.17-16.67-9.09-24.52-.71-1.42-1.74-3.05-.25-4.47,1.65-1.56,3.22-.2,4.77.55,2.42,1.18,3.86,3.77,6.57,4.52.15.1.31.2.46.31-.1-.15-.2-.31-.3-.46-.21-2.57-1.95-4.37-3.2-6.42-3.76-7.59-8.39-14.68-12.8-21.89-2.24-3.67-4.62-7.25-6.84-10.93-.86-1.43-1.28-3.09.11-4.46,1.32-1.3,2.79-.54,4.1.15,1.18.62,2.29,1.39,3.39,2.16,2.85,1.99,5.68,4.02,8.52,6.03.3.23.6.47.9.7.3.24.6.48.9.72.04.09.08.2.14.27.04.04.13.03.2.04-.13-.09-.26-.18-.39-.27-.21-.32-.43-.65-.65-.97Zm-222.69-92.98c-.33.28-.65.56-.98.85-.81.85-2.66.67-2.64,2.58.5.1.93.33,1.22.21,7.79-2.94,15.91-1.9,23.91-1.92,3.35,0,6.58,1.15,9.63,2.57,1.22.57,2.68,1.18,1.08,2.86-17.85,4.27-28.95,15.89-35.44,32.54-.58,1.88-1.16,3.76-2.07,6.72,12.33-8.14,24.31-14.71,35.44-23.17.49,1.98-.49,2.47-1.04,3.16-3.14,3.86-6.37,7.65-8.64,12.12-.38.74-1.42,1.65-.39,2.49.87.71,1.79-.09,2.57-.54.69-.4,1.34-.91,1.91-1.47,5.26-5.22,10.48-10.48,15.75-15.69,1.03-1.02,1.31-1.72.68-3.37-1.29-3.41-.51-6.72,1.81-9.76,2.56-3.34,5.48-6.19,9.03-8.41,2.94-1.14,5.88-2.28,8.83-3.41,10.07-1.4,20.05-1.54,29.8,1.94,1.89.67,3.72,1.61,5.83,1.4.13.11.26.22.39.32l-.34-.38c-8.51-9.59-19.66-14.74-31.52-18.71-3.5-2.33-7.38-3.58-11.53-4.06l-.29.09c-.94-.68-1.87-1.48-2.79.03.19.35.39.69.58,1.04,3.18,5.79,7.69,10.89,9.1,17.59-2.16-.7-4.34-1.33-6.48-2.1-12.35-4.46-24.94-6.07-37.81-2.77-4.4,1.13-9.17,1.76-12.4,5.62h0c-.78-.21-1.35,0-1.62.81h0c-.73-.09-1.29.17-1.65.82l.04-.02Zm104.59,358.04l.08-.08c1-.36,2-.71,3-1.07.06,1.34.12,2.68.18,4.02-1.78,3.75-3.56,7.49-5.76,12.13,3.95-2.21,6.08-5.14,8.7-7.49.83-.74,1.62-2.38,2.87-1.42,1.17.89.11,2.32-.51,3.24-2.69,3.98-5.51,7.88-8.27,11.82-.3.28-1.12.36-.72.92.32.44.89.1,1.18-.37,1-.66,2.09-1.22,3-1.99,21.3-18.01,42.7-35.9,63.45-54.56,12.23-10.99,24.01-22.44,34.68-34.98.8-.8,1.59-1.6,2.39-2.4.48-.12.77-.38.69-.92.72-.44,1.46-1.26,2.14-1.21.6.05.16,1.09.05,1.69-5.61,8.22-12.19,15.67-18.41,23.42-.44.3-.97.53-1.3.92-10.14,11.8-22.18,21.62-33.48,32.2-5.18,4.85-5.25,4.75-.68,10.45,16.54,20.67,37.6,35.49,61.7,45.67,23.07,9.74,47.38,14.61,72.62,13.87,2.84-.08,3.65-.87,3.58-3.68-.11-4.68.29-9.35,1.07-14,1.5-8.96,5.01-17.16,9.14-25.14,3.23-3.78,5.63-8.26,9.55-11.46.14.15.28.29.42.43-2.14,5.05-6.18,9.22-6.84,14.94-3.59,3.39-4.45,8.23-5.35,12.54-2.31,10.98-3.01,21.92-.59,33.36,2.89,13.7,8.59,25.35,18.41,34.98,6.56,6.44,14.53,10.43,23.99,10.69,9.4,1.89,18.07-.84,26.64-4.24,2.95.15,4.81-3.47,8.05-2.33-7.85,7.68-17.43,11.41-28.24,12.33-3.66-.99-4.78,1.6-5.38,4.21-2.42,10.56-7.64,19.76-13.49,28.7,3.17.7,6.07-1.05,9.15-.8,7.83.11,15.54.5,23.1,3.24,5.49,1.99,9.97,5.35,14.79,8.74q-.85-5.11,4.13-5.65c2.65,2.02,4.79,4.58,7.53,7.72-.27-1.65-.29-2.45-.53-3.18-.61-1.85-1.22-3.84,1.01-4.87,2.1-.97,3.2.85,4.09,2.32,1.25,2.05,2.27,4.24,3.38,6.38.02.66.11,1.42.95,1.32.66-.07.61-.68.29-1.19-.08-.94-.3-1.9-.2-2.81.25-2.16-1.52-5.29.93-6.28,2.75-1.11,3.6,2.48,5.32,3.99.14.12.42.07.82.13-.13-.86-.24-1.64-.37-2.42-2.52-14.43-2.01-28.83.23-43.25,1.79-11.5,4.6-22.83,4.25-34.65-.31-10.3-6.68-18.37-16.83-19.93-1.31-.2-3.11-.92-3.52,1.41-.63,3.61-2.24,6.93-2.22,10.81.02,3.24.36,6.82-1.42,10.38-.77-.98-1.34-1.54-1.72-2.21-3.2-5.66-2.23-11.79-1.4-17.67,2.32-16.52,7.59-32.41,10.5-48.85,4.5-25.43,2.28-49.57-10.43-72.33-2.2-3.95-4.28-8.07-7.96-10.99-3-4.68-6.75-8.67-11.1-12.11-8.6-6.79-18.49-10.53-29.2-12.34-.59-1.34-1.88-1.35-3.04-1.61-10.02-2.24-19.91-5.24-29.21-9.36-25.3-11.2-47.8-26.48-66.24-47.48-15.79-17.99-28.38-37.83-37.43-59.99-1.34-3.29-1.81-6.97-4.1-9.86-1.8-7.61-4.67-14.86-7.39-22.15-.09-2.85-1.28-5.27-2.83-7.85-2.15,7.76-5.76,14.32-10.7,18.07-2.28,1.74-2.48,3.26-1.74,5.74,3.6,12.06,4.29,24.33,1.95,36.7-2.61,13.85-9.78,25.35-19.42,35.28-13.29,13.69-29.44,22.67-47.92,27.36-2.12.54-2.87,1.32-2.7,3.47.46,6.02,1.99,11.93,1.77,18.01-.38,1.91.51,3.62.77,5.43,1.79,12.42,4.99,24.42,10.03,35.94,1.36,3.11,2.4,3.18,4.95,1.07,9.63-7.97,18.54-16.67,26.92-25.91,3.3-3.64,7.01-7.05,9.08-11.68.25-.09.6-.11.74-.29,5.52-7.32,10.92-14.73,16.58-21.94,1.73-2.2,3.26-4.84,6.83-6.81-7.26,14.54-15.78,26.86-25.09,38.66-.59.77-1.18,1.53-1.77,2.3l.07-.02c-5.41,5.78-10.65,11.73-16.27,17.29-14.79,14.64-30.76,27.7-50.18,35.88-7.59,3.2-15.28,6.13-23.36,7.9-.46.1-3.2-.45-1.17,1.71,2.52,1.93,5.54,2.62,8.51,3.44.99.27,2.49.08,2.73,1.31.27,1.38-1.18,1.94-2.12,2.63-2.06,1.52-4.47,2.64-6.35,5.25,9.53.8,17.77-2.32,26.21-4.13,1-.21,2.14-1.3,2.87-.22.79,1.17-.38,2.19-1.13,3.15-2.75,3.51-6.36,6.15-9.5,9.27-2.39,1.74-4.78,3.48-6.43,6.63,3.71-.14,6.48-1.38,9.23-2.7,1.82-.85,3.65-1.68,5.46-2.55.88-.42,1.8-.74,2.65-.1,1.03.78.88,1.91.52,2.95-.75,2.15-1.52,4.3-2.43,6.38-1.26,2.86-2.66,5.65-4.51,9.56,2.83-1.19,4.51-1.89,6.18-2.59.49.09.8-.11.92-.59.33-.2.66-.41.99-.61,1.32-.1,2.55-.35,3.05-1.82h0c1,.15,1.59-.32,1.87-1.25Zm-93.26-43.06c-.37.04-.74.08-1.1.12.09.2.18.4.27.6.52,1.09,1.03,2.18,1.55,3.27,1.33,4.28,3.81,8.02,5.63,12.06.46,1.03.92,1.48,2.12,1.03,11.42-4.22,23.52-1.58,35.17-3.48,1.64-.27,4.07,1.04,4.75-.79.59-1.57-1.93-2.21-3.05-3.27-3.09-2.92-2.67-4.98,1.48-6.3,2.3-.73,4.68-1.26,7.04-1.78,17.64-3.83,33.7-11.12,48.11-21.98.93-.7,2.9-1.08,1.9-2.95-3.97-7.51-5.57-15.95-9.25-23.57.04-1.2-.27-2.3-.97-3.29-.43-1.61-.19-3.48-2.22-5.05-.22.42-.42.94-.75,1.37-9.73,12.53-21.34,23.11-34.24,32.26-16.48,11.69-34.28,20.19-54.81,21.76-.55,0-1.09,0-1.64,0Zm-59.87-68.15l.05.04c-4.24-4.36-9.8-6.23-15.49-6.95-7.46-.95-15.15-1.4-21.31,4.46-11.16,10.62-16.52,23.27-13.33,38.83,1.05,9.31,7.55,11.14,14.45,8.93,5.2-.55,9.3-3.37,12.91-6.8,6.84-6.49,9.67-15.02,11.32-23.98.69-3.75,2.67-6.02,6.16-7.19,3.26-1.1,6.5-2.22,9.93-3.39-1.15-1.87-2.3-3.11-3.97-3.81-.23-.1-.46-.15-.71-.14Zm52.57,104.4c-.78.29-.77,1-.86,1.66-1.48,2.5-2.26,5.2-2.37,8.1-.68.59-.73,1.4-.74,2.21-.27,18.85,6.5,34.67,21.9,45.62,12.12,8.62,25.36,10.02,38.81,1.64,9.29-5.79,16.75-13.47,23.46-21.86,5.42-6.78,10.88-13.6,15.46-21.03.09-.18.19-.37.28-.55-.19.09-.37.18-.56.27-3.93.65-7.71,3.4-11.86.85-1.41-6.21,3.98-10.41,5.22-16.54-4.01,1.83-7.43,3.37-11.12,4.18-2.27.5-4.52.52-5.86-1.49-1.51-2.27.11-4.07,1.7-5.62,3.03-2.96,6.09-5.9,9.93-9.61-7.12.38-12.74,2.05-18.54,1.71-3.12-.18-5.28-1.17-4.87-4.83,1.41-1.26,3.3-2.03,4.44-3.94-5.67-.7-10.63,1.7-15.92,1.6-6.32-.12-12.66.35-18.98.76-6.09.39-12.02,1.74-17.51,4.46-5.44,2.69-9.83,6.53-12.03,12.43h.03Zm-124.41-73.69c-.7,10.64,6.01,16.52,15.69,14.01,2.73-.71,3.04-1.89,2.4-4.31-.89-3.34-2.02-6.62-2.12-10.18-.3-10.15,3.17-19.17,7.97-27.83,1.45-1.67,3.37-2.98,4.13-5.32-12.1-.42-26.17,16.58-28.06,33.63Zm549.56-4.66c-7.4,15.6-20.64,20.98-36.97,20.94q3.78,8.89,12.34,7.27c19.26-3.64,36.79-24.26,37.33-43.69.12-4.42-1.68-6.54-5.64-3.96-2.07.87-2.96,2.76-3.56,4.65-1.56,4.83-2.8,9.75-3.5,14.79Zm-325.47-60.02c-.06.53-.05,1.09-.21,1.6-.34,1.11-1.23,2.12-.22,3.35,1.18,1.43,2.22.07,3.25-.15,5.13-1.13,10.16-2.63,15-4.65,27.58-11.5,47.07-29.89,51.29-60.99,1.14-8.38.62-16.77-1.96-24.92-.08-.77-.15-1.55-.23-2.32.14-1.09.23-2.65-.78-2.86-1.74-.36-3.31.76-4.55,1.99-9.09,9.02-19.97,12.47-32.6,10.57-.53-.05-1.1,0-1.59-.18-25.13-8.96-33.78-36.54-29.48-57.54,1.38-6.73,4.22-12.93,6.81-19.22,1.33-2.15,4.91-3.45,2.47-7-10.11-14.69-22.57-26.36-40.23-31.27-6.25-1.74-12.61-2.57-18.87.19-4.05.43-6.79,3.12-9.47,5.74-4.91,4.8-9.6,9.82-14.55,14.57-2.72,2.61-5.79,4.84-9.89,4.67-.39-1.32-.78-2.64-1.36-4.59-8.77,11.01-14.58,22.58-16.6,35.93-.21,1.38.22,2.06,1.69,1.89.46.24.92.47,1.38.71.97.51,2.71.5,2.53,1.9-.13,1.07-1.64,1.34-2.78,1.48-.39.05-.77.09-1.16.13-2.01,0-4.06-.28-6.02.03-7.35,1.17-9.72,4.9-7.9,12.09.33,1.35.32,2.85,1.53,3.89,5.41-5.84,11.91-3.19,14.95,1.68,1.44,2.31,2.8,4.71,3.1,7.39,1.17,10.55,2.73,21.14-1.52,31.46-.28.68-.02,1.58,0,2.38-1.9,5-7,5.32-10.91,7.13-9.39,4.37-16.66,10.9-21.9,19.74-3.51,5.91-5.64,12.25-5.2,19.77-1.04-1.59-1.72-2.61-1.68-4.06.12-5.06-.61-10.23,1.82-14.98,1.32-2.58-.18-2.77-2.03-2.48-4.41.7-5.92,4.33-6.97,7.85-1.59,5.29-.68,10.68-.13,16.13.97,9.65,2.78,19.03,7.62,27.44,3.48,6.05,7.57,11.88,14.24,15.08,6.18,6.01,13.79,6.82,21.14,3.08,4.09-2.08,7.85-3.68,12.63-4.24,22.08-2.57,39.56-13.34,52.33-31.58,6.74-9.63,11.02-20.32,13.49-31.85-2-.42-3.4,1.11-5.03.46,2.29-3.17,8.47-5.05,12.79-3.88,3.61.98,7.24,6.38,7.34,11.21-.8-.98-1.46-1.77-2.12-2.57-1.65-1.57-3.05-4.77-5.19-3.92-1.53.6-.31,4.09-.42,6.29-.05.91-.09,1.87.58,2.64-1.78,5.41-3.03,10.89-3.14,16.64-.11,5.85-2,11.47-1.85,17.46.11,4.32-1.67,8.76-3.03,13.02-3.34,10.48-8.47,19.91-18.14,25.88-6.21,3.83-12.86,6.09-19.85,1.47-2.27-2.96-3.58-6.21-3.29-10.04.26-3.61-1.65-6.41-3.71-9.11-1.58-2.06-3.4-2.48-5.62-.67,3.32,3.8,5.92,7.98,6.25,13.2.61,9.64,5.97,16.07,15.48,17.64,17.51,2.9,31.49-1.31,39.73-15.17,4.88-8.21,6.49-17.38,7.38-26.72.42-3.52.52-7.11,1.35-10.53,1.1-4.56.18-9.42,2.27-13.79,1.53,5.06.73,10.38,1.78,15.49Zm-49.55-207.32c-.27-.03-.51.05-.7.24-4.83,2.24-7.38,6.42-9.55,10.98,1.22.57,2.2.13,3.22-.24,10.24-3.78,20.54-2.89,30.43.74,14.74,5.4,25.94,15.56,35.01,28.2,8.06,11.22,12.73,23.24,12.17,37.54-.61,15.75,10.23,30.3,24.88,35.8,12.41,4.66,26.69-2.39,30.75-15.18,3.13-9.52,3.13-18.83-.52-28.37-3.65-9.54-9.2-17.32-18.83-20.86-12.48-4.58-24.34-2.43-28.71,12.54-.21.73-.24,1.64-1.16,2-1.67-1.04-.36-2.24-.18-3.38,1.35-4.74,3.48-9.02,7.55-11.99,1.47-1.07,1.82-1.83.86-3.55-7.87-14.2-17.77-26.69-30.97-36.25-12.43-9-26.39-13.35-41.82-12.05-4.35.37-8.7,1.33-12.42,3.97v-.12Zm-40.11,5.07c2.74-.94,5.3-2.19,8.33-4.54-3.97-.56-7.11-.49-10.26-.28-2.41-.2-4.77,0-7.14.56-2.96.71-5.95,1.34-8.95,1.77-1.96.28-4.25.5-5.4-1.62-1.08-2,.43-3.64,1.61-5,1.92-2.2,4.12-4.16,6.2-6.23,1.28-.57,2.62-1.05,3.64-2.28-3.46-2.01-6.74-4.11-10.19-5.89-4.81-2.48-9.05-6.16-14.61-7.1-11.75-7.83-24.5-14.15-35.3-23.93-.24,1.76-.08,2.71.52,3.92,7.05,14.24,16.74,26.46,27.92,37.64,4.24,4.24,9.11,7.6,13.65,11.4,5.13,4.29,10.72,7.49,16.74,10.13,1.13.5,2.24.73,3.38-.25,3.24-2.81,6.56-5.55,9.84-8.31Zm134.02,534.54c7.36,2.99,15.08,1.71,22.68,1.93,13.46.37,26.84-.58,40.17-2.4,4.65-.64,6.13-2.58,6.87-7.43.86-5.65.44-11.57,3.42-16.81,1.04-1.84-.53-3.05-1.62-4.12-1.78-1.75-3.16-4.11-5.94-4.54-.24-.04-.67.41-.84.73-2.08,3.92-4.54,2.19-6.92.44-2.7-1.99-5.21-4.26-8.41-5.48-7.62-4.31-15.62-7.56-24.36-8.72-.51.1-1.07.08-1.52.3-16.01,8.09-25.95,20.82-29.24,38.54-1.25,6.73-1.13,6.75,5.72,7.56Zm-32.38-545.87c2.31,3.38,5.26,6.11,8.77,8.19,1.61.96,3.39,1.84,3.44-1.43.13-7.79.01-15.57-1.24-23.29-1.11-6.87-3.13-13.51-5.47-20.03-2.95-8.24-6.47-16.24-11.6-23.42-3.53-6.48-7.6-12.62-12.16-18.42-7.24-9.21-15.01-17.93-24.07-25.42-.69-.57-1.28-1.73-2.3-1.32-1.32.53-.7,1.93-.6,2.85.5,4.6.83,9.26,1.84,13.76,3.73,16.72,9.81,32.63,17.42,47.94,7.19,14.46,15.13,28.46,25.96,40.59Zm248.47,556.71c9.02-.25,17.86-1.45,26.4-4.56,3.26-1.19,5.23-3.38,5.78-6.61,1.28-7.57,1.6-15.18.18-22.86-3.02,2.2-3.02,2.12-5.63-.27-2.22-2.03-3.22-5.23-6.17-6.63q-2.94,6.53-8.5,1.67c-.2-.17-.46-.26-.7-.39-.68-.62-1.31-1.32-2.05-1.85-9.9-7-21.05-8.7-32.83-7.71-2.31.24-3.79,1.8-5.32,3.3-10.82,10.67-16.48,23.88-19.05,38.63-1.03,5.9-1.07,5.89,5,6.46,14.28,1.51,28.57,2.25,42.9.82Zm70.41-306.72c2.97-1.1,5.94-1.39,8.9.03,5.03,7.05,1.28,14.31.13,21.57,1.81-.03,2.5-.99,3.11-2.05,1.65-.7,2.94-1.86,4.19-3.11,7.45-7.43,11.96-16.54,14.9-26.47,1.51-5.11,2.86-10.32,2.43-15.76-2.6,5.5-3.94,11.61-9.56,16.61,2.89-14.09,1.37-26.96-2.44-39.49-3.84-12.62-9.81-24.08-20.79-32.13,3.24,8,7.61,15.47,8.64,24.18-4.67-9.67-8.35-19.87-15.83-27.93-.57-2.6-2.09-4.17-5.21-4.8,1.03,6.45.32,12.59,1.21,18.85,1.13,7.98,1.58,16.14,2.24,24.23.15,1.79.17,3.9-1.82,4.5-2.34.7-3.07-1.6-4-3.15-1.45-2.43-1.41-5.61-3.8-8.07-.29,7.74.05,14.95,1.24,22.16,1.32,7.98,3.3,15.77,5.48,23.52.5,1.8,1.43,4.31-.21,5.23-2.19,1.23-3.03-1.52-3.98-2.98-2.1-3.21-4.02-6.53-6.02-9.81,1.23,11.76,4.32,22.66,13.12,32.39,1.24-7.27,2.17-13.65,8.06-17.54Zm-239.55,217.77c-1.94-1.19-2.96-.32-4.1,1.41-5.13,7.82-11.66,14.36-19.03,20.08-2.06,1.6-4.23,3.05-7.06,5.08,4.52-.17,7.93,1.44,11.55.69,10.47,3.12,20.86,6.5,29.6,13.36,2.78,2.19,3.85,1.17,4.77-1.47,3.17-.45,5.3,1.59,7.53,3.26,2.41,1.8,4.69,3.76,7.52,6.06,0-3.55-.02-6.37,0-9.18.01-1.49.57-2.67,2.2-2.92,1.46-.22,2.14.76,2.74,1.91.96,1.82,1.03,4.11,2.84,5.82.86-2.98.34-5.77.82-8.53,1.8-10.4,5.85-19.79,10.99-28.89,4.72-8.37,4.75-14.78-2.27-21.56-2.93-2.83-4.37-6.6-3.49-10.69,1.05-4.87,3.18-9.29,6.63-13.03,4.15-4.5,8.42-8.88,13.74-12.93-5.78-1.21-10.88-2.15-15.91-3.36-17.3-4.17-33.47-11.09-48.7-20.24-2.84-1.71-4.43-1.31-5.25,1.91-.2.18-.45.33-.58.55-8.14,13.93-14.29,28.5-10.57,45.02,2.58,11.43,8.08,21.05,20.85,23.99,2.5.91,5.02,1.78,7.5,2.75.77.3,2.17.29,1.82,1.56-.27.98-1.46.89-2.42.94-4.01.22-7.84-.9-11.73-1.57ZM247.82,128.71c-2.06-2.84-4.61-5.23-7.23-7.54-11.44-10.09-24.99-16.63-38.59-23.13-17.33-8.28-35.39-14.97-52.28-24.19-2.86-1.56-5.66-3.23-8.94-5.1.14,2.11.24,3.57.34,5.03-.06,1.07-.36,2.2-.13,3.21,2.31,9.81,4.49,19.64,8.68,28.91,9.01,19.97,21.58,37.15,38.62,51.09,6.88,5.63,14.53,9.88,22.18,14.21,2.47,1.4,3.13-.63,4.04-1.9,1.5-2.1-.87-2.12-1.76-2.48-6.43-2.54-12.66-5.83-17.85-10.08-13.45-11.01-25.62-23.37-34.2-38.78-3.26-5.85-6.65-11.64-8.82-18.02-.43-1.28-1.1-2.9.11-3.77,1.59-1.14,2.6.67,3.73,1.51,7.85,5.93,15.49,12.08,24.4,16.55,12.81,6.43,25.86,12.49,37.71,20.67,2.08,1.43,4.17,1.49,6.49.78,3.59-1.09,7.3-1.57,11-2.19,5.14-.86,10.29-.42,15.59-.81-.65-1.96-1.81-3.02-3.09-3.98Zm-37.63,378.79c.24-.49.75-1.03-.22-1.31-2.07.99-3.84,3.02-6.55.92-2.56-1.99-1.63-4.08-1.08-6.46.38-1.67.15-3.49.11-5.24-.13-5.7-2.51-10.47-7.63-12.82-6.03-2.77-12.37-3.21-18.05,1.46-8.13,6.68-9.07,23.23,5.23,28.45,1.76.64,3.46,1.11,3.54,3.7.07,2.45-.88,3.46-2.95,4.55-9.99,5.26-19.8,10.85-29.79,16.1-2.89,1.52-3.59,2.83-1.82,5.81,3.01,5.09,5.6,10.44,8.37,15.68,1.71,3.23,2.05,7.19,5.17,9.7,7.83-14.18,18.15-14.65,25.8-11.79,9.84,3.68,15.24,8.24,13.69,22.48-.64,5.84-3.1,10.57-8.46,14.11-5.13,3.39-10.61,3.59-16.47,3.9,4.47,10.92,10.24,20.69,15.22,30.85.73,1.5,1.65,4.11,4.39,2.62,8.81-4.79,17.59-9.66,26.87-14.77-6.69-4.64-10.27-10.79-10.83-18.16-.79-10.34,6.28-18.97,17.64-22.61,15.9.02,22.49,5.8,24.27,21.5.35,3.04,1.88,1.96,3.28,1.21,7.26-3.85,14.48-7.78,21.74-11.62,1.56-.83,2.23-1.6,1.24-3.44-2.95-5.45-5.77-10.97-8.57-16.5-.92-1.81-1.85-2.53-4.07-1.72-7.34,2.68-14.82,3.54-22.44.91-6.47-2.23-12.85-4.44-17.94-9.42-11.53-11.27-18.17-24.88-20.22-40.8.19-2.43.37-4.87.56-7.3Zm-31.09-109.84c-5.59,2.84-11.16,5.71-16.78,8.51-2.74,1.36-3.87,3.41-4.46,6.5-2.09,10.92-7.04,20.28-16.84,26.26-6.67,4.08-13.91,6.83-21.59,3.18-3.17-1.5-5.7-1.25-8.56-.07-.95.39-1.91.77-3.12,1.26,3.7,7.48,7.44,14.92,11.06,22.43,1,2.07,3.18,4.3,1.17,6.67-2.04,2.4-4.93,1.03-7.5.77-.25-.03-.48-.27-.74-.31-6.66-1-12.4.72-16.43,6.29-3.84,5.3-4.3,11.14-1.23,16.98,3.1,5.9,8.09,8.86,14.83,8.26,7.36-.66,11.86-5.1,14.53-11.66.76-1.88,1.12-3.95,3.83-3.97,2.51-.02,3,1.95,3.76,3.62,5.56,12.4,11.18,24.77,16.57,37.25,1.27,2.94,2.45,3.65,5.33,1.94,4.75-2.81,9.7-5.27,14.56-7.88,4.05-2.18,8.08-4.37,12.47-6.74-10.9-4.42-15.56-14.74-13.77-24.82,1.85-10.41,11.06-17.15,23.94-15.97,15.16,1.4,17.5,13.16,17.32,25.89,2.35-.75,4.01-1.41,4.85-3.67,2.49-6.62,6.68-11.98,12.76-15.7,1.77-1.08,2.03-2.21,1.12-3.99-2.81-5.5-5.53-11.05-8.28-16.57-8.96-18.74-18.89-37-28.47-55.42-2.25-4.33-3.71-9.64-10.32-9.04Zm-14.53,250.85c8.52-4.57,16.56-8.88,24.6-13.19.59-.32,1.18-.65,1.77-.98.94-.53,1.24-1.01.62-2.21-2.55-4.95-4.46-10.35-7.24-15.03-3.91-6.56-7.01-13.47-10.69-20.11-1-1.8-1.79-3.69-.07-5.58,1.52-1.67,3.14-1.48,5.1-.66,6.09,2.56,11.92.52,16.11-3.4,6.83-6.38,6.72-15.47.79-22.64-4.78-5.77-16.96-6.81-22.97-.25-2.02,2.2-3.58,4.47-4.07,7.57-.23,1.43-.79,3.44-3.19,3.53-1.87.07-3.01-.44-3.69-2.28-.4-1.09-1.37-1.96-1.9-3.01-4.56-8.96-9.13-17.91-13.58-26.93-.89-1.81-1.68-1.95-3.37-1.02-8.95,4.91-17.95,9.73-26.96,14.51-1.24.66-2.11,2.7-4.13,1.15-1.93-1.49-2.87-3.34-2.15-5.6.8-2.51.68-5.02.68-7.55,0-7.6-6.6-14.23-14.42-14.64-7.85-.4-16.13,5.75-17.02,13.59-1.06,9.28,2.79,15.12,11.56,18.47,1.55.59,3.34,1.02,3.55,2.79.23,1.95-1.02,3.55-2.64,4.65-1.33.9-2.76,1.68-4.18,2.45-8.31,4.45-16.59,8.96-24.98,13.27-2.39,1.23-2.58,2.4-1.42,4.66,3.57,6.95,6.99,13.97,10.35,21.02,1.15,2.41,1.85,3.25,3.95.56,4.2-5.4,9.7-8.05,16.83-7.88,8.26.2,14.39,3.79,17.97,10.8,3.6,7.06,3.55,14.57-.94,21.53-4.68,7.26-11.97,9.43-20.18,10.02,5.07,10.4,10.16,20.77,15.17,31.17.7,1.46,1.24,2.12,2.96,1.17,8.56-4.74,17.18-9.37,25.9-14.1-9.94-8.4-12.86-18.72-8.22-28.31,4.39-9.08,14.35-14.07,23.84-11.86,9.42,2.2,16.53,9.07,16.28,24.33Zm-78.44-82.23c-9.11-2.67-14.42-16.25-13.04-22.55,2.47-11.31,11.97-18.91,23.04-18.51,4.78.17,8.86,2.04,12.49,5.07,6.76,5.66,6.78,13.48,6.43,21.73,9.87-5.33,19.2-10.39,28.56-15.4,1.16-.62,1.56-1.18.96-2.5-5.64-12.57-11.22-25.16-16.96-38.07-7.12,12.25-18.28,16.1-27.43,12.14-9.41-4.07-14.25-14.27-13.33-21.12.7-5.21,2.84-9.99,6.75-13.88,5.78-5.75,13.02-5.64,21.06-5.14-4.28-8.66-8.07-16.8-12.31-24.71-2.01-3.75-9.32-5.05-13.14-2.93-7.54,4.18-15.08,8.36-22.62,12.54-1.72.96-3.23,1.25-5-.31-1.6-1.41-1.95-2.64-1.08-4.51.9-1.92.02-4.02.33-6,1.36-8.55-5.42-16.47-16.75-15.62-9.01.67-16.44,12.73-13.25,19.98,2.48,5.64,5.65,9.91,11.38,12.35,3.37,1.43,3.52,4.33.59,6.5-1.08.8-2.27,1.45-3.45,2.1-9.69,5.3-19.4,10.57-29.09,15.87-1.2.66-2.91.96-1.74,3.18,4.68,8.88,9.24,17.83,13.95,26.95,10.26-12.81,21.76-12.16,29.03-8.56,8.56,4.24,12.7,12.4,11.02,23.11-1.61,10.22-9.3,15.45-24.63,17.04.67,1.26,1.37,2.51,2.01,3.79,4.69,9.39,9.36,18.79,14.07,28.17,2.77,5.53,2.81,5.52,8.27,2.74,8.07-4.11,16.07-8.36,23.88-13.48Zm284.91-296.37c-13.5-1.45-23.35-8.12-29.84-19.7-4.7-8.39-6.54-17.46-6.19-27.09.17-4.57-.4-9.19-2.74-13.27-1.42.28-1.33,1.28-1.6,1.96-4.79,12.13-4.38,24.2.5,36.22,6.85,16.86,21.82,27.06,39.87,21.89Zm178.38,383.98c-1.83.18-2.51.13-3.11.33-2.41.82-4.87,1.57-7.19,2.62-12.06,5.5-19.66,20.78-20.11,34.14-.12,3.54,1.76,6.06,5.16,7.43,1.69.68,2.66.97,2.75-1.49.32-8.77,3.33-16.77,7.1-24.58,3.41-7.06,8.94-12.33,15.41-18.45Zm-220.3-450.99c-.32.18-.76.29-.96.58-.68,1-1.35,2.02-1.88,3.1-5.81,11.73-8.95,23.75-5.82,37.04,2.59,11,7.33,20.37,16.56,27.11,6.99,5.11,16.67,7.03,23.55,4.73-2.99.02-5.49-.81-8.03-1.59-22.37-6.86-29.36-29.46-29.27-46.26.04-7.44,1.88-15.01,5.78-21.73.55-.95,1.06-1.89.07-2.97Zm-37.21,154.95c-5.99,2.23-6.48,8.92-10.44,13.15-.66-2,1.2-3.32-.39-5.06-6.12,6.01-9.07,13.12-8.08,21.66.53,4.53,2.11,5.09,5.53,2.04,7.1-6.34,10.55-14.76,12.83-23.71.64-2.5,1.62-5.11.54-8.06Zm59.98,329.87c2.4-18.89,11.34-33.2,28.34-42.2-.94-.38-1.57-.42-2.19-.37-15.78,1.37-31.18,18.6-30.74,34.37.1,3.4,1.15,6.23,4.58,8.2Zm-133.06-425.18c-.73-5.1-1.16-9.59-3.37-13.73-1.08-2.04-2.25-3.59-4.82-3.47-2.75.12-3.39,2.28-4.08,4.25-2.5,7.09-2.24,14.33-.84,21.57.32,1.66-1.09,4.73,1.49,4.61,2.02-.1.5-3.14.89-4.82,1.74-7.66,4.24-11.07,10.74-8.41Zm-5.71,7.11c.17.98.36,3.23,3.29,3.29,2.13.04,2.98-1.97,2.81-3.2-.28-2.01-.63-4.9-3.49-4.95-1.82-.03-2.94,1.63-2.61,4.86Z"/>
  <g>
    <path class="cls-14" d="m525.32,388.45c-.57.16-.77-.17-.82-.66.27.22.55.44.82.66Z"/>
    <path class="cls-3" d="m426.29,431.14c.11-.6.56-1.64-.05-1.69-.68-.05-1.42.77-2.14,1.21-.23.31-.46.61-.69.92-.8.8-1.59,1.6-2.39,2.4-1.5-.34-2.47.55-3.59,1.36-13.89,10.07-27.81,20.11-41.75,30.12-13.94,10-28.08,19.7-40.84,31.27-3.9,3.54-7.71,7.37-12.44,9.96-.06-1.34-.12-2.68-.18-4.02-1.67-1.51-2.43-.49-3,1.07,0,0-.08.08-.08.08-1.14-.35-1.67.2-1.87,1.25,0,0,0,0,0,0-1.36.02-2.57.31-3.05,1.82-.33.2-.66.41-.99.61-.31.2-.61.39-.92.59-1.68.7-3.36,1.41-6.18,2.59,1.85-3.91,3.26-6.7,4.51-9.56.91-2.08,1.68-4.23,2.43-6.38.36-1.03.51-2.17-.52-2.95-.85-.65-1.77-.33-2.65.1-1.81.87-3.64,1.7-5.46,2.55.16-2.09-.82-3.37-2.8-3.93,3.14-3.12,6.74-5.75,9.5-9.27.75-.95,1.92-1.98,1.13-3.15-.73-1.09-1.87,0-2.87.22-8.44,1.82-16.69,4.94-26.21,4.13,1.88-2.61,4.28-3.73,6.35-5.25.94-.69,2.39-1.25,2.12-2.63-.24-1.23-1.74-1.04-2.73-1.31-2.97-.82-5.99-1.51-8.51-3.44,2.39.15,4.84.75,7.15.38,7.15-1.15,14.16-3.03,20.92-5.6,12.63-4.79,23.15-12.92,32.88-22.02,9.91-9.27,19.28-19.08,27.5-29.91,1.25-1.64,3.1-3.13,2.53-5.64,0,0-.07.02-.07.02,1.35-.18,3.34.13,1.77-2.3,9.31-11.8,17.82-24.11,25.09-38.66-3.57,1.97-5.1,4.61-6.83,6.81-5.66,7.21-11.06,14.62-16.58,21.94-.14.18-.49.2-.74.29-1.96-1.8-3.85-3.68-5.9-5.38-8.87-7.36-17.99-14.07-30.62-10.94.47-.47.87-1.04,1.41-1.4,11.79-7.88,22.58-16.98,32.02-27.54,10.04-11.23,18.11-23.65,21.93-38.52,3.3-12.86,3.92-26.23,7.78-38.99,1.86-6.13,2.12-12.59,3.22-18.88,2.72,7.3,5.59,14.55,7.39,22.15,1.03,12.35,5.17,23.78,10.31,34.91,8.1,17.55,20.46,32.18,33.36,46.13,10.72,11.59,23.24,21.45,36.94,29.67,18.33,11.01,37.79,17.88,59.42,17.59,10.7,1.81,20.6,5.55,29.2,12.34,4.35,3.44,8.1,7.43,11.1,12.11-.11,1.28.53,2.34,1.03,3.44,4.44,9.65,6.66,19.84,7.09,30.39.46,11.34-1.37,22.46-3.71,33.52-4.15,19.68-12.39,38.36-14.37,58.58-.96,9.84-.91,19.55,2.92,28.92,3.03,7.39,6.69,14.76,2.19,22.89-8.56,3.4-17.23,6.13-26.64,4.24-1.9-.93-3.85-1.77-5.69-2.8-16.51-9.22-25.7-23.88-30.7-41.57-2.38-8.42-3.45-17.1-3.06-25.81.32-7.18,1.49-14.33,2.99-21.4.65-5.72,4.7-9.9,6.83-14.94.33-.3.55-.62.07-.96-.03-.02-.32.34-.49.52-3.93,3.2-6.32,7.68-9.55,11.46-3.6-.57-6.52,1.59-9.78,2.42-14.37-1.73-28.27-4.85-41.49-11.16-14.95-7.15-28.47-16.16-40.13-27.92-6.05-6.11-11.94-12.37-17.91-18.56,0-.21,0-.42-.01-.64,4.75-5.19,7.89-11.44,11.09-17.58,1.67-3.22,4.49-6.16,3.98-10.28Z"/>
    <path class="cls-3" d="m220.28,286.58c-.01-.8-.28-1.7,0-2.38,4.25-10.31,2.69-20.91,1.52-31.46-.3-2.69-1.66-5.08-3.1-7.39-3.04-4.88-9.54-7.52-14.95-1.68-1.21-1.03-1.2-2.53-1.53-3.89.98-.07,1.78-.43,2.37-1.27,3.12-4.4,7.18-7.79,11.55-10.85.39-.04.77-.08,1.16-.13,1.14-.14,2.64-.41,2.78-1.48.18-1.4-1.56-1.39-2.53-1.9-.46-.24-.92-.48-1.38-.71,3.63-11.96,8-23.55,16.27-33.23,4.11.17,7.18-2.06,9.89-4.67,4.95-4.76,9.64-9.78,14.55-14.57,2.68-2.63,5.42-5.31,9.47-5.74.72,1.79,2.29,1.54,3.76,1.63,1.74.11,3.51.12,5.19.5,16.47,3.78,28.72,13.94,39.66,26.18,2.82,3.15,4.17,7.49,8.02,9.76-2.59,6.29-5.43,12.49-6.81,19.22-4.3,21,4.36,48.58,29.48,57.54.49.17,1.06.12,1.59.18.1,1.54,1.4,1.92,2.47,2.32,8.26,3.06,20.13,2.82,27.7-3.89,2.79-2.47,5.18-5.4,7.75-8.12.08.77.15,1.55.23,2.32-1.44,1.53-.63,3.22-.47,4.93.66,6.82,1.13,13.7-.2,20.45-2.96,15.02-10.65,27.36-22.1,37.43-10.87,9.55-22.8,16.52-37.94,15.77,1.29-2.63,2.62-5.25,3.86-7.91,7-15.05,2.59-33.15-10.24-40.8-13.36-7.97-34.46-6.91-46.65,9.27-1.78,2.37-2.74,2.18-4.54.24-3.48-3.75-7.06-7.41-10.78-10.93-10.11-9.56-21.44-16.22-36.08-14.71Zm31.55-4.02c.84,1.2,1.6,2.47,2.53,3.6,4.82,5.92,10.49,10.7,18.63,10.07,8.31-.65,14.53-5.01,18.52-12.44,2.86-5.31,3.89-11.09,4.06-16.98.29-9.71-2.16-18.76-7.46-26.98.64-2.44-1.4-3.69-2.51-5.22-10.12-14.01-29.43-12.74-37.38,2.66-6.95,13.47-5.9,27.21.16,40.74.76,1.69.93,4.08,3.44,4.56Zm17.98-76.86c-8.74-.32-16.18,1.89-21.63,8.92-.63.82-1.84,1.54-.9,2.7.83,1.02,1.76-.06,2.51-.4,12.35-5.64,23.78-3.69,34.5,4.13,2.5,1.82,4.91,3.77,7.44,5.55,2.45,1.73,3.75.86,3.85-2,.11-2.96-1.05-5.55-2.72-7.87-5.72-7.93-13.48-11.66-23.05-11.02Z"/>
    <path class="cls-12" d="m164.57,648.52c.24-15.26-6.86-22.13-16.28-24.33-9.49-2.21-19.45,2.78-23.84,11.86-4.64,9.59-1.72,19.92,8.22,28.31-8.72,4.73-17.34,9.36-25.9,14.1-1.72.95-2.26.29-2.96-1.17-5.01-10.4-10.1-20.77-15.17-31.17,8.21-.6,15.5-2.77,20.18-10.02,4.48-6.96,4.54-14.46.94-21.53-3.58-7.02-9.71-10.61-17.97-10.8-7.13-.17-12.63,2.49-16.83,7.88-2.1,2.7-2.79,1.86-3.95-.56-3.36-7.05-6.78-14.08-10.35-21.02-1.17-2.27-.98-3.44,1.42-4.66,8.39-4.3,16.67-8.82,24.98-13.27,1.42-.76,2.85-1.54,4.18-2.45,1.62-1.1,2.87-2.69,2.64-4.65-.21-1.76-2-2.19-3.55-2.79-8.77-3.35-12.61-9.2-11.56-18.47.89-7.84,9.17-13.99,17.02-13.59,7.82.4,14.42,7.04,14.42,14.64,0,2.53.12,5.04-.68,7.55-.72,2.26.22,4.11,2.15,5.6,2.02,1.56,2.89-.49,4.13-1.15,9.02-4.78,18.01-9.6,26.96-14.51,1.69-.93,2.48-.79,3.37,1.02,4.45,9.01,9.02,17.97,13.58,26.93.54,1.06,1.5,1.92,1.9,3.01.68,1.83,1.82,2.35,3.69,2.28,2.4-.09,2.96-2.09,3.19-3.53.5-3.1,2.06-5.37,4.07-7.57,6.01-6.56,18.19-5.52,22.97.25,5.93,7.16,6.05,16.26-.79,22.64-4.19,3.92-10.02,5.96-16.11,3.4-1.95-.82-3.57-1.02-5.1.66-1.72,1.89-.93,3.78.07,5.58,3.68,6.64,6.78,13.55,10.69,20.11,2.79,4.67,4.69,10.07,7.24,15.03.62,1.2.32,1.68-.62,2.21-.59.33-1.17.66-1.77.98-8.04,4.31-16.08,8.62-24.6,13.19Z"/>
    <path class="cls-15" d="m220.28,286.58c14.64-1.51,25.98,5.15,36.08,14.71,3.71,3.51,7.3,7.18,10.78,10.93,1.8,1.94,2.76,2.13,4.54-.24,12.19-16.18,33.29-17.24,46.65-9.27,12.84,7.66,17.24,25.75,10.24,40.8-1.24,2.66-2.57,5.27-3.86,7.91l-.06.04c-1.87,0-2.33-1.53-2.99-2.8-1.1-2.12-2.15-4.27-3.25-6.4-.29-.56-.6-1.43-1.36-.91-.4.27-.39,1.16-.57,1.78-2.09,4.37-1.17,9.23-2.27,13.79-.83,3.42-.93,7.01-1.35,10.53-3.13,4.74-3.92,10.4-6.08,15.53-4.48,10.61-11.17,18.9-22.34,22.89-8.48,3.03-16.81,3.35-24.6-1.95-1.85-1.26-3.87-2.74-3.2-5.59,6.99,4.61,13.64,2.36,19.85-1.47,9.68-5.97,14.8-15.39,18.14-25.88,1.36-4.25,3.14-8.7,3.03-13.02-.15-6,1.74-11.62,1.85-17.46.11-5.75,1.36-11.23,3.14-16.64,1.78-1.57,1.97-4.74,5.04-5.01.66.8,1.31,1.59,2.12,2.57-.1-4.83-3.74-10.24-7.34-11.21-4.31-1.17-10.5.71-12.79,3.88,0,0,.1,0,.1,0-.9-.86-1.42.12-2.14.38.64.81,1.45.38,2.16.47,2.34.42.86,1.94.59,2.72-7.47,21.95-20.65,38.91-42.67,47.82-6.21,2.51-12.73,4.78-19.54,3.38-3.52-.72-5.72-.01-8.15,2.48-6.22,6.39-13.68,8.7-22.36,5.61-1.45-.52-2.34-.49-2.54,1.25-6.67-3.2-10.76-9.03-14.24-15.08-4.84-8.41-6.64-17.78-7.62-27.44-.55-5.45-1.46-10.84.13-16.13,1.06-3.52,2.57-7.15,6.97-7.85,1.84-.29,3.34-.1,2.03,2.48-2.43,4.75-1.7,9.92-1.82,14.98-.04,1.44.64,2.46,1.68,4.06-.44-7.51,1.69-13.85,5.2-19.77,5.25-8.84,12.52-15.38,21.9-19.74,3.91-1.82,9.01-2.14,10.91-7.13Zm-1.7,49.56c.13,2.62-.06,4.56.77,6.52,1.93,4.56,3.25,5.06,6.69,1.65,4.28-4.25,6.84-9.37,7.17-15.54.14-2.75-.18-5.51-2.92-6.33-3.18-.95-6.46-.33-8.37,3.04-1.98,3.5-3.79,7.08-3.34,10.66Zm-10.14.67c.74-1.91,1.04-2.78,1.4-3.63,2.26-5.31,4.65-10.53,9.67-13.93,8.24-5.58,17.04-2.02,19.52,7.65.65,2.54.46,4.98.68,7.47.07.8-.63,2.15.78,2.28,1.15.11,1.21-1.21,1.58-2.03,1.21-2.69,1.02-5.59.8-8.36-.88-10.88-9.25-15.93-18.18-14.28-9.33,1.71-17.39,13.96-16.26,24.82Z"/>
    <path class="cls-7" d="m86.13,566.29c-7.81,5.13-15.81,9.37-23.88,13.48-5.46,2.78-5.5,2.78-8.27-2.74-4.71-9.38-9.37-18.78-14.07-28.17-.64-1.28-1.34-2.53-2.01-3.79,15.33-1.59,23.02-6.82,24.63-17.04,1.68-10.71-2.46-18.87-11.02-23.11-7.26-3.6-18.76-4.25-29.03,8.56-4.71-9.12-9.27-18.07-13.95-26.95-1.17-2.22.54-2.52,1.74-3.18,9.69-5.3,19.4-10.57,29.09-15.87,1.18-.65,2.38-1.3,3.45-2.1,2.93-2.17,2.78-5.08-.59-6.5-5.73-2.43-8.9-6.7-11.38-12.35-3.19-7.25,4.24-19.31,13.25-19.98,11.33-.85,18.1,7.07,16.75,15.62-.31,1.98.56,4.07-.33,6-.87,1.86-.52,3.1,1.08,4.51,1.77,1.56,3.27,1.26,5,.31,7.54-4.18,15.08-8.36,22.62-12.54,3.82-2.12,11.13-.81,13.14,2.93,4.24,7.9,8.03,16.05,12.31,24.71-8.03-.5-15.27-.62-21.06,5.14-3.91,3.89-6.05,8.67-6.75,13.88-.92,6.85,3.92,17.05,13.33,21.12,9.15,3.95,20.3.1,27.43-12.14,5.74,12.9,11.32,25.5,16.96,38.07.59,1.32.2,1.88-.96,2.5-9.36,5.01-18.69,10.07-28.56,15.4.35-8.25.33-16.07-6.43-21.73-3.62-3.03-7.7-4.9-12.49-5.07-11.07-.4-20.57,7.2-23.04,18.51-1.38,6.3,3.93,19.87,13.04,22.55Z"/>
    <path class="cls-4" d="m217.89,462.14c2.75,5.53,5.47,11.07,8.28,16.57.91,1.78.65,2.9-1.12,3.99-6.08,3.72-10.27,9.08-12.76,15.7-.85,2.26-2.51,2.92-4.85,3.67.18-12.73-2.15-24.49-17.32-25.89-12.88-1.19-22.09,5.56-23.94,15.97-1.79,10.08,2.88,20.4,13.77,24.82-4.38,2.37-8.42,4.56-12.47,6.74-4.86,2.62-9.81,5.07-14.56,7.88-2.88,1.7-4.06.99-5.33-1.94-5.39-12.47-11-24.85-16.57-37.25-.75-1.68-1.25-3.64-3.76-3.62-2.71.02-3.06,2.09-3.83,3.97-2.67,6.56-7.18,11-14.53,11.66-6.74.61-11.73-2.36-14.83-8.26-3.07-5.84-2.61-11.68,1.23-16.98,4.03-5.57,9.77-7.29,16.43-6.29.25.04.48.28.74.31,2.57.26,5.46,1.63,7.5-.77,2.01-2.37-.17-4.59-1.17-6.67-3.61-7.51-7.36-14.95-11.06-22.43,1.21-.49,2.16-.87,3.12-1.26,2.86-1.18,5.39-1.43,8.56.07,7.68,3.64,14.92.89,21.59-3.18,9.8-5.98,14.75-15.34,16.84-26.26.59-3.09,1.72-5.14,4.46-6.5,5.61-2.8,11.19-5.67,16.78-8.51-.11.82.02,1.55.43,2.31,5.19,9.56,10.43,19.09,15.49,28.72,4.86,9.26,9.32,18.74,15.28,27.38,1.9,2.76,3.83,5.58,7.59,6.05Z"/>
    <path class="cls-6" d="m232.35,574.68c-11.36,3.64-18.43,12.27-17.64,22.61.56,7.37,4.13,13.52,10.83,18.16-9.28,5.11-18.05,9.97-26.87,14.77-2.74,1.49-3.66-1.12-4.39-2.62-4.98-10.16-10.74-19.94-15.22-30.85,5.86-.31,11.35-.51,16.47-3.9,5.36-3.54,7.82-8.27,8.46-14.11,1.55-14.24-3.84-18.8-13.69-22.48-7.66-2.86-17.97-2.39-25.8,11.79-3.11-2.51-3.46-6.47-5.17-9.7-2.77-5.24-5.36-10.59-8.37-15.68-1.76-2.98-1.07-4.29,1.82-5.81,9.99-5.25,19.81-10.84,29.79-16.1,2.06-1.09,3.02-2.1,2.95-4.55-.08-2.59-1.78-3.05-3.54-3.7-14.3-5.22-13.35-21.77-5.23-28.45,5.68-4.67,12.02-4.23,18.05-1.46,5.12,2.35,7.5,7.12,7.63,12.82.04,1.75.27,3.57-.11,5.24-.55,2.39-1.48,4.48,1.08,6.46,2.71,2.1,4.47.07,6.54-.92.07.44.15.87.23,1.31-.19,2.43-.37,4.87-.56,7.3-2.71,2.55-2.2,6.07-2.23,9.14-.13,14.86,5.09,27.87,14.07,39.62,3.21,4.2,7.3,7.36,10.88,11.11Z"/>
    <path class="cls-10" d="m278.57,481.7c-.41,3.66,1.75,4.65,4.87,4.83,5.81.34,11.43-1.34,18.54-1.71-3.84,3.71-6.9,6.64-9.93,9.61-1.59,1.56-3.21,3.36-1.7,5.62,1.34,2.02,3.59,1.99,5.86,1.49,3.69-.81,7.11-2.35,11.12-4.18-1.24,6.13-6.63,10.33-5.22,16.54-.32,1.16-.5,2.38-.99,3.46-6.26,13.78-16.21,24.36-29,32.15-8.85,5.39-18.47,6.35-27.59.83-15.03-9.08-23.27-22.99-26.69-39.96-.32-1.6-.35-3.29-2.47-3.62.11-2.9.89-5.6,2.37-8.1.71-.33.88-.94.86-1.66,0,0-.03,0-.03,0,1.41.12,2.13-.95,3.03-1.73,5.05-4.37,10.85-7.54,17.2-9.35,12.98-3.71,26.61-1.85,39.78-4.22Z"/>
    <path class="cls-1" d="m586.77,606.12c4.5-8.13.84-15.5-2.19-22.89-3.84-9.36-3.89-19.08-2.92-28.92,1.98-20.22,10.21-38.89,14.37-58.58,2.33-11.06,4.16-22.18,3.71-33.52-.43-10.55-2.65-20.75-7.09-30.39-.51-1.1-1.14-2.16-1.03-3.44,3.67,2.92,5.75,7.05,7.96,10.99,12.7,22.76,14.93,46.89,10.43,72.33-2.91,16.44-8.18,32.33-10.5,48.85-.82,5.88-1.79,12.01,1.4,17.67.38.67.95,1.23,1.72,2.21,1.77-3.56,1.44-7.14,1.42-10.38-.02-3.89,1.59-7.2,2.22-10.81.4-2.33,2.21-1.62,3.52-1.41,10.15,1.56,16.52,9.62,16.83,19.93.35,11.81-2.46,23.15-4.25,34.65-2.25,14.42-2.75,28.82-.23,43.25.14.78.24,1.57.37,2.42-.4-.06-.69,0-.82-.13-1.71-1.51-2.57-5.1-5.32-3.99-2.46.99-.68,4.12-.93,6.28-.11.92.12,1.87.19,2.81-.41-.05-.83-.09-1.24-.14-1.12-2.13-2.14-4.32-3.38-6.38-.89-1.46-1.99-3.29-4.09-2.32-2.23,1.03-1.62,3.02-1.01,4.87.24.73.27,1.52.53,3.18-2.75-3.13-4.88-5.69-7.53-7.72,1.07-7.81,2.48-15.58,3.1-23.42.59-7.46.79-15-1.24-22.39-.86-3.11-2.59-4.93-5.92-4.96-3.24-1.15-5.1,2.48-8.05,2.33Z"/>
    <path class="cls-9" d="m411.23,459.01c0,.21.01.42.01.64-6.33,7.65-11.56,16.13-18.04,23.69-5.07,5.91-4.87,6.08,1.38,11.34.62.52,1.16,1.13,1.76,1.67,8.22,7.46,17.53,13.36,27.46,18.17,18.21,8.8,37.48,12.95,57.74,11.63,10.37-.68,20.35-3.05,29.23-8.84,3.25-.83,6.18-2.99,9.78-2.42-4.13,7.98-7.64,16.18-9.14,25.14-.78,4.65-1.19,9.32-1.07,14,.07,2.81-.73,3.59-3.58,3.68-25.25.74-49.55-4.13-72.62-13.87-24.1-10.17-45.16-25-61.7-45.67-4.57-5.7-4.49-5.61.68-10.45,11.3-10.59,23.34-20.41,33.48-32.2.34-.39.87-.62,1.31-.92.89,1.65,1.67,3.38,3.35,4.44Z"/>
    <path class="cls-1" d="m404.73,539.58c.81-3.22,2.41-3.61,5.25-1.91,15.23,9.14,31.4,16.07,48.7,20.24,5.03,1.21,10.12,2.15,15.91,3.36-5.32,4.05-9.58,8.43-13.74,12.93-3.45,3.74-5.58,8.16-6.63,13.03-.88,4.09.56,7.86,3.49,10.69,7.02,6.78,6.99,13.2,2.27,21.56-5.14,9.1-9.2,18.49-10.99,28.89-.48,2.76.04,5.55-.82,8.53-1.82-1.71-1.88-4-2.84-5.82-.6-1.15-1.28-2.13-2.74-1.91-1.62.25-2.18,1.43-2.2,2.92-.02,2.81,0,5.63,0,9.18-2.84-2.3-5.12-4.26-7.52-6.06-2.23-1.67-4.36-3.71-7.53-3.26-.32-2.28.88-4.14,1.72-6.1,3.75-8.71,9.25-16.39,14.31-24.32,1.37-2.16,1.19-3.6-.35-5.29-7.92-8.7-11.85-18.78-10.33-30.64.65-5.06-1.66-8.19-6.03-10.21-1.71-.79-3.39-1.65-5.05-2.54-5.57-2.99-10.04-6.94-12.68-12.95-1.36-3.09-1.36-6.52-3.02-9.45-.31-3.67,2.48-7.1.84-10.88Z"/>
    <path class="cls-3" d="m346.39,163.62c.3-4.8.83-9.6.85-14.41.06-25.5-7.71-48.65-21.08-70.16-9.62-15.47-21.32-29.13-34.98-41.13-2.25-1.97-4.52-5.1-7.97-3.46-3.27,1.55-2.37,5.16-2.19,7.99.58,8.93,2.33,17.67,4.7,26.31,7.19,26.2,20.08,49.53,35.9,71.39-2.73.21-5.57-.72-8.19.73-3.7-3.76-6.43-8.19-8.97-12.76-.11-.7-.17-1.43-1.02-1.67,0,0,.07.1.07.1.1-3.62-2.17-6.31-3.78-9.18-7.6-13.54-13.86-27.67-18.2-42.56-3.79-12.99-6.69-26.23-7.73-39.76-.53-6.83-.21-13.69,2.17-20.29.73-2.03,1.48-2.99,3.78-1.69,12.46,7.02,23.88,15.44,34.38,25.13.07,1.04.57,1.64,1.67,1.62,0,0-.04-.03-.04-.03.28.28.56.56.85.85,0,0-.03-.03-.03-.03.28.28.56.56.84.84l-.03-.03c.28.28.56.56.84.84,0,0-.03-.03-.03-.03.28.28.56.56.83.83l-.02-.02c-.25,1.5.63,2.47,1.47,3.57,15.18,19.65,24.47,42.09,30.96,65.82,3.28,12.01,4.84,24.21,4.15,36.76-.34,6.15-.61,12.24-1.77,18.29-.18.95-.24,2.01-1.27,2.31-1.13.33-1.46-.84-2.13-1.45-1.54-1.41-1.4-4.24-4.01-4.71Z"/>
    <path class="cls-3" d="m247.82,128.71c1.28.96,2.44,2.02,3.09,3.98-5.29.39-10.45-.05-15.59.81-3.7.62-7.41,1.09-11,2.19-2.32.71-4.41.65-6.49-.78-11.86-8.18-24.9-14.24-37.71-20.67-8.91-4.47-16.55-10.62-24.4-16.55-1.12-.85-2.13-2.65-3.73-1.51-1.21.87-.55,2.49-.11,3.77,2.17,6.38,5.56,12.17,8.82,18.02,8.58,15.41,20.75,27.77,34.2,38.78,5.2,4.25,11.43,7.54,17.85,10.08.89.35,3.27.38,1.76,2.48-.91,1.27-1.56,3.3-4.04,1.9-7.65-4.34-15.3-8.58-22.18-14.21-17.04-13.94-29.61-31.12-38.62-51.09-4.18-9.27-6.37-19.1-8.68-28.91-.24-1,.07-2.13.13-3.21,1.87.42,3.46,1.42,5.05,2.44,12.38,7.97,26.14,13.2,39.51,19.04,8.83,3.86,17.69,7.75,26.42,11.84,11.81,5.54,22.7,12.72,32.86,20.95.78.63,1.46,2.38,2.85.67Z"/>
    <path class="cls-3" d="m403.89,550.45c1.66,2.93,1.66,6.36,3.02,9.45,2.64,6.01,7.1,9.96,12.68,12.95,1.66.89,3.34,1.75,5.05,2.54,4.37,2.02,6.68,5.16,6.03,10.21-1.53,11.87,2.41,21.94,10.33,30.64,1.54,1.69,1.72,3.13.35,5.29-5.05,7.93-10.56,15.62-14.31,24.32-.84,1.96-2.04,3.81-1.72,6.1-.92,2.64-1.99,3.66-4.77,1.48-8.74-6.86-19.13-10.24-29.6-13.36,0-.96.03-2,.93-2.54,3.43-2.06,5.76-5.2,8.08-8.3,3.82-5.1,8.39-9.79,9.63-16.42,3.89.67,7.71,1.79,11.73,1.57.95-.05,2.15.05,2.42-.94.35-1.27-1.05-1.26-1.82-1.56-2.48-.96-5-1.84-7.5-2.75-4.18-4.48-9.3-8.25-11.64-14.17-5.92-14.97-5.15-29.82,1.11-44.52Z"/>
    <path class="cls-10" d="m642.83,310.5c7.48,8.06,11.16,18.25,15.83,27.93-1.03-8.71-5.4-16.18-8.64-24.18,10.98,8.05,16.96,19.51,20.79,32.13,3.81,12.53,5.33,25.4,2.44,39.49,5.61-5,6.96-11.11,9.56-16.61.43,5.44-.92,10.65-2.43,15.76-2.94,9.93-7.45,19.04-14.9,26.47-1.25,1.25-2.54,2.41-4.19,3.11-.08-3.64,1.5-6.95,2.01-10.49.65-4.51-1.36-8.2-5.25-9.03-2.96-1.42-5.93-1.13-8.9-.03-2.03-3.28-4.36-6.41-5.99-9.88-1.36-2.91-4.86-6.24.13-9.29.56-.34.74-1.4.98-2.16,6.1-19.42,5.77-38.71-1.13-57.88-.63-1.74-1.59-3.47-.3-5.32Z"/>
    <path class="cls-10" d="m555.21,652.55c11.78-.99,22.93.72,32.83,7.71.75.53,1.37,1.23,2.05,1.85-7.84,12.05-9.14,25.98-11.35,39.65-14.33,1.43-28.63.69-42.9-.82-.02-15.28,4.49-28.98,13.85-41.17,1.84-2.4,4.78-4,5.53-7.23Z"/>
    <path class="cls-15" d="m330.26,145.05c-10.84-12.13-18.77-26.13-25.96-40.59-7.62-15.32-13.69-31.22-17.42-47.94-1-4.5-1.34-9.16-1.84-13.76-.1-.92-.72-2.32.6-2.85,1.01-.41,1.61.76,2.3,1.32,9.06,7.49,16.83,16.21,24.07,25.42,4.56,5.8,8.63,11.93,12.16,18.42-.83.21-1.04.74-.73,1.5,5.56,13.47,8.83,27.48,9.01,42.06.07,5.5.41,11.2-2.19,16.41Z"/>
    <path class="cls-15" d="m337.53,378.81c12.63-3.14,21.75,3.57,30.62,10.94,2.05,1.7,3.94,3.58,5.9,5.38-2.08,4.63-5.78,8.04-9.08,11.68-8.38,9.23-17.29,17.94-26.92,25.91-2.55,2.11-3.59,2.04-4.95-1.07-5.04-11.52-8.24-23.52-10.03-35.94-.26-1.81-1.15-3.52-.77-5.43,4.5-4.59,9.28-8.8,15.23-11.45Z"/>
    <path class="cls-1" d="m346.39,163.62c2.61.47,2.46,3.3,4.01,4.71.67.61,1,1.78,2.13,1.45,1.03-.3,1.09-1.36,1.27-2.31,1.16-6.05,1.43-12.14,1.77-18.29.69-12.56-.87-24.75-4.15-36.76-6.48-23.73-15.77-46.17-30.96-65.82-.85-1.1-1.73-2.07-1.47-3.57,4.36,2.88,7.8,6.76,11.34,10.53,2.85,3.54,5.79,7,8.53,10.63,11.55,15.32,20.42,31.99,25.83,50.5,1.37,4.69,1.58,9.69,3.78,14.14.78.35.77.99.62,1.68-.84,2.19-1.7,4.38.54,6.31.87,7.76-.26,15.42-.97,23.12-.69,7.51-2.02,14.85-4.06,22.07-.44,1.55.79,2.12,1.46,3.04.24,2.05-1.33,2.53-2.73,2.74-2.65.39-4.65,1.78-6.5,3.54-3.71-5.71-7.3-11.51-11.81-16.66-.53-.61-.91-1.24-.67-2.16.74-2.95,1.38-5.93,2.07-8.89Z"/>
    <path class="cls-3" d="m594.82,603.8c3.33.03,5.06,1.84,5.92,4.96,2.03,7.38,1.83,14.93,1.24,22.39-.62,7.84-2.03,15.62-3.1,23.42q-4.98.55-4.13,5.65c-4.82-3.38-9.3-6.75-14.79-8.74-7.56-2.74-15.27-3.13-23.1-3.24.28-3.46,2.5-6.12,3.87-9.12,3.36-7.32,5.34-14.97,5.85-23,10.81-.92,20.39-4.65,28.24-12.33Z"/>
    <path class="cls-8" d="m439.68,267.19c1.25,2.05,2.99,3.85,3.2,6.42l-.16.16c-2.71-.75-4.15-3.35-6.57-4.53-1.55-.76-3.13-2.12-4.77-.55-1.49,1.41-.46,3.05.25,4.47,3.93,7.84,7.25,15.9,9.09,24.52.26,1.19.62,2.33.24,3.87-2.87-1.42-4.5-4.06-6.72-6-1.02-.89-1.97-2.06-3.49-1.4-1.45.63-.81,2.09-.96,3.23-.46,3.34,1.96,6.15,1.73,9.45l-.12.1c-4.77-6.55-7.92-13.98-11.16-21.3-6.72-15.23-11.4-31.24-17.38-46.77-.89-2.3-.68-5-1.07-7.5-2.01-12.93-7.78-23.85-17.44-32.73-1.96-1.8-3.66-3.9-5.47-5.87,1.29-.14,2.25.5,3.31,1.15,11.93,7.33,21.26,17.24,27.68,29.55,7.78,14.93,17.45,28.55,27.24,42.14.68.95,1.36,1.64,2.57,1.6Z"/>
    <path class="cls-5" d="m232.35,574.68c-3.57-3.75-7.67-6.91-10.88-11.11-8.98-11.75-14.2-24.76-14.07-39.62.03-3.07-.48-6.59,2.23-9.14,2.05,15.92,8.68,29.53,20.22,40.8,5.1,4.98,11.48,7.18,17.94,9.42,7.62,2.63,15.09,1.76,22.44-.91,2.22-.81,3.15-.09,4.07,1.72,2.8,5.53,5.62,11.05,8.57,16.5.99,1.84.33,2.61-1.24,3.44-7.26,3.84-14.48,7.78-21.74,11.62-1.4.74-2.93,1.83-3.28-1.21-1.78-15.7-8.37-21.48-24.27-21.5Z"/>
    <path class="cls-8" d="m412.03,653.23c3.2,1.22,5.71,3.49,8.41,5.48,2.38,1.75,4.84,3.48,6.92-.44.17-.32.6-.77.84-.73,2.78.42,4.16,2.78,5.94,4.54,1.09,1.07,2.66,2.28,1.62,4.12-2.97,5.25-2.56,11.17-3.42,16.81-.74,4.85-2.22,6.8-6.87,7.43-13.33,1.82-26.71,2.77-40.17,2.4,2.08-5.52,3.99-11.11,6.29-16.54,4.21-9.95,9.71-18.85,20.43-23.07Z"/>
    <path class="cls-13" d="m345.52,211.3c-.18,1.14-1.5,2.34.18,3.38-2.33,13.23-.35,25.26,7.94,36.45,7.97,10.76,31.11,14.94,38.88.11.53-1.01,1.17-1.79,2.4-1.86-4.05,12.78-18.34,19.83-30.75,15.18-14.65-5.5-25.5-20.05-24.88-35.8.56-14.3-4.11-26.32-12.17-37.54-9.07-12.63-20.27-22.79-35.01-28.2-9.89-3.63-20.19-4.52-30.43-.74-1.02.38-2,.82-3.22.24,2.17-4.56,4.72-8.74,9.55-10.98.49.66.62.3.7-.24,0,0,0,.12,0,.12,8.18-.08,16.35.03,24.28,2.38,14.71,4.36,25.11,14.7,34.68,25.86,7.97,9.3,13.88,19.98,17.84,31.64Z"/>
    <path class="cls-7" d="m394.92,249.38c-1.23.07-1.87.85-2.4,1.86-7.77,14.83-30.92,10.65-38.88-.11-8.28-11.19-10.26-23.22-7.94-36.45.92-.35.94-1.27,1.16-2,4.37-14.98,16.23-17.12,28.71-12.54,9.63,3.53,15.18,11.31,18.83,20.86,3.65,9.54,3.65,18.86.52,28.37Zm-4.59-13.69c-.25-11.47-3.84-19.71-12.82-24.6-9.49-5.17-18.29-.38-22.04,6.63-6.08,11.36-.24,27.15,9.64,33.11,8.29,5,17.92,3.01,22.22-4.71,2.02-3.62,3.48-7.58,2.99-10.42Z"/>
    <path class="cls-1" d="m337.53,378.81c-5.95,2.65-10.74,6.86-15.23,11.45.22-6.08-1.31-11.99-1.77-18.01-.16-2.15.58-2.93,2.7-3.47,18.48-4.69,34.63-13.67,47.92-27.36,9.64-9.92,16.8-21.43,19.42-35.28,2.33-12.37,1.65-24.64-1.95-36.7-.74-2.48-.54-4.01,1.74-5.74,4.94-3.75,8.55-10.31,10.7-18.07,1.55,2.58,2.74,5.01,2.83,7.85-1.1,6.29-1.36,12.75-3.22,18.88-3.86,12.75-4.48,26.13-7.78,38.99-3.82,14.86-11.89,27.29-21.93,38.52-9.44,10.56-20.23,19.65-32.02,27.54-.54.36-.94.93-1.41,1.4Z"/>
    <path class="cls-1" d="m320.52,413.7c3.68,7.62,5.28,16.05,9.25,23.57.99,1.87-.97,2.25-1.9,2.95-14.42,10.86-30.47,18.15-48.11,21.98-2.37.51-4.74,1.04-7.04,1.78-4.15,1.32-4.57,3.38-1.48,6.3,1.12,1.06,3.64,1.7,3.05,3.27-.68,1.83-3.11.53-4.75.79-11.65,1.9-23.75-.74-35.17,3.48-1.2.44-1.65,0-2.12-1.03-1.82-4.05-4.3-7.79-5.63-12.06,2.22-.11,4.45-.21,6.67-.32,2.43.6,4.72-.8,7.13-.5-1.52,3.18-5.49.2-7.4,3.02,5.15.86,9.95,2.07,15.22,1.34,11.04-1.52,20.96-5.66,30.35-11.36,14.87-9.02,28.12-19.77,37.36-34.88,1.66-2.72,1.77-6.28,4.58-8.33Z"/>
    <path class="cls-10" d="m412.03,653.23c-10.72,4.22-16.22,13.12-20.43,23.07-2.3,5.43-4.21,11.02-6.29,16.54-7.6-.22-15.32,1.06-22.68-1.93.05-2.02-.16-4.08.19-6.05,2.83-15.57,10.5-28.25,23.02-37.95.86-.67,1.88-1.09,1.82-2.4,8.75,1.16,16.75,4.41,24.36,8.72Z"/>
    <path class="cls-1" d="m322.41,506.68c4.73-2.59,8.53-6.42,12.44-9.96,12.76-11.57,26.9-21.27,40.84-31.27,13.94-10,27.86-20.04,41.75-30.12,1.12-.81,2.09-1.7,3.59-1.36-10.67,12.55-22.45,23.99-34.68,34.98-20.75,18.65-42.15,36.55-63.45,54.56-.91.77-1.99,1.33-3,1.99-.15-.19-.31-.37-.47-.55,2.77-3.93,5.59-7.83,8.28-11.81.62-.92,1.68-2.34.51-3.24-1.25-.96-2.04.68-2.87,1.42-2.62,2.34-4.75,5.28-8.7,7.49,2.2-4.64,3.98-8.39,5.76-12.13Z"/>
    <path class="cls-10" d="m130.39,437.89c-6.89,2.22-13.39.38-14.45-8.93,1-.83.68-1.97.7-3.01.21-9.69,3.12-18.4,8.95-26.21,6.96-9.32,19.44-14.05,29.94-11.1-1.6,4.51-3.78,8.82-4.73,13.56-1.91,9.51-5.83,18-11.91,25.67-2.73,3.45-6.9,5.67-8.5,10.03Z"/>
    <path class="cls-15" d="m213.02,141.03c-2.08,2.06-4.28,4.02-6.2,6.23-1.18,1.35-2.7,3-1.61,5,1.15,2.12,3.43,1.9,5.4,1.62,3.01-.43,6-1.05,8.95-1.77,2.37-.57,4.73-.76,7.14-.56.41,1.7.36,3.59,1.92,4.83-3.29,2.77-6.6,5.5-9.84,8.31-1.13.98-2.25.74-3.38.25-6.02-2.64-11.62-5.84-16.74-10.13-4.54-3.8-9.41-7.16-13.65-11.4-11.18-11.19-20.87-23.4-27.92-37.64-.6-1.21-.76-2.16-.52-3.92,10.81,9.78,23.55,16.1,35.3,23.93.36,1.66,1.98,2.06,3.08,2.92,5.77,4.49,11.87,8.49,18.07,12.35Z"/>
    <path class="cls-8" d="m266.41,147.55c-3.55,2.22-6.48,5.07-9.03,8.41-2.32,3.04-3.11,6.36-1.81,9.76.63,1.65.35,2.35-.68,3.37-5.27,5.21-10.49,10.47-15.75,15.69-.57.56-1.22,1.07-1.91,1.47-.78.46-1.7,1.26-2.57.54-1.03-.84.01-1.75.39-2.49,2.27-4.47,5.5-8.26,8.64-12.12.56-.69,1.53-1.18,1.04-3.16-11.13,8.46-23.1,15.03-35.44,23.17.92-2.97,1.49-4.85,2.07-6.72,1.71.07,2.16-1.3,2.85-2.45,2.72-4.49,5.84-8.7,9.36-12.59,5.44-6.01,12.36-9.84,19.49-13.42,1.62-.81,4.33-1.07,3.73-4.08,1.6-1.69.15-2.29-1.08-2.86-3.05-1.43-6.28-2.58-9.63-2.57-8.01.01-16.13-1.02-23.91,1.92-.3.11-.72-.12-1.22-.21-.03-1.91,1.83-1.73,2.64-2.58.33-.28.65-.56.97-.85,0,0-.04.02-.04.02.7.02,1.33-.09,1.65-.83,0,0,0,0,0,0,.7.05,1.31-.08,1.62-.81,0,0,0,0,0,0,.54-.02,1.12.11,1.6-.07,11.45-4.31,23.29-4.21,35.19-3.05,4.78.47,9.19,1.99,11.83,6.52Z"/>
    <path class="cls-11" d="m551.31,403.94c-21.63.29-41.09-6.58-59.42-17.59-13.69-8.22-26.21-18.08-36.94-29.67-12.9-13.94-25.26-28.58-33.36-46.13-5.14-11.13-9.28-22.56-10.31-34.91,2.29,2.9,2.76,6.57,4.1,9.86,9.05,22.15,21.63,42,37.43,59.99,18.44,21.01,40.95,36.28,66.24,47.48,9.3,4.12,19.19,7.12,29.21,9.36,1.16.26,2.45.27,3.04,1.61Z"/>
    <path class="cls-8" d="m642.83,310.5c-1.29,1.85-.33,3.58.3,5.32,6.9,19.17,7.23,38.46,1.13,57.88-.24.76-.42,1.82-.98,2.16-4.99,3.05-1.49,6.39-.13,9.29,1.63,3.47,3.96,6.6,5.99,9.88-5.89,3.88-6.82,10.27-8.06,17.54-8.8-9.72-11.89-20.63-13.12-32.39,1.99,3.28,3.91,6.6,6.02,9.81.96,1.46,1.79,4.2,3.98,2.98,1.64-.92.71-3.43.21-5.23-2.18-7.76-4.15-15.55-5.48-23.52-1.2-7.22-1.53-14.42-1.24-22.16,2.39,2.46,2.35,5.64,3.8,8.07.93,1.55,1.66,3.85,4,3.15,1.99-.59,1.96-2.71,1.82-4.5-.66-8.09-1.11-16.25-2.24-24.23-.89-6.26-.18-12.39-1.21-18.85,3.12.63,4.64,2.21,5.21,4.8Z"/>
    <path class="cls-10" d="m439.68,267.19c-1.22.04-1.89-.65-2.57-1.6-9.79-13.59-19.46-27.21-27.24-42.14-6.42-12.31-15.75-22.22-27.68-29.55-1.07-.65-2.02-1.29-3.31-1.15-3.25-1.81-4.78-6.05-9.05-6.44,0,0,.09.02.09.02.25-.72-.05-1.21-.68-1.54-.09-.12-.18-.24-.27-.36.47-2.25,1.03-4.47,2.55-6.3,3.9,1.86,8.17,2.29,12.31,3.23,1.54,1.4,3.36,2.06,5.4,2.49,11.34,2.35,21.66,7.17,31.41,13.31,1.11.7,2.3,1.44,2.8,2.8l-.1.12c-6.74-1.11-13.43-2.68-20.33-2.49-1.75.05-3.73-.11-4.55,1.82-.92,2.15.62,3.61,2.09,4.79,6.81,5.46,14.3,10.06,20.59,16.18,5.57,5.43,11.17,10.84,15.45,17.41-.15.15-.3.3-.44.45-2.84-2.01-5.66-4.04-8.51-6.04-1.1-.77-2.21-1.54-3.39-2.16-1.31-.69-2.78-1.45-4.1-.15-1.39,1.37-.97,3.03-.11,4.46,2.22,3.68,4.6,7.26,6.84,10.93,4.41,7.21,9.04,14.3,12.8,21.89Z"/>
    <path class="cls-8" d="m215.36,506.75c2.11.33,2.15,2.02,2.47,3.62,3.42,16.97,11.67,30.88,26.69,39.96,9.12,5.51,18.74,4.56,27.59-.83,12.79-7.79,22.74-18.37,29-32.15.49-1.08.66-2.3.99-3.46,4.16,2.55,7.94-.2,11.86-.85l.28.28c-4.58,7.43-10.03,14.25-15.46,21.03-6.71,8.39-14.16,16.07-23.46,21.86-13.45,8.38-26.69,6.98-38.81-1.64-15.39-10.95-22.17-26.77-21.9-45.62.01-.82.06-1.62.74-2.21Z"/>
    <path class="cls-8" d="m578.73,701.76c2.21-13.67,3.51-27.59,11.35-39.65.23.13.5.22.7.39q5.56,4.86,8.5-1.67c2.96,1.4,3.95,4.6,6.17,6.63,2.6,2.39,2.61,2.47,5.63.27,1.43,7.68,1.11,15.29-.18,22.86-.55,3.23-2.52,5.42-5.78,6.61-8.54,3.11-17.38,4.31-26.4,4.56Z"/>
    <path class="cls-7" d="m345.52,211.3c-3.97-11.66-9.87-22.34-17.84-31.64-9.56-11.16-19.97-21.49-34.68-25.86-7.93-2.35-16.1-2.46-24.28-2.38,3.72-2.63,8.07-3.6,12.42-3.97,15.42-1.3,29.39,3.04,41.82,12.05,13.2,9.56,23.1,22.06,30.97,36.25.96,1.73.61,2.48-.86,3.55-4.08,2.97-6.21,7.25-7.55,11.99Z"/>
    <path class="cls-9" d="m195.14,378.2c.2-1.74,1.09-1.77,2.54-1.25,8.67,3.09,16.13.77,22.36-5.61,2.42-2.49,4.63-3.2,8.15-2.48,6.81,1.4,13.33-.87,19.54-3.38,22.03-8.91,35.2-25.87,42.67-47.82.27-.79,1.75-2.31-.59-2.72,0-.29,0-.57-.01-.86,0,0-.11,0-.1,0,1.63.65,3.03-.88,5.03-.46-2.47,11.54-6.75,22.22-13.49,31.85-12.77,18.24-30.25,29.01-52.33,31.58-4.78.56-8.54,2.15-12.63,4.24-7.35,3.74-14.96,2.93-21.14-3.08Z"/>
    <path class="cls-11" d="m330.32,53.55c-3.54-3.77-6.98-7.65-11.34-10.53,0,0,.02.02.02.02-.28-.28-.56-.56-.83-.83,0,0,.03.03.03.03-.28-.28-.56-.56-.84-.84,0,0,.03.03.03.03-.28-.28-.56-.56-.84-.84,0,0,.03.03.03.03-.28-.28-.56-.56-.85-.85,0,0,.04.03.04.03-.56-.54-1.11-1.08-1.67-1.62-10.5-9.7-21.92-18.11-34.38-25.13-2.29-1.29-3.04-.34-3.78,1.69-2.39,6.6-2.7,13.46-2.17,20.29,1.05,13.53,3.94,26.77,7.73,39.76,4.35,14.89,10.61,29.02,18.2,42.56,1.61,2.88,3.88,5.57,3.78,9.18-7.31-9.4-12.96-19.75-17.73-30.63-4.6-10.49-8.38-21.3-11.04-32.38-3.08-12.85-4.51-26-3.02-39.3.57-5.14.93-10.27,2.89-15.15.9-2.24,1.94-2.9,4.16-1.58,16.93,10.09,32.97,21.33,46.56,35.76,2.67,2.84,5.81,5.23,8.09,8.43-1.25.24-1.64,1.92-3.08,1.84Z"/>
    <path class="cls-3" d="m320.52,413.7c-2.81,2.06-2.92,5.61-4.58,8.33-9.23,15.12-22.49,25.86-37.36,34.88-9.38,5.69-19.31,9.83-30.35,11.36-5.28.73-10.08-.48-15.22-1.34,1.91-2.82,5.88.16,7.4-3.02,7.76-.5,15.01-2.86,21.95-6.19,14.8-7.09,27.44-17.26,39.53-28.18,6.47-5.84,12.02-12.53,17.67-19.13.7.98,1.01,2.08.97,3.29Z"/>
    <path class="cls-1" d="m324.72,351.43c15.14.75,27.08-6.21,37.94-15.77,11.45-10.07,19.14-22.41,22.1-37.43,1.33-6.74.86-13.63.2-20.45-.17-1.71-.97-3.4.47-4.93,2.58,8.16,3.1,16.54,1.96,24.92-4.21,31.09-23.71,49.48-51.29,60.99-4.85,2.02-9.88,3.52-15,4.65-1.03.23-2.07,1.59-3.25.15-1.01-1.23-.13-2.25.22-3.35.16-.51.15-1.06.21-1.6,3.43-1.22,4.26-4.77,6.39-7.15l.06-.04Z"/>
    <path class="cls-11" d="m319.55,410.41c-5.65,6.6-11.2,13.29-17.67,19.13-12.09,10.92-24.72,21.09-39.53,28.18-6.94,3.32-14.19,5.69-21.95,6.19-2.41-.31-4.7,1.09-7.13.5.02-1.75-.96-2.22-2.56-2.21-1.22,0-2.82.52-3.19-1.46,20.53-1.56,38.34-10.06,54.81-21.76,12.89-9.15,24.5-19.73,34.24-32.26.33-.42.52-.95.75-1.37,2.04,1.57,1.79,3.44,2.22,5.05Z"/>
    <path class="cls-13" d="m371.04,269.92c-18.05,5.17-33.02-5.03-39.87-21.89-4.88-12.02-5.29-24.08-.5-36.22.27-.68.18-1.67,1.6-1.96,2.34,4.08,2.9,8.7,2.74,13.27-.35,9.63,1.49,18.7,6.19,27.09,6.49,11.58,16.34,18.25,29.84,19.7Z"/>
    <path class="cls-1" d="m650.81,399.2c3.96-2.58,5.76-.45,5.64,3.96-.54,19.43-18.07,40.05-37.33,43.69q-8.55,1.62-12.34-7.27c16.32.04,29.57-5.35,36.96-20.95,4.9-5.56,7.9-11.8,7.06-19.44Z"/>
    <path class="cls-10" d="m118.12,394.99c-4.81,8.66-8.27,17.68-7.97,27.83.1,3.56,1.23,6.84,2.12,10.18.65,2.42.33,3.6-2.4,4.31-9.68,2.52-16.39-3.37-15.69-14,.36-.16.98-.26,1.03-.48,1.54-7.19,5.68-12.93,10.3-18.36,3.47-4.09,7.13-8.01,12.6-9.47Z"/>
    <path class="cls-11" d="m523.68,518.79c-1.5,7.06-2.68,14.22-2.99,21.4-.38,8.7.68,17.38,3.06,25.81,5,17.7,14.19,32.36,30.7,41.57,1.84,1.03,3.79,1.87,5.69,2.8-9.47-.26-17.43-4.25-23.99-10.69-9.82-9.63-15.52-21.28-18.41-34.98-2.41-11.44-1.71-22.37.59-33.36.9-4.31,1.76-9.15,5.35-12.54Z"/>
    <path class="cls-9" d="m330.26,145.05c2.59-5.22,2.26-10.91,2.19-16.41-.19-14.58-3.45-28.59-9.01-42.06-.31-.75-.09-1.28.73-1.5,5.13,7.18,8.65,15.19,11.6,23.42,2.33,6.52,4.35,13.16,5.47,20.03,1.25,7.72,1.36,15.49,1.24,23.29-.05,3.27-1.83,2.39-3.44,1.43-3.5-2.09-6.46-4.81-8.77-8.19Z"/>
    <path class="cls-11" d="m371.41,407.02c.57,2.51-1.28,3.99-2.53,5.64-8.22,10.84-17.6,20.64-27.5,29.91-9.73,9.11-20.25,17.23-32.88,22.02-6.76,2.57-13.77,4.45-20.92,5.6-2.3.37-4.76-.22-7.15-.38-2.02-2.16.71-1.61,1.17-1.71,8.08-1.78,15.77-4.7,23.36-7.9,19.42-8.19,35.39-21.24,50.18-35.88,5.62-5.56,10.86-11.52,16.27-17.29Z"/>
    <path class="cls-11" d="m247.82,128.71c-1.39,1.71-2.07-.04-2.85-.67-10.16-8.23-21.05-15.41-32.86-20.95-8.72-4.09-17.58-7.97-26.42-11.84-13.36-5.85-27.13-11.08-39.51-19.04-1.58-1.02-3.17-2.02-5.05-2.44-.1-1.46-.2-2.93-.34-5.03,3.28,1.87,6.08,3.54,8.94,5.1,16.89,9.22,34.95,15.91,52.28,24.19,13.6,6.5,27.15,13.04,38.59,23.13,2.62,2.31,5.16,4.7,7.23,7.54Z"/>
    <path class="cls-1" d="m323.01,203.28c-3.85-2.27-5.2-6.61-8.02-9.76-10.94-12.24-23.19-22.4-39.66-26.18-1.68-.39-3.46-.4-5.19-.5-1.47-.09-3.04.16-3.76-1.63,6.26-2.76,12.62-1.93,18.87-.19,17.66,4.91,30.12,16.58,40.23,31.27,2.44,3.55-1.14,4.85-2.47,7Z"/>
    <path class="cls-10" d="m549.41,653.89c-6.46,6.12-12,11.4-15.41,18.45-3.77,7.81-6.78,15.81-7.1,24.58-.09,2.46-1.06,2.17-2.75,1.49-3.4-1.37-5.28-3.89-5.16-7.43.45-13.36,8.06-28.64,20.11-34.14,2.31-1.06,4.77-1.8,7.19-2.62.6-.2,1.29-.15,3.11-.33Z"/>
    <path class="cls-12" d="m329.11,202.9c.99,1.08.48,2.02-.07,2.97-3.9,6.72-5.74,14.29-5.78,21.73-.09,16.8,6.9,39.4,29.27,46.26,2.53.78,5.04,1.6,8.03,1.59-6.87,2.3-16.56.38-23.55-4.73-9.22-6.74-13.97-16.12-16.56-27.11-3.13-13.29.01-25.31,5.82-37.04.54-1.08,1.2-2.1,1.88-3.1.19-.28.64-.39.96-.58Z"/>
    <path class="cls-11" d="m403.89,550.45c-6.25,14.69-7.03,29.55-1.11,44.52,2.34,5.92,7.46,9.69,11.64,14.17-12.76-2.93-18.27-12.56-20.85-23.99-3.72-16.52,2.43-31.09,10.57-45.02.13-.22.39-.37.58-.55,1.64,3.77-1.15,7.21-.84,10.88Z"/>
    <path class="cls-9" d="m256.65,398.31c-.67,2.85,1.35,4.33,3.2,5.59,7.79,5.3,16.12,4.99,24.6,1.95,11.16-3.99,17.86-12.29,22.34-22.89,2.16-5.13,2.96-10.79,6.08-15.53-.89,9.34-2.51,18.5-7.39,26.72-8.23,13.86-22.22,18.07-39.73,15.17-9.51-1.57-14.87-8-15.48-17.64-.33-5.22-2.93-9.4-6.25-13.2,2.21-1.81,4.04-1.39,5.62.67,2.06,2.7,3.98,5.51,3.71,9.11-.28,3.83,1.03,7.08,3.29,10.04Z"/>
    <path class="cls-15" d="m217.89,462.14c-3.76-.47-5.69-3.29-7.59-6.05-5.96-8.64-10.42-18.12-15.28-27.38-5.06-9.63-10.3-19.16-15.49-28.72-.41-.76-.54-1.5-.43-2.31,6.6-.6,8.06,4.71,10.32,9.04,9.58,18.43,19.51,36.68,28.47,55.42Z"/>
    <path class="cls-8" d="m310.85,147.47c-2.1.22-3.94-.73-5.82-1.4-9.75-3.47-19.73-3.34-29.8-1.94-.25-.25-.51-.49-.76-.74-1.41-6.7-5.92-11.8-9.1-17.59-.19-.35-.39-.69-.58-1.04.93,0,1.86-.02,2.79-.03,0,0,.29-.09.29-.09,4.51,4.93,10.13,8.45,15.5,12.28.12.06.23.12.35.18-.11-.06-.23-.13-.34-.19.33-3.54-3.71-4.96-3.97-8.21,11.85,3.96,23,9.12,31.52,18.71l-.06.06Z"/>
    <path class="cls-8" d="m130.39,437.89c1.6-4.36,5.77-6.58,8.5-10.03,6.07-7.67,10-16.16,11.91-25.67.95-4.74,3.13-9.05,4.73-13.56,3.8.57,6.61,3.79,10.55,3.99,0,0-.05-.04-.05-.04.17.41.37.64.71.14,1.67.7,2.82,1.93,3.97,3.81-3.42,1.17-6.67,2.29-9.93,3.39-3.49,1.17-5.47,3.44-6.16,7.19-1.64,8.96-4.48,17.49-11.32,23.98-3.61,3.43-7.71,6.24-12.91,6.8Z"/>
    <path class="cls-1" d="m291.9,357.85c1.08,2.95.1,5.56-.54,8.06-2.28,8.95-5.73,17.37-12.83,23.71-3.42,3.05-5,2.49-5.53-2.04-.99-8.54,1.96-15.65,8.08-21.66,1.59,1.74-.27,3.06.39,5.06,3.95-4.22,4.44-10.91,10.44-13.15Z"/>
    <path class="cls-10" d="m351.88,687.71c-3.43-1.97-4.49-4.81-4.58-8.2-.44-15.77,14.95-33,30.74-34.37.62-.05,1.24,0,2.19.37-17,9.01-25.94,23.31-28.34,42.2Z"/>
    <path class="cls-1" d="m387.67,644.51c.06,1.31-.96,1.73-1.82,2.4-12.51,9.7-20.19,22.38-23.02,37.95-.36,1.96-.14,4.03-.19,6.05-6.86-.8-6.97-.83-5.72-7.55,3.29-17.72,13.23-30.45,29.24-38.54.44-.22,1.01-.21,1.52-.3Z"/>
    <path class="cls-1" d="m313.42,140.88c2.62-1.45,5.46-.52,8.19-.73,5.62,6.47,11.18,13.01,18.82,17.29,2.44,1.37.96,3.66,1.12,5.49.13,1.61-.54,3.29-.92,5.29-10.47-8.21-19.96-16.65-27.21-27.34Z"/>
    <path class="cls-1" d="m278.57,481.7c-13.16,2.37-26.8.51-39.78,4.22-6.34,1.81-12.15,4.98-17.2,9.35-.9.78-1.62,1.85-3.03,1.73,2.2-5.89,6.59-9.73,12.03-12.42,5.49-2.72,11.42-4.06,17.51-4.46,6.32-.41,12.66-.88,18.98-.76,5.29.1,10.25-2.3,15.92-1.6-1.14,1.92-3.03,2.68-4.44,3.94Z"/>
    <path class="cls-3" d="m330.32,53.55c1.44.07,1.83-1.6,3.08-1.84,19.67,22.07,32.27,47.36,35.06,77.11-2.2-4.46-2.41-9.45-3.78-14.14-5.41-18.51-14.28-35.18-25.83-50.5-2.73-3.62-5.68-7.09-8.53-10.63Z"/>
    <path class="cls-14" d="m218.82,262.54c-6.5-2.67-9,.75-10.74,8.41-.38,1.68,1.13,4.72-.89,4.82-2.58.12-1.17-2.95-1.49-4.61-1.4-7.24-1.66-14.48.84-21.57.7-1.97,1.33-4.12,4.08-4.25,2.57-.12,3.74,1.44,4.82,3.47,2.21,4.14,2.64,8.63,3.37,13.73Z"/>
    <path class="cls-1" d="m166.08,392.63c-3.94-.2-6.74-3.42-10.55-3.99-10.5-2.95-22.98,1.78-29.94,11.1-5.83,7.81-8.74,16.52-8.95,26.21-.02,1.04.3,2.19-.7,3.01-3.19-15.57,2.17-28.21,13.33-38.83,6.15-5.86,13.85-5.41,21.31-4.46,5.69.73,11.25,2.59,15.49,6.95Z"/>
    <path class="cls-1" d="m555.21,652.55c-.75,3.23-3.69,4.83-5.53,7.23-9.35,12.19-13.87,25.89-13.85,41.17-6.07-.57-6.03-.56-5-6.46,2.58-14.75,8.23-27.96,19.05-38.63,1.53-1.51,3.01-3.06,5.32-3.3Z"/>
    <path class="cls-11" d="m566.58,616.13c-.51,8.03-2.49,15.68-5.85,23-1.37,3-3.59,5.65-3.87,9.12-3.08-.26-5.98,1.5-9.15.8,5.85-8.93,11.08-18.14,13.49-28.7.6-2.61,1.72-5.2,5.38-4.21Z"/>
    <path class="cls-11" d="m409.6,612.81c-1.24,6.63-5.81,11.32-9.63,16.42-2.32,3.1-4.65,6.24-8.08,8.3-.89.54-.93,1.57-.93,2.54-3.62.75-7.04-.86-11.55-.69,2.84-2.03,5.01-3.48,7.06-5.08,7.37-5.72,13.9-12.26,19.03-20.08,1.14-1.73,2.15-2.6,4.1-1.41Z"/>
    <path class="cls-10" d="m274.47,143.4c.25.25.51.49.76.74-2.94,1.14-5.88,2.27-8.83,3.41-2.65-4.53-7.05-6.05-11.83-6.52-11.9-1.16-23.74-1.27-35.19,3.05-.47.18-1.06.06-1.6.07,3.22-3.86,8-4.5,12.4-5.62,12.87-3.3,25.46-1.69,37.81,2.77,2.13.77,4.32,1.41,6.48,2.1Z"/>
    <path class="cls-1" d="m385.2,270.53c-2.57,2.72-4.96,5.64-7.75,8.12-7.57,6.71-19.44,6.95-27.7,3.89-1.07-.4-2.37-.78-2.47-2.32,12.62,1.9,23.5-1.55,32.6-10.57,1.24-1.23,2.81-2.35,4.55-1.99,1.01.21.92,1.77.78,2.86Z"/>
    <path class="cls-8" d="m383.83,181.37c-4.14-.94-8.41-1.37-12.31-3.23.23-2.31,1.09-4.42,2.11-6.47,6.61.84,13.12,2.5,19.84,2.45,0,0-.02-.02-.02-.02.46.88.98.95,1.56.11,1.96.75,4.07,1.19,5.98,2.83-3.06.88-5.95,1.2-8.93,1.21-3.09.01-6.11.45-8.23,3.13Z"/>
    <path class="cls-1" d="m118.12,394.99c-5.48,1.46-9.13,5.38-12.6,9.47-4.61,5.44-8.76,11.17-10.3,18.36-.05.22-.68.32-1.03.48,1.89-17.05,15.96-34.05,28.06-33.63-.75,2.33-2.68,3.65-4.13,5.32Z"/>
    <path class="cls-10" d="m246.8,152.92c.6,3.02-2.12,3.27-3.73,4.08-7.13,3.58-14.05,7.42-19.49,13.42-3.52,3.89-6.64,8.1-9.36,12.59-.7,1.15-1.14,2.51-2.85,2.45,6.49-16.65,17.59-28.27,35.44-32.54Z"/>
    <path class="cls-11" d="m232.46,190.2c-8.28,9.68-12.64,21.27-16.27,33.23-1.46.17-1.89-.52-1.69-1.89,2.01-13.35,7.83-24.92,16.6-35.93.58,1.95.97,3.27,1.36,4.59Z"/>
    <path class="cls-3" d="m356.81,191.33c1.85-1.76,3.85-3.16,6.5-3.54,1.4-.2,2.97-.69,2.73-2.74.81.47,1.51.02,2.24-.26.25.25.51.5.76.75.14.43.3.84.88.79,0,0-.09-.02-.09-.02,1.51,3.69,5.05,5.75,7.33,9.02-.91.99-1.99.82-2.88.43-4.18-1.84-8.65-1.76-12.92-1.21-3.15.41-3.85-1.01-4.56-3.22Z"/>
    <path class="cls-1" d="m411.23,459.01c-1.68-1.06-2.46-2.79-3.35-4.44,6.22-7.74,12.8-15.2,18.41-23.42.51,4.12-2.3,7.05-3.98,10.28-3.2,6.15-6.34,12.39-11.09,17.58Z"/>
    <path class="cls-9" d="m213.02,141.03c-6.2-3.86-12.31-7.86-18.07-12.35-1.1-.85-2.72-1.25-3.08-2.92,5.56.94,9.8,4.62,14.61,7.1,3.45,1.78,6.73,3.87,10.19,5.89-1.02,1.22-2.36,1.71-3.64,2.28Z"/>
    <path class="cls-11" d="m216.16,227.66c-4.37,3.06-8.44,6.46-11.55,10.85-.59.84-1.4,1.19-2.37,1.27-1.82-7.19.55-10.92,7.9-12.09,1.96-.31,4.01-.04,6.02-.03Z"/>
    <path class="cls-9" d="m324.66,351.46c-2.13,2.38-2.96,5.93-6.39,7.15-1.04-5.11-.25-10.44-1.78-15.49.18-.61.16-1.5.57-1.78.76-.52,1.08.36,1.36.91,1.09,2.13,2.15,4.28,3.25,6.4.66,1.27,1.12,2.8,2.99,2.8Z"/>
    <path class="cls-10" d="m650.81,399.2c.84,7.64-2.17,13.88-7.06,19.44.7-5.04,1.94-9.96,3.5-14.79.61-1.88,1.49-3.78,3.56-4.65Z"/>
    <path class="cls-10" d="m279.4,128.7c.27,3.25,4.31,4.67,3.97,8.21h0c-5.37-3.83-10.99-7.34-15.5-12.27,4.15.49,8.03,1.74,11.53,4.06Z"/>
    <path class="cls-8" d="m658.05,395.07c3.89.83,5.91,4.53,5.25,9.03-.51,3.53-2.09,6.85-2.01,10.49-.62,1.06-1.3,2.02-3.11,2.05,1.15-7.26,4.9-14.52-.13-21.57Z"/>
    <path class="cls-10" d="m393.46,174.11c-6.72.05-13.23-1.61-19.84-2.45.17-1.67.8-2.86,2.77-2.38,5.75,1.4,11.75,1.89,17.07,4.83Z"/>
    <path class="cls-14" d="m213.11,269.65c-.33-3.23.79-4.89,2.61-4.86,2.86.04,3.21,2.93,3.49,4.95.17,1.24-.68,3.25-2.81,3.2-2.93-.06-3.12-2.31-3.29-3.29Z"/>
    <path class="cls-1" d="m301.66,490.51c1.98.56,2.96,1.84,2.8,3.93-2.75,1.32-5.53,2.56-9.23,2.7,1.66-3.14,4.04-4.89,6.43-6.63Z"/>
    <path class="cls-1" d="m228.61,156.37c-1.57-1.24-1.51-3.13-1.92-4.83,3.15-.21,6.29-.28,10.26.28-3.04,2.35-5.6,3.61-8.33,4.54Z"/>
    <path class="cls-10" d="m307.71,318.84c-3.07.27-3.26,3.44-5.04,5.01-.67-.78-.62-1.73-.58-2.64.11-2.2-1.11-5.69.42-6.29,2.14-.84,3.55,2.36,5.19,3.92Z"/>
    <path class="cls-3" d="m227.53,460.75c.37,1.98,1.97,1.47,3.19,1.46,1.6-.01,2.58.46,2.56,2.21-2.22.1-4.45.21-6.67.32-.52-1.09-1.03-2.18-1.55-3.27.28-.24.56-.48.83-.72.55,0,1.09,0,1.64,0Z"/>
    <path class="cls-3" d="m369.61,136.81c-2.23-1.93-1.37-4.12-.54-6.31.18,2.1.36,4.21.54,6.31Z"/>
    <path class="cls-11" d="m373.12,404.74c1.57,2.43-.42,2.12-1.77,2.3.59-.77,1.18-1.53,1.77-2.3Z"/>
    <path class="cls-10" d="m314.24,506.88c.47-1.52,1.68-1.8,3.05-1.82-.5,1.47-1.73,1.72-3.05,1.82Z"/>
    <path class="cls-10" d="m319.24,503.73c.57-1.56,1.33-2.58,3-1.07-1,.36-2,.71-3,1.07Z"/>
    <path class="cls-10" d="m317.29,505.06c.19-1.06.73-1.61,1.87-1.25-.27.94-.86,1.41-1.87,1.25Z"/>
    <path class="cls-8" d="m614.37,662.93c.41.04.82.09,1.24.14.32.51.37,1.11-.29,1.19-.84.09-.92-.66-.95-1.32Z"/>
    <path class="cls-10" d="m267.57,124.74c-.93,0-1.86.02-2.79.03.92-1.51,1.85-.71,2.79-.03Z"/>
    <path class="cls-10" d="m217.79,144.16c-.31.73-.92.86-1.62.81.27-.81.84-1.02,1.62-.81Z"/>
    <path class="cls-8" d="m431.52,306.81c.19.31.39.61.56.93.01.02-.19.16-.29.24-.13-.36-.26-.71-.39-1.07,0,0,.12-.1.12-.1Z"/>
    <path class="cls-1" d="m319.9,525.5c-.3.48-.86.81-1.18.37-.4-.55.42-.64.72-.92.16.18.31.36.47.55Z"/>
    <path class="cls-11" d="m225.89,460.74c-.28.24-.56.48-.83.72-.09-.2-.18-.4-.27-.6.37-.04.74-.08,1.1-.12Z"/>
    <path class="cls-10" d="m216.17,144.96c-.32.74-.95.85-1.65.83.36-.66.92-.91,1.65-.83Z"/>
    <path class="cls-11" d="m303.43,126.44c.86.24.91.97,1.02,1.67-.34-.56-.68-1.11-1.02-1.67Z"/>
    <path class="cls-8" d="m210.19,507.51c-.08-.43-.15-.87-.23-1.31.98.28.47.82.23,1.31Z"/>
    <path class="cls-1" d="m218.59,496.99c.02.71-.15,1.32-.86,1.66.09-.65.08-1.36.86-1.66Z"/>
    <path class="cls-10" d="m423.43,199.97c.34.13.67.26,1.01.39-.08.1-.21.28-.23.27-.3-.17-.59-.36-.89-.54,0,0,.1-.12.1-.12Z"/>
    <path class="cls-10" d="m395.01,174.19c-.58.85-1.1.77-1.56-.11.52.04,1.04.07,1.56.11Z"/>
    <path class="cls-10" d="m369.04,185.54c-.25-.25-.51-.5-.76-.75.19-.2.42-.32.69-.35.09.12.18.23.27.35,0,.27-.07.52-.19.76Z"/>
    <path class="cls-10" d="m437.95,239.67c-.3-.24-.6-.48-.9-.72,0,0,.22-.21.22-.21.21.32.43.65.64.97l.04-.05Z"/>
    <path class="cls-10" d="m436.59,237.8c.22.31.45.63.68.94,0,0-.21.21-.21.21-.3-.23-.6-.47-.9-.7.14-.15.29-.3.44-.45Z"/>
    <path class="cls-8" d="m313.96,513.05c.19-.09.37-.18.56-.27-.09.18-.19.37-.28.55,0,0-.28-.28-.28-.28Z"/>
    <path class="cls-10" d="m312.33,508.08c.31-.2.62-.39.92-.59-.13.48-.43.68-.92.59Z"/>
    <path class="cls-1" d="m423.42,431.58c.23-.31.46-.61.69-.92.08.54-.21.8-.69.92Z"/>
    <path class="cls-10" d="m214.57,145.77c-.32.28-.65.56-.97.85.32-.28.65-.56.97-.85Z"/>
    <path class="cls-8" d="m310.91,147.41l.34.38c-.13-.11-.26-.22-.39-.32,0,0,.06-.06.06-.06Z"/>
    <path class="cls-8" d="m442.88,273.6c.1.15.2.31.3.46-.15-.1-.31-.2-.46-.3,0,0,.16-.16.16-.16Z"/>
    <path class="cls-7" d="m268.72,151.3c-.08.54-.22.9-.7.24.2-.19.43-.27.7-.24Z"/>
    <path class="cls-1" d="m166.74,392.73c-.34.51-.54.27-.71-.14.25-.01.49.04.71.14Z"/>
    <path class="cls-10" d="m437.91,239.72c.13.09.26.18.39.27-.07-.01-.17,0-.2-.04-.07-.07-.1-.18-.14-.27,0,0-.04.05-.04.05Z"/>
    <path class="cls-15" d="m510.76,517.29c-8.88,5.79-18.86,8.17-29.23,8.84-20.26,1.32-39.53-2.82-57.74-11.63-9.93-4.8-19.23-10.71-27.46-18.17-.6-.54-1.14-1.15-1.76-1.67-6.24-5.27-6.44-5.43-1.38-11.34,6.48-7.55,11.71-16.03,18.04-23.69,5.96,6.19,11.86,12.45,17.91,18.56,11.65,11.76,25.17,20.77,40.13,27.92,13.21,6.32,27.12,9.44,41.49,11.16Z"/>
    <path class="cls-2" d="m530.09,503.41c.17-.18.46-.54.49-.52.48.33.26.66-.07.96-.14-.14-.28-.29-.42-.43Z"/>
    <path class="cls-2" d="m288.12,239.84c5.29,8.22,7.74,17.26,7.46,26.98-.17,5.89-1.21,11.67-4.06,16.98-3.99,7.43-10.21,11.8-18.52,12.44-8.14.63-13.8-4.15-18.63-10.07-.92-1.13-1.69-2.4-2.53-3.6-.43-1.12-.84-2.25-1.29-3.36-4.83-11.71-6.38-23.6-2-35.82,5.6-15.61,24.8-19.3,35.35-7.86,1.36,1.48,2.82,2.87,4.23,4.31Zm-24.53,49.58c.34.31.67.72,1.1.13.01-.02-.44-.37-.67-.56-6.27-7.2-9.2-15.56-7.26-24.96,1.54-7.47,7.46-14.04,16.86-10.61,7.15,2.61,10.64,9.1,11.29,17.55.36,4.64.39,9.34-.71,14.28,1.92-.68,2.57-1.67,3.27-2.88,5.27-8.98,4.64-18.32,2.13-27.9-1.81-6.88-5.31-12.67-10.69-17.25-9.14-7.77-21.4-3.94-26.3,7.94-3.51,8.51-3.45,17.3-1.22,25.79,1.91,7.25,4.57,14.68,12.19,18.48Zm11.72-30.3c-2.53-.14-4.07.83-4.09,3.59-.02,2.94,2.47,6.05,5.04,6.11,2.56.06,3.88-1.13,3.89-3.81.02-3.54-1.79-5.83-4.84-5.89Z"/>
    <path class="cls-2" d="m269.82,205.71c9.57-.63,17.33,3.09,23.05,11.02,1.67,2.32,2.83,4.91,2.72,7.87-.1,2.86-1.4,3.73-3.85,2-2.52-1.79-4.94-3.73-7.44-5.55-10.73-7.82-22.15-9.77-34.5-4.13-.75.34-1.67,1.42-2.51.4-.94-1.15.26-1.88.9-2.7,5.45-7.02,12.89-9.23,21.63-8.92Z"/>
    <path class="cls-1" d="m288.12,239.84c-1.41-1.43-2.87-2.83-4.23-4.31-10.54-11.44-29.75-7.75-35.35,7.86-4.38,12.22-2.82,24.11,2,35.82.46,1.11.86,2.24,1.29,3.36-2.51-.48-2.68-2.87-3.44-4.56-6.07-13.53-7.11-27.27-.16-40.74,7.94-15.4,27.26-16.67,37.38-2.66,1.11,1.53,3.15,2.79,2.51,5.22Z"/>
    <path class="cls-2" d="m218.59,336.15c-.45-3.59,1.35-7.16,3.34-10.66,1.91-3.37,5.19-3.98,8.37-3.04,2.74.82,3.07,3.58,2.92,6.33-.32,6.17-2.88,11.29-7.17,15.54-3.44,3.41-4.76,2.91-6.69-1.65-.83-1.96-.64-3.9-.77-6.52Z"/>
    <path class="cls-2" d="m208.44,336.81c-1.14-10.87,6.93-23.11,16.26-24.82,8.92-1.64,17.3,3.41,18.18,14.28.22,2.77.41,5.67-.8,8.36-.37.82-.43,2.14-1.58,2.03-1.41-.13-.71-1.48-.78-2.28-.22-2.49-.03-4.93-.68-7.47-2.48-9.67-11.28-13.24-19.52-7.65-5.02,3.4-7.41,8.62-9.67,13.93-.36.85-.67,1.71-1.4,3.63Z"/>
    <path class="cls-2" d="m289.8,314.08c0,.29,0,.57.01.86-.71-.1-1.52.33-2.16-.47.72-.27,1.24-1.25,2.14-.38Z"/>
    <path class="cls-1" d="m314.1,38.19c.56.54,1.11,1.08,1.67,1.62-1.1.02-1.6-.58-1.67-1.62Z"/>
    <path class="cls-1" d="m318.16,42.21c.28.28.56.56.83.83-.28-.28-.56-.56-.83-.83Z"/>
    <path class="cls-1" d="m317.35,41.4c.28.28.56.56.84.84-.28-.28-.56-.56-.84-.84Z"/>
    <path class="cls-1" d="m316.54,40.59c.28.28.56.56.84.84-.28-.28-.56-.56-.84-.84Z"/>
    <path class="cls-1" d="m315.73,39.78c.28.28.56.56.85.85-.28-.28-.56-.56-.85-.85Z"/>
    <path class="cls-2" d="m390.33,235.69c.49,2.85-.97,6.8-2.99,10.42-4.3,7.72-13.93,9.71-22.22,4.71-9.89-5.96-15.73-21.75-9.64-33.11,3.75-7,12.55-11.8,22.04-6.63,8.97,4.89,12.56,13.13,12.82,24.6Zm-3.28-1.29c-.34-8.64-3.4-15.88-11.25-20.3-7.35-4.14-15.51-1.07-18.43,6.87-3.69,10.03,1.12,22.74,10.56,27.77,8.07,4.29,16.59.11,18.53-8.81.4-1.85.51-3.64.59-5.53Z"/>
    <path class="cls-2" d="m369.04,185.54c.13-.24.19-.49.19-.76.63.34.93.82.68,1.54-.57.05-.74-.36-.88-.79Z"/>
    <path class="cls-10" d="m283.37,136.91c.11.06.23.13.34.19-.12-.06-.23-.12-.35-.18,0,0,0,0,0,0Z"/>
    <path class="cls-14" d="m263.59,289.42c-7.62-3.8-10.28-11.23-12.18-18.48-2.24-8.5-2.29-17.29,1.22-25.79,4.9-11.88,17.16-15.71,26.3-7.94,5.38,4.58,8.88,10.37,10.69,17.25,2.51,9.57,3.14,18.92-2.13,27.9-.71,1.2-1.35,2.2-3.27,2.88,1.1-4.94,1.07-9.64.71-14.28-.66-8.45-4.14-14.94-11.29-17.55-9.4-3.43-15.32,3.13-16.86,10.61-1.94,9.4.99,17.76,7.26,24.96-.15.14-.29.29-.43.43Z"/>
    <path class="cls-14" d="m275.31,259.12c3.06.06,4.86,2.35,4.84,5.89-.01,2.68-1.33,3.88-3.89,3.81-2.57-.06-5.06-3.17-5.04-6.11.02-2.76,1.56-3.72,4.09-3.59Z"/>
    <path class="cls-14" d="m264.02,288.99c.23.2.68.55.67.56-.42.59-.75.17-1.1-.13.14-.15.28-.29.43-.43Z"/>
    <path class="cls-12" d="m387.06,234.39c-.08,1.89-.19,3.68-.59,5.53-1.94,8.92-10.46,13.1-18.53,8.81-9.44-5.02-14.24-17.74-10.56-27.77,2.92-7.95,11.08-11.02,18.43-6.87,7.84,4.42,10.91,11.66,11.25,20.3Z"/>
  </g>
</svg>