<?xml version="1.0" encoding="UTF-8"?>
<svg id="Layer_1" data-name="Layer 1" xmlns="http://www.w3.org/2000/svg" viewBox="0 0 930.03 618.78">
  <defs>
    <style>
      .cls-1 {
        fill: #b58667;
      }

      .cls-2 {
        fill: #85462f;
      }

      .cls-3 {
        fill: #ba6d43;
      }

      .cls-4 {
        fill: #b96c42;
      }

      .cls-5 {
        fill: #040404;
      }

      .cls-6 {
        fill: #d58d6d;
      }

      .cls-7 {
        fill: #452e2c;
      }

      .cls-8 {
        fill: #edcebc;
      }

      .cls-9 {
        fill: #f08b2d;
      }

      .cls-10 {
        fill: #634842;
      }

      .cls-11 {
        fill: #5b342f;
      }

      .cls-12 {
        fill: #4a9cca;
      }

      .cls-13 {
        fill: #e3b598;
      }

      .cls-14 {
        fill: #fbfbfb;
      }

      .cls-15 {
        fill: #2575a9;
      }
    </style>
  </defs>
  <path class="cls-5" d="m97.82,545.48c-7.8-10.02-13.64-20.74-13.85-33.97-.04-2.75-.8-5.27.06-8.22,2.05-7.07-3.33-10.48-8.09-13.66-10.46-6.98-22.21-10.45-34.67-11.31-3.55-.24-6.38-1.81-7.68-4.48-1.34-2.73-.79-6.14,1.59-8.72,2.26-2.44,4.5-4.88,6.74-7.31-.08-.16-.1-.33-.18-.37-10.16-4.5-8.56-10.13-.54-16.1,12.56-9.36,26.48-14.64,42.04-16.28,3.88-.41,7.8-.58,13.17-1.02-3.66-3.69-6.38-6.88-9.57-9.51-2.94-2.42-3.42-5.46-2.36-8.41.98-2.71,4.01-2.82,6.74-2.92,7.64-.27,15.08.47,22.13,3.68,1.22.55,2.52.66,4.28-.21-4.4-6.61-8.78-13.12-13.1-19.67-11.8-17.9-24.63-35.01-38.46-51.4-14.07-16.66-30.61-30.5-48.05-43.44-7.01-5.2-14.61-10.29-16.95-19.58-1.75-6.93-1.26-13.82.86-20.7,5.73-18.65,16.79-34.04,29.61-48.25,8.41-9.32,17.41-18.11,28.79-23.95,19.65-10.08,41.19-6.8,57.25,8.55,21.88,20.9,37.14,46.03,47.66,74.22.4,1.06.98,2.06,1.54,3.05.45.79,1.13,1.19,2.05.76.85-.4.8-.96.74-1.92-1.73-27.47-8.21-53.73-19.57-78.82-4.7-10.37-10.69-20.21-14.07-31.1-5.41-17.43-.21-28.74,13.17-40.92,12.06-10.98,26.27-18.28,41.86-22.38,17.63-4.65,35.49-5.71,52.69,2.21,12.72,5.85,18.73,17.24,23.47,29.58,5.12,13.33,7.4,27.19,9.16,41.31,1.43,11.46,1.72,22.82.68,34.22-1.05,11.5-2.6,22.97-5.21,34.25-1.31,5.66-1.35,5.63,4.55,5.56,16.34-.2,32.37,1.9,47.39,8.52,21.73,9.58,35.26,26.55,42.43,48.95.56,1.76-.18,4.86,3.55,4.68,3.08-.15,2.71-2.41,3.51-4.29,10.31-24.31,27.93-39.7,54.23-44.85,24.91-4.88,46.75,3.12,67.5,15.61,12.32,7.41,23.49,16.42,33.72,26.53,1.56,1.54,2.66,1.99,5.05,1.17,3.92-1.35,8.2-1.65,12.32-2.39,2.82.63,4.42-.14,4.08-3.39-.15-1.43.62-2.92.68-4.13.2-4.44,3.69-7.85,3.43-12.31,7.1-11.74,15.03-22.74,28.01-28.65,5.23-2.38,10.71-4.89,16.59-4.26,7.3.78,13.49-1.07,18.7-6.07,5.39-5.17,12.01-8.59,18.1-12.73,2.45-1.67,2.54-2.74,1.48-4.89-6.49-13.06-11.69-26.54-15.24-40.76-3.44-13.75-5.56-27.56-5.85-41.69-.03-1.67-.06-3.33-.09-5,.04-6.47-.52-13.02.24-19.4,1.45-12.15,3.23-24.24,6.52-36.15,5.07-18.34,12.05-35.64,22.68-51.49,5.04-7.52,11.3-13.69,18.8-18.54,10.14-6.55,20.27-.84,20.88,11.5,1.07,21.59,5.12,42.57,13.82,62.45,5.98,13.67,12.18,27.26,18.69,40.68,7.31,15.07,13.36,30.6,17.12,46.88.82,3.54,2.69,4.36,4.96,4.87,12.55,2.83,22.84,9.4,31.91,18.27,1.61,1.57,2.12,4.25,4.75,4.77.01.27.02.54.04.81.05-.25.09-.5.14-.74.1-5.15.39-10.31.23-15.45-.09-2.93.29-5.41,3.13-6.67,2.94-1.31,5.94-1.49,8.84.43,4.9,3.25,8.64,7.51,11.71,12.5.69,1.13,1.04,3.28,2.65,3.17,1.52-.1,1.56-2.13,2.17-3.36,5.48-10.99,11.11-21.87,17.72-32.26,10.55-16.59,22.72-31.83,36.87-45.45,9.63-9.27,20.08-17.73,32.31-23.2,9.18-4.1,18.91-8.01,29.44-4.62,8.1,2.61,9.52,7.42,7.91,14.86-3.43,15.82-6.74,31.67-9.48,47.62-.25,1.46-.11,2.98-.15,4.47-1.58,3.52-.64,7.43-1.72,11.03-2.13,27.62-4.89,55.15-12.74,81.86-.59,2-.02,2.98,1.11,4.32,11.65,13.67,16.74,29.87,18.49,47.46,2.92,29.46-5.28,56.28-18.96,81.86-.53.99-.79,2.12-1.18,3.19-7.03,9.88-14.02,19.79-22.92,28.14-3.34,2.88-6.5,6-10.06,8.57-3.43,2.47-2.38,5.31-2.14,8.67.91,12.33-.88,24.32-5.31,35.97-3.85,10.1-9.69,19-16.98,26.66-6.65,6.99-14.56,12.89-23.87,16.16-5.39,1.89-4.84,6.45-5.81,10.48-4.19,17.35-9.57,34.26-18.51,49.85-.64,1.12-.97,2.43-1.44,3.65-.62.73-1.36,1.4-1.85,2.21-10.66,17.51-25.02,30.96-43.5,39.98-14.39,7.02-29.42,11.38-45.44,12.99-16.12,1.62-32.28,1.96-48.29.59-15.68-1.35-31.38-3.15-46.88-6.62-16.36-3.66-32.71-7.22-48.79-11.97-6.86-1.53-13.66-3.59-19.89-6.67-9.6-4.74-20.41-6.7-29.3-13.03-1.03-.73-3-.75-4.31-.35-6.2,1.89-12.32,4.03-18.47,6.09-5.2.01-10.13,1.33-15,3-6.55.66-12.92,2.38-19.46,3.23-4.84.63-9.73.85-14.56,1.46-16.58,2.1-33.31,2.27-50,2.02-9.96-.15-19.88-1.88-29.81-2.73-12.2-1.05-24.04-3.52-35.87-6.21-20.93-4.76-41.23-11.5-60.18-21.71-5.14-2.77-8.16.54-11.37,2.55-11.3,7.04-23.64,9.94-36.72,10.54-.98.04-1.95.32-2.93.48-1.35-.49-2.69-.49-4.04,0-8.83-.46-17.64-1.03-25.88-4.76-.88-.4-1.92-.53-2.72-1.04-7.09-4.49-13.93-5.79-22.72-3.32-17.26,4.85-33.18-.71-47.74-10.4-4.74-3.16-8.81-7.15-12.89-11.1-1.04-.22-.85-1.3-1.34-1.9Zm656.17-61.3c.09.09.18.18.27.27-.11-.07-.22-.15-.33-.22-.34-.33-.67-.65-1.01-.98-5.91-12.82-9.61-25.89-6.95-40.31,1.85-10.03,4.27-19.8,9.14-28.75,15.29-28.11,38.08-44.16,71.03-43.53.66.52,1.27.44,1.32-.42.04-.78-.71-.92-1.38-.92-22.26-8.88-42.34-3.59-60.22,10.63-16.81,13.37-26.98,31.08-30.76,52.5-2.25,12.75-.58,24.77,4.93,36.23,2.86,5.95,6.63,11.47,12.96,14.52.01.65.41.92,1,.99ZM167.32,267.32c-.29.72.09.97.72,1.06q.28,1.54,1.73,3.18.32-4.27-2.45-4.23ZM674.31,14.25c-1.46-3.75-3.98-1.95-6.03-.94-4.41,2.18-7.8,5.67-10.8,9.48-10.28,13.05-17.24,27.8-21.85,43.69-3.68,12.68-7.75,25.31-7.41,38.77-3.71,30.46-.34,60,11.41,88.46.42,1.26.82,2.52,1.28,3.77,4.15,11.28,9.91,21.72,16.64,31.65,1.32,1.94,2.76,2.64,5.01,1.44,2.5-1.33,1.54-2.91.53-4.52-7.03-11.3-12.85-23.19-17.19-35.79-.3-1.29-.52-2.6-.92-3.86-3.94-12.16-7-24.68-7.71-37.32-1.07-18.94.02-37.93,4.97-56.46,2.29-8.58,6.08-16.54,10.08-24.4.72-1.42,1.65-3.16,3.76-2.53,1.74.52,1.9,2.11,1.94,3.66.02.66.08,1.32.13,1.99,0,5,.02,9.99.02,14.99,1.15,7.13,1.98,14.34,3.51,21.39,3.4,15.61,7.76,30.89,14.03,45.69,4.85,11.45,9.92,22.76,15.37,33.91,1.15,2.36,2.31,3.08,5.39,2.46,5.37-1.08,10.78-1.96,16.59-.77,5.89,1.21,11.65,3.11,18.6,4.48-3.05-5.2-7.71-7.12-10.91-10.48-2.71-2.85-7.72-3.67-8.02-8.71,2.36-2.78,5.55-4.22,8.91-5.21,2.72-.81,3.84-1.83,2.7-4.9-1.61-4.34-2.55-8.93-4.02-13.33-6.83-20.37-17.35-39.11-25.96-58.7-6.52-14.83-13.18-29.61-15.61-45.83.14-.81,0-1.51-.72-2-1.23-10.03-2.46-20.05-3.69-30.08Zm-273.21,261.07c-8.52,6.38-13.25,15.42-17.4,24.85-.31.71-.64,1.79-.32,2.32.68,1.14,1.76.27,2.62-.04,6.85-2.47,13.88-4.22,21.01-5.65,2.29.14,4.62.6,6.88.37,7.68-.79,15.27-.17,22.8,1.18,17.27,3.11,31.72,11.03,42.42,25.23.15.2.56.21.94.34,1.41-1.68.88-3.74,1.08-5.65,1.23-3.74.84-7.58.56-11.38-.85-11.68-5.14-22.4-9.36-33.14.34-.26.67-.52,1.01-.78.82.47,1.64.95,2.47,1.42,3.69,5.3,7.06,10.78,9.61,16.74,1.13,6.68,2.17,13.37,1.61,20.17-.16,1.97.81,2.88,2.37,3.85,8.74,5.41,8.72,5.46,16.36-2.06,1.17-1.15,2.22-2.42,3.33-3.63,1.66-1.03,3.34-2.01,4.97-3.08q8.49-5.57-.05-12.03c-.63-.55-1.27-1.1-1.9-1.65-.59-.5-1.18-1-1.77-1.5-1.2-1.29-2.39-2.59-4.14-3.15l.12-.1c-14.01-11.68-29.42-20.59-47.28-25.2-18.15-4.69-35.05-2.29-50.97,7.47-2.8,1.04-4.86,3.08-6.95,5.09ZM71.18,438.31c-5.64,1.36-11.02,3.22-15.31,7.38,1.89.64,3.55.54,5.19.66,8.64.64,17.08,2.29,25.14,5.52,1.12.45,2.95.76,2.47,2.52-.39,1.44-1.99.79-3.05.81-5.13.11-10.29-.31-15.34,1.06-7.96,2.17-15.55,5.03-21.99,10.99,2.28,1.28,4.13.75,5.89.94.65.95,1.69.86,2.66,1.09,12.34,2.93,23.53,7.87,32.46,17.37,6.36,6.76,10.9,14.66,15.44,22.57,6.47,11.27,14.4,21.54,21.81,32.16.66.95,2.11,2.24.76,3.44-1.02.91-2.09-.34-3.05-.96-6.65-4.26-12.04-9.87-17.23-15.75-4.37-4.96-7.41-10.85-11.61-16.02.58,3.99.95,7.89,2.45,11.64,6.16,15.4,17.28,25.79,32.41,31.99,9.77,4,19.89,4.96,30.26,2.32,3.95-1.01,3.71-2.67,1.52-5.43-9.77-12.32-11.5-26.6-9.28-41.53,1.97-13.3,8.3-24.46,18.42-33.33,2.32-2.04,2.98-3.7,1.54-6.75-2.61-5.55-5.12-11.25-6.71-17.14-2.02-7.45-5.36-13.18-12.93-16.12-7.56-2.94-13.87-8.55-21.88-10.61-8.52-6.27-17.7-11-28.39-12.5,3.07,3.84,6.43,7.27,8.83,11.44,2.37,4.11,5.6,7.85,6.66,13.23-16.2-5.57-31.63-5.8-47.14-.98Zm744.57-252.27c-3.21,5.83-6.4,11.67-7.85,18.26-.64,1.53-1.42,3.01-1.92,4.58-7.78,24.52-12,49.61-11.7,75.38.1,8.82.47,17.63.88,26.44.07,1.51,1.79,3.61-.15,4.28-2.24.78-2.82-1.9-3.4-3.47-2.54-6.92-3.54-14.17-3.54-21.49,0-3.21-.83-5.71-2.78-8.18-7.55-9.56-16.49-16.19-28.9-19.16-9.21-2.21-16.83-1.16-24.67,3.16-8.89,4.9-14.19,13.12-19.77,21.07-5.61,7.99-10.05,10.13-16.76,4.27-2.89-3.92-4.32-8.53-6.12-12.96-1.21-13.6,1.32-26.48,7.4-38.7.58-1.17,2.28-2.62.84-3.88-1.05-.92-2.78-.23-4.28.07-6.64,1.32-13.24,2.69-20.11,2.76-2.73.03-4.11-2.94-7.21-1.72-5.95,2.35-12.05,4.27-17.5,7.74-12.75,8.14-25.19,16.73-36.42,26.89-3.8,3.44-7.39,7.56-5.02,14.12,3.42-3.44,4.79-8.61,10.12-9.2.19,1.92-1.87,2.81-2.08,4.54-3.75,5.37-4.05,11.08-1.07,16.77,2.52,4.83,6.65,7.51,12.27,7.51,6.02,1.25,10.85-3.17,17.27-4.08-2.17,2.53-3.74,4.35-5.31,6.18v-.02c-1.81.17-2.95,1.2-3.55,2.88l-.11-.29-.31.02c-2.05.67-3.85,1.76-5.35,3.32-.81.16-1.64.27-2.43.49-11.91,3.21-18.19.07-23.26-11.21-2.75-6.11-2.22-12.34-.98-19.58-7.23,6.55-13.93,12.01-22.31,16.22,1.45.64,2.16,1.06,2.93,1.26,11.14,2.97,20.76,8.92,29.84,15.73,7.7,5.78,14.63,12.5,19.73,20.74,4.66,7.54,8.18,15.72,10.53,24.25,1.08,3.91,3.2,8.18.28,12.34-.7-.29-.76-.89-.94-1.56-4.19-15.78-11.75-29.74-22.86-41.72-13.79-14.87-31.28-22.98-50.81-26.73-9.87-1.89-20-2.26-29.96.18-1.92.47-4.66.79-1.9,4.11,1.34,1.61,2,4.14,1.69,6.56-.49,6.07.89,12.51-4.05,19.22,0-5.58-.04-9.79.01-14,.04-3.52-1.08-6.73-2.59-9.82-1.03-2.11-2.51-2.76-4.86-1.65-10.55,4.99-19.17,12.18-25.57,21.97-9.49,11.05-16.14,23.34-16.85,38.26-1.76,18.03,2.52,34.49,13.6,48.83,16.53,21.41,39.52,31.83,65.51,34.9,18.42,2.18,37.11.9,54.86-5.82,6.2-2.35,12.63-4.4,17.83-8.84,3.09-1.8,6.98-2.01,10.37-5.15-4.53-1.25-8.35-2.31-12.31-3.41,7.86-3.76,16.62-.28,21.22,6.42,4.74,6.91,3.49,24.01-2.32,28.92,0-3.91.06-7.72-.01-11.54-.2-10.52-2.27-11.84-12.13-8.41-3.79,1.31-6.54,3.98-9.78,6.02-11.76,7.37-23.22,15.23-35.56,21.66-16.93,8.83-34.95,12.34-53.66,9.13-12.93-2.22-23.35-9.63-30.84-20.69-2.68-6.4-5.46-12.91-5.81-19.84-.22-4.29-1.5-6.69-5.98-8.12.01,6.57-.69,12.67.76,18.91,5.17,22.17,17.95,37.4,39.52,45.33,10.71,3.94,21.75,4.72,32.68,3.38,11.6-1.43,22.73-5.43,33.26-10.75,1.1-.56,2.13-1.74,3.61-.85l-.1-.07c-2.24,3.32-6.72,4.01-9.3,7.93,12.27,2.74,23.2,9.34,36,8.46,2.53,1.4,5.42,1.44,8.12,2.16,21.05,5.64,41.83,6.28,62.43-2.38,8.11-3.41,15.89-6.68,19.69-15.46.91-2.1,2.23-4.18,3.84-5.8,5.49-5.52,5.36-11.08.69-16.92-3.6-12.52-4.62-25.18-1.89-38.01,8.64-40.64,38.03-66.11,80.18-69.5,1.44.37,2.9.65,4.31,1.12,3.73,1.25,5.33-.04,4.92-3.93-.37-3.46-.9-6.92-1.02-10.39-.09-2.9-1.28-3.86-4.12-4.38-2.77-.5-6.5-.21-7.69-4.38,5.02-.99,9.94-1.71,14.45-3.78,17.09-7.83,31.2-19.55,43.38-33.71,19.54-22.7,29.29-49.93,35.99-78.52,3.49-14.87,5.27-30.03,6.92-45.19.81-7.41,2.12-14.8,1.87-22.31.66-11.83,3.53-23.32,5.51-34.94,1.66-9.71,5.09-19.09,5.5-29.04.11-2.58-1.87-1.71-3.16-1.87-8.8-1.09-16.22,2.57-23.46,6.84-16.41,9.69-29.75,22.8-41.9,37.31-13.93,16.64-25.86,34.51-34.49,54.49ZM38.41,213.49c-2.45.66-3.58,2.81-5.07,4.53-8.21,9.47-14.02,20.53-19.71,31.52-2.7,5.2-5.13,11.39-2.53,17.79,1.44,4.2,2.52,8.62,6.35,11.49,4.19,3.14,8.5,6.14,12.62,9.38,8.75,6.9,18.16,13.02,25.8,21.27,1.56,1.69,2.15.92,3.27-.48,7.65-9.59,15.41-19.09,23.14-28.62,8.92-10.1,17.96-20.09,26.71-30.34,6.22-7.29,13.4-13.82,18.21-22.26,1.94-2.28,6.48-3.76,3.65-7.8-7.65-10.93-15.92-21.34-26.92-29.26-10.9-7.85-22.45-8.65-34.42-3.22-12.7,5.77-22.65,15.01-31.08,25.99Zm248.69,35.13c-12.27-1.02-24.31.58-36.27,3.14-5.97.73-11.61,3.44-18.78,3.47,7.05-4.18,13.78-6.4,20.17-9.35,4.45-.15,6.25-2.82,6.91-6.9.44-2.74,1.4-5.4,2.06-8.11,2.19-8.97,3.14-18.13,4.38-27.27,1.25-9.22,1.66-18.39,1.26-27.64-.19-4.33-1.03-7.91-6.6-7.28-5.62-1.27-11.13.23-16.69.56-15.75.92-30.66,4.91-44.92,11.54-10.75,3.51-20.03,9.55-28.7,16.65-1.27,1.04-1.86,2.07-1.34,3.85,5.19,17.86,9.38,35.86,11.05,54.5.95,10.61,2.02,21.19,1.06,31.75-.47,5.19,1.12,4.8,4.97,4.3,8.08-1.05,16.25-1.19,24.35.05,16.99,2.59,30.95,10.58,41.88,23.86,1.04,1.27,1.85,3.54,4.12,1.18,3.94-4.09,8.92-6.89,13.35-10.37,5.03-2.47,9.93-5.27,15.39-6.68,1.33-.34,4.02-2.67,4.23,1.36-7.99,4-15.25,9.05-21.9,15-2.74,1.64-4.6,4.22-6.85,6.38-1.34,1.29-1.85,2.79-.83,4.45,5.76,9.4,8.52,19.96,11.81,30.32-.02,7.86,2.47,15.38,3.16,23.15.91,10.28-.06,20.45-1.1,30.63-1.92,5.08-2.38,10.74-6.15,16.05,0-1.56.02-2.21,0-2.85-.45-10.72,2.46-21.35.86-32.1,1.64-1.33.45-1.69-.71-2.06-.09-2.01-.18-4.02-.27-6.03.06-13.63-3.11-26.55-7.74-39.31-13.04-35.91-45.68-50.88-79.46-43.74-8.68,1.84-15.28,7.51-21.66,13.33-.02-.75-.05-1.49-.07-2.24-.2-2.18,1.08-3.92,2.3-5.3,4.84-5.45,4.22-11.22,2.33-17.66-2.4-8.18-4.52-16.45-7.6-24.4-4.81-12.42-10.73-24.29-18.06-35.6-2.25,1.78-3.75,3.71-4.88,5.94-7.68,8.97-15.37,17.94-23.05,26.92-7.63,8.47-15.71,16.57-22.04,26.13-8.01,7.39-14.01,16.44-20.7,24.93-2.37,3.01-1.92,5.01.73,7.55,6.07,5.78,11.53,12.24,17.02,18.51,9.05,10.34,16.6,21.98,24.32,33.42,7.28,10.79,13.17,22.64,23.05,31.55,9.49,8.55,20.34,12.68,32.91,8.79,10.45-3.24,20.49-7.67,29.19-14.58,3.1-2.46,6.22-4.9,9.34-7.35l.36.3c-.84,3.55-3.21,6.16-5.53,8.75-7.24,8.1-16.32,13.62-25.96,18.3-2.3,1.12-3.4,2.1-2.93,5.22,5.67,37.95,23.75,69.4,51.13,95.48,20.53,19.55,44.55,34.08,70.98,44.5,30.27,11.93,61.91,18.06,94.15,20.32,17,1.19,34.21,1.21,51.32-.67,24.69-2.72,49.09-6.65,72.5-15.36,2.45-.91,4.47-.79,7.01.54,13.53,7.08,27.53,13.16,42.09,17.82,24.39,7.8,49.25,13.51,74.62,17.24,23.42,3.44,46.85,5.46,70.5,3.67,5.06-.38,10.19-.57,15.51-2.33-4.22-2.06-8.12-3.85-11.89-5.88-1.38-.74-3.49-1.95-2.57-3.7.94-1.79,2.53.2,3.82.56,8.27,2.3,16.52,5.7,25.24,4.07,13.76-2.58,25.29-10.38,35.38-19.26,21.6-19.02,31.75-44.68,38.23-72.02.7-2.94.42-4.31-3.66-3.83-21.49,2.53-40.92-2.68-57.76-16.65-2.45-2.03-4.15-6.75-7.01-5.88-2.43.74-3.73,5.15-5.53,7.93-2.56,4.07-5.3,8.04-7.64,12.23-7.42,13.28-13.17,27.21-16.11,42.22-.26,1.32-.14,3.51-2.05,3.31-1.41-.15-1.98-1.99-2.08-3.56-.17-2.79-1.33-5.42-1.08-8.32.13-1.48,1.03-3.69-.77-4.46-1.6-.68-2.86,1.28-4.32,1.96-3.54,1.64-5.08,5.56-8.57,7.37.85-3.3,2.05-6.31,4.13-8.87,1.63-2.01,1.41-3.17-1.24-3.6-7.04-1.15-13.99-2.93-21.16-3.16-4.08.67-7.93-1.52-12-1-.96-.14-1.93-.28-2.89-.43-16.08-1.42-32.18-1.06-48.26-.15-7.1.4-14.05,1.97-21.14,3.5.31-1.63,1.42-1.65,2.29-2.05,9.85-4.54,20.53-4.84,31.03-6.02,1.28-.14,3.06.39,3.25-1.33.15-1.35-1.58-1.34-2.66-1.71-9.75-3.41-19.06-7.8-28.09-12.78-1.97-1.09-3.62-.99-5.64-.29-11.42,3.98-23.03,5.94-35.23,4.33-18.82-2.48-34.43-10.54-46.62-25.17-7.31-8.77-10.93-19.22-13.89-29.99-1.31-8.51-2.01-16.98,1.59-25.19.22-.51.17-1.45-.16-1.84-5.74-6.92-9.11-15.22-13.44-22.95-2.38-7.87-2.99-16.03-3.82-24.15.31-5.48.61-10.96.96-17.21-1.19.95-1.5,1.1-1.67,1.35-15.66,22.3-42.12,27.76-66.7,18.79-16.53-6.04-28.55-17.52-35.79-33.75-2.21-8.53-3.08-17.22-3.15-26,2.16-3.38.66-7.24,1.65-10.91-6.68-.43-12.93.81-19.26,1.84-14.11,2.29-27.61,6.43-40.33,12.86-8.83,4.46-17.31,9.59-25.95,14.43-1.39-2.1.99-2.45,1.74-3.27,7.01-7.67,15.6-13.34,24.37-18.75,3.76-.88,6.1-4.22,9.95-5.25,8.76-2.36,17.36-5.32,26.02-8.04,1.63-.28,3.24-.63,4.88-.82,3.32-.38,3.77-1.65,2.72-4.95-10.33-32.46-36.56-47.49-67.51-49.18-.38-.19-.76-.38-1.14-.58Zm479.39,218.64c-.51-2.42-1.28-4.81-1.48-7.26-1.57-19.45,4.15-36.67,16.53-51.59,8.41-10.14,18.77-17.49,31.74-20.98,7.36-1.98,15.06-3.35,21.55-8.44-38.47-9.44-74.09,21.43-80.15,56.81-3.62,11.3-3.22,22.83.19,33.85,6.23,20.07,20.11,28.66,42.55,27.22-7.42-2.29-13.71-5.28-19.08-10.2-5.87-5.39-8.89-12.34-11.86-19.41Zm-111.41-272c2.67,9.54,7.53,17.93,13.36,26.15,4.67-4.67,10.26-7.49,15.73-10.66-3.95,0-7.48-1.47-11.17-2.06-4.45-.71-4.9-2.31-2.05-6.02,3.1-4.04,7.09-7.07,11.84-8.8,3-1.09,3.28-2.19,1.79-4.94-6.86-12.66-13.24-25.55-18.11-39.15-.92-2.56-1.06-5.56-3.43-7.49-.41-2.11-.62-4.29-1.28-6.32-1.91-5.92-3.45-11.92-4.72-18.02-2.08-9.97-4.23-19.92-5.45-31.49-4.65,11.11-6.95,21.37-7.38,31.71-.7,16.8-1.53,33.66,2.65,50.33,2.28,9.09,3.75,18.36,8.23,26.74Zm215.76,172.37c3.29,6.76,6.57,13.52,10,20.58.86-.92,1.44-1.48,1.96-2.1,21.63-25.79,32.04-55.68,32.35-89.19.04-4.26-.6-8.54-1.08-12.79-1.35-11.93-5.67-22.72-12.76-33.27-1.25,3.27-2.25,5.87-3.25,8.46-1.54,3.25-4.64,6.29-3.94,9.94,1.92,10.11,1,20.18-.76,29.98-3.6,20.03-12.13,38.19-23.65,54.91-4.94,7.17-5.07,7.08,1.13,13.47Zm-411.77-52.44c-2.97-3.42-7.24-4.55-11.2-6.03-14.22-5.33-28.79-7.5-43.84-3.96-8.09.26-15,3.93-21.87,7.67-1.71.93-2.75,2.68-2.85,4.5-.36,6.97-1.16,14.03.34,20.89,6.56,29.9,40.81,43.35,66.31,36.19,11.36-2.99,20.37-8.91,25.13-20.14,2.86-3.99,4.16-8.63,5.44-13.27.71-2.57,1.17-5.12-.37-7.67-4.41-7.29-9.41-13.98-17.1-18.17Zm327.02,168.29c.89,1.54,2.49,2.13,3.94,2.9,11.58,6.19,23.34,5.02,34.27-.86,23.56-12.68,35.54-33.23,35.2-59.65-.15-11.68,1.46-21,11.21-27.98,1.14-.82,2.48-1.91,1.81-3.74-2.38-6.51-4.13-13.3-8.4-18.97-.87-1.59-1.79-3.16-2.61-4.78-1.55-3.07-2.92-3.62-5.63-.7-10.83,11.68-23.67,19.97-39.48,23.62-27.55,6.37-49.52,38.35-44.36,65.84,1.81,9.64,5.53,18.43,14.05,24.32ZM145.89,137.52c-1.32,3.73-1.28,7.55-.01,11.21,4.75,13.67,12.52,25.98,17.72,39.46.66,1.72,1.57,2.29,3.33.89,9.18-7.28,19.72-12.15,30.29-16.96,5.63-1.93,11.22-3.97,16.88-5.78,14.71-4.72,29.92-5.43,45.21-5.32,1.44,1.59,3.41,1.7,5.03.91,1.92-.94.92-3.04.66-4.51-2.39-13.56-5.06-27.03-11.57-39.4-6.01-11.42-15.23-18.28-28.13-19.4-9.47-.82-18.99-.52-28.22,2.12-4.09,1.17-8.53,1.6-11.99,4.53-9.73,2-17.61,7.49-25.16,13.51-6.28,5.01-12.14,10.43-14.03,18.76Zm642.07,124.76c.32-2.13.75-4.24.95-6.38,1.64-16.79,3.82-33.48,9.01-49.63,1.49-3.25,1.13-6.26-.57-9.43-2.11-3.94-4.32-7.8-7.01-11.36-.93-1.23-1.85-3.51-3.6-2.74-1.7.75-.52,2.91-.45,4.46.71,8.28.53,16.56-.34,24.81-.52,4.93-.63,10.01-3.66,14.96-1.52-3.98-2.81-7.36-4.1-10.74-1.46-3.15-2.65-6.46-4.42-9.42-9.4-15.8-23.25-25.48-41.18-29.32-1.34-.29-3.38-1-4.07.51-.71,1.53,1.45,1.73,2.37,2.49,10.51,9.26,19.26,19.77,24.74,34.07-4.86-1.51-6.66-5.24-10.15-6.32-8.56-7.1-18.69-11.31-29.4-12.57-9.72-1.14-19.97-1.79-29.21,3.45-2.28.1-4.04,1.11-5.76,3.57,9.94,1.26,19.94,1.01,28.75,6.83-2.23,1.81-4.11,1.65-5.92,1.8-11.54.93-21.35,5.75-29.9,13.36-1.39,1.24-2.72,2.69-1.92,4.75.85,2.21,2.94,1.85,4.72,1.82,5.51-.07,10.8-1.67,16.21-2.42,6.71-.93,13.43-2.41,20.9-1.07-10.98,9.94-17.14,21.51-18.23,35.61-1.71,6.15-1.11,12.18,1.31,17.97,1.05,2.51,1.69,6.2,4.76,6.48,2.94.28,3.68-3.41,5.11-5.49,11.18-16.25,24.96-28.9,45.13-32.5,6.04-1.08,12.3-1.62,18.06,1.75-2.4.62-4.92.32-7.14,1.01-2.3.72-5.18-.05-7.33,2.42,12.94,2.6,23.3,8.87,31.26,19.19.35-.22.7-.43,1.06-.65v-11.28ZM209.68,567.23c15.32,0,29.64-3.6,38.54-8.52,3.25-1.8,3.42-2.92.19-5.01-6.7-4.33-13.19-8.98-19.75-13.52-1.81-1.25-3.57-2.23-5.99-1.71-11.89,2.52-22.77.2-32.44-7.23-11.39-8.74-20.45-25.96-12.98-40.8.59-1.18,1.36-2.3,1.77-3.54.73-2.17-.3-4.13-1.82-5.37-2.05-1.68-2.73.99-3.71,1.9-5.6,5.2-9.07,11.79-11.85,18.82-7.69,19.42-2.04,40.85,14.25,53.26,11.01,8.39,23.79,11.36,33.81,11.72Zm673.54-275.87c-7.29,8.6-13.76,17.71-22.12,25.13-6.23,5.52-12.55,10.99-19.2,15.97-2.09,1.57-2.44,3.11-1.85,4.82,2.62,7.6,4.37,15.39,6.03,23.23.43,2.01,1.55,3.89,3.9,1.3,1.78-1.97,3.78-3.76,5.46-5.8,9.54-11.59,16.49-24.76,22.25-38.49,3.45-8.22,5.48-17,5.54-26.16Zm-260.87-37.44c-3.3-1.84-5.83.5-8.5.35-6.59-.36-12.31,2.07-17.5,5.95-10.37,7.74-16.58,18.36-20.99,30.24-.42,1.14-.67,2.44.13,3.32,1.25,1.37,2.46,0,3.49-.62,7.77-4.63,14.83-10.2,20.49-17.25,6.57-8.17,14.84-14.47,22.89-21.99Zm-66.14,221.37c8.93.08,17.5-1.63,25.7-5.17,1.31-.57,3.06-.87,3.03-2.83-.03-1.84-1.14-3.17-2.69-3.91-1.32-.62-2.81-.98-4.26-1.21-4.91-.78-10.17-.59-14.69-2.34-11.06-4.3-18.47.41-25.01,8.51-.1.13-.22.25-.35.36-2.56,2.21-1.67,3.35,1.13,4.28,5.58,1.86,11.33,2.23,17.14,2.3Zm43.09-224.38c-4.98.37-9.76.78-13.97,3.31-13.65,8.21-21.44,20.5-24.93,35.8-.61,2.67.76,3.67,2.94,4.16,3.46.78,4.67-1.29,5.45-4.2,3.65-13.53,11.55-24.18,22.45-32.76,2.68-2.11,5.37-4.21,8.06-6.31Zm-386.15,277.23c-4.67-5.24-9.02-9.94-13.16-14.8-4.23-4.98-8.28-10.11-12.37-15.2-.68-.85-.89-2.26-2.46-1.84-1.7.46-.94,1.89-.99,2.89-.76,15,13.28,29.29,28.98,28.96Zm608.72-184.41c.68,3.09,2.05,6.05,1.83,8.88-.62,7.73,3.92,11.18,10.01,13.84,2.04.89,3.21,1.11,2.88-1.71-.9-7.73-2.96-15.22-4.94-22.71-.44-1.65-1.37-3.51-3.42-2.55-2.29,1.08-5.85.63-6.36,4.26Zm-200.12-99.09c4.6,3.26,8.48,3.26,12.68.16,4.26-3.14,8.82-5.89,13.41-8.54,2.67-1.55,1.33-3.08.2-4.32-1.41-1.55-1.35-5.98-4.86-3.93-7.71,4.51-14.94,9.76-21.43,16.62Zm-138.31,96.1c4.84-2.71,6.54-6.98,8.39-10.9,1.32-2.8-1.67-4.38-3.52-5.16-2.47-1.03-1.78,1.73-2.39,3.02-1.86,3.93-1.74,8.21-2.47,13.04Z"/>
  <g>
    <path class="cls-1" d="m776.47,192.23c-.05.25-.09.5-.14.74-.01-.27-.02-.54-.04-.81,0,0,.17.06.17.06Z"/>
    <path class="cls-3" d="m109.07,262.11c7.68-8.97,15.37-17.94,23.05-26.91.99,1.31,2.2,2.5,2.94,3.94,7.42,14.37,13.42,29.3,17.18,45.04,2.22,9.28,3.88,18.68,5.79,28.03.02.75.05,1.49.07,2.24-1.54,5.55,1.93,2.36,3.23,1.66,12.13-6.47,24.88-9.27,38.68-7.94,10.44,1,20.24,3.62,28.97,9.44,15.14,10.1,24.04,24.91,30.16,41.53,3.02,8.19,5.24,16.67,7.82,25.03.09,2.01.18,4.02.27,6.03-.2.84-.28,1.63.71,2.06,1.6,10.75-1.31,21.38-.86,32.1.03.65,0,1.29,0,2.85,3.77-5.31,4.23-10.97,6.15-16.05.59.58,1.27,1.08,1.75,1.74,6.14,8.52,13.15,16.45,21.41,22.71,17.22,13.04,36.84,21.69,57.59,27.41,14.37,3.96,29.05,6.4,44.12,6.69,10.23.19,20.39.4,30.61-.44,18.79-1.56,36.73-6.36,54.23-13.12.02,1.67.11,3.33.06,4.99-.3,10.35-.13,20.51,4.49,30.24,6.75,14.2,17.19,24.69,30.65,32.4,1.69.97,3.36,2.01,3.39,3.96.04,2.22-2.42,1.9-3.75,2.54-23.22,11.14-48.41,15.56-73.34,20.39-7.51,1.45-15.7,1.11-23.58,1.43-24.78,1.01-49.49-.19-73.83-5.14-37.87-7.7-73.37-20.94-103.34-46.36-20.06-17.01-35.69-37.16-43.08-62.76-2.59-8.97-5.71-18.26-1.88-27.74,2.48-6.16,5.44-12.13,8.04-18.24,1.88-4.42,3.78-8.87,4.45-14.61-3.24,2.16-5.53,3.78-7.92,5.25-14.89,9.14-30.09,10.73-45.78,1.95-8.75-4.89-15.71-11.92-21.82-19.54-14.49-18.06-24.95-38.72-36.54-58.63,6.06-.59,7.51-4.97,5.76-9.39-2.25-5.69-1.21-11.43-2.06-17.09-.47-3.16-.36-5.85,4.26-4.71,2.97.74,4.22-1.61,3.82-3.79-.57-3.06-.3-6.33-1.88-9.18Z"/>
    <path class="cls-2" d="m99.17,306.27c11.59,19.92,22.05,40.58,36.54,58.63,6.11,7.62,13.07,14.64,21.82,19.54,15.69,8.78,30.89,7.19,45.78-1.95,2.39-1.47,4.68-3.1,7.92-5.25-.67,5.74-2.57,10.19-4.45,14.61-2.61,6.11-5.56,12.08-8.04,18.24-3.82,9.48-.71,18.77,1.88,27.74,7.39,25.6,23.03,45.75,43.08,62.76,29.97,25.42,65.47,38.67,103.34,46.36,24.34,4.95,49.05,6.15,73.83,5.14,7.88-.32,16.07.02,23.58-1.43,24.93-4.83,50.12-9.25,73.34-20.39,1.33-.64,3.79-.32,3.75-2.54-.03-1.95-1.7-3-3.39-3.96-13.46-7.71-23.9-18.21-30.65-32.4-4.63-9.73-4.8-19.89-4.49-30.24.05-1.66-.04-3.33-.06-4.99.1-.25.19-.51.27-.77,2.97-1.05,5.94-2.11,8.9-3.16,2.96,10.77,6.58,21.22,13.89,29.99,12.19,14.62,27.8,22.68,46.62,25.17,12.21,1.61,23.82-.36,35.23-4.33,2.02-.7,3.67-.8,5.64.29,9.03,4.98,18.34,9.36,28.09,12.78,1.07.38,2.81.36,2.66,1.71-.19,1.71-1.97,1.18-3.25,1.33-10.5,1.18-21.18,1.48-31.03,6.02-.87.4-1.99.42-2.29,2.05,7.09-1.54,14.05-3.1,21.14-3.5,16.08-.91,32.18-1.27,48.26.15-.52,1.02-1.44,1.26-2.48,1.31-18.48.85-36.46,5.03-54.6,8.12-2.49.08-4.85.67-7.06,1.81-.98.05-1.96.1-2.94.15-2.57-.12-4.97.42-7.13,1.88-1.62.06-3.24.13-4.87.19-2.89.67-5.81,1.21-8.66,2.03-7.83,2.24-15.37,5.12-22.16,9.76-2.94,2-5.01,4.7-4.82,8.14.2,3.74,3.75,4.87,6.7,5.78,4.23,1.31,8.63,2.09,12.96,3.1,21.26,4.32,42.33,9.7,63.97,12,2,.31,4,.62,5.99.93,4.12.38,8.24.75,12.36,1.13,15.08,1.39,30.19,1.05,45.3,1.05,16.45,0,32.75-1.13,48.58-6.04,12.97-4.02,25.51-8.96,34.68-19.54,7.21-8.32,12.66-17.78,16.95-27.98,4.16-9.88,4.82-9.15-6.56-10.36-20.61-2.19-38.83-8.41-50.41-27.15,1.8-2.78,3.11-7.19,5.53-7.93,2.85-.87,4.56,3.85,7.01,5.88,16.84,13.97,36.26,19.18,57.76,16.65,4.08-.48,4.36.89,3.66,3.83-6.48,27.34-16.63,53.01-38.23,72.02-10.09,8.88-21.62,16.69-35.38,19.26-8.72,1.63-16.97-1.78-25.24-4.07-1.29-.36-2.88-2.35-3.82-.56-.92,1.75,1.19,2.96,2.57,3.7,3.77,2.03,7.67,3.81,11.89,5.88-5.32,1.76-10.45,1.95-15.51,2.33-23.65,1.79-47.08-.23-70.5-3.67-25.37-3.73-50.23-9.43-74.62-17.24-14.57-4.66-28.56-10.74-42.09-17.82-2.54-1.33-4.56-1.45-7.01-.54-23.41,8.71-47.81,12.63-72.5,15.36-17.11,1.89-34.32,1.87-51.32.67-32.24-2.26-63.88-8.39-94.15-20.32-26.43-10.42-50.46-24.95-70.98-44.5-27.39-26.08-45.46-57.52-51.13-95.48-.47-3.12.63-4.1,2.93-5.22,9.65-4.68,18.72-10.2,25.96-18.3,2.32-2.6,4.69-5.21,5.53-8.76.23-.39.47-.77.67-1.17.02-.05-.21-.21-.32-.33l-.7,1.19c-3.11,2.45-6.23,4.89-9.34,7.35-8.71,6.91-18.74,11.34-29.19,14.58-12.57,3.89-23.42-.24-32.91-8.79-9.89-8.91-15.77-20.77-23.05-31.55-7.72-11.44-15.27-23.08-24.32-33.42-5.49-6.27-10.95-12.72-17.02-18.51-2.66-2.53-3.1-4.54-.73-7.55,6.69-8.49,12.69-17.54,20.7-24.93,1.59.5,2.02,2.01,2.79,3.23,3.11,4.94,6.23,9.87,9.35,14.8Z"/>
    <path class="cls-4" d="m642.96,373.39c2.92-4.16.79-8.43-.28-12.34-2.35-8.53-5.87-16.71-10.53-24.25-5.1-8.24-12.02-14.96-19.73-20.74-9.08-6.81-18.69-12.76-29.84-15.73-.77-.2-1.48-.63-2.93-1.26,8.38-4.2,15.08-9.67,22.31-16.22-1.24,7.24-1.76,13.47.98,19.58,5.07,11.28,11.34,14.42,23.26,11.21.8-.21,1.62-.33,2.44-.48,2.5.04,4.99.08,5.34-3.32l.31-.02s.11.29.12.29c2.15.24,3.44-.6,3.56-2.88,0,0-.01.02-.01.02,5.41-.85,8.24,1.21,8.94,6.89.64,5.23,1.29,10.81,4.68,15.02,4.65,5.78,3.52,11.4,1.5,17.67-2.31,7.19-1.42,14.1,4.55,19.53,3.19,2.9,3.79,6.34,3.09,10.4-.75,4.38-1.23,8.81-1.69,13.23-.28,2.67.72,5.1,2.93,6.51,3.53,2.26,7.69,3.6,9.91,7.71.29-3.9.54-3.75,3.99-9.47,2.33-3.86,5.21-3.97,8.85-2.91.77.22,1.11-.54,1.46-1.1.65.38,1.3.76,1.94,1.14-.12,2.47-.6,5.37,2.51,6.18,2.56.67,3.42-1.3,3.35-3.63,8.4,3.34,17.13,2.99,25.92,2.46-4.5-2.01-9.06-3.64-13.28-6.22,8.11-1.6,16.36-1.92,22.91-7.46,1.21-1.02,3.15-2.26,2.15-4.03-.94-1.66-2.77-.08-4,.25-10.33,2.84-20.39,2.45-30.64-.91-13.25-4.34-26.02-22.76-19.47-39.51,1.87-4.78,4.95-8.52,8.56-12.86-5.01.26-7.36,3.28-9.57,6-2.34,2.89-4.58,4.89-8.46,3.15-3.22.38-1.15,2.15-.91,3.44-.1.51-.2,1.01-.3,1.52-3.84,1.45-5.92-.43-7.78-3.63-2.07-3.56,1.01-4.68,2.58-6.52,2.28-2.68,4.96-4.73,8.39-5.96,2.95-1.06,5.65-2.66,7.7-5.3,1.61-2.08,6.54-1.47,6.42.65-.17,3.29,1.91,4.49,3.33,6.62,1.08,1.61,1.57,3.42,3.6,4.26,1.77.73,1.97,2.12.95,3.66-1.19,1.78-1.98,3.91-3.88,5.09-2.89,1.81-2.49,3.64-.75,6.18,3.08,4.5,6.18,9.13,7.41,14.51.81,3.55,2.78,4.42,6.01,4.49,3.77.09,7.66-.89,11.29,1.01,11.16,5.86,22.45,7.57,33.94.89,3.63,1.06,5.12-1.67,6.66-3.95,5.92-8.78,7.89-18.94,6.85-28.99-.91-8.77-3.71-17.52-8.81-25.2-5.18-7.8-12.4-12.28-21.49-13.75-6.28-1.01-12.12,2.16-13.51,6.92-1.82-.15-3.01.97-4.37,1.96-1.88,1.36-4.17,2.55-6.45,1.82-3.91-1.24-7.74-2.84-11.45-4.61-2.9-1.38-2.65-4.31-2.48-6.97.19-2.84,2.52-1.95,4.15-2.25,6.71,5.86,11.15,3.72,16.76-4.27,5.58-7.95,10.88-16.18,19.77-21.07,7.84-4.32,15.46-5.37,24.67-3.16,12.4,2.97,21.35,9.6,28.9,19.16,1.95,2.47,2.78,4.97,2.78,8.18,0,7.32,1,14.57,3.54,21.49.58,1.57,1.17,4.25,3.4,3.47,1.94-.68.22-2.78.15-4.28-.41-8.81-.78-17.63-.88-26.44-.3-25.77,3.92-50.86,11.7-75.38.5-1.57,1.27-3.06,1.92-4.58,2.13-.09,2.47-1.94,3.18-3.35,2.31-4.56,4.56-9.14,6.84-13.72,2.68-6.48,6.87-12.09,10.54-17.98,13.9-22.32,29.18-43.51,50.52-59.53,12.09-9.08,24.3-17.96,39.78-20.46-.41,9.95-3.84,19.32-5.5,29.04-1.98,11.62-4.85,23.11-5.51,34.94-2.04.24-2.04,2.09-2.39,3.39-4.76,17.43-9.71,34.79-15.29,51.98-4.53,13.95-10.21,27.31-17.85,39.87-7.35,12.08-15.99,23.22-25.21,33.85-4.46,5.14-8.66,10.91-15.24,13.87,5.39-9.53,10.45-19.2,15.04-29.16,10.34-22.46,15.26-46.51,21.11-70.29,3.22-13.09,6.62-26.13,11.05-38.89,3.45-9.92,7.53-19.57,12.03-29.05.8-1.68,1.78-3.64.29-5.08-1.3-1.26-3.13-.15-4.67.44-3.76,1.45-7.14,3.58-10.37,5.95-27.68,20.21-45.7,47.67-58.21,78.96-10.23,25.6-15.42,52.23-14.06,79.98.45,9.16,1.57,18.15,4.22,26.93-2.4,4.66-7.36,5.91-11.42,8.22-3.07,1.75-3.18,3.29-1.37,5.81,6.25,8.72,10.04,18.59,13.34,28.69-42.15,3.39-71.54,28.86-80.18,69.5-2.73,12.83-1.71,25.49,1.89,38.01-.84.51-1.76.92-2.49,1.54-14.31,12.12-30.7,20.12-49.03,23.8-4.8.96-9.88,2.71-14.96.76,1.46-1.1,2.93-2.18,4.38-3.3,19.76-15.32,25.29-40.75,13.18-62.52-7.6-13.67-19.29-22.14-34.8-25.11-1.35-.26-3.54.69-3.2-2.4.9-7.93.8-15.88-.65-23.76.02-.61.05-1.22.07-1.82Z"/>
    <path class="cls-13" d="m483.23,455.37c-.08.26-.17.52-.27.77-17.5,6.76-35.45,11.56-54.23,13.12-10.22.85-20.38.64-30.61.44-15.07-.29-29.75-2.73-44.12-6.69-20.75-5.71-40.37-14.37-57.59-27.41-8.27-6.26-15.27-14.19-21.41-22.71-.47-.66-1.16-1.16-1.75-1.74,1.04-10.19,2.01-20.36,1.1-30.63-.69-7.78-3.18-15.29-3.16-23.15.79-.73,1.58-1.46,2.37-2.2,1.07-.44,2.27-.69,3.19-1.34,10.22-7.23,21.38-12.64,32.72-17.87,19.25-8.87,39.65-12.58,60.49-14.71.07,8.79.94,17.48,3.15,26-1.69,1.47-1.13,3.46-.87,5.14,1.28,8.41,4.6,16.07,10.67,21.98,18.02,17.51,40.37,20.89,64.11,18.22,11.3-1.27,21.06-6.56,29.28-14.51.83,8.12,1.44,16.27,3.82,24.15-.3.39-.79.74-.86,1.16-2.91,17.65-.85,34.92,3.97,51.98Z"/>
    <path class="cls-13" d="m642.89,375.22c1.46,7.89,1.55,15.83.65,23.76-.35,3.08,1.85,2.14,3.2,2.4,15.51,2.97,27.2,11.44,34.8,25.11,12.11,21.77,6.58,47.2-13.18,62.52-1.44,1.12-2.92,2.2-4.38,3.3-.66.32-1.32.63-1.98.95-.98-1.26-2.39-.92-3.69-1-13.15-.78-25.02-5.38-35.5-13.06-3.98-2.92-6.74-2.85-10.62-.5-19.66,11.94-40.78,17.56-63.8,13.47-12.95-2.31-24.33-7.88-32.95-18.12-3.29-3.91-5.94-8.25-4.38-13.81,7.49,11.06,17.92,18.48,30.84,20.69,18.71,3.21,36.73-.3,53.66-9.13,12.34-6.44,23.8-14.29,35.56-21.66,3.24-2.03,6-4.7,9.78-6.02,9.86-3.42,11.93-2.1,12.13,8.41.07,3.81.01,7.63.01,11.54,5.81-4.91,7.06-22.01,2.32-28.92-4.6-6.7-13.36-10.18-21.22-6.42,3.96,1.1,7.79,2.16,12.31,3.41-3.39,3.14-7.29,3.35-10.37,5.15-5.19.3-10.05,2.15-14.94,3.58-15.64,4.56-31.51,6.24-47.65,4.22-21.41-2.67-40.85-10.43-57.15-24.76-15.85-13.95-27.25-30.4-26.42-52.86.07-2.05.92-4.34-.85-6.19,3.23-6.47,6.28-13.04,9.74-19.39,2.09-3.83,3.82-7.51,2.32-11.94,6.4-9.79,15.02-16.98,25.57-21.97,2.35-1.11,3.83-.46,4.86,1.65,1.52,3.09,2.63,6.3,2.59,9.82-.05,4.21-.01,8.42-.01,14,4.94-6.72,3.56-13.15,4.05-19.22,3.28-2.03,6.92-2.69,10.71-3,20.74-1.68,39.34,4.62,56.27,15.9,16.01,10.66,26.86,25.71,34.09,43.45.74,1.82.53,4.59,3.64,4.62Zm-48.87-11.81c-.51,2.51-.6,5.01-.02,7.52-1.99.1-3.98.35-5.96.29-10.47-.35-18.28,3.74-23.41,13.12-3.13,5.73-2.99,6.25,3.58,7.97,8.69,2.27,16.73-.92,24.98-2.54-.43,3.29.2,5.92,4.06,6.54-1.44,2.36-5.22,2.3-6.08,5.59,6.51-.38,11.61-2.75,17.88-6.72,10.36-6.56,11.45-27.74-2.68-34.91-7.36-3.73-15.03-3.45-22.63-2.7-4.52.44-9.1,2.41-12.6,6.61,4.36.17,7.93-1.57,11.69-1.79,3.76-.21,7.58-.62,11.2,1.02Zm-66.93-37.02c-.35-1.41-.85-2.81-1.01-4.24-.62-5.3-2.81-6.61-6.84-3.43-5.62,4.43-12.48,17.36-7.59,26.9,1.83,3.57,3.78,3.77,6.55.61,5-5.7,8.38-12.08,8.89-19.85Z"/>
    <path class="cls-3" d="m578.02,537.32c1.62-.06,3.24-.13,4.87-.19,5.04,3.24,5.97,3,7.13-1.88.98-.05,1.96-.1,2.94-.15,3.44,3.2,7.87,3.13,12.09,3.46,1.02.08,2.87-.8,2.42-2.46-.36-1.31-1.78-1.81-3.23-1.43-1.72.44-3.6,1.48-4.22-1.38,18.14-3.08,36.13-7.27,54.6-8.12,1.04-.05,1.96-.29,2.48-1.31.96.14,1.93.28,2.89.42.45,2.1-2.72,5.43,2.29,5.97,6,.65,9.15-.81,9.71-4.97,7.18.22,14.12,2.01,21.16,3.16,2.65.43,2.87,1.6,1.24,3.6-2.08,2.56-3.28,5.57-4.13,8.87,3.49-1.82,5.03-5.73,8.57-7.37,1.46-.68,2.73-2.65,4.32-1.96,1.8.77.89,2.98.77,4.46-.25,2.9.91,5.53,1.08,8.32.1,1.57.67,3.41,2.08,3.56,1.91.2,1.8-2,2.05-3.31,2.93-15.01,8.69-28.94,16.11-42.22,2.34-4.19,5.08-8.16,7.64-12.23,11.59,18.75,29.8,24.97,50.41,27.15,11.38,1.21,10.72.48,6.56,10.36-4.29,10.2-9.74,19.66-16.95,27.98-9.17,10.58-21.71,15.52-34.68,19.54-15.83,4.91-32.13,6.05-48.58,6.04-15.11,0-30.23.33-45.3-1.05-4.12-.38-8.24-.76-12.36-1.13-2.11-2.38-1.33-3.97,1.98-4.74-3.59-1.79-7.99-2.75-8.83-1.83-1.92,2.12,1.93,3.53.85,5.64-21.64-2.29-42.71-7.67-63.97-12,1.85-2.46,1.78-4.59-.06-7.34-2.91-4.36-1.16-8.66,3.71-10.6,1.38-.55,2.92-.79,4.17-1.54,3.69-2.22,9.55-2.65,8.17-9.33Z"/>
    <path class="cls-3" d="m348.14,304.15c-8.66,2.72-17.26,5.69-26.02,8.04-3.84,1.03-6.19,4.38-9.95,5.25.07-6.59-3.17-9.15-9.75-9.81-4.85-.49-9.97-2.2-13.46-6.42-.21-4.03-2.9-1.7-4.23-1.36-5.46,1.41-10.36,4.21-15.39,6.68-10.18-11.29-23.58-16.79-37.73-20.96-4.77-1.41-9.58-2.7-14.24-4.39-10.21-3.7-16.36-10.98-18.26-21.7-2.38-13.39-.31-26.73.45-40.1.73-12.88,1.94-25.81-.95-38.61,14.26-6.64,29.17-10.63,44.92-11.54,5.56-.32,11.08-1.82,16.69-.56.86,26.1-2.51,51.76-8.01,77.2-6.39,2.95-13.11,5.18-20.17,9.35,7.17-.03,12.81-2.74,18.78-3.46.41,2.65,1.94,2.17,4.01,1.89,18.8-2.6,37.42-1.52,55.01,5.85,19.99,8.38,33.03,23.34,38.3,44.65Z"/>
    <path class="cls-7" d="m131.22,427.13c8.02,2.06,14.32,7.67,21.88,10.61,7.57,2.94,10.91,8.67,12.93,16.12,1.6,5.9,4.1,11.6,6.71,17.14,1.44,3.05.78,4.71-1.54,6.75-10.12,8.88-16.45,20.04-18.42,33.33-2.21,14.93-.49,29.21,9.28,41.53,2.19,2.76,2.43,4.42-1.52,5.43-10.37,2.65-20.49,1.69-30.26-2.32-15.13-6.2-26.25-16.58-32.41-31.99-1.5-3.75-1.87-7.65-2.45-11.64,4.2,5.17,7.23,11.06,11.61,16.02,5.19,5.88,10.58,11.49,17.23,15.75.96.61,2.03,1.87,3.05.96,1.34-1.2-.1-2.49-.76-3.44-7.41-10.62-15.34-20.88-21.81-32.16-4.54-7.91-9.08-15.81-15.44-22.57-8.93-9.5-20.12-14.44-32.46-17.37-.96-.23-2.01-.13-2.66-1.09.02-1.82,1.55-1.86,2.73-2.35,12.16-5.06,24.59-8.71,38-7.67,1.21.09,2.93.7,3.62-.73.72-1.51-.91-2.38-1.85-3.12-5.99-4.71-12.05-9.36-20.03-10.12-1.28-.12-2.31-.34-2.38-1.88,1.48-.15,2.99-.15,4.43-.46,11.5-2.5,22.95-2.23,34.27.82,5.28,1.42,10.42,3.39,16.05,5.25-2.14-8.46-6.99-14.84-10.85-21.71l-.02.02c6.41,2.12,11.25,6.63,16.3,10.8,2.4,1.99,4.75,3.95,9,5.58-4.73-6-8.48-10.76-12.23-15.52Z"/>
    <path class="cls-3" d="m686.17,390.73c-.35.56-.69,1.33-1.46,1.1-3.64-1.06-6.53-.94-8.85,2.91-3.45,5.72-3.71,5.57-3.99,9.47-2.22-4.11-6.37-5.45-9.91-7.71-2.2-1.41-3.21-3.84-2.93-6.51.46-4.42.94-8.85,1.69-13.23.7-4.06.1-7.51-3.09-10.4-5.97-5.43-6.86-12.34-4.55-19.53,2.01-6.27,3.15-11.89-1.5-17.67-3.39-4.21-4.04-9.79-4.68-15.02-.7-5.68-3.53-7.74-8.94-6.89,1.57-1.83,3.14-3.65,5.31-6.18-6.42.9-11.25,5.33-17.27,4.08-2.47-2.93-3.42-6.51-4.73-10.03-1.81-4.87-2.58-10.31-6.47-14.26.21-1.73,2.27-2.62,2.08-4.54,4.41-1.31,10.64.23,11.16-7.15,1.6-.41,3.21-.83,4.81-1.24,3.22,4.23,7.32,2.63,11.02,1.27,3.67-1.35,1.54-4.34,1.13-6.75.77-.26,1.53-.57,2.32-.78,7.6-2.05,15.6-.3,18.35,4.91,2.27,4.29,4.59,3.86,7.78,1.74.46.97.51,2.93,1.88,2.39,3.56-1.4,4.15,1.52,6.02,3.14,2.17,1.88,2.65,7.5,7.72,4.37,1.8,4.43,3.23,9.04,6.12,12.96-1.63.3-3.96-.59-4.15,2.25-.18,2.66-.43,5.58,2.48,6.97,3.71,1.77,7.54,3.36,11.45,4.61,2.28.72,4.57-.46,6.45-1.82,1.36-.99,2.55-2.11,4.37-1.96.43,1.28.86,2.56,1.29,3.84-.51,1.16-2.26,1.55-1.91,3.25,1.05,5.11-.93,10.07-.89,15.05.06,8.58.88,13.5,11.58,12.78,4.1-.28,8.17-1.13,12.32-.91,2.31.12,3.42-1.29,3.57-3.28.17-2.2-1.58-2.42-3.33-2.76-5.83-1.13-7.43-3.18-7.44-9.12,0-1.99.02-3.98.03-5.97,8.02,5.49,12.13,13.5,14.12,22.68,2.11,9.71.48,19.6.96,29.4-11.5,6.68-22.78,4.97-33.94-.89-3.63-1.9-7.52-.92-11.29-1.01-3.24-.07-5.2-.94-6.01-4.49-1.23-5.39-4.33-10.02-7.41-14.51-1.74-2.54-2.14-4.37.75-6.18,1.9-1.18,2.69-3.32,3.88-5.09,1.03-1.54.82-2.92-.95-3.66-2.03-.84-2.52-2.65-3.6-4.26-1.42-2.12-3.5-3.33-3.33-6.62.11-2.12-4.81-2.73-6.42-.65-2.05,2.64-4.75,4.24-7.7,5.3-3.42,1.22-6.11,3.28-8.39,5.96-1.57,1.84-4.65,2.96-2.58,6.52,1.86,3.2,3.94,5.08,7.78,3.63-5.44,21.36.67,38.3,19.29,50.47Zm23.97-42.87c-.77-2.09,1.19-5.51-2-5.88-2.21-.25-2.1,2.8-2.14,4.73-.06,2.36.19,5.63,2.53,5.76,2.83.16.7-3.12,1.62-4.62Zm-16.31-25c-.71.31-.83.93-.76,1.58.07.61.11,1.46,1.04,1.26.73-.16.85-.9.77-1.55-.08-.61-.1-1.36-1.05-1.29Z"/>
    <path class="cls-10" d="m127.17,227.78c-4.81,8.44-11.99,14.97-18.21,22.26-8.75,10.25-17.79,20.24-26.71,30.34-2.52-1.67-4.35-3.98-6.25-6.3-6.6-8.09-13.64-15.72-21.71-22.44-8.82-7.35-16.26-15.75-16.14-28.32,0-.99,0-1.97,0-2.96,1.36-.1,1.82-1.27,2.61-2.1,6.3-6.63,12.51-13.36,19.81-18.94,14.89-11.38,29.03-11.92,41.41-1.73,8.14,6.7,15.11,14.45,21.33,22.91,1.63,2.22,4.12,4.03,3.86,7.27Z"/>
    <path class="cls-11" d="m797.92,206.27c-5.19,16.15-7.37,32.84-9.01,49.63-.21,2.14-.63,4.26-.95,6.38-1.42-1.82-2.69-3.78-4.27-5.44-5.21-5.5-9.74-11.89-17.81-13.74-10.92-2.5-20.96.52-30.88,4.65-11.12,4.64-19.25,13.36-28.52,20.55-.87.67-1.54,2.13-2.86,1.35-.94-.56-.74-1.85-.35-2.75,1.44-3.33-.46-3.71-3.03-3.62-1.5.05-2.99.06-4.49.09,1.08-14.1,7.24-25.67,18.23-35.61-7.48-1.33-14.2.15-20.9,1.07-5.41.75-10.7,2.34-16.21,2.42-1.78.02-3.87.39-4.72-1.82-.8-2.06.53-3.51,1.92-4.75,8.55-7.61,18.36-12.43,29.9-13.36,1.81-.15,3.69.02,5.92-1.8-8.81-5.82-18.81-5.57-28.75-6.83,1.72-2.46,3.47-3.47,5.76-3.57.6,2.94,3.02,2.31,4.78,2.07,11.24-1.54,22.24-.08,33.27,2.06,6.94,1.35,13.4,4.64,20.56,4.99,3.49,1.08,5.28,4.8,10.15,6.32-5.48-14.3-14.22-24.81-24.74-34.07.75-1.31,1.82-1.2,3.01-.73,4.32,1.71,8.75,3.11,12.73,5.64,10.83,6.88,19.74,15.64,26.72,26.42,1.15,1.78,1.72,4.61,4.83,4.42,1.29,3.38,2.58,6.76,4.1,10.74,3.03-4.95,3.14-10.04,3.66-14.96.87-8.25,1.05-16.53.34-24.81,4.61,3.5,5.19,9.25,7.76,13.89,1.05,1.89.94,4.69,3.88,5.17Zm-111.92,15.06c-.18.17-.36.33-.53.5.23.09.45.19.68.28,7.62-1.87,15.2-.46,22.7.64,8.39,1.23,16.66,4.07,25.44.8-1.04-1.28-2.44-1.71-3.8-2.19-7.25-2.56-14.78-3.72-22.41-3.92-7.59-.21-15.29-.6-22.08,3.9Zm50.47,10.7c-14.47,1.37-30.26,15.99-28.36,26.7,6.91-12.14,17.05-20.06,28.36-26.7Zm-30.13,27.95c-.05.12-.09.24-.14.36.18.02.36.03.54.05-.03-.13-.02-.28-.09-.37-.04-.06-.2-.03-.31-.04Z"/>
    <path class="cls-4" d="m639.62,193.71c-11.75-28.46-15.12-58-11.41-88.46,1.52-.18,1.62-1.28,1.8-2.51.88-6.03,2.11-12.05,3.49-17.94,3.91-16.63,10.49-32.35,19.02-47.13,3.17-5.5,6.16-11.39,11.44-15.44.33,2.12-.99,5.19,2.16,5.83,4.8.98,5.72,4.15,5.9,8.27.17,3.91,1.86,6.91,5.97,7.98.71.5.87,1.2.72,2-.76.24-2.13.36-2.2.72-.88,4.58-4.31,4.34-7.7,4.28-1.66-.03-3.36-.16-4.99.07-4.96.7-7.76,6.24-4.27,9.52,6.12,5.75,9.34,13.23,13.87,19.93,2.04,3.02,4.34,5.63,5.14,9.44,1.79,8.57,4.06,17.03,6.08,25.55.26,1.1.35,2.34.14,3.44-1.57,8-1.63,15.95,1.95,23.4,3.66,7.62,5.8,15.45,6.54,23.92.37,4.23,3.84,8.31,8.07,9.33,3.53.85,8.26,3.18,11.38-1.63.3,5.04,5.31,5.87,8.02,8.71,3.2,3.36,7.86,5.28,10.91,10.48-6.95-1.37-12.71-3.27-18.6-4.48-5.81-1.19-11.22-.32-16.59.77-3.07.62-4.23-.1-5.39-2.46-5.45-11.16-10.52-22.47-15.37-33.91-6.27-14.81-10.63-30.09-14.03-45.69-1.53-7.05-2.36-14.25-3.51-21.39,2.68-2.97,2.67-12.07-.02-14.99-.04-.66-.11-1.32-.13-1.99-.04-1.55-.2-3.15-1.94-3.66-2.11-.63-3.04,1.11-3.76,2.53-4,7.86-7.79,15.83-10.08,24.4-4.95,18.53-6.04,37.52-4.97,56.46.71,12.64,3.77,25.16,7.71,37.32.41,1.25.62,2.57.93,3.86-2.92-.36-4.5,1.71-6.27,3.45Z"/>
    <path class="cls-10" d="m259.3,161.01c-15.29-.1-30.49.6-45.21,5.32-5.66,1.82-11.26,3.85-16.89,5.79-.39-9.63-4.8-18.15-7.8-27.01-3.62-10.69-7.47-21.21-6.25-32.77.07-.15.14-.3.2-.46-.08.14-.17.27-.25.41-4.31.3-7.6,3-11.25,4.84-10.03,5.05-17.39,13.5-25.98,20.39,1.9-8.33,7.75-13.76,14.04-18.76,7.55-6.01,15.43-11.51,25.16-13.5.85,1.5-1.1,3.1.22,4.84,7.61-3.59,15.7-5.43,23.94-6.39,19.26-2.25,32.32,1.03,41.18,22.69,4.57,11.16,7.13,22.77,8.88,34.62Z"/>
    <path class="cls-2" d="m831.78,296.2c6.58-2.96,10.78-8.73,15.24-13.87,9.22-10.63,17.85-21.77,25.21-33.85,7.64-12.56,13.33-25.91,17.85-39.87,5.58-17.19,10.53-34.55,15.29-51.98.35-1.29.35-3.15,2.39-3.39.25,7.51-1.07,14.9-1.87,22.31-1.65,15.16-3.43,30.31-6.92,45.19-6.71,28.59-16.45,55.82-35.99,78.52-12.18,14.15-26.29,25.87-43.38,33.71-4.51,2.07-9.42,2.79-14.45,3.78,1.19,4.18,4.92,3.88,7.69,4.38,2.84.52,4.03,1.47,4.12,4.38.11,3.47.65,6.93,1.02,10.39.42,3.9-1.19,5.19-4.92,3.93-1.4-.47-2.87-.75-4.31-1.12-3.3-10.1-7.09-19.97-13.34-28.69-1.8-2.51-1.7-4.06,1.37-5.81,4.05-2.31,9.01-3.56,11.42-8.22,2.19-.1,3.59-1.66,5.08-2.9,6.27-5.2,12.24-10.72,17.67-16.81.39.7.72.75.97-.09h-.13Z"/>
    <path class="cls-2" d="m198.6,180.77c2.89,12.81,1.68,25.73.95,38.61-.75,13.37-2.82,26.71-.45,40.1,1.9,10.72,8.06,18,18.26,21.7,4.67,1.69,9.48,2.99,14.24,4.39,14.14,4.17,27.54,9.66,37.73,20.96-4.43,3.48-9.41,6.27-13.35,10.37-2.28,2.36-3.08.08-4.12-1.18-10.93-13.28-24.89-21.26-41.88-23.86-8.1-1.24-16.26-1.09-24.35-.05-3.85.5-5.45.89-4.97-4.3.96-10.56-.11-21.13-1.06-31.75-1.67-18.64-5.86-36.65-11.05-54.5-.52-1.78.08-2.81,1.34-3.85,8.67-7.1,17.95-13.13,28.7-16.65Z"/>
    <path class="cls-15" d="m864.11,375.18c4.27,5.67,6.02,12.46,8.4,18.97.67,1.83-.67,2.92-1.81,3.74-9.74,6.98-11.35,16.29-11.21,27.98.34,26.42-11.64,46.98-35.2,59.65-10.93,5.88-22.69,7.05-34.27.86-1.45-.77-3.05-1.36-3.94-2.9.04-2.27-1.07-4.16-2.09-6.05-9.65-17.98-6.23-35.25,3.22-51.95,8.7-15.36,22.69-23.56,39.28-28.25,9.08-2.57,17.7-6.28,25.45-12.06,4.23-3.16,6.88-8.18,12.16-9.98Zm-75.17,79.2c.14,18.1,14.79,29.03,32.42,21.54,16.05-6.82,29.73-28.01,28.69-45.53-.62-10.52-4.85-16.46-12.81-18.75-5.94-1.7-12.35-1.6-18.38.5-16.26,5.66-29.88,24.99-29.92,42.24Z"/>
    <path class="cls-10" d="m471.09,354.3c-4.76,11.23-13.77,17.15-25.13,20.14.63-1.89,1.03-3.88,1.93-5.63,1.64-3.19.19-3.74-2.6-3.57-4.16.26-8.25-.26-12.35-1.01-21.4-3.92-33.56-18.62-32.77-40.14.24-6.45,2.2-12.67,3.86-18.9,15.05-3.54,29.62-1.37,43.84,3.96,3.97,1.49,8.23,2.61,11.2,6.03.12,16.38,1.53,32.96-6.98,48.09-.14.12-.29.24-.43.37.09-.02.21-.01.25-.07.07-.09.1-.23.14-.34,3.26-.13,5.99-1.77,8.91-2.95,3.7-1.5,6.18-4.99,10.15-5.99Z"/>
    <path class="cls-7" d="m38.15,223.31c-.12,12.57,7.33,20.97,16.14,28.32,8.07,6.72,15.11,14.35,21.71,22.44,1.9,2.32,3.73,4.63,6.25,6.3-7.72,9.53-15.48,19.03-23.13,28.62-1.12,1.4-1.71,2.17-3.27.48-7.63-8.25-17.05-14.36-25.8-21.27-4.11-3.24-8.42-6.24-12.62-9.38-3.83-2.87-4.9-7.29-6.35-11.49,3.24-.81,3.46-3.77,4.23-6.19,4.09-12.87,11.49-23.88,19.29-34.66.89-1.23,1.47-3.14,3.55-3.18Z"/>
    <path class="cls-7" d="m209.68,567.23c-10.02-.36-22.79-3.33-33.81-11.72-16.29-12.41-21.93-33.84-14.25-53.26,2.78-7.03,6.25-13.62,11.85-18.82.98-.91,1.66-3.58,3.71-1.9,1.52,1.24,2.55,3.2,1.82,5.37-.41,1.24-1.18,2.36-1.77,3.54-7.46,14.84,1.59,32.06,12.98,40.8,9.67,7.43,20.56,9.75,32.44,7.23,2.42-.51,4.18.46,5.99,1.71,6.57,4.53,13.06,9.18,19.75,13.52,3.23,2.09,3.07,3.22-.19,5.01-8.9,4.92-23.23,8.53-38.54,8.52Z"/>
    <path class="cls-3" d="m712.71,174.31c-3.12,4.81-7.85,2.48-11.38,1.63-4.23-1.02-7.7-5.1-8.07-9.33-.75-8.47-2.89-16.3-6.54-23.92-3.58-7.45-3.51-15.4-1.95-23.4.22-1.1.12-2.34-.14-3.44-2.01-8.52-4.29-16.99-6.08-25.55-.8-3.81-3.09-6.41-5.14-9.44-4.53-6.7-7.75-14.18-13.87-19.93-3.49-3.28-.69-8.82,4.27-9.52,1.63-.23,3.33-.1,4.99-.07,3.39.06,6.81.3,7.7-4.28.07-.37,1.44-.49,2.2-.72,2.43,16.22,9.09,30.99,15.61,45.83,8.61,19.59,19.13,38.33,25.96,58.7,1.48,4.4,2.41,8.99,4.02,13.33,1.14,3.07.02,4.1-2.7,4.9-3.35.99-6.55,2.43-8.91,5.21Z"/>
    <path class="cls-7" d="m183.16,112.34c-1.22,11.56,2.63,22.08,6.25,32.77,3,8.86,7.4,17.38,7.8,27.01-10.57,4.8-21.11,9.68-30.29,16.96-1.75,1.39-2.66.83-3.33-.89-5.2-13.47-12.98-25.79-17.72-39.46-1.27-3.65-1.31-7.47.01-11.2,8.59-6.88,15.95-15.34,25.98-20.39,3.65-1.84,6.94-4.54,11.25-4.84l.05.05Z"/>
    <path class="cls-15" d="m898.06,259.33c1-2.6,1.99-5.2,3.25-8.46,7.1,10.54,11.42,21.34,12.76,33.27.48,4.25,1.12,8.53,1.08,12.79-.31,33.51-10.72,63.39-32.35,89.19-.52.62-1.1,1.18-1.96,2.1-3.43-7.06-6.72-13.82-10-20.58.25-.78.28-1.74.77-2.32,12-14.44,19.32-31.25,25.2-48.86,6.32-18.94,6.71-37.95,1.26-57.12Z"/>
    <path class="cls-3" d="m481.13,318.29c-.2,1.91.33,3.97-1.08,5.65-.38-.13-.79-.14-.94-.34-10.7-14.2-25.16-22.12-42.42-25.23-7.53-1.35-15.12-1.97-22.8-1.18-2.26.23-4.58-.23-6.88-.37,2.14-9.63,6.39-18.49,10.05-27.57.85-1.23,2.32-1.37,3.53-1.62,17.06-3.57,32.18.64,45.22,12.01,8.01,6.99,11,16.66,13.33,26.64.93,3.98.02,8.23,1.99,12.01Z"/>
    <path class="cls-1" d="m511.05,460.24c-1.56,5.56,1.09,9.9,4.38,13.81,8.62,10.25,20,15.82,32.95,18.12,23.03,4.1,44.14-1.52,63.8-13.47,3.88-2.35,6.64-2.42,10.62.5,10.48,7.68,22.35,12.28,35.5,13.06,1.29.08,2.71-.26,3.69,1-7.66,6.35-16.9,9.04-26.3,11.35-12.81.88-23.73-5.73-36-8.46,2.59-3.92,7.06-4.61,9.3-7.93.46-.22.92-.44,1.38-.67.45-.25,1.49-.22,1.01-.98-.32-.5-1.15-.13-1.44.59-.56.17-1.49.04-.85,1.12-1.48-.89-2.51.3-3.61.85-10.53,5.32-21.66,9.32-33.26,10.75-10.93,1.35-21.98.56-32.68-3.38-21.57-7.93-34.35-23.16-39.52-45.33-1.45-6.23-.75-12.34-.76-18.91,4.48,1.43,5.76,3.83,5.98,8.12.35,6.93,3.13,13.44,5.81,19.84Z"/>
    <path class="cls-7" d="m404.02,305.2c-1.66,6.23-3.62,12.45-3.86,18.9-.79,21.52,11.38,36.22,32.77,40.14,4.1.75,8.19,1.27,12.35,1.01,2.8-.17,4.25.37,2.6,3.57-.9,1.75-1.3,3.74-1.93,5.63-25.5,7.17-59.75-6.28-66.31-36.19-1.5-6.85-.7-13.92-.34-20.89.09-1.82,1.14-3.57,2.85-4.5,6.87-3.74,13.78-7.41,21.87-7.67Z"/>
    <path class="cls-15" d="m753,483.19c-6.32-3.05-10.1-8.57-12.96-14.52-5.51-11.46-7.18-23.48-4.93-36.23,3.78-21.41,13.95-39.13,30.76-52.5,17.88-14.22,37.96-19.51,60.22-10.63.02.45.04.9.06,1.34-32.95-.63-55.74,15.42-71.03,43.53-4.87,8.96-7.29,18.73-9.14,28.75-2.67,14.42,1.04,27.5,6.95,40.31l.07-.06Z"/>
    <path class="cls-2" d="m635.69,504.61c9.4-2.31,18.64-5,26.3-11.35.66-.32,1.32-.63,1.98-.95,5.08,1.95,10.17.2,14.96-.76,18.32-3.67,34.71-11.67,49.03-23.8.74-.62,1.66-1.03,2.49-1.54,4.67,5.84,4.8,11.4-.69,16.92-1.61,1.62-2.93,3.7-3.84,5.8-3.79,8.77-11.58,12.05-19.69,15.46-20.59,8.66-41.37,8.02-62.43,2.38-2.71-.72-5.6-.76-8.12-2.16Z"/>
    <path class="cls-1" d="m489.06,361.28c1.76,1.85.92,4.14.85,6.19-.82,22.45,10.57,38.91,26.42,52.86,16.3,14.34,35.74,22.09,57.15,24.76,16.13,2.01,32.01.33,47.65-4.22,4.9-1.43,9.75-3.27,14.94-3.58-5.2,4.44-11.63,6.49-17.83,8.84-17.74,6.72-36.43,8-54.86,5.82-26-3.08-48.98-13.49-65.51-34.9-11.08-14.34-15.36-30.8-13.6-48.83,3.14-1.24,3-4.75,4.78-6.93Z"/>
    <path class="cls-13" d="m655.08,195.26c-4.49-8.38-5.96-17.65-8.23-26.74-4.18-16.67-3.34-33.54-2.65-50.33.43-10.34,2.73-20.61,7.38-31.71,1.22,11.57,3.37,21.52,5.45,31.49,1.27,6.09,2.82,12.09,4.72,18.02.65,2.03.86,4.21,1.28,6.32-1.59,1.29-1.11,3.11-.9,4.65.71,5.24,1.48,10.47,2.53,15.65,1.55,7.67,3.37,15.29,5.33,24.09-4.11-4.38-6.66-8.75-11.7-11.55,1.36,8.52,5.27,15.72,6.3,23.84-3.84-.41-5.85-4.14-9.5-3.71Z"/>
    <path class="cls-12" d="m754.68,435.8c6.06-35.38,41.68-66.25,80.15-56.81-6.49,5.09-14.19,6.46-21.55,8.44-12.97,3.5-23.33,10.84-31.74,20.98-12.38,14.93-18.11,32.14-16.53,51.59.2,2.44.97,4.84,1.48,7.25-1.88-.6-2.69-2.06-3.63-3.74-4.82-8.65-7.71-17.81-8.17-27.72Z"/>
    <path class="cls-4" d="m689.07,278.24c-5.07,3.13-5.55-2.49-7.72-4.37-1.86-1.62-2.45-4.54-6.02-3.14-1.37.54-1.42-1.42-1.88-2.39,1.64-1.98,3.62-3.55,3.62-6.68.02-8.05-1.13-9.57-11.09-12.55-2.91-2.67-9.33-2.61-11.99.13-8.08,1.85-14.51,6.56-20.38,12.06-2.34,2.19-5.15,4.25-5.57,7.88-.51,7.39-6.75,5.84-11.16,7.15-5.32.59-6.7,5.76-10.12,9.2-2.37-6.56,1.21-10.68,5.02-14.12,11.23-10.16,23.67-18.75,36.42-26.89,5.45-3.48,11.55-5.4,17.5-7.74,3.11-1.23,4.49,1.74,7.21,1.72,6.87-.07,13.48-1.43,20.11-2.76,1.5-.3,3.23-.99,4.28-.07,1.44,1.26-.25,2.71-.84,3.88-6.08,12.22-8.61,25.09-7.4,38.7Z"/>
    <path class="cls-12" d="m864.11,375.18c-5.28,1.8-7.93,6.83-12.16,9.98-7.75,5.78-16.36,9.49-25.45,12.06-16.59,4.7-30.58,12.89-39.28,28.25-9.46,16.7-12.88,33.97-3.22,51.95,1.02,1.9,2.13,3.78,2.09,6.05-8.52-5.89-12.23-14.68-14.05-24.32-5.17-27.49,16.81-59.47,44.36-65.84,15.81-3.65,28.65-11.94,39.48-23.62,2.71-2.92,4.08-2.37,5.63.7.82,1.62,1.74,3.19,2.61,4.78Z"/>
    <path class="cls-4" d="m288.96,301.21c3.49,4.22,8.61,5.93,13.46,6.42,6.59.66,9.82,3.22,9.75,9.81-8.78,5.4-17.36,11.08-24.37,18.75-.75.82-3.14,1.18-1.74,3.27-3.46,3.8-8.09,6.46-10.79,11.01-.4-1.24-.86-2.45-1.18-3.71-2.58-10.13-3.68-20.6-7.03-30.56,6.65-5.95,13.91-11,21.9-15Z"/>
    <path class="cls-1" d="m476.3,378.08c-8.22,7.95-17.98,13.24-29.28,14.51-23.74,2.67-46.09-.71-64.11-18.22-6.07-5.9-9.4-13.57-10.67-21.98-.26-1.68-.81-3.67.87-5.14,7.24,16.22,19.26,27.71,35.79,33.75,24.57,8.97,51.04,3.52,66.7-18.79.17-.25.49-.4,1.67-1.35-.35,6.25-.66,11.73-.96,17.21Z"/>
    <path class="cls-7" d="m695.73,263.37c1.5-.03,2.99-.03,4.49-.09,2.57-.09,4.48.28,3.03,3.62-.39.9-.59,2.19.35,2.75,1.32.78,2-.68,2.86-1.35,9.26-7.18,17.4-15.91,28.52-20.55,9.92-4.14,19.96-7.16,30.88-4.65,8.07,1.85,12.6,8.23,17.81,13.74,1.58,1.67,2.86,3.62,4.27,5.44v11.28c-.35.22-.7.43-1.06.65-7.96-10.32-18.32-16.59-31.26-19.19,2.15-2.47,5.03-1.7,7.33-2.42,2.21-.69,4.74-.39,7.14-1.01-5.76-3.37-12.02-2.83-18.06-1.75-20.17,3.61-33.95,16.26-45.13,32.5-1.43,2.08-2.18,5.76-5.11,5.49-3.07-.29-3.71-3.97-4.76-6.48-2.42-5.8-3.02-11.83-1.31-17.97Z"/>
    <path class="cls-6" d="m266.97,384.17c-2.58-8.35-4.8-16.83-7.82-25.03-6.12-16.63-15.02-31.43-30.16-41.53-8.73-5.83-18.53-8.44-28.97-9.44-13.8-1.33-26.55,1.47-38.68,7.94-1.3.69-4.77,3.89-3.23-1.66,6.38-5.82,12.97-11.49,21.66-13.33,33.78-7.14,66.42,7.83,79.46,43.74,4.63,12.76,7.81,25.68,7.74,39.31Z"/>
    <path class="cls-8" d="m275.27,350.48c2.69-4.56,7.33-7.21,10.79-11.01,8.64-4.83,17.13-9.96,25.95-14.43,12.72-6.43,26.22-10.57,40.33-12.86,6.33-1.03,12.59-2.26,19.26-1.84-.99,3.68.51,7.54-1.65,10.91-20.83,2.13-41.23,5.83-60.49,14.71-11.34,5.23-22.5,10.64-32.72,17.87-.92.65-2.12.9-3.19,1.34.78-1.49.16-3.49,1.71-4.69Z"/>
    <path class="cls-8" d="m642.89,375.22c-3.11-.03-2.9-2.8-3.64-4.62-7.23-17.74-18.08-32.79-34.09-43.45-16.93-11.28-35.53-17.57-56.27-15.9-3.79.31-7.43.97-10.71,3,.3-2.41-.36-4.95-1.69-6.56-2.76-3.32-.01-3.64,1.9-4.11,9.95-2.44,20.09-2.07,29.96-.18,19.54,3.74,37.03,11.86,50.81,26.73,11.11,11.98,18.67,25.94,22.86,41.72.18.66.23,1.27.94,1.56-.02.61-.05,1.22-.07,1.82Z"/>
    <path class="cls-1" d="m655.08,195.26c3.65-.43,5.66,3.31,9.5,3.71-1.04-8.11-4.95-15.31-6.3-23.84,5.05,2.8,7.59,7.17,11.7,11.55-1.96-8.8-3.77-16.42-5.33-24.09-1.05-5.18-1.82-10.41-2.53-15.65-.21-1.54-.69-3.36.9-4.65,2.37,1.93,2.51,4.93,3.43,7.49,4.87,13.6,11.25,26.49,18.11,39.15,1.49,2.75,1.21,3.85-1.79,4.94-4.75,1.72-8.74,4.75-11.84,8.8-2.84,3.71-2.4,5.32,2.05,6.02,3.69.58,7.22,2.05,11.17,2.06-5.46,3.17-11.06,5.99-15.73,10.66-5.82-8.22-10.69-16.61-13.36-26.15Z"/>
    <path class="cls-12" d="m898.06,259.33c5.45,19.17,5.06,38.18-1.26,57.12-5.88,17.6-13.2,34.42-25.2,48.86-.48.58-.52,1.54-.77,2.32-6.2-6.39-6.07-6.3-1.13-13.46,11.53-16.72,20.06-34.88,23.65-54.91,1.76-9.8,2.69-19.87.76-29.98-.69-3.65,2.4-6.69,3.94-9.94Z"/>
    <path class="cls-6" d="m348.14,304.15c-5.27-21.31-18.31-36.27-38.3-44.65-17.59-7.37-36.21-8.45-55.01-5.85-2.07.29-3.6.76-4.01-1.89,11.96-2.56,24-4.16,36.27-3.14.38.19.76.38,1.14.58,30.95,1.69,57.18,16.72,67.51,49.18,1.05,3.3.6,4.58-2.72,4.95-1.64.19-3.25.54-4.88.82Z"/>
    <path class="cls-6" d="m481.13,318.29c-1.98-3.78-1.06-8.03-1.99-12.01-2.33-9.98-5.32-19.65-13.33-26.64-13.04-11.38-28.15-15.58-45.22-12.01-1.21.25-2.68.39-3.53,1.62-2.63.73-5.27,1.46-7.9,2.19-.37-.4-.73-.8-1.1-1.2,15.92-9.77,32.82-12.16,50.97-7.47,17.85,4.61,33.27,13.52,47.28,25.2-1.58.64-2.79-.06-4.11-.91-3.32-2.13-6.6-4.42-10.15-6.08-5.28-2.47-9.85-6.81-16.23-6.57-.82-.47-1.64-.95-2.47-1.42-.36-.13-.73-.27-1.09-.4.03.39.06.79.08,1.18,4.22,10.74,8.51,21.46,9.36,33.14.28,3.8.67,7.64-.56,11.38Z"/>
    <path class="cls-1" d="m127.17,227.78c.27-3.24-2.22-5.06-3.86-7.27-6.22-8.46-13.19-16.21-21.33-22.91-12.38-10.2-26.52-9.66-41.41,1.73-7.3,5.58-13.52,12.31-19.81,18.94-.79.83-1.25,2-2.61,2.1.08-2.29.17-4.57.25-6.86,8.43-10.97,18.38-20.22,31.08-25.99,11.96-5.43,23.52-4.63,34.42,3.22,10.99,7.92,19.27,18.32,26.92,29.26,2.82,4.04-1.71,5.52-3.65,7.8Z"/>
    <path class="cls-1" d="m259.3,161.01c-1.76-11.85-4.32-23.46-8.88-34.62-8.86-21.66-21.92-24.93-41.18-22.69-8.24.96-16.33,2.8-23.94,6.39-1.32-1.74.63-3.34-.22-4.84,3.46-2.92,7.9-3.35,11.99-4.53,9.23-2.64,18.76-2.94,28.22-2.12,12.9,1.12,22.12,7.98,28.13,19.4,6.5,12.37,9.18,25.84,11.57,39.4.26,1.47,1.26,3.57-.66,4.51-1.62.79-3.58.68-5.03-.91Z"/>
    <path class="cls-6" d="m158.03,312.21c-1.91-9.35-3.58-18.76-5.79-28.03-3.76-15.74-9.76-30.68-17.18-45.04-.74-1.44-1.95-2.63-2.94-3.94,1.13-2.23,2.63-4.16,4.88-5.94,7.33,11.31,13.25,23.18,18.06,35.6,3.08,7.96,5.2,16.22,7.6,24.4,1.89,6.44,2.52,12.21-2.33,17.66-1.23,1.38-2.5,3.12-2.3,5.3Z"/>
    <path class="cls-6" d="m918.77,89.27c-15.48,2.5-27.69,11.38-39.78,20.46-21.34,16.02-36.61,37.22-50.52,59.53-3.67,5.89-7.86,11.5-10.54,17.98-1,.1-1.71-.34-2.17-1.2,8.63-19.98,20.56-37.85,34.49-54.49,12.15-14.5,25.49-27.62,41.9-37.31,7.23-4.27,14.66-7.94,23.46-6.84,1.3.16,3.27-.71,3.16,1.87Z"/>
    <path class="cls-2" d="m131.22,427.13c3.75,4.76,7.5,9.51,12.23,15.52-4.25-1.63-6.6-3.6-9-5.58-5.04-4.17-9.89-8.68-16.3-10.8-.13-.08-.26-.17-.39-.25.14.08.27.16.41.24,3.86,6.87,8.71,13.25,10.85,21.71-5.63-1.86-10.76-3.83-16.05-5.25-11.32-3.05-22.77-3.32-34.27-.82-1.44.31-2.95.32-4.43.46-1.71-.83-3.49-1.59-3.09-4.03,15.5-4.82,30.93-4.59,47.14.98-1.06-5.38-4.29-9.12-6.66-13.23-2.4-4.17-5.77-7.6-8.83-11.44,10.69,1.5,19.88,6.24,28.39,12.5Z"/>
    <path class="cls-1" d="m452.08,363.28c8.51-15.13,7.1-31.7,6.98-48.09,7.68,4.19,12.69,10.88,17.1,18.17,1.54,2.55,1.08,5.1.37,7.67-1.28,4.63-2.58,9.28-5.44,13.27-3.96,1-6.45,4.48-10.15,5.99-2.92,1.18-5.65,2.82-8.91,2.95l.04.04Z"/>
    <path class="cls-15" d="m622.35,253.92c-8.05,7.52-16.32,13.83-22.89,21.99-5.67,7.05-12.73,12.62-20.49,17.25-1.02.61-2.23,1.99-3.49.62-.8-.87-.55-2.17-.13-3.32,4.4-11.88,10.61-22.5,20.99-30.24,5.2-3.88,10.91-6.31,17.5-5.95,2.68.15,5.21-2.19,8.5-.35Z"/>
    <path class="cls-2" d="m556.2,475.28c-5.8-.06-11.55-.43-17.13-2.29-2.81-.94-3.7-2.07-1.13-4.28.13-.11.24-.23.35-.36,6.54-8.1,13.95-12.82,25.01-8.51,4.52,1.76,9.78,1.56,14.69,2.34,1.45.23,2.94.58,4.26,1.21,1.55.74,2.67,2.06,2.69,3.91.03,1.96-1.72,2.26-3.03,2.83-8.2,3.54-16.77,5.25-25.7,5.16Z"/>
    <path class="cls-4" d="m475.8,274.41c6.38-.24,10.95,4.1,16.23,6.57,3.56,1.66,6.83,3.95,10.15,6.08,1.32.85,2.53,1.55,4.11.91,0,0-.11.1-.12.1-.14,3.05,1.87,3.27,4.14,3.15.59.5,1.18,1,1.77,1.5.19,1.06-.36,2.98,1.9,1.65q8.53,6.46.05,12.03c-1.63,1.07-3.31,2.06-4.97,3.08-.5-.64-.86-1.58-1.51-1.87-8.68-3.76-15.67-9.76-22.16-16.46-2.55-5.96-5.91-11.44-9.61-16.74Z"/>
    <path class="cls-15" d="m754.68,435.8c.46,9.91,3.35,19.07,8.17,27.72.93,1.68,1.75,3.13,3.63,3.74,2.96,7.07,5.99,14.02,11.86,19.41,5.37,4.93,11.66,7.92,19.08,10.2-22.44,1.44-36.32-7.15-42.55-27.22-3.42-11.01-3.81-22.54-.19-33.85Z"/>
    <path class="cls-1" d="m483.23,455.37c-4.81-17.06-6.88-34.33-3.97-51.98.07-.42.56-.78.86-1.16,4.33,7.73,7.7,16.03,13.44,22.95.33.4.38,1.34.16,1.84-3.6,8.21-2.9,16.68-1.59,25.19-2.97,1.05-5.94,2.11-8.9,3.16Z"/>
    <path class="cls-2" d="m409.15,271.43c2.63-.73,5.27-1.46,7.9-2.19-3.66,9.08-7.9,17.94-10.05,27.57-7.13,1.42-14.16,3.18-21.01,5.65-.86.31-1.94,1.17-2.62.04-.32-.53,0-1.61.32-2.32,4.16-9.43,8.89-18.47,17.4-24.85,3.64.69,5.59-2.13,8.05-3.89Z"/>
    <path class="cls-6" d="m252.2,245.87c5.5-25.44,8.87-51.1,8.01-77.2,5.57-.63,6.42,2.95,6.6,7.28.4,9.26,0,18.42-1.26,27.64-1.24,9.14-2.19,18.29-4.38,27.27-.66,2.71-1.62,5.36-2.06,8.11-.66,4.08-2.46,6.74-6.91,6.9Z"/>
    <path class="cls-4" d="m99.17,306.27c-3.12-4.93-6.25-9.86-9.35-14.8-.77-1.22-1.19-2.73-2.79-3.23,6.33-9.57,14.41-17.66,22.04-26.13,1.58,2.85,1.31,6.13,1.88,9.18.41,2.18-.84,4.53-3.82,3.79-4.62-1.15-4.73,1.55-4.26,4.71.85,5.66-.19,11.39,2.06,17.09,1.75,4.42.3,8.8-5.76,9.39Z"/>
    <path class="cls-15" d="m599.3,250.91c-2.69,2.1-5.38,4.21-8.06,6.31-10.91,8.57-18.8,19.23-22.45,32.76-.78,2.9-1.99,4.97-5.45,4.2-2.18-.49-3.55-1.49-2.94-4.16,3.49-15.31,11.28-27.59,24.93-35.8,4.21-2.53,9-2.94,13.97-3.31Z"/>
    <path class="cls-10" d="m71.18,438.31c-.4,2.44,1.39,3.2,3.09,4.03.07,1.55,1.1,1.76,2.38,1.88,7.98.76,14.04,5.41,20.03,10.12.93.73,2.57,1.61,1.85,3.12-.69,1.43-2.41.82-3.62.73-13.4-1.05-25.84,2.6-38,7.67-1.18.49-2.71.53-2.73,2.35-1.76-.19-3.61.34-5.89-.94,6.44-5.97,14.03-8.82,21.99-10.99,5.05-1.38,10.21-.95,15.34-1.06,1.06-.02,2.66.63,3.05-.81.48-1.76-1.35-2.07-2.47-2.52-8.07-3.24-16.5-4.89-25.14-5.52-1.64-.12-3.3-.02-5.19-.66,4.29-4.16,9.67-6.02,15.31-7.38Z"/>
    <path class="cls-6" d="m663.97,22.25c-5.28,4.05-8.27,9.94-11.44,15.44-8.53,14.78-15.11,30.5-19.02,47.13-1.38,5.89-2.61,11.9-3.49,17.94-.18,1.23-.28,2.33-1.8,2.51-.34-13.46,3.73-26.09,7.41-38.77,4.61-15.89,11.58-30.63,21.85-43.69,3-3.81,6.39-7.3,10.8-9.48,2.05-1.02,4.57-2.82,6.03.94-4.46,1.36-7.61,4.41-10.34,8Z"/>
    <path class="cls-2" d="m485.41,291.15c6.49,6.69,13.48,12.7,22.16,16.46.65.28,1.01,1.23,1.51,1.87-1.11,1.22-2.16,2.48-3.33,3.64-7.63,7.52-7.61,7.46-16.36,2.06-1.56-.96-2.53-1.88-2.37-3.85.56-6.8-.48-13.5-1.61-20.17Z"/>
    <path class="cls-11" d="m38.41,213.49c-.08,2.29-.17,4.57-.25,6.86,0,.99,0,1.97,0,2.96-2.08.03-2.66,1.95-3.55,3.18-7.79,10.78-15.2,21.79-19.29,34.66-.77,2.42-.99,5.38-4.23,6.19-2.6-6.4-.16-12.59,2.53-17.79,5.69-10.99,11.5-22.05,19.71-31.52,1.49-1.72,2.63-3.87,5.07-4.53Z"/>
    <path class="cls-2" d="m639.62,193.71c1.77-1.74,3.35-3.81,6.27-3.45,4.34,12.6,10.16,24.48,17.19,35.79,1,1.61,1.97,3.19-.53,4.52-2.25,1.2-3.69.5-5.01-1.44-6.73-9.93-12.49-20.36-16.64-31.65-.46-1.24-.85-2.51-1.28-3.77Z"/>
    <path class="cls-2" d="m745.48,208.25c-7.17-.35-13.62-3.64-20.56-4.99-11.02-2.14-22.02-3.61-33.27-2.06-1.76.24-4.18.88-4.78-2.07,9.24-5.24,19.49-4.59,29.21-3.45,10.71,1.26,20.85,5.47,29.4,12.57Z"/>
    <path class="cls-2" d="m275.27,350.48c-1.55,1.2-.94,3.2-1.71,4.69-.79.73-1.58,1.46-2.37,2.2-3.29-10.36-6.05-20.92-11.81-30.32-1.02-1.66-.51-3.16.83-4.45,2.25-2.16,4.11-4.74,6.85-6.38,3.35,9.95,4.45,20.43,7.03,30.56.32,1.25.78,2.47,1.18,3.71Z"/>
    <path class="cls-7" d="m821.87,343.73c.51-3.62,4.07-3.18,6.36-4.26,2.05-.96,2.99.9,3.42,2.55,1.98,7.5,4.04,14.98,4.94,22.71.33,2.82-.85,2.59-2.88,1.71-6.09-2.66-10.64-6.11-10.01-13.84.23-2.83-1.14-5.79-1.83-8.88Z"/>
    <path class="cls-15" d="m621.75,244.64c6.48-6.86,13.72-12.11,21.43-16.62,3.51-2.05,3.44,2.38,4.86,3.93,1.13,1.24,2.48,2.77-.2,4.32-4.59,2.65-9.15,5.4-13.41,8.54-4.2,3.09-8.08,3.09-12.68-.16Z"/>
    <path class="cls-3" d="m663.97,22.25c2.74-3.59,5.88-6.64,10.34-8,1.23,10.03,2.46,20.05,3.69,30.08-4.11-1.07-5.8-4.06-5.97-7.98-.18-4.12-1.1-7.29-5.9-8.27-3.15-.65-1.84-3.72-2.16-5.83Z"/>
    <path class="cls-2" d="m778.18,216.24c-3.11.19-3.68-2.64-4.83-4.42-6.98-10.78-15.89-19.54-26.72-26.42-3.98-2.53-8.41-3.93-12.73-5.64-1.2-.47-2.27-.58-3.01.73-.93-.76-3.08-.96-2.38-2.49.69-1.5,2.72-.79,4.07-.51,17.93,3.84,31.78,13.53,41.18,29.32,1.77,2.97,2.96,6.27,4.42,9.42Z"/>
    <path class="cls-8" d="m489.06,361.28c-1.78,2.18-1.64,5.69-4.78,6.93.71-14.91,7.36-27.21,16.85-38.26,1.5,4.43-.23,8.11-2.32,11.94-3.47,6.34-6.52,12.91-9.74,19.39Z"/>
    <path class="cls-4" d="m614.8,280.87c3.89,3.95,4.66,9.39,6.47,14.26,1.31,3.52,2.26,7.1,4.73,10.03-5.62,0-9.75-2.68-12.27-7.51-2.97-5.7-2.68-11.4,1.07-16.77Z"/>
    <path class="cls-2" d="m797.92,206.27c-2.94-.48-2.83-3.28-3.88-5.17-2.57-4.64-3.15-10.39-7.76-13.89-.06-1.55-1.25-3.72.45-4.47,1.75-.77,2.67,1.51,3.6,2.74,2.69,3.56,4.9,7.42,7.01,11.36,1.7,3.18,2.06,6.19.57,9.43Z"/>
    <path class="cls-1" d="m483.44,340.75c.74-4.83.61-9.1,2.47-13.04.61-1.29-.08-4.05,2.39-3.02,1.85.77,4.85,2.36,3.52,5.16-1.85,3.91-3.55,8.19-8.39,10.9Z"/>
    <path class="cls-4" d="m671.99,525.28c-.56,4.16-3.71,5.61-9.71,4.97-5.01-.54-1.84-3.87-2.29-5.97,4.07-.52,7.92,1.67,12,1Z"/>
    <path class="cls-3" d="m815.75,186.04c.47.86,1.17,1.3,2.17,1.2-2.28,4.57-4.53,9.16-6.84,13.71-.72,1.41-1.05,3.26-3.18,3.35,1.45-6.59,4.64-12.43,7.85-18.26Z"/>
    <path class="cls-3" d="m658.13,71.33c2.69,2.92,2.7,12.02.02,14.99,0-5-.02-9.99-.02-14.99Z"/>
    <path class="cls-4" d="m409.15,271.43c-2.46,1.76-4.41,4.58-8.05,3.89,2.09-2.01,4.15-4.05,6.95-5.09.37.4.73.8,1.1,1.2Z"/>
    <path class="cls-3" d="m633.98,309.84c-.36,3.4-2.85,3.36-5.34,3.32,1.5-1.56,3.29-2.65,5.34-3.32Z"/>
    <path class="cls-6" d="m510.33,291.21c-2.27.13-4.28-.1-4.14-3.15,1.76.56,2.94,1.86,4.14,3.15Z"/>
    <path class="cls-3" d="m637.98,307.24c-.12,2.27-1.41,3.11-3.56,2.88.6-1.68,1.74-2.71,3.56-2.88Z"/>
    <path class="cls-6" d="m514,294.36c-2.26,1.33-1.71-.59-1.9-1.65.63.55,1.27,1.1,1.9,1.65Z"/>
    <path class="cls-7" d="m267.95,392.26c-.98-.43-.91-1.22-.71-2.06,1.15.37,2.34.73.71,2.06Z"/>
    <path class="cls-7" d="m826.15,370.66c-.02-.45-.04-.9-.06-1.34.67.01,1.43.14,1.38.93-.05.86-.67.94-1.32.42Z"/>
    <path class="cls-14" d="m168.04,268.38c-.63-.08-1.01-.34-.72-1.06.24.35.48.7.72,1.06Z"/>
    <path class="cls-15" d="m752.93,483.26c.34.33.67.65,1.01.98l.06-.05c-.59-.07-.98-.34-1-.99,0,0-.07.06-.07.06Z"/>
    <path class="cls-15" d="m753.94,484.23c.11.07.22.15.33.22-.09-.09-.18-.18-.27-.27,0,0-.06.05-.06.05Z"/>
    <path class="cls-3" d="m288.23,249.2c-.38-.19-.76-.38-1.14-.58.38.19.76.38,1.14.58Z"/>
    <path class="cls-4" d="m578.02,537.32c1.38,6.68-4.48,7.11-8.17,9.33-1.25.75-2.79.99-4.17,1.54-4.87,1.95-6.62,6.24-3.71,10.6,1.84,2.75,1.91,4.87.06,7.34-4.33-1.01-8.72-1.8-12.96-3.1-2.94-.91-6.49-2.04-6.7-5.78-.19-3.45,1.89-6.14,4.82-8.14,6.79-4.63,14.33-7.52,22.16-9.76,2.85-.81,5.77-1.36,8.66-2.03Z"/>
    <path class="cls-4" d="m600.02,533.28c.63,2.86,2.51,1.82,4.22,1.38,1.45-.37,2.87.12,3.23,1.43.45,1.66-1.4,2.54-2.42,2.46-4.23-.33-8.66-.26-12.09-3.46,2.22-1.14,4.57-1.74,7.06-1.81Z"/>
    <path class="cls-4" d="m626,578.12c1.09-2.11-2.77-3.52-.85-5.64.84-.92,5.24.04,8.83,1.83-3.31.76-4.09,2.36-1.98,4.74-2-.31-4-.62-5.99-.93Z"/>
    <path class="cls-4" d="m590.01,535.25c-1.16,4.88-2.08,5.12-7.13,1.88,2.15-1.47,4.55-2,7.13-1.88Z"/>
    <path class="cls-5" d="m202.9,391.05l.7-1.19c.11.11.34.28.32.33-.2.4-.44.78-.67,1.17,0,0-.36-.3-.36-.3Z"/>
    <path class="cls-5" d="m830.94,296.28c-5.43,6.09-11.4,11.61-17.67,16.81-1.49,1.24-2.89,2.8-5.08,2.9-2.65-8.78-3.77-17.77-4.22-26.93-1.36-27.75,3.83-54.38,14.06-79.98,12.51-31.3,30.53-58.75,58.21-78.96,3.23-2.36,6.61-4.5,10.37-5.95,1.54-.59,3.37-1.7,4.67-.44,1.49,1.45.51,3.41-.29,5.08-4.5,9.48-8.58,19.13-12.03,29.05-4.43,12.75-7.84,25.79-11.05,38.89-5.84,23.79-10.76,47.84-21.11,70.29-4.58,9.95-9.65,19.63-15.04,29.16,0,0,.13-.01.13-.01-.32.03-.65.06-.97.09Zm-17.32-45.99c-4.51,18.54-3.36,37.12-1.02,57.23,3.33-4,5.7-6.73,7.94-9.56,12.48-15.82,21.43-33.49,27.29-52.74,6.6-18.68,10.16-38.15,14.79-57.33,3.33-13.81,7.54-27.28,12.37-40.6,1.02-2.81,3.11-5.42,2.71-8.89-2.85.81-4.77,2.67-6.77,4.35-9.64,8.03-17.59,17.59-24.7,27.85-16.72,24.15-27.98,50.58-32.62,79.7Z"/>
    <path class="cls-5" d="m686.17,390.73c-18.62-12.16-24.73-29.1-19.29-50.47.1-.51.2-1.01.3-1.52,1.02-.96.73-2.26.91-3.44,3.87,1.73,6.11-.26,8.46-3.15,2.21-2.73,4.55-5.74,9.57-6-3.6,4.34-6.69,8.08-8.56,12.86-6.54,16.75,6.22,35.18,19.47,39.51,10.24,3.35,20.3,3.74,30.64.91,1.23-.34,3.06-1.91,4-.25,1,1.77-.94,3.01-2.15,4.03-6.55,5.54-14.79,5.86-22.91,7.46,4.22,2.58,8.78,4.21,13.28,6.22-8.79.53-17.51.89-25.92-2.46-1.95-.85-3.91-1.7-5.86-2.56-.65-.38-1.3-.76-1.94-1.14Z"/>
    <path class="cls-5" d="m746.09,366.22c-.48-9.8,1.16-19.69-.96-29.4-2-9.18-6.1-17.18-14.12-22.68-4.64-3.02-9.29-6.04-13.93-9.05-.43-1.28-.86-2.56-1.29-3.84,1.39-4.77,7.23-7.94,13.51-6.92,9.09,1.47,16.32,5.95,21.49,13.75,5.1,7.68,7.9,16.43,8.81,25.2,1.04,10.05-.92,20.21-6.85,28.99-1.54,2.28-3.04,5.02-6.66,3.95Z"/>
    <path class="cls-3" d="m688.12,391.87c1.95.85,3.91,1.7,5.86,2.56.07,2.32-.79,4.29-3.35,3.63-3.11-.81-2.63-3.71-2.51-6.18Z"/>
    <path class="cls-3" d="m668.09,335.3c-.18,1.18.11,2.48-.91,3.44-.24-1.29-2.31-3.06.91-3.44Z"/>
    <path class="cls-5" d="m593.19,389.77c-8.24,1.62-16.28,4.81-24.98,2.54-6.57-1.72-6.71-2.24-3.58-7.97,5.12-9.38,12.94-13.47,23.41-13.12,1.98.07,3.97-.18,5.96-.29.31.14.62.27.93.41.4,1.08,1.24.92,2.09.75,3.97,1.41,5.34,4.12,5.05,8.37-.4,5.82-4.9,7.2-8.88,9.31Z"/>
    <path class="cls-5" d="m594.02,363.41c-3.61-1.63-7.44-1.23-11.2-1.02-3.76.21-7.32,1.95-11.69,1.79,3.5-4.19,8.08-6.16,12.6-6.61,7.6-.75,15.27-1.03,22.63,2.7,14.13,7.17,13.04,28.35,2.68,34.91-6.27,3.97-11.37,6.34-17.88,6.72.86-3.29,4.64-3.23,6.08-5.59,6.29-1.31,10.12-5.7,11.99-11.25,4.62-13.72-6.35-23.21-15.22-21.65Z"/>
    <path class="cls-5" d="m527.09,326.38c-.51,7.77-3.89,14.15-8.89,19.85-2.77,3.15-4.72,2.96-6.55-.61-4.9-9.55,1.97-22.47,7.59-26.9,4.03-3.18,6.22-1.87,6.84,3.43.17,1.43.67,2.83,1.01,4.24Z"/>
    <path class="cls-6" d="m594.02,363.41c8.87-1.56,19.84,7.94,15.22,21.65-1.87,5.55-5.7,9.94-11.99,11.25-3.86-.62-4.49-3.25-4.06-6.54,3.98-2.11,8.48-3.49,8.88-9.31.29-4.25-1.08-6.96-5.05-8.37-.26-1.47-.74-2.33-2.09-.75-.31-.14-.62-.27-.93-.41-.58-2.51-.49-5.02.02-7.52Z"/>
    <path class="cls-5" d="m628.04,269.17c.42-3.63,3.23-5.69,5.57-7.88,5.88-5.5,12.3-10.22,20.38-12.06,4-.04,7.99-.08,11.99-.13,9.96,2.98,11.11,4.5,11.09,12.55,0,3.14-1.98,4.7-3.62,6.68-3.19,2.12-5.52,2.55-7.78-1.74-2.75-5.22-10.75-6.97-18.35-4.91-.79.21-1.55.52-2.32.78-4.54.74-8.69,2.35-12.15,5.47-1.6.41-3.21.83-4.81,1.24Z"/>
    <path class="cls-4" d="m717.08,305.09c4.64,3.02,9.29,6.04,13.93,9.05-.01,1.99-.04,3.98-.03,5.97.01,5.94,1.61,7.99,7.44,9.12,1.76.34,3.5.56,3.33,2.76-.15,1.99-1.26,3.4-3.57,3.28-4.15-.22-8.22.63-12.32.91-10.71.72-11.52-4.2-11.58-12.78-.04-4.98,1.94-9.95.89-15.05-.35-1.7,1.4-2.09,1.91-3.25Z"/>
    <path class="cls-4" d="m632.85,267.93c3.46-3.13,7.61-4.73,12.15-5.47.42,2.4,2.54,5.4-1.13,6.75-3.7,1.36-7.8,2.96-11.02-1.27Z"/>
    <path class="cls-4" d="m710.14,347.86c-.92,1.49,1.21,4.78-1.62,4.62-2.34-.13-2.59-3.4-2.53-5.76.05-1.93-.07-4.98,2.14-4.73,3.19.36,1.23,3.79,2,5.88Z"/>
    <path class="cls-4" d="m693.83,322.85c.95-.06.97.68,1.05,1.3.08.66-.03,1.4-.77,1.55-.94.2-.97-.65-1.04-1.26-.08-.65.05-1.27.76-1.59Z"/>
    <path class="cls-4" d="m686,221.34c6.79-4.5,14.49-4.11,22.08-3.9,7.63.21,15.16,1.36,22.41,3.92,1.37.48,2.76.92,3.8,2.19-8.78,3.26-17.05.42-25.44-.8-7.51-1.1-15.08-2.51-22.7-.64-.06-.26-.11-.51-.14-.78Z"/>
    <path class="cls-2" d="m736.47,232.04c-11.31,6.64-21.45,14.56-28.36,26.7-1.9-10.72,13.89-25.33,28.36-26.7Z"/>
    <path class="cls-2" d="m706.34,259.99c.11.01.27-.02.31.04.07.09.06.25.09.37-.18-.02-.36-.03-.54-.05.05-.12.09-.24.14-.36Z"/>
    <path class="cls-2" d="m686,221.34c.04.26.08.52.14.78-.22-.09-.45-.19-.68-.28.18-.17.36-.33.53-.5Z"/>
    <path class="cls-7" d="m183.12,112.29c.08-.14.17-.27.25-.41-.07.15-.14.3-.2.46,0,0-.05-.05-.05-.05Z"/>
    <path class="cls-4" d="m830.94,296.28c.32-.03.65-.06.97-.09-.25.84-.58.79-.97.09Z"/>
    <path class="cls-9" d="m788.94,454.38c.04-17.25,13.66-36.58,29.92-42.24,6.02-2.1,12.44-2.2,18.38-.5,7.96,2.28,12.19,8.22,12.81,18.75,1.04,17.53-12.64,38.71-28.69,45.53-17.63,7.49-32.28-3.44-32.42-21.54Z"/>
    <path class="cls-1" d="m452.04,363.24c-.04.12-.07.25-.14.34-.04.05-.17.05-.25.07.14-.12.29-.24.43-.37,0,0-.04-.04-.04-.04Z"/>
    <path class="cls-5" d="m609.94,487.17c.29-.72,1.12-1.1,1.44-.59.48.75-.56.72-1.01.97-.15-.13-.29-.25-.42-.38Z"/>
    <path class="cls-5" d="m609.09,488.29c-.64-1.08.3-.95.85-1.12.14.13.28.25.42.38-.46.23-.91.45-1.37.67,0,0,.1.07.1.07Z"/>
    <path class="cls-3" d="m665.99,249.11c-4,.04-7.99.08-11.99.13,2.66-2.73,9.08-2.8,11.99-.13Z"/>
    <path class="cls-5" d="m472.33,273.77c-.03-.39-.06-.79-.08-1.18.36.13.73.27,1.09.4-.34.26-.67.52-1.01.78Z"/>
    <path class="cls-7" d="m118.17,426.24c-.14-.08-.27-.16-.41-.24.13.08.26.17.39.25,0,0,.02-.02.02-.02Z"/>
    <path class="cls-13" d="m813.62,250.29c4.64-29.12,15.9-55.54,32.62-79.7,7.1-10.26,15.06-19.82,24.7-27.85,2-1.67,3.92-3.54,6.77-4.35.4,3.48-1.69,6.09-2.71,8.89-4.84,13.33-9.04,26.8-12.37,40.6-4.63,19.18-8.19,38.65-14.79,57.33-1.12-6.3-2.14-12.63-3.44-18.9-.25-1.22.28-3.58-1.82-3.53-1.63.04-2.09,2.06-2.46,3.44-1.49,5.6-2.97,11.22-4.15,16.89-1.14,5.44-2.27,10.86-4.52,16.05-.42-1.95-.48-3.84-.41-5.74.16-4.35-.12-8.65-1.89-12.69-.49-1.12-.69-3.09-2.24-2.85-1.63.25-1.97,2.12-1.93,3.61.12,4.34-.19,8.63-1.09,12.87-1.24,5.78-1.3,11.85-4.1,18.06-.44-1.31-.67-1.76-.73-2.23-.79-6.07-1.48-12.16-2.39-18.21-.21-1.39-.35-4.16-3.03-1.69Z"/>
    <path class="cls-1" d="m813.62,250.29c2.68-2.46,2.82.3,3.03,1.69.91,6.05,1.6,12.14,2.39,18.21.06.47.29.92.73,2.23,2.8-6.21,2.86-12.28,4.1-18.06.91-4.24,1.21-8.53,1.09-12.87-.04-1.49.3-3.36,1.93-3.61,1.55-.24,1.75,1.73,2.24,2.85,1.77,4.04,2.05,8.34,1.89,12.69-.07,1.89-.01,3.79.41,5.74,2.24-5.19,3.38-10.6,4.52-16.05,1.19-5.67,2.66-11.29,4.15-16.89.37-1.38.84-3.4,2.46-3.44,2.11-.05,1.57,2.31,1.82,3.53,1.3,6.27,2.32,12.59,3.44,18.9-5.87,19.25-14.81,36.92-27.29,52.74-2.23,2.83-4.6,5.55-7.94,9.56-2.35-20.11-3.49-38.68,1.02-57.23Z"/>
    <path class="cls-13" d="m594.92,371.34c1.35-1.59,1.83-.72,2.09.75-.85.17-1.69.33-2.09-.75Z"/>
  </g>
</svg>